<?xml version="1.0" encoding="utf-8"?>
<!-- Generator: Adobe Illustrator 18.1.1, SVG Export Plug-In . SVG Version: 6.00 Build 0)  -->
<svg version="1.1" id="Layer_1" xmlns="http://www.w3.org/2000/svg" xmlns:xlink="http://www.w3.org/1999/xlink" x="0px" y="0px"
	 viewBox="0 0 560 400" enable-background="new 0 0 560 400" xml:space="preserve">
<g>
	<defs>
		<rect id="SVGID_1_" x="-78.4" y="-2.3" width="648.4" height="402.3"/>
	</defs>
	<clipPath id="SVGID_2_">
		<use xlink:href="#SVGID_1_"  overflow="visible"/>
	</clipPath>
	<g clip-path="url(#SVGID_2_)">
		<g>
			<path fill-rule="evenodd" clip-rule="evenodd" fill="#808080" d="M19.2,55.7c0-5.9,4.8-10.6,10.6-10.6h236.7
				c5.9,0,10.6,4.7,10.6,10.6v348c0,5.9-4.8,10.6-10.6,10.6H29.9c-5.9,0-10.6-4.7-10.6-10.6V55.7z"/>
			<path fill-rule="evenodd" clip-rule="evenodd" fill="#A6A6A6" d="M19.2,41.4c0-5.9,4.8-10.6,10.6-10.6h236.7
				c5.9,0,10.6,4.7,10.6,10.6v348c0,5.9-4.8,10.6-10.6,10.6H29.9c-5.9,0-10.6-4.7-10.6-10.6V41.4z"/>
			<g>
				<path fill-rule="evenodd" clip-rule="evenodd" fill="#333333" d="M91.6,209.8H41.2c-3.2,0-5.9-2.7-5.9-5.9v-24.5
					c0-3.2,2.7-5.9,5.9-5.9h50.4c3.2,0,5.9,2.7,5.9,5.9v24.5C97.5,207.2,94.8,209.8,91.6,209.8z"/>
				<path fill-rule="evenodd" clip-rule="evenodd" fill="#333333" d="M173.4,209.8H123c-3.2,0-5.9-2.7-5.9-5.9v-24.5
					c0-3.2,2.7-5.9,5.9-5.9h50.4c3.2,0,5.9,2.7,5.9,5.9v24.5C179.3,207.2,176.6,209.8,173.4,209.8z"/>
				<path fill-rule="evenodd" clip-rule="evenodd" fill="#C45B2C" d="M255.2,209.8h-50.4c-3.2,0-5.9-2.7-5.9-5.9v-24.5
					c0-3.2,2.7-5.9,5.9-5.9h50.4c3.2,0,5.9,2.7,5.9,5.9v24.5C261.1,207.2,258.5,209.8,255.2,209.8z"/>
				<path fill-rule="evenodd" clip-rule="evenodd" fill="#333333" d="M91.6,265.8H41.2c-3.2,0-5.9-2.7-5.9-5.9v-24.5
					c0-3.2,2.7-5.9,5.9-5.9h50.4c3.2,0,5.9,2.7,5.9,5.9v24.5C97.5,263.2,94.8,265.8,91.6,265.8z"/>
				<path fill-rule="evenodd" clip-rule="evenodd" fill="#333333" d="M173.4,265.8H123c-3.2,0-5.9-2.7-5.9-5.9v-24.5
					c0-3.2,2.7-5.9,5.9-5.9h50.4c3.2,0,5.9,2.7,5.9,5.9v24.5C179.3,263.2,176.6,265.8,173.4,265.8z"/>
				<path fill-rule="evenodd" clip-rule="evenodd" fill="#333333" d="M255.2,265.8h-50.4c-3.2,0-5.9-2.7-5.9-5.9v-24.5
					c0-3.2,2.7-5.9,5.9-5.9h50.4c3.2,0,5.9,2.7,5.9,5.9v24.5C261.1,263.2,258.5,265.8,255.2,265.8z"/>
				<path fill-rule="evenodd" clip-rule="evenodd" fill="#333333" d="M91.6,321.8H41.2c-3.2,0-5.9-2.7-5.9-5.9v-24.5
					c0-3.2,2.7-5.9,5.9-5.9h50.4c3.2,0,5.9,2.7,5.9,5.9v24.5C97.5,319.2,94.8,321.8,91.6,321.8z"/>
				<path fill-rule="evenodd" clip-rule="evenodd" fill="#333333" d="M173.4,321.8H123c-3.2,0-5.9-2.7-5.9-5.9v-24.5
					c0-3.2,2.7-5.9,5.9-5.9h50.4c3.2,0,5.9,2.7,5.9,5.9v24.5C179.3,319.2,176.6,321.8,173.4,321.8z"/>
				<path fill-rule="evenodd" clip-rule="evenodd" fill="#333333" d="M91.6,377.8H41.2c-3.2,0-5.9-2.7-5.9-5.9v-24.5
					c0-3.2,2.7-5.9,5.9-5.9h50.4c3.2,0,5.9,2.7,5.9,5.9v24.5C97.5,375.1,94.8,377.8,91.6,377.8z"/>
				<path fill-rule="evenodd" clip-rule="evenodd" fill="#333333" d="M173.4,377.8H123c-3.2,0-5.9-2.7-5.9-5.9v-24.5
					c0-3.2,2.7-5.9,5.9-5.9h50.4c3.2,0,5.9,2.7,5.9,5.9v24.5C179.3,375.1,176.6,377.8,173.4,377.8z"/>
				<path fill-rule="evenodd" clip-rule="evenodd" fill="#333333" d="M255.2,377.8h-50.4c-3.2,0-5.9-2.7-5.9-5.9v-79.6
					c0-3.2,2.7-5.9,5.9-5.9h50.4c3.2,0,5.9,2.7,5.9,5.9v79.6C261.1,375.1,258.5,377.8,255.2,377.8z"/>
			</g>
			<rect x="35.4" y="93.9" fill-rule="evenodd" clip-rule="evenodd" fill="#FFFFFF" width="224.7" height="58"/>
			<rect x="35.4" y="90.3" fill-rule="evenodd" clip-rule="evenodd" fill="#B3B3B3" width="224.7" height="7.4"/>
			<g>
				<path fill-rule="evenodd" clip-rule="evenodd" fill="#4D4D4D" d="M91.6,205.1H41.2c-3.2,0-5.9-2.7-5.9-5.9v-24.5
					c0-3.2,2.7-5.9,5.9-5.9h50.4c3.2,0,5.9,2.7,5.9,5.9v24.5C97.5,202.4,94.8,205.1,91.6,205.1z"/>
				<path fill-rule="evenodd" clip-rule="evenodd" fill="#4D4D4D" d="M173.4,205.1H123c-3.2,0-5.9-2.7-5.9-5.9v-24.5
					c0-3.2,2.7-5.9,5.9-5.9h50.4c3.2,0,5.9,2.7,5.9,5.9v24.5C179.3,202.4,176.6,205.1,173.4,205.1z"/>
				<path fill-rule="evenodd" clip-rule="evenodd" fill="#FC8442" d="M255.2,205.1h-50.4c-3.2,0-5.9-2.7-5.9-5.9v-24.5
					c0-3.2,2.7-5.9,5.9-5.9h50.4c3.2,0,5.9,2.7,5.9,5.9v24.5C261.1,202.4,258.5,205.1,255.2,205.1z"/>
				<path fill-rule="evenodd" clip-rule="evenodd" fill="#4D4D4D" d="M91.6,261.1H41.2c-3.2,0-5.9-2.7-5.9-5.9v-24.5
					c0-3.2,2.7-5.9,5.9-5.9h50.4c3.2,0,5.9,2.7,5.9,5.9v24.5C97.5,258.4,94.8,261.1,91.6,261.1z"/>
				<path fill-rule="evenodd" clip-rule="evenodd" fill="#4D4D4D" d="M173.4,261.1H123c-3.2,0-5.9-2.7-5.9-5.9v-24.5
					c0-3.2,2.7-5.9,5.9-5.9h50.4c3.2,0,5.9,2.7,5.9,5.9v24.5C179.3,258.4,176.6,261.1,173.4,261.1z"/>
				<path fill-rule="evenodd" clip-rule="evenodd" fill="#4D4D4D" d="M255.2,261.1h-50.4c-3.2,0-5.9-2.7-5.9-5.9v-24.5
					c0-3.2,2.7-5.9,5.9-5.9h50.4c3.2,0,5.9,2.7,5.9,5.9v24.5C261.1,258.4,258.5,261.1,255.2,261.1z"/>
				<path fill-rule="evenodd" clip-rule="evenodd" fill="#4D4D4D" d="M91.6,317H41.2c-3.2,0-5.9-2.7-5.9-5.9v-24.5
					c0-3.2,2.7-5.9,5.9-5.9h50.4c3.2,0,5.9,2.7,5.9,5.9v24.5C97.5,314.4,94.8,317,91.6,317z"/>
				<path fill-rule="evenodd" clip-rule="evenodd" fill="#4D4D4D" d="M173.4,317H123c-3.2,0-5.9-2.7-5.9-5.9v-24.5
					c0-3.2,2.7-5.9,5.9-5.9h50.4c3.2,0,5.9,2.7,5.9,5.9v24.5C179.3,314.4,176.6,317,173.4,317z"/>
				<path fill-rule="evenodd" clip-rule="evenodd" fill="#4D4D4D" d="M91.6,373H41.2c-3.2,0-5.9-2.7-5.9-5.9v-24.5
					c0-3.2,2.7-5.9,5.9-5.9h50.4c3.2,0,5.9,2.7,5.9,5.9v24.5C97.5,370.4,94.8,373,91.6,373z"/>
				<path fill-rule="evenodd" clip-rule="evenodd" fill="#4D4D4D" d="M173.4,373H123c-3.2,0-5.9-2.7-5.9-5.9v-24.5
					c0-3.2,2.7-5.9,5.9-5.9h50.4c3.2,0,5.9,2.7,5.9,5.9v24.5C179.3,370.4,176.6,373,173.4,373z"/>
				<path fill-rule="evenodd" clip-rule="evenodd" fill="#4D4D4D" d="M255.2,373h-50.4c-3.2,0-5.9-2.7-5.9-5.9v-79.6
					c0-3.2,2.7-5.9,5.9-5.9h50.4c3.2,0,5.9,2.7,5.9,5.9v79.6C261.1,370.4,258.5,373,255.2,373z"/>
			</g>
			<text transform="matrix(1.0869 0 0 1 46.8331 137.0928)" font-family="'Roboto-Regular'" font-size="39.4151">£</text>
			<rect x="83.1" y="103.5" fill-rule="evenodd" clip-rule="evenodd" fill="#AC29B5" width="21.5" height="38.9"/>
		</g>
		<g opacity="5.000000e-02">
			<path d="M296.4,453.9l24.8,24.8l3.9-3.9l-20.7-20.7C302.2,451.8,298.6,451.7,296.4,453.9z"/>
			<path d="M241,310.9c-6.4,6.4-6.1,17.1,0.7,23.9l11.6,11.6l23.2-23.2l-11.6-11.6C258.1,304.8,247.4,304.5,241,310.9z"/>
			<path d="M547.4,388.4l-89.3-89.3c-0.1-0.1-0.2-0.2-0.4-0.3c-0.1-0.1-0.2-0.3-0.4-0.4c-7.8-7.8-20-8.2-27.4-0.8
				c-4.6,4.6-6.2,11.1-4.8,17.3l-5.9,4.1c-9.4-8.1-23.1-8.1-31.5,0.3c-6.6,6.6-8,16.5-4.4,25l-4.7,3.3c0,0,0,0,0,0
				c-9.4-9.4-24.1-9.8-32.9-1c-7,7-8.2,17.9-3.6,26.7l-4.1,2.9c-36.8-36.8-68.8-68.8-68.8-68.8c-9.4-9.4-24.1-9.8-32.9-1
				c-8.8,8.8-8.4,23.5,1,32.9c0,0,98.5,98.5,148.4,148.4l-5.2,0.2l-33.5-33.5c-16.6-16.6-38-15.6-52.8-2.4l84.5,84.5l0.7-0.1
				c11.5,8.8,40.4,25.4,68-2.2c35.6-35.6,101.2-101.2,101.2-101.2C560.6,421,560,401,547.4,388.4z M253.3,346.4l-11.6-11.6
				c-6.8-6.8-7.1-17.5-0.7-23.9c6.4-6.4,17.1-6.1,23.9,0.7l11.6,11.6L253.3,346.4z M321.2,478.7l-24.8-24.8c2.2-2.2,5.8-2.1,8.1,0.2
				l20.7,20.7L321.2,478.7z"/>
		</g>
		<g>
			<path fill="#E0B487" d="M373.6,532.9l1.5-34.3l-46-46c-16.6-16.6-38-15.6-52.8-2.4l84.5,84.5L373.6,532.9z"/>
			<path fill="#EFC6A0" d="M303.2,477.1l-24.8-24.8c2.2-2.2,5.8-2.1,8.1,0.2l20.7,20.7L303.2,477.1z"/>
			<path fill="#E0B487" d="M218.3,304.6c-8.8,8.8-8.4,23.5,1,32.9c0,0,176.6,176.6,176.6,176.6c9.4,9.3,16.6,2.3,25.4-6.5
				c8.8-8.8,15.8-16.1,6.5-25.4c0,0-176.6-176.6-176.6-176.6C241.9,296.2,227.2,295.7,218.3,304.6z"/>
			<path fill="#E0B487" d="M327.8,344.8c-8.8,8.8-8.4,23.5,1,32.9c9.4,9.4,24.1,9.8,32.9,1c8.8-8.8,8.4-23.5-1-32.9
				C351.3,336.4,336.6,335.9,327.8,344.8z"/>
			<path fill="#E0B487" d="M369.8,317.5c-8.8,8.8-8.4,23.6,1,32.9c9.4,9.4,24.1,9.8,32.9,1c8.8-8.8,8.4-23.5-1-32.9
				C393.3,309.1,378.6,308.7,369.8,317.5z"/>
			<path fill="#E0B487" d="M411.9,295.8c-7.3,7.3-7,19.6,0.8,27.4c7.8,7.8,20.1,8.2,27.4,0.8c7.3-7.3,7-19.6-0.8-27.4
				C431.5,288.8,419.3,288.5,411.9,295.8z"/>
			<path fill="#EFC6A0" d="M223,309.2c-6.4,6.4-6.1,17.1,0.7,23.9l11.6,11.6l23.2-23.2l-11.6-11.6
				C240.1,303.1,229.4,302.8,223,309.2z"/>
			<path fill="#E0B487" d="M530.7,431.2c0,0-65.6,65.6-101.2,101.2s-73.2-2.2-73.2-2.2l-42.3-42.3l57.7-2.2l-84.1-88.6l122.6-86.3
				c11.9-11.9,17.1-26.1,29.7-13.5l89.3,89.3C542,399.3,542.6,419.3,530.7,431.2z"/>
		</g>
	</g>
</g>
</svg>
