<?xml version="1.0" encoding="utf-8"?>
<!-- Generator: Adobe Illustrator 18.1.1, SVG Export Plug-In . SVG Version: 6.00 Build 0)  -->
<svg version="1.1" id="Layer_1" xmlns="http://www.w3.org/2000/svg" xmlns:xlink="http://www.w3.org/1999/xlink" x="0px" y="0px"
	 viewBox="0 0 200 200" enable-background="new 0 0 200 200" xml:space="preserve">
<g>
	<g>
		<circle fill-rule="evenodd" clip-rule="evenodd" fill="#C6F9DD" cx="99.8" cy="101" r="91.4"/>
		<circle fill-rule="evenodd" clip-rule="evenodd" fill="none" cx="99.8" cy="100.2" r="91.4"/>
		<circle fill-rule="evenodd" clip-rule="evenodd" fill="none" cx="99.8" cy="100.2" r="91.4"/>
		<g>
			<defs>
				<circle id="SVGID_1_" cx="99.8" cy="100.2" r="91.4"/>
			</defs>
			<clipPath id="SVGID_2_">
				<use xlink:href="#SVGID_1_"  overflow="visible"/>
			</clipPath>
			<g clip-path="url(#SVGID_2_)">
				<rect x="-0.6" y="60.9" fill-rule="evenodd" clip-rule="evenodd" fill="#CCCCCC" width="169.5" height="140.1"/>
				<rect x="-5.5" y="56" fill-rule="evenodd" clip-rule="evenodd" fill="#FFFFFF" width="169.5" height="140.1"/>
			</g>
		</g>
	</g>
	<g>
		<path fill-rule="evenodd" clip-rule="evenodd" fill="#808080" d="M54.4,23.3c0-2,1.6-3.7,3.7-3.7h81.7c2,0,3.7,1.6,3.7,3.7v120
			c0,2-1.6,3.7-3.7,3.7H58.1c-2,0-3.7-1.6-3.7-3.7V23.3z"/>
		<path fill-rule="evenodd" clip-rule="evenodd" fill="#A6A6A6" d="M54.4,18.4c0-2,1.6-3.7,3.7-3.7h81.7c2,0,3.7,1.6,3.7,3.7v120
			c0,2-1.6,3.7-3.7,3.7H58.1c-2,0-3.7-1.6-3.7-3.7V18.4z"/>
		<g>
			<path fill-rule="evenodd" clip-rule="evenodd" fill="#333333" d="M79.4,76.5H62c-1.1,0-2-0.9-2-2V66c0-1.1,0.9-2,2-2h17.4
				c1.1,0,2,0.9,2,2v8.5C81.4,75.6,80.5,76.5,79.4,76.5z"/>
			<path fill-rule="evenodd" clip-rule="evenodd" fill="#333333" d="M107.6,76.5H90.3c-1.1,0-2-0.9-2-2V66c0-1.1,0.9-2,2-2h17.4
				c1.1,0,2,0.9,2,2v8.5C109.7,75.6,108.8,76.5,107.6,76.5z"/>
			<path fill-rule="evenodd" clip-rule="evenodd" fill="#C45B2C" d="M135.9,76.5h-17.4c-1.1,0-2-0.9-2-2V66c0-1.1,0.9-2,2-2h17.4
				c1.1,0,2,0.9,2,2v8.5C137.9,75.6,137,76.5,135.9,76.5z"/>
			<path fill-rule="evenodd" clip-rule="evenodd" fill="#333333" d="M79.4,95.8H62c-1.1,0-2-0.9-2-2v-8.5c0-1.1,0.9-2,2-2h17.4
				c1.1,0,2,0.9,2,2v8.5C81.4,94.9,80.5,95.8,79.4,95.8z"/>
			<path fill-rule="evenodd" clip-rule="evenodd" fill="#333333" d="M107.6,95.8H90.3c-1.1,0-2-0.9-2-2v-8.5c0-1.1,0.9-2,2-2h17.4
				c1.1,0,2,0.9,2,2v8.5C109.7,94.9,108.8,95.8,107.6,95.8z"/>
			<path fill-rule="evenodd" clip-rule="evenodd" fill="#333333" d="M135.9,95.8h-17.4c-1.1,0-2-0.9-2-2v-8.5c0-1.1,0.9-2,2-2h17.4
				c1.1,0,2,0.9,2,2v8.5C137.9,94.9,137,95.8,135.9,95.8z"/>
			<path fill-rule="evenodd" clip-rule="evenodd" fill="#333333" d="M79.4,115.2H62c-1.1,0-2-0.9-2-2v-8.5c0-1.1,0.9-2,2-2h17.4
				c1.1,0,2,0.9,2,2v8.5C81.4,114.2,80.5,115.2,79.4,115.2z"/>
			<path fill-rule="evenodd" clip-rule="evenodd" fill="#333333" d="M107.6,115.2H90.3c-1.1,0-2-0.9-2-2v-8.5c0-1.1,0.9-2,2-2h17.4
				c1.1,0,2,0.9,2,2v8.5C109.7,114.2,108.8,115.2,107.6,115.2z"/>
			<path fill-rule="evenodd" clip-rule="evenodd" fill="#333333" d="M79.4,134.5H62c-1.1,0-2-0.9-2-2V124c0-1.1,0.9-2,2-2h17.4
				c1.1,0,2,0.9,2,2v8.5C81.4,133.5,80.5,134.5,79.4,134.5z"/>
			<path fill-rule="evenodd" clip-rule="evenodd" fill="#333333" d="M107.6,134.5H90.3c-1.1,0-2-0.9-2-2V124c0-1.1,0.9-2,2-2h17.4
				c1.1,0,2,0.9,2,2v8.5C109.7,133.5,108.8,134.5,107.6,134.5z"/>
			<path fill-rule="evenodd" clip-rule="evenodd" fill="#333333" d="M135.9,134.5h-17.4c-1.1,0-2-0.9-2-2V105c0-1.1,0.9-2,2-2h17.4
				c1.1,0,2,0.9,2,2v27.4C137.9,133.5,137,134.5,135.9,134.5z"/>
		</g>
		<rect x="60" y="36.5" fill-rule="evenodd" clip-rule="evenodd" fill="#FFFFFF" width="77.5" height="20"/>
		<rect x="60" y="35.3" fill-rule="evenodd" clip-rule="evenodd" fill="#B3B3B3" width="77.5" height="2.5"/>
		<g>
			<path fill-rule="evenodd" clip-rule="evenodd" fill="#4D4D4D" d="M79.4,74.9H62c-1.1,0-2-0.9-2-2v-8.5c0-1.1,0.9-2,2-2h17.4
				c1.1,0,2,0.9,2,2v8.5C81.4,74,80.5,74.9,79.4,74.9z"/>
			<path fill-rule="evenodd" clip-rule="evenodd" fill="#4D4D4D" d="M107.6,74.9H90.3c-1.1,0-2-0.9-2-2v-8.5c0-1.1,0.9-2,2-2h17.4
				c1.1,0,2,0.9,2,2v8.5C109.7,74,108.8,74.9,107.6,74.9z"/>
			<path fill-rule="evenodd" clip-rule="evenodd" fill="#FC8442" d="M135.9,74.9h-17.4c-1.1,0-2-0.9-2-2v-8.5c0-1.1,0.9-2,2-2h17.4
				c1.1,0,2,0.9,2,2v8.5C137.9,74,137,74.9,135.9,74.9z"/>
			<path fill-rule="evenodd" clip-rule="evenodd" fill="#4D4D4D" d="M79.4,94.2H62c-1.1,0-2-0.9-2-2v-8.5c0-1.1,0.9-2,2-2h17.4
				c1.1,0,2,0.9,2,2v8.5C81.4,93.3,80.5,94.2,79.4,94.2z"/>
			<path fill-rule="evenodd" clip-rule="evenodd" fill="#4D4D4D" d="M107.6,94.2H90.3c-1.1,0-2-0.9-2-2v-8.5c0-1.1,0.9-2,2-2h17.4
				c1.1,0,2,0.9,2,2v8.5C109.7,93.3,108.8,94.2,107.6,94.2z"/>
			<path fill-rule="evenodd" clip-rule="evenodd" fill="#4D4D4D" d="M135.9,94.2h-17.4c-1.1,0-2-0.9-2-2v-8.5c0-1.1,0.9-2,2-2h17.4
				c1.1,0,2,0.9,2,2v8.5C137.9,93.3,137,94.2,135.9,94.2z"/>
			<path fill-rule="evenodd" clip-rule="evenodd" fill="#4D4D4D" d="M79.4,113.5H62c-1.1,0-2-0.9-2-2V103c0-1.1,0.9-2,2-2h17.4
				c1.1,0,2,0.9,2,2v8.5C81.4,112.6,80.5,113.5,79.4,113.5z"/>
			<path fill-rule="evenodd" clip-rule="evenodd" fill="#4D4D4D" d="M107.6,113.5H90.3c-1.1,0-2-0.9-2-2V103c0-1.1,0.9-2,2-2h17.4
				c1.1,0,2,0.9,2,2v8.5C109.7,112.6,108.8,113.5,107.6,113.5z"/>
			<path fill-rule="evenodd" clip-rule="evenodd" fill="#4D4D4D" d="M79.4,132.8H62c-1.1,0-2-0.9-2-2v-8.5c0-1.1,0.9-2,2-2h17.4
				c1.1,0,2,0.9,2,2v8.5C81.4,131.9,80.5,132.8,79.4,132.8z"/>
			<path fill-rule="evenodd" clip-rule="evenodd" fill="#4D4D4D" d="M107.6,132.8H90.3c-1.1,0-2-0.9-2-2v-8.5c0-1.1,0.9-2,2-2h17.4
				c1.1,0,2,0.9,2,2v8.5C109.7,131.9,108.8,132.8,107.6,132.8z"/>
			<path fill-rule="evenodd" clip-rule="evenodd" fill="#4D4D4D" d="M135.9,132.8h-17.4c-1.1,0-2-0.9-2-2v-27.4c0-1.1,0.9-2,2-2
				h17.4c1.1,0,2,0.9,2,2v27.4C137.9,131.9,137,132.8,135.9,132.8z"/>
		</g>
		<text transform="matrix(1.0869 0 0 1 63.9693 51.4299)" font-family="'Roboto-Regular'" font-size="13.5972">£</text>
		<rect x="76.5" y="39.8" fill-rule="evenodd" clip-rule="evenodd" fill="#AC29B5" width="7.4" height="13.4"/>
	</g>
	<g>
		<defs>
			<circle id="SVGID_3_" cx="99.8" cy="100.2" r="91.4"/>
		</defs>
		<clipPath id="SVGID_4_">
			<use xlink:href="#SVGID_3_"  overflow="visible"/>
		</clipPath>
		<g clip-path="url(#SVGID_4_)">
			<path fill="#E0B487" d="M168.7,210l0.5-11.8l-15.9-15.9c-5.7-5.7-13.1-5.4-18.2-0.8l29.2,29.1L168.7,210z"/>
			<path fill="#FFC0B3" d="M144.4,190.7l-8.6-8.6c0.7-0.7,2-0.7,2.8,0.1l7.1,7.1L144.4,190.7z"/>
			<path fill="#E0B487" d="M115.1,131.2c-3,3-2.9,8.1,0.3,11.4c0,0,60.9,60.9,60.9,60.9c3.2,3.2,5.7,0.8,8.8-2.2
				c3-3,5.4-5.5,2.2-8.8c0,0-60.9-60.9-60.9-60.9C123.3,128.3,118.2,128.2,115.1,131.2z"/>
			
				<ellipse transform="matrix(-0.7071 -0.7071 0.7071 -0.7071 164.2458 369.851)" fill="#E0B487" cx="158.7" cy="150.9" rx="8.3" ry="7.8"/>
			
				<ellipse transform="matrix(-0.7071 -0.7071 0.7071 -0.7071 195.6226 364.064)" fill="#E0B487" cx="173.2" cy="141.5" rx="8.3" ry="7.8"/>
			
				<ellipse transform="matrix(-0.7071 -0.7071 0.7071 -0.7071 224.7704 359.2012)" fill="#E0B487" cx="186.8" cy="133" rx="6.9" ry="6.5"/>
			<path fill="#EFC6A0" d="M116.7,132.8c-2.2,2.2-2.1,5.9,0.2,8.2l4,4l8-8l-4-4C122.6,130.7,118.9,130.6,116.7,132.8z"/>
			<path fill="#E0B487" d="M222.9,174.9c0,0-22.6,22.6-34.9,34.9c-12.3,12.3-25.3-0.7-25.3-0.7l-14.6-14.6l19.9-0.8l-29-30.6
				l42.3-29.8c4.1-4.1,5.9-9,10.3-4.6l30.8,30.8C226.8,163.9,227,170.8,222.9,174.9z"/>
		</g>
	</g>
</g>
</svg>
