<?xml version="1.0" encoding="utf-8"?>
<!-- Generator: Adobe Illustrator 18.1.1, SVG Export Plug-In . SVG Version: 6.00 Build 0)  -->
<svg version="1.1" id="Layer_3" xmlns="http://www.w3.org/2000/svg" xmlns:xlink="http://www.w3.org/1999/xlink" x="0px" y="0px"
	 viewBox="0 0 200 200" enable-background="new 0 0 200 200" xml:space="preserve">
<g>
	<circle fill-rule="evenodd" clip-rule="evenodd" fill="#C6F9DD" cx="98.7" cy="100.3" r="91.9"/>
	<g>
		<defs>
			<path id="SVGID_1_" d="M56.5,2.9c0-1.8,1.5-3.3,3.3-3.3h72.8c1.8,0,3.3,1.5,3.3,3.3v140.8c0,1.8-1.5,3.3-3.3,3.3H59.8
				c-1.8,0-3.3-1.5-3.3-3.3V2.9z"/>
		</defs>
		<clipPath id="SVGID_2_">
			<use xlink:href="#SVGID_1_"  overflow="visible"/>
		</clipPath>
		<g clip-path="url(#SVGID_2_)">
			<defs>
				<rect id="SVGID_3_" x="20.4" y="-0.7" width="161.2" height="162.9"/>
			</defs>
			<clipPath id="SVGID_4_">
				<use xlink:href="#SVGID_3_"  overflow="visible"/>
			</clipPath>
			<rect x="52.4" y="-4.5" clip-path="url(#SVGID_4_)" fill="#941C9C" width="87.6" height="155.5"/>
		</g>
	</g>
	<g>
		<defs>
			<rect id="SVGID_5_" x="62.5" y="8.8" width="67.2" height="114.7"/>
		</defs>
		<clipPath id="SVGID_6_">
			<use xlink:href="#SVGID_5_"  overflow="visible"/>
		</clipPath>
		<g clip-path="url(#SVGID_6_)">
			<defs>
				<rect id="SVGID_7_" x="20.4" y="-0.7" width="161.2" height="162.9"/>
			</defs>
			<clipPath id="SVGID_8_">
				<use xlink:href="#SVGID_7_"  overflow="visible"/>
			</clipPath>
			<rect x="58.4" y="4.7" clip-path="url(#SVGID_8_)" fill="#FFFFFF" width="75.4" height="122.9"/>
		</g>
	</g>
	<g>
		<defs>
			<path id="SVGID_9_" d="M100.7,136.4c0,2.6-2.1,4.7-4.6,4.7c-2.5,0-4.6-2.1-4.6-4.7c0-2.6,2.1-4.7,4.6-4.7
				C98.7,131.7,100.7,133.8,100.7,136.4"/>
		</defs>
		<clipPath id="SVGID_10_">
			<use xlink:href="#SVGID_9_"  overflow="visible"/>
		</clipPath>
		<g clip-path="url(#SVGID_10_)">
			<defs>
				<rect id="SVGID_11_" x="20.4" y="-0.7" width="161.2" height="162.9"/>
			</defs>
			<clipPath id="SVGID_12_">
				<use xlink:href="#SVGID_11_"  overflow="visible"/>
			</clipPath>
			<rect x="87.4" y="127.7" clip-path="url(#SVGID_12_)" fill="#6E1B6A" width="17.4" height="17.5"/>
		</g>
	</g>
	<g>
		<defs>
			<path id="SVGID_13_" d="M72.9,78.5L72.9,78.5L72.9,78.5L72.9,78.5L72.9,78.5L72.9,78.5L72.9,78.5c-1,0-1.7-0.7-1.8-1.6
				c0-0.1,0-0.1,0-0.2c0-0.3,0.1-0.5,0.2-0.7c0.3-0.6,0.8-1,1.5-1.1v0l0,0l0,0v0l0,0l0,0l0,0h0l0.1,0c0.9,0,1.7,0.8,1.7,1.8
				S73.8,78.5,72.9,78.5z M69.9,80.5c0.5-0.6,1.2-1,2.1-1.2c0.2,0,0.5-0.1,0.8-0.1l0,0c0.3,0,0.5,0,0.8,0.1c0.9,0.2,1.6,0.6,2.1,1.2
				c0.8-0.8,1.4-1.9,1.4-3.1c0-2.4-1.9-4.3-4.2-4.3s-4.2,1.9-4.2,4.3C68.6,78.6,69.1,79.7,69.9,80.5z"/>
		</defs>
		<clipPath id="SVGID_14_">
			<use xlink:href="#SVGID_13_"  overflow="visible"/>
		</clipPath>
		<g clip-path="url(#SVGID_14_)">
			<defs>
				<rect id="SVGID_15_" x="20.4" y="-0.7" width="161.2" height="162.9"/>
			</defs>
			<clipPath id="SVGID_16_">
				<use xlink:href="#SVGID_15_"  overflow="visible"/>
			</clipPath>
			<rect x="64.5" y="69" clip-path="url(#SVGID_16_)" fill="#EBEDF2" width="16.6" height="15.6"/>
		</g>
	</g>
	<g>
		<defs>
			<path id="SVGID_17_" d="M72.8,74.9c-0.7,0-1.3,0.4-1.5,1.1c-0.1,0.2-0.2,0.5-0.2,0.7c0,0.1,0,0.1,0,0.2c0.1,0.9,0.8,1.6,1.7,1.6
				v0l0,0l0,0l0,0l-0.1,0V74.9"/>
		</defs>
		<clipPath id="SVGID_18_">
			<use xlink:href="#SVGID_17_"  overflow="visible"/>
		</clipPath>
		<g clip-path="url(#SVGID_18_)">
			<defs>
				<rect id="SVGID_19_" x="20.4" y="-0.7" width="161.2" height="162.9"/>
			</defs>
			<clipPath id="SVGID_20_">
				<use xlink:href="#SVGID_19_"  overflow="visible"/>
			</clipPath>
			<rect x="67" y="70.8" clip-path="url(#SVGID_20_)" fill="#FFC0B3" width="9.9" height="11.8"/>
		</g>
	</g>
	<g>
		<defs>
			<polyline id="SVGID_21_" points="72.8,74.9 72.8,74.9 72.8,74.9 72.8,74.9 72.8,74.9 72.8,74.9 72.8,74.9 			"/>
		</defs>
		<clipPath id="SVGID_22_">
			<use xlink:href="#SVGID_21_"  overflow="visible"/>
		</clipPath>
		<g clip-path="url(#SVGID_22_)">
			<defs>
				<rect id="SVGID_23_" x="20.4" y="-0.7" width="161.2" height="162.9"/>
			</defs>
			<clipPath id="SVGID_24_">
				<use xlink:href="#SVGID_23_"  overflow="visible"/>
			</clipPath>
			<rect x="68.7" y="70.8" clip-path="url(#SVGID_24_)" fill="#FFAB8E" width="8.2" height="8.2"/>
		</g>
	</g>
	<g>
		<defs>
			<path id="SVGID_25_" d="M72.9,74.9L72.9,74.9L72.9,74.9L72.9,74.9l-0.1,0v3.6l0.1,0l0,0l0,0c0.9,0,1.7-0.8,1.7-1.8
				S73.8,75,72.9,74.9"/>
		</defs>
		<clipPath id="SVGID_26_">
			<use xlink:href="#SVGID_25_"  overflow="visible"/>
		</clipPath>
		<g clip-path="url(#SVGID_26_)">
			<defs>
				<rect id="SVGID_27_" x="20.4" y="-0.7" width="161.2" height="162.9"/>
			</defs>
			<clipPath id="SVGID_28_">
				<use xlink:href="#SVGID_27_"  overflow="visible"/>
			</clipPath>
			<rect x="68.7" y="70.8" clip-path="url(#SVGID_28_)" fill="#FFAB8E" width="9.9" height="11.8"/>
		</g>
	</g>
	<g>
		<defs>
			<path id="SVGID_29_" d="M73.6,79.3c-0.3,0-0.5-0.1-0.8-0.1l0,0c-0.3,0-0.5,0-0.8,0.1c-0.9,0.2-1.6,0.6-2.1,1.2
				c0.8,0.7,1.8,1.1,2.9,1.1c1.1,0,2.1-0.4,2.9-1.1C75.2,79.9,74.5,79.5,73.6,79.3"/>
		</defs>
		<clipPath id="SVGID_30_">
			<use xlink:href="#SVGID_29_"  overflow="visible"/>
		</clipPath>
		<g clip-path="url(#SVGID_30_)">
			<defs>
				<rect id="SVGID_31_" x="20.4" y="-0.7" width="161.2" height="162.9"/>
			</defs>
			<clipPath id="SVGID_32_">
				<use xlink:href="#SVGID_31_"  overflow="visible"/>
			</clipPath>
			<rect x="65.9" y="75.1" clip-path="url(#SVGID_32_)" fill="#1D67BF" width="13.9" height="10.6"/>
		</g>
	</g>
	<g>
		<defs>
			<path id="SVGID_33_" d="M85.3,78.5L85.3,78.5L85.3,78.5L85.3,78.5L85.3,78.5L85.3,78.5L85.3,78.5c-1,0-1.7-0.7-1.8-1.6
				c0-0.1,0-0.1,0-0.2c0-0.3,0.1-0.5,0.2-0.7c0.3-0.6,0.8-1,1.5-1.1v0l0,0l0,0v0l0,0l0,0l0,0h0l0.1,0c0.9,0,1.7,0.8,1.7,1.8
				S86.2,78.5,85.3,78.5z M82.4,80.5c0.5-0.6,1.2-1,2.1-1.2c0.2,0,0.5-0.1,0.8-0.1l0,0c0.3,0,0.5,0,0.8,0.1c0.9,0.2,1.6,0.6,2.1,1.2
				c0.8-0.8,1.4-1.9,1.4-3.1c0-2.4-1.9-4.3-4.2-4.3S81,75,81,77.4C81,78.6,81.5,79.7,82.4,80.5z"/>
		</defs>
		<clipPath id="SVGID_34_">
			<use xlink:href="#SVGID_33_"  overflow="visible"/>
		</clipPath>
		<g clip-path="url(#SVGID_34_)">
			<defs>
				<rect id="SVGID_35_" x="20.4" y="-0.7" width="161.2" height="162.9"/>
			</defs>
			<clipPath id="SVGID_36_">
				<use xlink:href="#SVGID_35_"  overflow="visible"/>
			</clipPath>
			<rect x="76.9" y="69" clip-path="url(#SVGID_36_)" fill="#EBEDF2" width="16.6" height="15.6"/>
		</g>
	</g>
	<g>
		<defs>
			<path id="SVGID_37_" d="M85.2,74.9c-0.7,0-1.3,0.4-1.5,1.1c-0.1,0.2-0.2,0.5-0.2,0.7c0,0.1,0,0.1,0,0.2c0.1,0.9,0.8,1.6,1.7,1.6
				v0l0,0l0,0l0,0l-0.1,0V74.9"/>
		</defs>
		<clipPath id="SVGID_38_">
			<use xlink:href="#SVGID_37_"  overflow="visible"/>
		</clipPath>
		<g clip-path="url(#SVGID_38_)">
			<defs>
				<rect id="SVGID_39_" x="20.4" y="-0.7" width="161.2" height="162.9"/>
			</defs>
			<clipPath id="SVGID_40_">
				<use xlink:href="#SVGID_39_"  overflow="visible"/>
			</clipPath>
			<rect x="79.4" y="70.8" clip-path="url(#SVGID_40_)" fill="#FFC0B3" width="9.9" height="11.8"/>
		</g>
	</g>
	<g>
		<defs>
			<polyline id="SVGID_41_" points="85.2,74.9 85.2,74.9 85.2,74.9 85.2,74.9 85.2,74.9 85.2,74.9 85.2,74.9 			"/>
		</defs>
		<clipPath id="SVGID_42_">
			<use xlink:href="#SVGID_41_"  overflow="visible"/>
		</clipPath>
		<g clip-path="url(#SVGID_42_)">
			<defs>
				<rect id="SVGID_43_" x="20.4" y="-0.7" width="161.2" height="162.9"/>
			</defs>
			<clipPath id="SVGID_44_">
				<use xlink:href="#SVGID_43_"  overflow="visible"/>
			</clipPath>
			<rect x="81.1" y="70.8" clip-path="url(#SVGID_44_)" fill="#FFAB8E" width="8.2" height="8.2"/>
		</g>
	</g>
	<g>
		<defs>
			<path id="SVGID_45_" d="M85.3,74.9L85.3,74.9L85.3,74.9L85.3,74.9l-0.1,0v3.6l0.1,0l0,0l0,0c0.9,0,1.7-0.8,1.7-1.8
				S86.2,75,85.3,74.9"/>
		</defs>
		<clipPath id="SVGID_46_">
			<use xlink:href="#SVGID_45_"  overflow="visible"/>
		</clipPath>
		<g clip-path="url(#SVGID_46_)">
			<defs>
				<rect id="SVGID_47_" x="20.4" y="-0.7" width="161.2" height="162.9"/>
			</defs>
			<clipPath id="SVGID_48_">
				<use xlink:href="#SVGID_47_"  overflow="visible"/>
			</clipPath>
			<rect x="81.1" y="70.8" clip-path="url(#SVGID_48_)" fill="#FFAB8E" width="9.9" height="11.8"/>
		</g>
	</g>
	<g>
		<defs>
			<path id="SVGID_49_" d="M86,79.3c-0.3,0-0.5-0.1-0.8-0.1l0,0c-0.3,0-0.5,0-0.8,0.1c-0.9,0.2-1.6,0.6-2.1,1.2
				c0.8,0.7,1.8,1.1,2.9,1.1c1.1,0,2.1-0.4,2.9-1.1C87.6,79.9,86.9,79.5,86,79.3"/>
		</defs>
		<clipPath id="SVGID_50_">
			<use xlink:href="#SVGID_49_"  overflow="visible"/>
		</clipPath>
		<g clip-path="url(#SVGID_50_)">
			<defs>
				<rect id="SVGID_51_" x="20.4" y="-0.7" width="161.2" height="162.9"/>
			</defs>
			<clipPath id="SVGID_52_">
				<use xlink:href="#SVGID_51_"  overflow="visible"/>
			</clipPath>
			<rect x="78.3" y="75.1" clip-path="url(#SVGID_52_)" fill="#1D67BF" width="13.9" height="10.6"/>
		</g>
	</g>
	<g>
		<defs>
			<rect id="SVGID_53_" x="62.5" y="4.8" width="67.2" height="105.9"/>
		</defs>
		<clipPath id="SVGID_54_">
			<use xlink:href="#SVGID_53_"  overflow="visible"/>
		</clipPath>
		<g clip-path="url(#SVGID_54_)">
			<defs>
				<rect id="SVGID_55_" x="20.4" y="-0.7" width="161.2" height="162.9"/>
			</defs>
			<clipPath id="SVGID_56_">
				<use xlink:href="#SVGID_55_"  overflow="visible"/>
			</clipPath>
			<rect x="58.4" y="0.7" clip-path="url(#SVGID_56_)" fill="#FFFFFE" width="75.4" height="114.1"/>
		</g>
	</g>
	<g>
		<defs>
			<rect id="SVGID_57_" x="62.5" y="4.8" width="67.2" height="30.6"/>
		</defs>
		<clipPath id="SVGID_58_">
			<use xlink:href="#SVGID_57_"  overflow="visible"/>
		</clipPath>
		<g clip-path="url(#SVGID_58_)">
			<defs>
				<rect id="SVGID_59_" x="20.4" y="-0.7" width="161.2" height="162.9"/>
			</defs>
			<clipPath id="SVGID_60_">
				<use xlink:href="#SVGID_59_"  overflow="visible"/>
			</clipPath>
			<rect x="58.4" y="0.7" clip-path="url(#SVGID_60_)" fill="#E9D8EB" width="75.4" height="38.8"/>
		</g>
	</g>
	<g>
		<defs>
			<path id="SVGID_61_" d="M119.3,25.8l-2.3,2.3h3.7c0-0.4-0.1-0.7-0.2-1.1C120.2,26.4,119.7,26,119.3,25.8"/>
		</defs>
		<clipPath id="SVGID_62_">
			<use xlink:href="#SVGID_61_"  overflow="visible"/>
		</clipPath>
		<g clip-path="url(#SVGID_62_)">
			<defs>
				<rect id="SVGID_63_" x="20.4" y="-0.7" width="161.2" height="162.9"/>
			</defs>
			<clipPath id="SVGID_64_">
				<use xlink:href="#SVGID_63_"  overflow="visible"/>
			</clipPath>
			<rect x="113" y="21.7" clip-path="url(#SVGID_64_)" fill="#FBF7FB" width="11.9" height="10.5"/>
		</g>
	</g>
	<g>
		<defs>
			<path id="SVGID_65_" d="M119.9,25.2l-0.5,0.5c0.4,0.2,0.9,0.6,1.2,1.3c0.2,0.3,0.2,0.7,0.2,1.1h2L119.9,25.2"/>
		</defs>
		<clipPath id="SVGID_66_">
			<use xlink:href="#SVGID_65_"  overflow="visible"/>
		</clipPath>
		<g clip-path="url(#SVGID_66_)">
			<defs>
				<rect id="SVGID_67_" x="20.4" y="-0.7" width="161.2" height="162.9"/>
			</defs>
			<clipPath id="SVGID_68_">
				<use xlink:href="#SVGID_67_"  overflow="visible"/>
			</clipPath>
			<rect x="115.3" y="21.1" clip-path="url(#SVGID_68_)" fill="#F6EFF6" width="11.5" height="11"/>
		</g>
	</g>
	<g>
		<defs>
			<path id="SVGID_69_" d="M120.7,28.1h-3.7l-6.9,6.9c0.1,0.1,0.1,0.2,0.3,0.4h8.2c-0.5-1.1-0.7-2.7-0.2-3.8
				c0.4-0.8,1.3-1.2,1.8-1.9C120.5,29.2,120.7,28.7,120.7,28.1"/>
		</defs>
		<clipPath id="SVGID_70_">
			<use xlink:href="#SVGID_69_"  overflow="visible"/>
		</clipPath>
		<g clip-path="url(#SVGID_70_)">
			<defs>
				<rect id="SVGID_71_" x="20.4" y="-0.7" width="161.2" height="162.9"/>
			</defs>
			<clipPath id="SVGID_72_">
				<use xlink:href="#SVGID_71_"  overflow="visible"/>
			</clipPath>
			<rect x="106.1" y="24" clip-path="url(#SVGID_72_)" fill="#B950C1" width="18.7" height="15.5"/>
		</g>
	</g>
	<g>
		<defs>
			<path id="SVGID_73_" d="M122.7,28.1h-2c0,0.6-0.2,1.2-0.5,1.6c-0.5,0.8-1.5,1.1-1.8,1.9c-0.5,1.1-0.3,2.6,0.2,3.8h11.1v-0.2
				L122.7,28.1"/>
		</defs>
		<clipPath id="SVGID_74_">
			<use xlink:href="#SVGID_73_"  overflow="visible"/>
		</clipPath>
		<g clip-path="url(#SVGID_74_)">
			<defs>
				<rect id="SVGID_75_" x="20.4" y="-0.7" width="161.2" height="162.9"/>
			</defs>
			<clipPath id="SVGID_76_">
				<use xlink:href="#SVGID_75_"  overflow="visible"/>
			</clipPath>
			<rect x="114" y="24" clip-path="url(#SVGID_76_)" fill="#A44EAE" width="19.8" height="15.5"/>
		</g>
	</g>
	<g>
		<defs>
			<polyline id="SVGID_77_" points="62.5,29 62.5,29.3 62.8,29.3 62.5,29 			"/>
		</defs>
		<clipPath id="SVGID_78_">
			<use xlink:href="#SVGID_77_"  overflow="visible"/>
		</clipPath>
		<g clip-path="url(#SVGID_78_)">
			<defs>
				<rect id="SVGID_79_" x="20.4" y="-0.7" width="161.2" height="162.9"/>
			</defs>
			<clipPath id="SVGID_80_">
				<use xlink:href="#SVGID_79_"  overflow="visible"/>
			</clipPath>
			<rect x="58.4" y="24.9" clip-path="url(#SVGID_80_)" fill="#F6EFF6" width="8.5" height="8.5"/>
		</g>
	</g>
	<g>
		<defs>
			<polyline id="SVGID_81_" points="62.8,29.3 62.5,29.3 62.5,35.4 68.8,35.4 62.8,29.3 			"/>
		</defs>
		<clipPath id="SVGID_82_">
			<use xlink:href="#SVGID_81_"  overflow="visible"/>
		</clipPath>
		<g clip-path="url(#SVGID_82_)">
			<defs>
				<rect id="SVGID_83_" x="20.4" y="-0.7" width="161.2" height="162.9"/>
			</defs>
			<clipPath id="SVGID_84_">
				<use xlink:href="#SVGID_83_"  overflow="visible"/>
			</clipPath>
			<rect x="58.4" y="25.3" clip-path="url(#SVGID_84_)" fill="#A44EAE" width="14.5" height="14.2"/>
		</g>
	</g>
	<g>
		<defs>
			<path id="SVGID_85_" d="M121.1,13.5c-0.3-0.6-0.9-1-1.6-1c-0.2,0-0.3,0-0.5,0.1c-0.4-0.6-1.1-0.9-1.8-0.9c-1.1,0-2,0.8-2.2,1.8
				c-0.7,0.1-1.2,0.7-1.2,1.4c0,0.8,0.6,1.4,1.4,1.4h5.7c0.8,0,1.4-0.6,1.4-1.4C122.3,14.2,121.8,13.6,121.1,13.5z"/>
		</defs>
		<clipPath id="SVGID_86_">
			<use xlink:href="#SVGID_85_"  overflow="visible"/>
		</clipPath>
		<g clip-path="url(#SVGID_86_)">
			<defs>
				<rect id="SVGID_87_" x="20.4" y="-0.7" width="161.2" height="162.9"/>
			</defs>
			<clipPath id="SVGID_88_">
				<use xlink:href="#SVGID_87_"  overflow="visible"/>
			</clipPath>
			<g clip-path="url(#SVGID_88_)">
				<defs>
					<rect id="SVGID_89_" x="113.7" y="11.6" width="9" height="4.9"/>
				</defs>
				<clipPath id="SVGID_90_">
					<use xlink:href="#SVGID_89_"  overflow="visible"/>
				</clipPath>
				<g clip-path="url(#SVGID_90_)">
					<defs>
						<rect id="SVGID_91_" x="113.9" y="11.7" width="8.5" height="4.6"/>
					</defs>
					<clipPath id="SVGID_92_">
						<use xlink:href="#SVGID_91_"  overflow="visible"/>
					</clipPath>
					<g clip-path="url(#SVGID_92_)">
						<defs>
							<rect id="SVGID_93_" x="113.7" y="11.6" width="9" height="4.9"/>
						</defs>
						<clipPath id="SVGID_94_">
							<use xlink:href="#SVGID_93_"  overflow="visible"/>
						</clipPath>
						<rect x="109.8" y="7.6" clip-path="url(#SVGID_94_)" fill="#FFFFFE" width="16.7" height="12.7"/>
					</g>
				</g>
			</g>
		</g>
	</g>
	<g>
		<defs>
			<path id="SVGID_95_" d="M73.8,10.6c-0.3-0.5-0.8-0.8-1.4-0.8c-0.1,0-0.3,0-0.4,0.1c-0.4-0.5-0.9-0.7-1.5-0.7
				c-0.9,0-1.7,0.7-1.9,1.5c-0.6,0.1-1,0.6-1,1.1c0,0.6,0.5,1.2,1.1,1.2h4.8c0.6,0,1.1-0.5,1.1-1.2C74.8,11.2,74.4,10.7,73.8,10.6"
				/>
		</defs>
		<clipPath id="SVGID_96_">
			<use xlink:href="#SVGID_95_"  overflow="visible"/>
		</clipPath>
		<g clip-path="url(#SVGID_96_)">
			<defs>
				<rect id="SVGID_97_" x="20.4" y="-0.7" width="161.2" height="162.9"/>
			</defs>
			<clipPath id="SVGID_98_">
				<use xlink:href="#SVGID_97_"  overflow="visible"/>
			</clipPath>
			<rect x="63.6" y="5" clip-path="url(#SVGID_98_)" fill="#FFFFFF" width="15.3" height="12"/>
		</g>
	</g>
	<g>
		<defs>
			<path id="SVGID_99_" d="M73.8,10.6c-0.3-0.5-0.8-0.8-1.4-0.8c-0.1,0-0.3,0-0.4,0.1c-0.4-0.5-0.9-0.7-1.5-0.7
				c-0.9,0-1.7,0.7-1.9,1.5c-0.6,0.1-1,0.6-1,1.1c0,0.6,0.5,1.2,1.1,1.2h4.8c0.6,0,1.1-0.5,1.1-1.2C74.8,11.2,74.4,10.7,73.8,10.6z"
				/>
		</defs>
		<clipPath id="SVGID_100_">
			<use xlink:href="#SVGID_99_"  overflow="visible"/>
		</clipPath>
		<g clip-path="url(#SVGID_100_)">
			<defs>
				<rect id="SVGID_101_" x="20.4" y="-0.7" width="161.2" height="162.9"/>
			</defs>
			<clipPath id="SVGID_102_">
				<use xlink:href="#SVGID_101_"  overflow="visible"/>
			</clipPath>
			<g clip-path="url(#SVGID_102_)">
				<defs>
					<rect id="SVGID_103_" x="67" y="8.3" width="8.2" height="4.9"/>
				</defs>
				<clipPath id="SVGID_104_">
					<use xlink:href="#SVGID_103_"  overflow="visible"/>
				</clipPath>
				<g clip-path="url(#SVGID_104_)">
					<defs>
						<rect id="SVGID_105_" x="67.7" y="9.1" width="7.1" height="3.8"/>
					</defs>
					<clipPath id="SVGID_106_">
						<use xlink:href="#SVGID_105_"  overflow="visible"/>
					</clipPath>
					<g clip-path="url(#SVGID_106_)">
						<defs>
							<rect id="SVGID_107_" x="67" y="8.3" width="8.2" height="4.9"/>
						</defs>
						<clipPath id="SVGID_108_">
							<use xlink:href="#SVGID_107_"  overflow="visible"/>
						</clipPath>
						<rect x="63.6" y="5" clip-path="url(#SVGID_108_)" fill="#FFFFFF" width="15.3" height="12"/>
					</g>
				</g>
			</g>
		</g>
	</g>
	<g>
		<defs>
			<path id="SVGID_109_" d="M96,13.4c-0.9-2-2.5-3.2-3.5-3.8l-6.9,7h11.1C96.6,15.5,96.4,14.4,96,13.4"/>
		</defs>
		<clipPath id="SVGID_110_">
			<use xlink:href="#SVGID_109_"  overflow="visible"/>
		</clipPath>
		<g clip-path="url(#SVGID_110_)">
			<defs>
				<rect id="SVGID_111_" x="20.4" y="-0.7" width="161.2" height="162.9"/>
			</defs>
			<clipPath id="SVGID_112_">
				<use xlink:href="#SVGID_111_"  overflow="visible"/>
			</clipPath>
			<rect x="81.4" y="5.5" clip-path="url(#SVGID_112_)" fill="#FFFFFF" width="19.3" height="15.2"/>
		</g>
	</g>
	<g>
		<defs>
			<polyline id="SVGID_113_" points="62.5,4.8 129.7,4.8 129.7,35.4 62.5,35.4 			"/>
		</defs>
		<clipPath id="SVGID_114_">
			<use xlink:href="#SVGID_113_"  overflow="visible"/>
		</clipPath>
		<g clip-path="url(#SVGID_114_)">
			<defs>
				<rect id="SVGID_115_" x="20.4" y="-0.7" width="161.2" height="162.9"/>
			</defs>
			<clipPath id="SVGID_116_">
				<use xlink:href="#SVGID_115_"  overflow="visible"/>
			</clipPath>
			<g clip-path="url(#SVGID_116_)">
				<defs>
					<rect id="SVGID_117_" x="64.6" y="7.5" width="63.8" height="28.6"/>
				</defs>
				<clipPath id="SVGID_118_">
					<use xlink:href="#SVGID_117_"  overflow="visible"/>
				</clipPath>
				<g clip-path="url(#SVGID_118_)">
					<defs>
						<path id="SVGID_119_" d="M96,13.4c0.5,1.1,0.7,2.1,0.7,3.2h6l-8.6-8.7l-1.6,1.6C93.5,10.2,95.1,11.4,96,13.4"/>
					</defs>
					<clipPath id="SVGID_120_">
						<use xlink:href="#SVGID_119_"  overflow="visible"/>
					</clipPath>
					<g clip-path="url(#SVGID_120_)">
						<defs>
							<rect id="SVGID_121_" x="62.1" y="4.2" width="67.9" height="31.9"/>
						</defs>
						<clipPath id="SVGID_122_">
							<use xlink:href="#SVGID_121_"  overflow="visible"/>
						</clipPath>
						<rect x="88.3" y="3.9" clip-path="url(#SVGID_122_)" fill="#F9F5FA" width="18.4" height="16.8"/>
					</g>
				</g>
				<g clip-path="url(#SVGID_118_)">
					<defs>
						<path id="SVGID_123_" d="M92.4,26.6c1.2-2.4,0.9-2.3,2.8-5.2c0.8-1.3,1.4-3,1.4-4.8H85.5l-20.8,21c2.2,5.3,25.1,5.8,30.8,6.8
							C94,42.1,91.2,29.1,92.4,26.6"/>
					</defs>
					<clipPath id="SVGID_124_">
						<use xlink:href="#SVGID_123_"  overflow="visible"/>
					</clipPath>
					<g clip-path="url(#SVGID_124_)">
						<defs>
							<rect id="SVGID_125_" x="62.1" y="4.2" width="67.9" height="31.9"/>
						</defs>
						<clipPath id="SVGID_126_">
							<use xlink:href="#SVGID_125_"  overflow="visible"/>
						</clipPath>
						<rect x="60.6" y="12.5" clip-path="url(#SVGID_126_)" fill="#AC29B5" width="40.2" height="36"/>
					</g>
				</g>
				<g clip-path="url(#SVGID_118_)">
					<defs>
						<path id="SVGID_127_" d="M95.2,21.4c-1.5,2.3-4.4,3.3-5.6,5.8C87.9,31,88.9,36.5,91,40c0.9,1.6,2.6,4,4.5,4.4
							c1,0.2,2,0.3,3,0.3c7.1,0,26.9,3.7,29.5-2.5l-25.3-25.6h-6C96.6,18.4,96.1,20.1,95.2,21.4"/>
					</defs>
					<clipPath id="SVGID_128_">
						<use xlink:href="#SVGID_127_"  overflow="visible"/>
					</clipPath>
					<g clip-path="url(#SVGID_128_)">
						<defs>
							<rect id="SVGID_129_" x="62.1" y="4.2" width="67.9" height="31.9"/>
						</defs>
						<clipPath id="SVGID_130_">
							<use xlink:href="#SVGID_129_"  overflow="visible"/>
						</clipPath>
						<rect x="84.7" y="12.5" clip-path="url(#SVGID_130_)" fill="#92269E" width="47.4" height="37.3"/>
					</g>
				</g>
			</g>
		</g>
	</g>
	<g>
		<defs>
			<path id="SVGID_131_" d="M85.2,15.3c-0.3-0.7-1-1.1-1.8-1.1c-0.2,0-0.3,0-0.5,0.1c-0.5-0.6-1.2-1-2-1c-1.2,0-2.2,0.9-2.4,2
				c-0.7,0.1-1.3,0.7-1.3,1.5c0,0.8,0.7,1.5,1.5,1.5H85c0.8,0,1.5-0.7,1.5-1.5C86.5,16.1,85.9,15.4,85.2,15.3z"/>
		</defs>
		<clipPath id="SVGID_132_">
			<use xlink:href="#SVGID_131_"  overflow="visible"/>
		</clipPath>
		<g clip-path="url(#SVGID_132_)">
			<defs>
				<rect id="SVGID_133_" x="20.4" y="-0.7" width="161.2" height="162.9"/>
			</defs>
			<clipPath id="SVGID_134_">
				<use xlink:href="#SVGID_133_"  overflow="visible"/>
			</clipPath>
			<g clip-path="url(#SVGID_134_)">
				<defs>
					<rect id="SVGID_135_" x="76.8" y="13.2" width="9.8" height="5.7"/>
				</defs>
				<clipPath id="SVGID_136_">
					<use xlink:href="#SVGID_135_"  overflow="visible"/>
				</clipPath>
				<g clip-path="url(#SVGID_136_)">
					<defs>
						<rect id="SVGID_137_" x="77.2" y="13.3" width="9.3" height="5"/>
					</defs>
					<clipPath id="SVGID_138_">
						<use xlink:href="#SVGID_137_"  overflow="visible"/>
					</clipPath>
					<g clip-path="url(#SVGID_138_)">
						<defs>
							<rect id="SVGID_139_" x="76.8" y="13.2" width="9.8" height="5.7"/>
						</defs>
						<clipPath id="SVGID_140_">
							<use xlink:href="#SVGID_139_"  overflow="visible"/>
						</clipPath>
						<rect x="73.2" y="9.2" clip-path="url(#SVGID_140_)" fill="#FFFFFE" width="17.5" height="13.2"/>
					</g>
				</g>
			</g>
		</g>
	</g>
	<g>
		<defs>
			<rect id="SVGID_141_" x="90.1" y="39.6" width="32" height="2.7"/>
		</defs>
		<clipPath id="SVGID_142_">
			<use xlink:href="#SVGID_141_"  overflow="visible"/>
		</clipPath>
		<g clip-path="url(#SVGID_142_)">
			<defs>
				<rect id="SVGID_143_" x="20.4" y="-0.7" width="161.2" height="162.9"/>
			</defs>
			<clipPath id="SVGID_144_">
				<use xlink:href="#SVGID_143_"  overflow="visible"/>
			</clipPath>
			<rect x="86" y="35.5" clip-path="url(#SVGID_144_)" fill="#999999" width="40.2" height="10.9"/>
		</g>
	</g>
	<g>
		<defs>
			<rect id="SVGID_145_" x="90.1" y="45.6" width="19.6" height="2.7"/>
		</defs>
		<clipPath id="SVGID_146_">
			<use xlink:href="#SVGID_145_"  overflow="visible"/>
		</clipPath>
		<g clip-path="url(#SVGID_146_)">
			<defs>
				<rect id="SVGID_147_" x="20.4" y="-0.7" width="161.2" height="162.9"/>
			</defs>
			<clipPath id="SVGID_148_">
				<use xlink:href="#SVGID_147_"  overflow="visible"/>
			</clipPath>
			<rect x="86" y="41.5" clip-path="url(#SVGID_148_)" fill="#999999" width="27.8" height="10.9"/>
		</g>
	</g>
	<g>
		<defs>
			<rect id="SVGID_149_" x="68.5" y="54.1" width="41.5" height="1.9"/>
		</defs>
		<clipPath id="SVGID_150_">
			<use xlink:href="#SVGID_149_"  overflow="visible"/>
		</clipPath>
		<g clip-path="url(#SVGID_150_)">
			<defs>
				<rect id="SVGID_151_" x="20.4" y="-0.7" width="161.2" height="162.9"/>
			</defs>
			<clipPath id="SVGID_152_">
				<use xlink:href="#SVGID_151_"  overflow="visible"/>
			</clipPath>
			<rect x="64.4" y="50.1" clip-path="url(#SVGID_152_)" fill="#CCCCCC" width="49.7" height="10"/>
		</g>
	</g>
	<g>
		<defs>
			<rect id="SVGID_153_" x="68.5" y="60" width="41.5" height="1.9"/>
		</defs>
		<clipPath id="SVGID_154_">
			<use xlink:href="#SVGID_153_"  overflow="visible"/>
		</clipPath>
		<g clip-path="url(#SVGID_154_)">
			<defs>
				<rect id="SVGID_155_" x="20.4" y="-0.7" width="161.2" height="162.9"/>
			</defs>
			<clipPath id="SVGID_156_">
				<use xlink:href="#SVGID_155_"  overflow="visible"/>
			</clipPath>
			<rect x="64.4" y="55.9" clip-path="url(#SVGID_156_)" fill="#CCCCCC" width="49.7" height="10"/>
		</g>
	</g>
	<g>
		<defs>
			<rect id="SVGID_157_" x="20.4" y="-0.7" width="161.2" height="162.9"/>
		</defs>
		<clipPath id="SVGID_158_">
			<use xlink:href="#SVGID_157_"  overflow="visible"/>
		</clipPath>
	</g>
	<g>
		<defs>
			<polyline id="SVGID_159_" points="77.3,29.4 77.3,29.4 77.2,29.4 77.2,29.4 77.2,29.4 77.3,29.4 77.3,29.4 			"/>
		</defs>
		<clipPath id="SVGID_160_">
			<use xlink:href="#SVGID_159_"  overflow="visible"/>
		</clipPath>
		<g clip-path="url(#SVGID_160_)">
			<defs>
				<rect id="SVGID_161_" x="20.4" y="-0.7" width="161.2" height="162.9"/>
			</defs>
			<clipPath id="SVGID_162_">
				<use xlink:href="#SVGID_161_"  overflow="visible"/>
			</clipPath>
			<rect x="73.1" y="25.3" clip-path="url(#SVGID_162_)" fill="#FFAB8E" width="8.3" height="8.2"/>
		</g>
	</g>
	<g>
		<defs>
			<polyline id="SVGID_163_" points="62.5,4.8 129.7,4.8 129.7,119.5 62.5,119.5 			"/>
		</defs>
		<clipPath id="SVGID_164_">
			<use xlink:href="#SVGID_163_"  overflow="visible"/>
		</clipPath>
		<g clip-path="url(#SVGID_164_)">
			<defs>
				<rect id="SVGID_165_" x="20.4" y="-0.7" width="161.2" height="162.9"/>
			</defs>
			<clipPath id="SVGID_166_">
				<use xlink:href="#SVGID_165_"  overflow="visible"/>
			</clipPath>
			<g clip-path="url(#SVGID_166_)">
				<defs>
					<rect id="SVGID_167_" x="67" y="38.6" width="58.9" height="81"/>
				</defs>
				<clipPath id="SVGID_168_">
					<use xlink:href="#SVGID_167_"  overflow="visible"/>
				</clipPath>
				<g clip-path="url(#SVGID_168_)">
					<defs>
						<path id="SVGID_169_" d="M114.3,85.8c0,10.2-8.2,18.5-18.3,18.5c-10.1,0-18.3-8.3-18.3-18.5c0-10.2,8.2-18.5,18.3-18.5
							C106.1,67.4,114.3,75.6,114.3,85.8"/>
					</defs>
					<clipPath id="SVGID_170_">
						<use xlink:href="#SVGID_169_"  overflow="visible"/>
					</clipPath>
					<g clip-path="url(#SVGID_170_)">
						<defs>
							<rect id="SVGID_171_" x="62.1" y="4.2" width="67.9" height="115.4"/>
						</defs>
						<clipPath id="SVGID_172_">
							<use xlink:href="#SVGID_171_"  overflow="visible"/>
						</clipPath>
						<rect x="73.6" y="63.3" clip-path="url(#SVGID_172_)" fill="#882C84" width="44.8" height="45.1"/>
					</g>
				</g>
				<g clip-path="url(#SVGID_168_)">
					<defs>
						<path id="SVGID_173_" d="M67,112.3c0-1.4,1.1-2.5,2.5-2.5h54c1.4,0,2.5,1.1,2.5,2.5v4.9c0,1.4-1.1,2.5-2.5,2.5h-54
							c-1.4,0-2.5-1.1-2.5-2.5V112.3z"/>
					</defs>
					<clipPath id="SVGID_174_">
						<use xlink:href="#SVGID_173_"  overflow="visible"/>
					</clipPath>
					<g clip-path="url(#SVGID_174_)">
						<defs>
							<rect id="SVGID_175_" x="62.1" y="4.2" width="67.9" height="115.4"/>
						</defs>
						<clipPath id="SVGID_176_">
							<use xlink:href="#SVGID_175_"  overflow="visible"/>
						</clipPath>
						<rect x="62.9" y="105.7" clip-path="url(#SVGID_176_)" fill="#AC29B5" width="67.1" height="18"/>
					</g>
				</g>
				<g clip-path="url(#SVGID_168_)">
					<defs>
						<rect id="SVGID_177_" x="85" y="113.9" width="23.7" height="1.6"/>
					</defs>
					<clipPath id="SVGID_178_">
						<use xlink:href="#SVGID_177_"  overflow="visible"/>
					</clipPath>
					<g clip-path="url(#SVGID_178_)">
						<defs>
							<rect id="SVGID_179_" x="62.1" y="4.2" width="67.9" height="115.4"/>
						</defs>
						<clipPath id="SVGID_180_">
							<use xlink:href="#SVGID_179_"  overflow="visible"/>
						</clipPath>
						<rect x="80.9" y="109.8" clip-path="url(#SVGID_180_)" fill="#FFFFFF" width="31.9" height="9.8"/>
					</g>
				</g>
			</g>
		</g>
	</g>
	<g>
		<defs>
			<path id="SVGID_181_" d="M123.3,55.9c0-0.6-0.2-1-0.5-1.4c-0.2-0.3-0.4-0.5-0.6-0.6c-0.2-0.1-0.5-0.2-0.7-0.2c-0.1,0-0.1,0-0.2,0
				c-0.1,0-0.1,0-0.2,0c-0.7,0-1.1,0.2-1.5,0.6c0,0-0.1,0.1-0.1,0.1c0,0-0.1,0.1-0.1,0.1l0,0.1l-0.1,0.1v6.8l0,0
				c0,0,0.1-0.1,0.1-0.1c2.7-1.9,3.7-3.5,3.9-4.8c0-0.1,0-0.2,0-0.3L123.3,55.9"/>
		</defs>
		<clipPath id="SVGID_182_">
			<use xlink:href="#SVGID_181_"  overflow="visible"/>
		</clipPath>
		<g clip-path="url(#SVGID_182_)">
			<defs>
				<rect id="SVGID_183_" x="20.4" y="-0.7" width="161.2" height="162.9"/>
			</defs>
			<clipPath id="SVGID_184_">
				<use xlink:href="#SVGID_183_"  overflow="visible"/>
			</clipPath>
			<rect x="115.1" y="49.6" clip-path="url(#SVGID_184_)" fill="#FF7BF3" width="12.3" height="16"/>
		</g>
	</g>
	<g>
		<defs>
			<path id="SVGID_185_" d="M119.2,54.7c-0.5-0.6-0.9-1-1.9-1c-0.1,0-0.2,0-0.4,0c-0.3,0-0.6,0.2-0.9,0.4c-0.5,0.4-0.9,1-0.9,1.9
				l0,0.5c0,0.5,0.2,1.1,0.6,1.7c0.3,0.6,0.8,1.2,1.5,1.8c0.5,0.5,1.2,1,2,1.6L119.2,54.7L119.2,54.7"/>
		</defs>
		<clipPath id="SVGID_186_">
			<use xlink:href="#SVGID_185_"  overflow="visible"/>
		</clipPath>
		<g clip-path="url(#SVGID_186_)">
			<defs>
				<rect id="SVGID_187_" x="20.4" y="-0.7" width="161.2" height="162.9"/>
			</defs>
			<clipPath id="SVGID_188_">
				<use xlink:href="#SVGID_187_"  overflow="visible"/>
			</clipPath>
			<rect x="111" y="49.6" clip-path="url(#SVGID_188_)" fill="#FFB0F8" width="12.3" height="16"/>
		</g>
	</g>
	<g>
		<defs>
			<polyline id="SVGID_189_" points="73.8,72 73.8,72 73.8,72 73.8,72 73.8,72 73.8,72 73.8,72 			"/>
		</defs>
		<clipPath id="SVGID_190_">
			<use xlink:href="#SVGID_189_"  overflow="visible"/>
		</clipPath>
		<g clip-path="url(#SVGID_190_)">
			<defs>
				<rect id="SVGID_191_" x="20.4" y="-0.7" width="161.2" height="162.9"/>
			</defs>
			<clipPath id="SVGID_192_">
				<use xlink:href="#SVGID_191_"  overflow="visible"/>
			</clipPath>
			<rect x="69.7" y="67.9" clip-path="url(#SVGID_192_)" fill="#FFAB8E" width="8.2" height="8.2"/>
		</g>
	</g>
	<g>
		<defs>
			<polyline id="SVGID_193_" points="86.2,72 86.2,72 86.2,72 86.2,72 86.2,72 86.2,72 86.2,72 			"/>
		</defs>
		<clipPath id="SVGID_194_">
			<use xlink:href="#SVGID_193_"  overflow="visible"/>
		</clipPath>
		<g clip-path="url(#SVGID_194_)">
			<defs>
				<rect id="SVGID_195_" x="20.4" y="-0.7" width="161.2" height="162.9"/>
			</defs>
			<clipPath id="SVGID_196_">
				<use xlink:href="#SVGID_195_"  overflow="visible"/>
			</clipPath>
			<rect x="82.1" y="67.9" clip-path="url(#SVGID_196_)" fill="#FFAB8E" width="8.2" height="8.2"/>
		</g>
	</g>
	<g>
		<defs>
			<polyline id="SVGID_197_" points="98.6,72 98.6,72 98.6,72 98.6,72 98.6,72 98.6,72 98.6,72 			"/>
		</defs>
		<clipPath id="SVGID_198_">
			<use xlink:href="#SVGID_197_"  overflow="visible"/>
		</clipPath>
		<g clip-path="url(#SVGID_198_)">
			<defs>
				<rect id="SVGID_199_" x="20.4" y="-0.7" width="161.2" height="162.9"/>
			</defs>
			<clipPath id="SVGID_200_">
				<use xlink:href="#SVGID_199_"  overflow="visible"/>
			</clipPath>
			<rect x="94.5" y="67.9" clip-path="url(#SVGID_200_)" fill="#FFAB8E" width="8.2" height="8.2"/>
		</g>
	</g>
	<path fill="#AD29B6" d="M111.7,85.7c0-0.2,0-0.3,0-0.5c-1.3-0.6-5.3,0.2-9-0.1c-4.1-0.3-9.1-1.8-13.4-1.6c-4.1,0.2-7.1,0.6-8.7,1.3
		c0,0.3,0,0.6,0,0.9c0,8.6,6.9,15.5,15.5,15.6c0.2,0,0.5,0,0.7,0C105,101,111.7,94.1,111.7,85.7z"/>
	<g>
		<defs>
			<circle id="SVGID_201_" cx="98.7" cy="100.3" r="91.9"/>
		</defs>
		<clipPath id="SVGID_202_">
			<use xlink:href="#SVGID_201_"  overflow="visible"/>
		</clipPath>
		<path clip-path="url(#SVGID_202_)" fill="#E0B487" d="M85.7,205l8.8-8v-22.6c0-8.1-5.5-13.1-12.4-13.6l0,41.5L85.7,205z"/>
		<path clip-path="url(#SVGID_202_)" fill="#EFC6A0" d="M82.1,174v-12.2c1.1,0,1.9,0.9,1.9,2V174H82.1z"/>
		<path clip-path="url(#SVGID_202_)" fill="#E0B487" d="M103.7,110.8c-4.3,0-7.8,3.7-7.8,8.3c0,0,0,86.7,0,86.7
			c0,4.6,3.5,4.7,7.8,4.7c4.3,0,7.8-0.1,7.8-4.7c0,0,0-86.7,0-86.7C111.5,114.5,108,110.8,103.7,110.8z"/>
		<ellipse clip-path="url(#SVGID_202_)" fill="#E0B487" cx="120.6" cy="155.8" rx="7.8" ry="8.3"/>
		<ellipse clip-path="url(#SVGID_202_)" fill="#E0B487" cx="137.6" cy="159.5" rx="7.8" ry="8.3"/>
		<ellipse clip-path="url(#SVGID_202_)" fill="#E0B487" cx="153.3" cy="163.1" rx="6.5" ry="6.9"/>
		<path clip-path="url(#SVGID_202_)" fill="#EFC6A0" d="M98,119.1c0-3.3,2.6-6,5.7-6c3.1,0,5.7,2.7,5.7,6H98z"/>
		<rect x="98" y="119.1" clip-path="url(#SVGID_202_)" fill="#EFC6A0" width="11.4" height="5.7"/>
		<path clip-path="url(#SVGID_202_)" fill="#E0B487" d="M149.2,218.6c0,0-32.2,0-49.7,0s-17.4-18.5-17.4-18.5v-20.8l14.7,13.6
			l1.1-42.4l51.3,8.9c5.8,0,10.6-2.2,10.6,4v43.9C159.9,213.5,155.1,218.6,149.2,218.6z"/>
	</g>
	<circle fill="#FEF3E9" cx="77.4" cy="35" r="9.8"/>
	<g>
		<defs>
			<circle id="SVGID_203_" cx="77.4" cy="35" r="9.8"/>
		</defs>
		<use xlink:href="#SVGID_203_"  overflow="visible" fill="#F8F2F9"/>
		<clipPath id="SVGID_204_">
			<use xlink:href="#SVGID_203_"  overflow="visible"/>
		</clipPath>
		<path clip-path="url(#SVGID_204_)" fill="#AD29B6" d="M85,41.9c-0.9-1.9-3-3.3-5.6-3.8c-0.7-0.1-1.3-0.2-1.9-0.2
			c-0.6,0-1.3,0.1-1.9,0.2c-2.6,0.5-4.8,1.9-5.6,3.8c-0.2,0.5-0.4,1-0.4,1.4v2.2l15.9,0v-2.2C85.3,42.9,85.2,42.4,85,41.9"/>
		<path clip-path="url(#SVGID_204_)" fill="#882C84" d="M77.4,37.9L77.4,37.9c-0.1,0-0.2,0-0.3,0c-0.5,0-1.1,0.1-1.6,0.2
			c-2.6,0.5-4.8,1.9-5.6,3.8c-0.2,0.4-0.3,0.7-0.4,1.1l0,0c0,0.8,0.1,2.6,0.1,2.6h0.7l7.1,0v-2.2V37.9L77.4,37.9"/>
		<path clip-path="url(#SVGID_204_)" fill="#E0B487" d="M77.4,28.2c0.1,0,0.1,0,0.2,0l0,0l0,0v0c1.7,0,3.2,1.1,3.9,2.6
			c0.2,0.5,0.4,1.1,0.4,1.8c0,0.1,0,0.3,0,0.4c-0.2,2.2-2,3.9-4.3,3.9v0l0,0l0,0c-0.1,0-0.1,0-0.2,0c-2.3-0.1-4.2-2-4.2-4.3
			C73.2,30.2,75.1,28.3,77.4,28.2"/>
		<path clip-path="url(#SVGID_204_)" fill="#DBA772" d="M77.5,28.2v8.7c0,0-0.1,0-0.1,0c-2.3-0.1-4.2-2-4.2-4.3
			c0-2.3,1.9-4.2,4.2-4.3C77.4,28.2,77.5,28.2,77.5,28.2"/>
	</g>
</g>
</svg>
