<?xml version="1.0" encoding="UTF-8" standalone="no"?>
<svg width="142px" height="25px" viewBox="0 0 142 25" version="1.1" xmlns="http://www.w3.org/2000/svg" xmlns:xlink="http://www.w3.org/1999/xlink">
    <!-- Generator: Sketch 3.7.2 (28276) - http://www.bohemiancoding.com/sketch -->
    <title>logo</title>
    <desc>Created with Sketch.</desc>
    <defs></defs>
    <g id="V0.2-Copy" stroke="none" stroke-width="1" fill="none" fill-rule="evenodd">
        <g id="Zakat-Giving---Step-1---XL" transform="translate(-735.000000, -275.000000)" fill="#FFFFFF">
            <g id="Banner" transform="translate(-19.000000, 53.000000)">
                <g id="Group-4" transform="translate(623.000000, 212.000000)">
                    <g id="Group-5">
                        <path d="M206.756563,14.6090717 L211.687585,14.6090717 L211.687585,29.5052741 L206.756563,29.5052741 L206.756563,14.6090717 Z M206.756563,10.3438381 L211.687585,10.3438381 L211.687585,13.3479562 L206.756563,13.3479562 L206.756563,10.3438381 Z M222.80002,29.6102678 L218.542024,29.6102678 L218.500882,29.506872 L212.662547,14.6018967 L217.925528,14.6018967 L220.701171,22.884214 L223.499113,14.6018967 L228.681067,14.6018967 L222.80002,29.6102678 Z M229.586684,14.6090717 L234.524616,14.6090717 L234.524616,29.5052741 L229.586684,29.5052741 L229.586684,14.6090717 Z M229.586684,10.3438381 L234.524616,10.3438381 L234.524616,13.3479562 L229.586684,13.3479562 L229.586684,10.3438381 Z M249.839113,29.5053681 L244.910917,29.5053681 L244.910917,21.2443565 C244.910917,19.6931061 244.267413,18.9025982 242.998305,18.9025982 C241.355154,18.9025982 241.015658,20.1790664 241.015658,21.2443565 L241.015658,29.5053681 L236.078668,29.5053681 L236.078668,14.6091657 L239.497188,14.6091657 L240.852348,15.9517446 C241.921401,14.8695351 243.161301,14.3462897 244.614761,14.3462897 C247.837308,14.3462897 249.838485,16.5116485 249.838485,20.0020403 L249.838485,29.5053681 L249.839113,29.5053681 Z M137.611232,29.762855 C135.035643,29.762855 132.897223,28.7912477 131.273858,26.8630726 L131,26.5390991 L134.343146,23.205681 L134.535035,23.4140392 C135.593096,24.5745788 136.480309,25.0727586 137.507593,25.0727586 C138.840768,25.0727586 139.468256,24.2703445 139.468256,22.5464544 L139.468256,10.3441827 L144.562274,10.3441827 L144.562274,22.7316269 C144.562274,27.197699 142.027513,29.762855 137.611232,29.762855 Z M262.144842,21.4349495 C262.144842,23.1544531 260.808526,24.3995892 258.967204,24.3995892 C257.114577,24.3995892 255.824428,23.1826519 255.824428,21.4349495 L255.824428,21.3776118 C255.824428,19.6590482 257.146611,18.4151653 258.967204,18.4151653 C260.808526,18.4151653 262.144842,19.6590482 262.144842,21.3776118 L262.144842,21.4349495 Z M263.249069,14.6092597 L261.994722,15.8694352 C260.808526,14.8263909 259.476606,14.3463837 257.824034,14.3463837 C254.476177,14.3463837 251.085923,16.7617724 251.085923,21.3776118 L251.085923,21.4333829 C251.085923,26.0529821 254.476177,28.4693108 257.824034,28.4693108 C259.410968,28.4693108 260.655579,28.0250222 261.801576,27.0408821 C261.588959,28.8004907 260.524303,29.9710565 258.395619,29.9710565 C257.113007,29.9710565 256.006581,29.7407659 254.856815,29.2269201 L251.630499,32.4469161 L252.076775,32.6790867 C253.953899,33.6707465 256.174288,34.1993184 258.499886,34.1993184 C264.184647,34.1993184 266.829643,31.3139487 266.829643,25.9279672 L266.829643,14.6092597 L263.249069,14.6092597 Z M151.43967,29.762855 C148.216494,29.762855 146.216888,27.5974962 146.216888,24.1052245 L146.216888,14.6094164 L151.147282,14.6094164 L151.147282,22.8582084 C151.147282,24.4154119 151.78953,25.2031 153.050473,25.2031 C154.69802,25.2031 155.039087,23.9256918 155.039087,22.8582084 L155.039087,14.6094164 L159.982672,14.6094164 L159.982672,29.5053054 L156.557243,29.5053054 L155.203967,28.1580268 C154.133972,29.2386696 152.900039,29.762855 151.43967,29.762855 Z M180.386633,29.739074 C177.326767,29.739074 175.836249,28.2132025 175.836249,25.0646436 L175.836249,18.9577113 L174.1708,18.9577113 L174.1708,14.6075678 L175.836249,14.6075678 L175.836249,10.3432741 L180.76947,10.3432741 L180.76947,14.6075678 L184.047919,14.6075678 L184.047919,18.9577113 L180.76947,18.9577113 L180.76947,24.4176365 C180.76947,25.0793696 180.951309,25.2789549 181.559639,25.2789549 C182.168911,25.2789549 182.752431,25.1351407 183.275337,24.8434392 L183.999241,24.453355 L183.999241,28.7236018 L183.762127,28.8630295 C182.754943,29.4620985 181.688089,29.739074 180.386633,29.739074 Z M168.871796,20.3355074 L168.4139,20.1844869 C167.263192,19.7950293 166.171213,19.4287575 166.171213,18.9427972 L166.171213,18.8892194 C166.171213,18.4054524 166.775146,18.2328127 167.340764,18.2328127 C168.130934,18.2328127 169.19873,18.563366 170.345356,19.1414425 L173.191034,16.3033843 L172.965226,16.1539304 C171.363845,15.0789273 169.291378,14.4378733 167.421477,14.4378733 C164.075819,14.4378733 161.829991,16.3992604 161.829991,19.3172154 L161.829991,19.3729865 C161.829991,22.2784086 164.121357,23.3411922 166.356821,23.9932124 C166.542429,24.0521166 166.726153,24.1050678 166.903596,24.1602123 C168.079428,24.5054916 169.09572,24.8047128 169.09572,25.3339113 L169.09572,25.3890557 C169.09572,25.9928246 168.345121,26.1234793 167.712923,26.1234793 C166.511023,26.1234793 165.09368,25.6168398 163.747628,24.724816 L161.033226,27.4381726 L160.994597,27.4933171 L161.234538,27.6784895 C163.069263,29.1247775 165.334563,29.9206119 167.608656,29.9206119 C171.255809,29.9206119 173.436627,28.0717069 173.436627,24.9610598 L173.436627,24.9049754 C173.436627,21.8554258 170.463441,20.8700324 168.871796,20.3355074 Z M267.852529,15.2836197 L268.559787,15.2836197 L268.559787,16.9821308 L269.352783,16.9821308 L269.352783,15.2836197 L270.05219,15.2836197 L270.05219,14.6093537 L267.852529,14.6093537 L267.852529,15.2836197 Z M272.165862,14.6092284 L271.651122,15.4392147 L271.136067,14.6092284 L270.311665,14.6092284 L270.311665,16.9823188 L271.092099,16.9823188 L271.092099,15.8001601 L271.450439,16.353171 L271.83673,16.353171 L272.200095,15.8001601 L272.200095,16.9823188 L273,16.9823188 L273,14.6092284 L272.165862,14.6092284 Z M205.182066,17.8032501 L198.211866,17.8032501 L194.133196,21.8638854 L199.731592,21.8638854 C199.002035,23.4959725 197.357,24.634893 195.449099,24.634893 C192.862204,24.634893 190.761785,22.5403446 190.761785,19.9595227 C190.761785,17.3752542 192.862204,15.2769459 195.449099,15.2769459 C196.387818,15.2769459 197.262783,15.5507882 197.994224,16.0251556 L201.770769,12.2606083 C200.045021,10.8487856 197.840963,10 195.434966,10 C189.925763,10 185.459233,14.4572992 185.459233,19.9595227 C185.459233,25.4551664 189.925763,29.9112123 195.434966,29.9112123 C200.951078,29.9112123 205.419493,25.4551664 205.419493,19.9595227 C205.419493,19.2175794 205.33564,18.4941221 205.182066,17.8032501" id="logo"></path>
                    </g>
                </g>
            </g>
        </g>
    </g>
</svg>