<?xml version="1.0" encoding="utf-8"?>
<!-- Generator: Adobe Illustrator 18.1.1, SVG Export Plug-In . SVG Version: 6.00 Build 0)  -->
<svg version="1.1" id="Layer_2" xmlns="http://www.w3.org/2000/svg" xmlns:xlink="http://www.w3.org/1999/xlink" x="0px" y="0px"
	 viewBox="0 0 200 200" enable-background="new 0 0 200 200" xml:space="preserve">
<g>
	<path fill-rule="evenodd" clip-rule="evenodd" fill="#FFFFFF" d="M186.4,100.6c0,50.6-41,91.6-91.6,91.6c-50.6,0-91.6-41-91.6-91.6
		c0-50.6,41-91.6,91.6-91.6C145.4,8.9,186.4,49.9,186.4,100.6"/>
	<g>
		<defs>
			<path id="SVGID_1_" d="M186.4,100.6c0,50.6-41,91.6-91.6,91.6c-50.6,0-91.6-41-91.6-91.6c0-50.6,41-91.6,91.6-91.6
				C145.3,8.9,186.4,50,186.4,100.6"/>
		</defs>
		<clipPath id="SVGID_2_">
			<use xlink:href="#SVGID_1_"  overflow="visible"/>
		</clipPath>
		<polyline clip-path="url(#SVGID_2_)" fill="#EED4F0" points="152.1,174.8 44.6,174.8 44.6,126.3 152.1,126.3 152.1,174.8 		"/>
		<polyline clip-path="url(#SVGID_2_)" fill="#AF66BC" points="120.1,180.8 73.2,180.8 73.2,169.5 120.1,169.5 120.1,180.8 		"/>
		<g clip-path="url(#SVGID_2_)">
			<defs>
				<polyline id="SVGID_3_" points="120.1,180.8 73.2,180.8 73.2,169.5 120.1,169.5 120.1,180.8 				"/>
			</defs>
			<clipPath id="SVGID_4_">
				<use xlink:href="#SVGID_3_"  overflow="visible"/>
			</clipPath>
			<polyline clip-path="url(#SVGID_4_)" fill="#AF66BC" points="120.5,178 72.8,178 72.8,169.3 120.5,169.3 120.5,178 			"/>
		</g>
		<polyline clip-path="url(#SVGID_2_)" fill="#AF66BC" points="120.1,179.5 73.2,179.5 73.2,168.9 120.1,168.9 120.1,179.5 		"/>
		<g clip-path="url(#SVGID_2_)">
			<defs>
				<polyline id="SVGID_5_" points="120.1,179.5 73.2,179.5 73.2,168.9 120.1,168.9 120.1,179.5 				"/>
			</defs>
			<clipPath id="SVGID_6_">
				<use xlink:href="#SVGID_5_"  overflow="visible"/>
			</clipPath>
			<path clip-path="url(#SVGID_6_)" fill="#AF66BC" d="M119.2,162.8h-4.4v0h-5.2v0H99.1v0H94v0H83.7v0h-5.2v0h-4.4
				c-1.8,0-3.3,1.5-3.3,3.3v9.1c0,0,0.3,1.6,1.6,0c0.8-1.3,3.2-3.6,6.2-3.6c2.9,0,5.8,3.4,8.1,3.4c3.1,0,5-3.4,9.7-3.4
				c4.6,0,6.2,3.4,9.8,3.4c3.2,0,5.7-3.4,8.6-3.4c2.1,0,5.1,2.2,6.3,3.6c1.1,1.3,1.3,0,1.3,0V166C122.4,164.2,121,162.8,119.2,162.8
				"/>
		</g>
		<path clip-path="url(#SVGID_2_)" fill="#AF66BC" d="M110.9,142.4c0.4,2.6-4,4.7-4,7.3c0,2.6,2.1,4.8,4.8,4.8l0,0
			c-1.3,0-2.3-1-2.3-2.3c0-1.3,2.1-2.2,1.9-3.5c-0.2-1.3,2.7,2.2,2.7,3.5c0,0.9-0.6,1.8-1.4,2.2c2.2-0.4,3.9-2.3,3.9-4.6
			C116.5,147,110.6,139.7,110.9,142.4"/>
		<path clip-path="url(#SVGID_2_)" fill="#AF66BC" d="M80.4,142.4c0.4,2.6-4,4.7-4,7.3c0,2.6,2.1,4.8,4.8,4.8l0,0
			c-1.3,0-2.3-1-2.3-2.3c0-1.3,2.1-2.2,1.9-3.5c-0.2-1.3,2.7,2.2,2.7,3.5c0,0.9-0.6,1.8-1.4,2.2c2.2-0.4,3.9-2.3,3.9-4.7
			C86,147,80,139.7,80.4,142.4z"/>
		<path clip-path="url(#SVGID_2_)" fill="#AF66BC" d="M95.7,138.6c0.4,3-4.5,5.3-4.5,8.3c0,3,2.4,5.4,5.4,5.4l0,0
			c-1.4,0-2.6-1.2-2.6-2.6c0-1.4,2.4-2.5,2.2-4c-0.2-1.5,3,2.5,3,4c0,1.1-0.8,2.1-1.8,2.5c2.5-0.5,4.6-2.7,4.6-5.3
			C102,143.9,95.3,135.6,95.7,138.6z"/>
		<path clip-path="url(#SVGID_2_)" fill="#AF66BC" d="M117.7,174.9L117.7,174.9c0.1,0.1,0.3,0.1,0.4,0.2v0
			C118,175,117.9,174.9,117.7,174.9"/>
		<path clip-path="url(#SVGID_2_)" fill="#AF66BC" d="M84.2,164.2c0,0.2-0.2,0.4-0.4,0.4h-4.7c-0.2,0-0.4-0.2-0.4-0.4v-7.5
			c0-0.2,0.2-0.4,0.4-0.4h4.7c0.2,0,0.4,0.2,0.4,0.4V164.2z"/>
		<path clip-path="url(#SVGID_2_)" fill="#AF66BC" d="M114.2,164.2c0,0.2-0.2,0.4-0.4,0.4h-4.7c-0.2,0-0.4-0.2-0.4-0.4v-7.5
			c0-0.2,0.2-0.4,0.4-0.4h4.7c0.2,0,0.4,0.2,0.4,0.4V164.2z"/>
		<path clip-path="url(#SVGID_2_)" fill="#AF66BC" d="M99.6,164.2c0,0.2-0.2,0.4-0.4,0.4h-4.7c-0.2,0-0.4-0.2-0.4-0.4v-9.9
			c0-0.2,0.2-0.4,0.4-0.4h4.7c0.2,0,0.4,0.2,0.4,0.4V164.2z"/>
		<path clip-path="url(#SVGID_2_)" fill="#AF66BC" d="M121.8,187l-1.7,0.2v-11.2c-1.8-1.1-3.6-1.9-5.2-1.9c-1.7,0-5.4,2.8-8.6,2.8
			c-4.5,0-6.6-2.8-9.8-2.8c-3.2,0-7.3,2.8-9.7,2.8c-3.1,0-6.1-2.8-8.1-2.8c-2.3,0-4.1,0.8-5.4,1.7V187h-1.8c-1.8,0-3.3,1.5-3.3,3.3
			v2.2H125v-2.2C125,188.5,123.6,187,121.8,187"/>
		<path clip-path="url(#SVGID_2_)" fill="#AF66BC" d="M119.2,161.6h-4.4v0h-5.2v0H99.1v0H94v0H83.7v0h-5.2v0h-4.4
			c-1.8,0-3.3,1.5-3.3,3.3v9.1c0,0,0.3,1.6,1.6,0c0.8-1.3,3.2-3.6,6.2-3.6c2.9,0,5.8,3.4,8.1,3.4c3.1,0,5-3.4,9.7-3.4
			c4.6,0,6.2,3.4,9.8,3.4c3.2,0,5.7-3.4,8.6-3.4c2.1,0,5.1,2.2,6.3,3.6c1.1,1.3,1.3,0,1.3,0v-9.1C122.4,163.1,121,161.6,119.2,161.6
			"/>
		<rect x="44.6" y="-36" clip-path="url(#SVGID_2_)" fill="#EED4F0" width="107.5" height="48.5"/>
		<path clip-path="url(#SVGID_2_)" fill="#92269E" d="M94.3-2.9C83-2.9,73.8,3.9,73.8,12.4h41C114.8,3.9,105.6-2.9,94.3-2.9"/>
		<polyline clip-path="url(#SVGID_2_)" fill="#EED4F0" points="152.1,94.4 44.6,94.4 44.6,45.9 152.1,45.9 152.1,94.4 		"/>
		<g clip-path="url(#SVGID_2_)">
			<defs>
				<polyline id="SVGID_7_" points="152.1,94.4 44.6,94.4 44.6,45.9 152.1,45.9 152.1,94.4 				"/>
			</defs>
			<clipPath id="SVGID_8_">
				<use xlink:href="#SVGID_7_"  overflow="visible"/>
			</clipPath>
			<path clip-path="url(#SVGID_8_)" fill="#FFFFFF" d="M137.3,81.2c-0.5-1.1-1.3-1.7-1.9-2l-3.7,3.7h5.9
				C137.7,82.3,137.6,81.7,137.3,81.2"/>
			<path clip-path="url(#SVGID_8_)" fill="#FBF4FB" d="M137.3,81.2c0.2,0.5,0.4,1.1,0.4,1.7h3.2l-4.5-4.5l-0.9,0.9
				C136.1,79.5,136.9,80.1,137.3,81.2"/>
			<path clip-path="url(#SVGID_8_)" fill="#AC29B5" d="M135.5,88.1c0.6-1.3,0.4-1.2,1.5-2.7c0.4-0.7,0.7-1.6,0.7-2.5h-5.9l-11,11
				c1.2,2.8,13.2,3,16.3,3.5C136.3,96.2,134.8,89.4,135.5,88.1"/>
			<path clip-path="url(#SVGID_8_)" fill="#92269E" d="M137,85.4c-0.8,1.2-2.3,1.7-2.9,3c-0.9,2-0.4,4.9,0.7,6.7
				c0.5,0.8,1.4,2.1,2.4,2.3c0.5,0.1,1,0.1,1.6,0.1c3.7,0,14.2,2,15.5-1.3l-13.4-13.4h-3.2C137.7,83.8,137.4,84.7,137,85.4"/>
			<path clip-path="url(#SVGID_8_)" fill="#FFFFFF" d="M41.7,83.2c-0.5-1-1.3-1.6-1.8-1.9l-3.6,3.6H42C42,84.3,41.9,83.8,41.7,83.2z
				"/>
			<path clip-path="url(#SVGID_8_)" fill="#FBF4FB" d="M41.7,83.2c0.2,0.5,0.3,1.1,0.3,1.6h0h3.1l-4.4-4.4l-0.8,0.8
				C40.4,81.6,41.2,82.2,41.7,83.2z"/>
			<path clip-path="url(#SVGID_8_)" fill="#AC29B5" d="M39.8,90c0.6-1.2,0.4-1.1,1.4-2.7c0.4-0.6,0.7-1.5,0.7-2.4h0h-5.7L25.5,95.6
				c1.1,2.7,12.9,2.9,15.9,3.5C40.7,97.9,39.2,91.2,39.8,90z"/>
			<path clip-path="url(#SVGID_8_)" fill="#92269E" d="M41.3,87.3c-0.8,1.2-2.3,1.7-2.9,3c-0.9,1.9-0.4,4.7,0.7,6.5
				c0.5,0.8,1.3,2,2.3,2.2c0.5,0.1,1,0.1,1.5,0.1c3.7,0,13.8,1.9,15.2-1.3l-13-13H42C42,85.8,41.7,86.7,41.3,87.3z"/>
			<g clip-path="url(#SVGID_8_)">
				<defs>
					<path id="SVGID_9_" d="M138.4,59.8c-0.5-1-1.5-1.6-2.6-1.6c-0.3,0-0.5,0-0.8,0.1c-0.7-0.9-1.7-1.4-2.8-1.4
						c-1.7,0-3.2,1.2-3.5,2.9c-1.1,0.2-1.9,1.1-1.9,2.1c0,1.2,1,2.2,2.2,2.2h9.1c1.2,0,2.2-1,2.2-2.2
						C140.2,60.8,139.4,59.9,138.4,59.8"/>
				</defs>
				<clipPath id="SVGID_10_">
					<use xlink:href="#SVGID_9_"  overflow="visible"/>
				</clipPath>
				<g clip-path="url(#SVGID_10_)">
					<defs>
						<polyline id="SVGID_11_" points="102.9,78.1 141.9,78.1 141.9,54.9 102.9,54.9 102.9,78.1 						"/>
					</defs>
					<clipPath id="SVGID_12_">
						<use xlink:href="#SVGID_11_"  overflow="visible"/>
					</clipPath>
					<polyline clip-path="url(#SVGID_12_)" fill="#FFFFFE" points="123.7,55.2 140.7,55.2 140.7,65.9 123.7,65.9 123.7,55.2 					
						"/>
				</g>
			</g>
			<path clip-path="url(#SVGID_8_)" fill-rule="evenodd" clip-rule="evenodd" fill="#FFFFFF" d="M62.7,55.2
				c-0.4-0.8-1.3-1.3-2.2-1.3c-0.2,0-0.4,0-0.6,0.1c-0.6-0.7-1.5-1.2-2.4-1.2c-1.4,0-2.7,1-3,2.4c-0.9,0.1-1.6,0.9-1.6,1.8
				c0,1,0.8,1.8,1.8,1.8h7.7c1,0,1.8-0.8,1.8-1.8C64.2,56.1,63.5,55.4,62.7,55.2"/>
			<g clip-path="url(#SVGID_8_)">
				<defs>
					<path id="SVGID_13_" d="M62.7,55.2c-0.4-0.8-1.3-1.3-2.2-1.3c-0.2,0-0.4,0-0.6,0.1c-0.6-0.7-1.4-1.2-2.4-1.2
						c-1.4,0-2.7,1-3,2.4c-0.9,0.1-1.6,0.9-1.6,1.8c0,1,0.8,1.8,1.8,1.8h7.7c1,0,1.8-0.8,1.8-1.8C64.2,56.1,63.5,55.4,62.7,55.2"/>
				</defs>
				<clipPath id="SVGID_14_">
					<use xlink:href="#SVGID_13_"  overflow="visible"/>
				</clipPath>
				<rect x="32.7" y="51.1" clip-path="url(#SVGID_14_)" fill="#FFFFFF" width="32.9" height="19.6"/>
			</g>
			<path clip-path="url(#SVGID_8_)" fill="#FFFFFF" d="M98.1,59.6c-1.4-3.2-3.9-5-5.6-6L81.3,64.7h17.8C99.1,63,98.8,61.3,98.1,59.6
				z"/>
			<path clip-path="url(#SVGID_8_)" fill="#FBF4FB" d="M98.1,59.6c0.7,1.7,1.1,3.4,1.1,5.1h0h9.6L95,51l-2.6,2.6
				C94.2,54.6,96.6,56.4,98.1,59.6z"/>
			<path clip-path="url(#SVGID_8_)" fill="#AC29B5" d="M92.4,80.5c1.9-3.9,1.4-3.6,4.5-8.3c1.3-2,2.2-4.7,2.2-7.6h0H81.3L48,97.9
				c3.6,8.4,40.1,9.1,49.3,10.7C95,105.1,90.5,84.5,92.4,80.5z"/>
			<path clip-path="url(#SVGID_8_)" fill="#92269E" d="M96.9,72.3c-2.4,3.6-7.1,5.3-8.9,9.2c-2.8,6.1-1.1,14.7,2.1,20.3
				c1.4,2.5,4.1,6.4,7.3,6.9c1.6,0.3,3.1,0.4,4.8,0.4c11.4,0,43,5.9,47.1-3.9l-40.5-40.5h-9.6C99.1,67.5,98.2,70.2,96.9,72.3"/>
			<g clip-path="url(#SVGID_8_)">
				<defs>
					<path id="SVGID_15_" d="M80.9,62.7c-0.6-1.1-1.6-1.7-2.9-1.7c-0.3,0-0.6,0-0.8,0.1c-0.7-1-1.9-1.5-3.1-1.5
						c-1.9,0-3.5,1.3-3.9,3.1c-1.2,0.2-2,1.2-2,2.4c0,1.3,1.1,2.4,2.4,2.4h10c1.3,0,2.4-1.1,2.4-2.4C82.9,63.8,82.1,62.9,80.9,62.7"
						/>
				</defs>
				<clipPath id="SVGID_16_">
					<use xlink:href="#SVGID_15_"  overflow="visible"/>
				</clipPath>
				<g clip-path="url(#SVGID_16_)">
					<defs>
						<polyline id="SVGID_17_" points="42,82.8 84.8,82.8 84.8,57.3 42,57.3 42,82.8 						"/>
					</defs>
					<clipPath id="SVGID_18_">
						<use xlink:href="#SVGID_17_"  overflow="visible"/>
					</clipPath>
					<rect x="64.8" y="57.6" clip-path="url(#SVGID_18_)" fill="#FFFFFE" width="18.7" height="11.8"/>
				</g>
			</g>
		</g>
		<polyline clip-path="url(#SVGID_2_)" fill="#FFFFFF" points="152.1,122.9 44.6,122.9 44.6,94.4 152.1,94.4 152.1,122.9 		"/>
		<circle clip-path="url(#SVGID_2_)" fill="#FEF3E9" cx="63" cy="96.7" r="12.2"/>
		<g clip-path="url(#SVGID_2_)">
			<defs>
				<path id="SVGID_19_" d="M50.8,96.7c0,6.7,5.5,12.2,12.2,12.2c6.7,0,12.2-5.5,12.2-12.2c0-6.7-5.5-12.2-12.2-12.2
					C56.3,84.5,50.8,89.9,50.8,96.7"/>
			</defs>
			<clipPath id="SVGID_20_">
				<use xlink:href="#SVGID_19_"  overflow="visible"/>
			</clipPath>
			<path clip-path="url(#SVGID_20_)" fill="#AD29B6" d="M72.5,105.3c-1.1-2.3-3.8-4.2-7.1-4.8c-0.8-0.1-1.6-0.2-2.4-0.2
				c-0.8,0-1.6,0.1-2.4,0.2c-3.3,0.6-6,2.4-7.1,4.8c-0.3,0.6-0.4,1.2-0.5,1.8v2.8l19.9,0v-2.8C72.9,106.4,72.7,105.8,72.5,105.3"/>
			<path clip-path="url(#SVGID_20_)" fill="#882C84" d="M63,100.3L63,100.3c-0.1,0-0.3,0-0.4,0c-0.7,0-1.3,0.1-2,0.2
				c-3.3,0.6-6,2.4-7.1,4.8c-0.2,0.5-0.4,0.9-0.4,1.4c0,0.9,0.1,3.2,0.1,3.2h0.9l8.9,0v-2.8V100.3"/>
			<path clip-path="url(#SVGID_20_)" fill="#FFC0B3" d="M63,88.1l0.2,0l0,0l0,0v0c2.2,0,4,1.3,4.9,3.2c0.3,0.7,0.5,1.4,0.5,2.2
				c0,0.2,0,0.4,0,0.5c-0.3,2.7-2.5,4.8-5.3,4.9v0l0,0l0,0l-0.2,0c-2.9-0.1-5.2-2.5-5.2-5.4C57.8,90.6,60.1,88.2,63,88.1"/>
			<path clip-path="url(#SVGID_20_)" fill="#FFAB8E" d="M63.1,88.1v10.8l-0.1,0c-2.9-0.1-5.2-2.5-5.2-5.4c0-2.9,2.3-5.3,5.2-5.4
				L63.1,88.1"/>
		</g>
		<g clip-path="url(#SVGID_2_)">
			<defs>
				<polyline id="SVGID_21_" points="80.7,110.3 120.3,110.3 120.3,112.1 80.7,112.1 80.7,110.3 				"/>
			</defs>
			<clipPath id="SVGID_22_">
				<use xlink:href="#SVGID_21_"  overflow="visible"/>
			</clipPath>
			<g clip-path="url(#SVGID_22_)">
				<defs>
					<polyline id="SVGID_23_" points="34.9,213.4 188.6,213.4 188.6,58.1 34.9,58.1 34.9,213.4 					"/>
				</defs>
				<clipPath id="SVGID_24_">
					<use xlink:href="#SVGID_23_"  overflow="visible"/>
				</clipPath>
				<polyline clip-path="url(#SVGID_24_)" fill="#CCCCCC" points="76.8,106.4 124.2,106.4 124.2,116 76.8,116 76.8,106.4 				"/>
			</g>
		</g>
		<polyline clip-path="url(#SVGID_2_)" fill-rule="evenodd" clip-rule="evenodd" fill="#999999" points="80.3,103 143.8,103 
			143.8,106.3 80.3,106.3 80.3,103 		"/>
		<path clip-path="url(#SVGID_2_)" fill="#AF66BC" d="M94.3-2.9C83-2.9,73.8,3.9,73.8,12.4h41C114.8,3.9,105.6-2.9,94.3-2.9"/>
		<rect x="44.6" y="12.4" clip-path="url(#SVGID_2_)" fill="#FFFFFF" width="107.5" height="28.5"/>
		<circle clip-path="url(#SVGID_2_)" fill="#F8F2F9" cx="63" cy="14.7" r="12.2"/>
		<g clip-path="url(#SVGID_2_)">
			<defs>
				<path id="SVGID_25_" d="M50.8,14.7c0,6.7,5.5,12.2,12.2,12.2c6.7,0,12.2-5.5,12.2-12.2c0-6.7-5.5-12.2-12.2-12.2
					C56.3,2.5,50.8,7.9,50.8,14.7"/>
			</defs>
			<clipPath id="SVGID_26_">
				<use xlink:href="#SVGID_25_"  overflow="visible"/>
			</clipPath>
			<path clip-path="url(#SVGID_26_)" fill="#FC8442" d="M53.5,23.3c1.1-2.3,3.8-4.2,7.1-4.8c0.8-0.1,1.6-0.2,2.4-0.2
				c0.8,0,1.6,0.1,2.4,0.2c3.3,0.6,6,2.4,7.1,4.8c0.3,0.6,0.4,1.2,0.5,1.8v2.8l-19.9,0v-2.8C53.1,24.4,53.3,23.8,53.5,23.3"/>
			<path clip-path="url(#SVGID_26_)" fill="#F99A75" d="M63,18.3L63,18.3c0.1,0,0.3,0,0.4,0c0.7,0,1.3,0.1,2,0.2
				c3.3,0.6,6,2.4,7.1,4.8c0.2,0.5,0.4,0.9,0.4,1.4c0,0.9-0.1,3.2-0.1,3.2h-0.9l-8.9,0v-2.8V18.3"/>
			<path clip-path="url(#SVGID_26_)" fill="#E0B487" d="M63,6.1l0.2,0l0,0l0,0v0c2.2,0,4,1.3,4.9,3.2c0.3,0.7,0.5,1.4,0.5,2.2
				c0,0.2,0,0.4,0,0.5c-0.3,2.7-2.5,4.8-5.3,4.9v0l0,0l0,0l-0.2,0c-2.9-0.1-5.2-2.5-5.2-5.4S60.1,6.2,63,6.1"/>
			<path clip-path="url(#SVGID_26_)" fill="#DBA772" d="M63.1,6.1v10.8l-0.1,0c-2.9-0.1-5.2-2.5-5.2-5.4s2.3-5.3,5.2-5.4L63.1,6.1"
				/>
		</g>
		<g clip-path="url(#SVGID_2_)">
			<defs>
				<polyline id="SVGID_27_" points="80.7,28.3 120.3,28.3 120.3,30.1 80.7,30.1 80.7,28.3 				"/>
			</defs>
			<clipPath id="SVGID_28_">
				<use xlink:href="#SVGID_27_"  overflow="visible"/>
			</clipPath>
			<g clip-path="url(#SVGID_28_)">
				<defs>
					<polyline id="SVGID_29_" points="34.9,131.4 188.6,131.4 188.6,-23.9 34.9,-23.9 34.9,131.4 					"/>
				</defs>
				<clipPath id="SVGID_30_">
					<use xlink:href="#SVGID_29_"  overflow="visible"/>
				</clipPath>
				<rect x="76.8" y="24.4" clip-path="url(#SVGID_30_)" fill="#CCCCCC" width="47.4" height="9.6"/>
			</g>
		</g>
		
			<rect x="80.3" y="21" clip-path="url(#SVGID_2_)" fill-rule="evenodd" clip-rule="evenodd" fill="#999999" width="63.6" height="3.3"/>
		<rect x="44.6" y="174.8" clip-path="url(#SVGID_2_)" fill="#FFFFFF" width="107.5" height="28.5"/>
		<g clip-path="url(#SVGID_2_)">
			<defs>
				<polyline id="SVGID_31_" points="80.7,190.8 120.3,190.8 120.3,192.5 80.7,192.5 80.7,190.8 				"/>
			</defs>
			<clipPath id="SVGID_32_">
				<use xlink:href="#SVGID_31_"  overflow="visible"/>
			</clipPath>
			<g clip-path="url(#SVGID_32_)">
				<defs>
					<polyline id="SVGID_33_" points="34.9,293.8 188.6,293.8 188.6,138.5 34.9,138.5 34.9,293.8 					"/>
				</defs>
				<clipPath id="SVGID_34_">
					<use xlink:href="#SVGID_33_"  overflow="visible"/>
				</clipPath>
				<rect x="76.8" y="186.9" clip-path="url(#SVGID_34_)" fill="#CCCCCC" width="47.4" height="9.6"/>
			</g>
		</g>
		
			<rect x="80.3" y="183.4" clip-path="url(#SVGID_2_)" fill-rule="evenodd" clip-rule="evenodd" fill="#999999" width="63.6" height="3.3"/>
		<circle clip-path="url(#SVGID_2_)" fill="#EEF3F9" cx="63" cy="177.2" r="12.2"/>
		<g clip-path="url(#SVGID_2_)">
			<defs>
				<path id="SVGID_35_" d="M50.8,177.2c0,6.7,5.5,12.2,12.2,12.2c6.7,0,12.2-5.5,12.2-12.2c0-6.7-5.5-12.2-12.2-12.2
					C56.3,165,50.8,170.5,50.8,177.2"/>
			</defs>
			<clipPath id="SVGID_36_">
				<use xlink:href="#SVGID_35_"  overflow="visible"/>
			</clipPath>
			<path clip-path="url(#SVGID_36_)" fill="#F9A2F9" d="M72.5,185.8c-1.1-2.3-3.8-4.2-7.1-4.8c-0.8-0.1-1.6-0.2-2.4-0.2
				c-0.8,0-1.6,0.1-2.4,0.2c-3.3,0.6-6,2.4-7.1,4.8c-0.3,0.6-0.4,1.2-0.5,1.8v2.8l19.9,0v-2.8C72.9,187,72.7,186.4,72.5,185.8"/>
			<path clip-path="url(#SVGID_36_)" fill="#FF7BF3" d="M63,180.8L63,180.8c-0.1,0-0.3,0-0.4,0c-0.7,0-1.3,0.1-2,0.2
				c-3.3,0.6-6,2.4-7.1,4.8c-0.2,0.5-0.4,0.9-0.4,1.4c0,0.9,0.1,3.2,0.1,3.2h0.9l8.9,0v-2.8V180.8"/>
			<path clip-path="url(#SVGID_36_)" fill="#DBA772" d="M63.4,168.6l-0.2,0l0,0l0,0v0c-2.2,0-4.1,1.3-4.9,3.2
				c-0.3,0.7-0.5,1.4-0.5,2.2c0,0.2,0,0.4,0,0.5c0.3,2.7,2.6,4.9,5.4,4.9v0l0,0l0,0l0.2,0c2.9-0.1,5.2-2.5,5.2-5.4
				C68.6,171.1,66.3,168.7,63.4,168.6"/>
			<path clip-path="url(#SVGID_36_)" fill="#E0B487" d="M63.3,168.6v10.8l0.1,0c2.9-0.1,5.2-2.5,5.2-5.4c0-2.9-2.3-5.3-5.2-5.4
				L63.3,168.6"/>
			<path clip-path="url(#SVGID_36_)" fill="#333333" d="M68.4,172.5c-0.6-2.2-2.6-3.8-5-3.9l-0.2,0l0,0l0,0v0
				c-2.2,0-4.1,1.3-4.9,3.2c-0.2,0.5-0.4,1-0.4,1.5c0.6-0.1,1.3-0.2,2-0.4c2.4-0.7,4.2-2,4.9-3.3C65,170.6,65.9,172.2,68.4,172.5z"
				/>
			<path clip-path="url(#SVGID_36_)" fill="#333333" d="M72.9,177.7c-1.4-0.3-2.8-1.4-3.6-2.8c-0.8-1.4-1.5-3.8-0.1-4.8
				c0.6-0.5,1.9-0.3,2.3,0.5c0.7,1.3,0,2.6,0,3.9C71.5,175.7,72,177.1,72.9,177.7z"/>
		</g>
		<rect x="-2" y="-0.7" clip-path="url(#SVGID_2_)" fill="#C6F9DD" width="33.7" height="198"/>
		<rect x="166.4" y="-0.7" clip-path="url(#SVGID_2_)" fill="#C6F9DD" width="33.7" height="198"/>
	</g>
	<path fill-rule="evenodd" clip-rule="evenodd" fill="#98806A" d="M168.5,144.7c-1.6-1.6-3.6-2.4-5.7-2.5c-0.8,0-1.6,0-2.4,0.2
		l-0.2,0.1l-0.9,0.3c-1.1,0.4-2.2,1.1-3.1,2c-1.1,1-1.8,2.3-2.2,3.6c-0.9,3-0.2,6.3,2.2,8.7l25.9,25.8c1.6,1.6,3.6,2.4,5.7,2.5
		c0.8,0,1.6,0,2.4-0.2l0.2-0.1l0.9-0.3c1.1-0.4,2.2-1.1,3.1-2c1.1-1.1,1.8-2.3,2.2-3.6c0.9-3,0.2-6.3-2.2-8.6L168.5,144.7z"/>
	<g>
		<defs>
			<path id="SVGID_37_" d="M108.7,45.7c28.6,0,51.8,23.2,51.8,51.8c0,28.5-23.3,51.8-51.8,51.8c-28.6,0-51.8-23.2-51.8-51.8
				C56.9,68.9,80.1,45.7,108.7,45.7"/>
		</defs>
		<clipPath id="SVGID_38_">
			<use xlink:href="#SVGID_37_"  overflow="visible"/>
		</clipPath>
		<polyline clip-path="url(#SVGID_38_)" fill="#EED4F0" points="211.5,106.7 51.4,106.7 51.4,34.5 211.5,34.5 211.5,106.7 		"/>
		<g clip-path="url(#SVGID_38_)">
			<defs>
				<polyline id="SVGID_39_" points="211.5,106.7 51.4,106.7 51.4,34.5 211.5,34.5 211.5,106.7 				"/>
			</defs>
			<clipPath id="SVGID_40_">
				<use xlink:href="#SVGID_39_"  overflow="visible"/>
			</clipPath>
			<path clip-path="url(#SVGID_40_)" fill="#92269E" d="M46.5,96.1c-1.1,1.7-3.4,2.5-4.3,4.4c-1.3,2.9-0.5,7.1,1,9.7
				c0.7,1.2,2,3,3.5,3.3c0.7,0.1,1.5,0.2,2.3,0.2c5.4,0,20.6,2.8,22.6-1.9L52.1,92.5h-4.6C47.5,93.8,47.1,95.1,46.5,96.1z"/>
			<path clip-path="url(#SVGID_40_)" fill-rule="evenodd" clip-rule="evenodd" fill="#FFFFFF" d="M78.3,48.4c-0.6-1.2-1.9-2-3.3-2
				c-0.3,0-0.6,0-0.9,0.1c-0.9-1.1-2.2-1.8-3.6-1.8c-2.2,0-4,1.5-4.4,3.6c-1.3,0.2-2.3,1.3-2.3,2.7c0,1.5,1.2,2.7,2.7,2.7h11.4
				c1.5,0,2.7-1.2,2.7-2.7C80.6,49.7,79.6,48.6,78.3,48.4"/>
			<g clip-path="url(#SVGID_40_)">
				<defs>
					<path id="SVGID_41_" d="M78.3,48.4c-0.6-1.2-1.9-2-3.3-2c-0.3,0-0.6,0-0.9,0.1c-0.9-1.1-2.2-1.8-3.6-1.8c-2.2,0-4,1.5-4.4,3.6
						c-1.3,0.2-2.3,1.3-2.3,2.7c0,1.5,1.2,2.7,2.7,2.7h11.4c1.5,0,2.7-1.2,2.7-2.7C80.6,49.7,79.6,48.6,78.3,48.4"/>
				</defs>
				<clipPath id="SVGID_42_">
					<use xlink:href="#SVGID_41_"  overflow="visible"/>
				</clipPath>
				<rect x="33.7" y="42.2" clip-path="url(#SVGID_42_)" fill="#FFFFFF" width="48.9" height="29.2"/>
			</g>
			<path clip-path="url(#SVGID_40_)" fill="#FFFFFF" d="M131,54.9c-2.1-4.8-5.8-7.5-8.4-8.9l-16.5,16.5h26.5
				C132.6,59.9,132.1,57.3,131,54.9"/>
			<path clip-path="url(#SVGID_40_)" fill="#FBF4FB" d="M131,54.9c1.1,2.5,1.6,5.1,1.6,7.6h0h14.3L126.5,42l-3.9,3.9
				C125.2,47.3,128.9,50.1,131,54.9"/>
			<path clip-path="url(#SVGID_40_)" fill="#AC29B5" d="M122.6,86c2.9-5.8,2-5.3,6.7-12.3c2-3,3.3-7,3.3-11.3h0h-26.5l-49.6,49.5
				c5.3,12.5,59.7,13.6,73.5,16C126.4,122.6,119.7,91.9,122.6,86"/>
			<path clip-path="url(#SVGID_40_)" fill="#92269E" d="M129.3,73.7c-3.6,5.4-10.5,7.8-13.3,13.8c-4.2,9-1.7,22,3.1,30.2
				c2.2,3.7,6.2,9.5,10.8,10.3c2.3,0.4,4.7,0.6,7.1,0.6c16.9,0,63.9,8.8,70.1-5.8l-60.3-60.3h-14.3
				C132.6,66.7,131.3,70.7,129.3,73.7"/>
			<g clip-path="url(#SVGID_40_)">
				<defs>
					<path id="SVGID_43_" d="M105.5,59.4c-0.8-1.6-2.4-2.6-4.3-2.6c-0.4,0-0.8,0.1-1.2,0.2c-1.1-1.4-2.8-2.3-4.7-2.3
						c-2.8,0-5.2,2-5.8,4.7c-1.7,0.2-3,1.7-3,3.5c0,2,1.6,3.5,3.6,3.5h14.8c2,0,3.6-1.6,3.6-3.5C108.5,61.2,107.2,59.7,105.5,59.4"
						/>
				</defs>
				<clipPath id="SVGID_44_">
					<use xlink:href="#SVGID_43_"  overflow="visible"/>
				</clipPath>
				<g clip-path="url(#SVGID_44_)">
					<defs>
						<polyline id="SVGID_45_" points="47.5,89.4 111.2,89.4 111.2,51.4 47.5,51.4 47.5,89.4 						"/>
					</defs>
					<clipPath id="SVGID_46_">
						<use xlink:href="#SVGID_45_"  overflow="visible"/>
					</clipPath>
					<rect x="81.5" y="51.9" clip-path="url(#SVGID_46_)" fill="#FFFFFE" width="27.8" height="17.6"/>
				</g>
			</g>
		</g>
		<polyline clip-path="url(#SVGID_38_)" fill="#FFFFFF" points="211.5,149.2 51.4,149.2 51.4,106.7 211.5,106.7 211.5,149.2 		"/>
		<g clip-path="url(#SVGID_38_)">
			<defs>
				<polyline id="SVGID_47_" points="105.2,130.4 164.1,130.4 164.1,133 105.2,133 105.2,130.4 				"/>
			</defs>
			<clipPath id="SVGID_48_">
				<use xlink:href="#SVGID_47_"  overflow="visible"/>
			</clipPath>
			<g clip-path="url(#SVGID_48_)">
				<defs>
					<polyline id="SVGID_49_" points="36.9,283.8 265.8,283.8 265.8,52.6 36.9,52.6 36.9,283.8 					"/>
				</defs>
				<clipPath id="SVGID_50_">
					<use xlink:href="#SVGID_49_"  overflow="visible"/>
				</clipPath>
				<polyline clip-path="url(#SVGID_50_)" fill="#CCCCCC" points="99.4,124.6 170,124.6 170,138.9 99.4,138.9 99.4,124.6 				"/>
			</g>
		</g>
		<polyline clip-path="url(#SVGID_38_)" fill-rule="evenodd" clip-rule="evenodd" fill="#999999" points="104.5,119.4 199.2,119.4 
			199.2,124.4 104.5,124.4 104.5,119.4 		"/>
		<path clip-path="url(#SVGID_38_)" fill="#FFFFFF" d="M62.3,130h35.3c1.3,0,2.4-1.1,2.4-2.4V92.2c0-1.3-1.1-2.4-2.4-2.4H62.3
			c-1.3,0-2.4,1.1-2.4,2.4v35.3C59.9,128.9,61,130,62.3,130z"/>
		<path clip-path="url(#SVGID_38_)" fill="#B3B3B3" d="M62.3,130v0.4h35.3c1.5,0,2.8-1.3,2.8-2.8V92.2c0-1.5-1.3-2.8-2.8-2.8H62.3
			c-1.5,0-2.8,1.3-2.8,2.8v35.3c0,1.5,1.3,2.8,2.8,2.8V130v-0.4c-0.6,0-1.1-0.2-1.5-0.6c-0.4-0.4-0.6-0.9-0.6-1.5V92.2
			c0-0.6,0.2-1.1,0.6-1.5c0.4-0.4,0.9-0.6,1.5-0.6h35.3c0.6,0,1.1,0.2,1.5,0.6c0.4,0.4,0.6,0.9,0.6,1.5v35.3c0,0.6-0.2,1.1-0.6,1.5
			c-0.4,0.4-0.9,0.6-1.5,0.6H62.3V130z"/>
	</g>
	<path fill="#F3DFF4" d="M108.8,45.6v14.2l12.6-12.5C118.2,46.6,112.2,45.6,108.8,45.6"/>
	<path fill="#FCF7FC" d="M130.6,54c0.1,0.3,0.3,0.6,0.4,0.9c1.1,2.5,1.6,5.1,1.6,7.6h0h9.9C139,59,135,56.2,130.6,54"/>
	<path fill="#FFFFFF" d="M130.6,54c0.1,0.3,0.3,0.6,0.4,0.9c1.1,2.5,1.6,5.1,1.6,7.6h0h9.9C139,59,135,56.2,130.6,54"/>
	
		<rect x="151" y="139.6" transform="matrix(0.7075 -0.7068 0.7068 0.7075 -55.9363 151.0112)" fill-rule="evenodd" clip-rule="evenodd" fill="#5D5D5D" width="7" height="6.9"/>
	<path fill-rule="evenodd" clip-rule="evenodd" fill="#A6A6A6" d="M108.7,35.7c-34.1,0-61.8,27.6-61.8,61.7
		c0,34.1,27.7,61.7,61.8,61.7c34.1,0,61.8-27.6,61.8-61.7C170.5,63.4,142.8,35.7,108.7,35.7 M108.7,45.7c28.6,0,51.8,23.2,51.8,51.8
		s-23.3,51.8-51.8,51.8c-28.6,0-51.8-23.2-51.8-51.8S80.1,45.7,108.7,45.7"/>
	<g>
		<defs>
			<path id="SVGID_51_" d="M168.5,144.7c-1.6-1.6-3.6-2.4-5.7-2.5c-0.8,0-1.6,0-2.4,0.2l-0.2,0.1l-0.9,0.3c-1.1,0.4-2.2,1.1-3.1,2
				c-1.1,1-1.8,2.3-2.2,3.6c-0.9,3-0.2,6.3,2.2,8.7l25.9,25.8c1.6,1.6,3.6,2.4,5.7,2.5c0.8,0,1.6,0,2.4-0.2l0.2-0.1l0.9-0.3
				c1.1-0.4,2.2-1.1,3.1-2c1.1-1.1,1.8-2.3,2.2-3.6c0.9-3,0.2-6.3-2.2-8.6L168.5,144.7"/>
		</defs>
		<clipPath id="SVGID_52_">
			<use xlink:href="#SVGID_51_"  overflow="visible"/>
		</clipPath>
		
			<rect x="165.2" y="138.6" transform="matrix(-0.7071 0.7071 -0.7071 -0.7071 412.2584 167.1781)" clip-path="url(#SVGID_52_)" fill-rule="evenodd" clip-rule="evenodd" fill="#876F5B" width="12.6" height="60.6"/>
	</g>
	<path fill="#FFFFFF" d="M118.7,49.8l-9.9,9.9v2.7h23.8c0-2.5-0.5-5.1-1.6-7.6c-0.1-0.3-0.3-0.6-0.4-0.9
		C126.9,52.1,122.9,50.7,118.7,49.8"/>
	<path fill="#C15FC8" d="M132.6,62.4L132.6,62.4h-23.8v44.3h6.1c-1.5-6.6-1.5-13.7,1.1-19.2c2.7-5.9,9.7-8.4,13.3-13.8
		C131.3,70.7,132.6,66.7,132.6,62.4"/>
	<path fill="#AD5CB6" d="M142.5,62.4h-9.9c0,4.2-1.3,8.3-3.3,11.3c-3.6,5.4-10.5,7.8-13.3,13.8c-2.6,5.6-2.6,12.7-1.1,19.2h41.5
		c0.6-3,0.9-6.2,0.9-9.4C157.3,83.6,151.6,71.2,142.5,62.4"/>
	<path fill="#FFFFFF" d="M141.5,133h-32.7v12.7C121.4,145.8,132.9,141,141.5,133 M149,124.4h-40.2v6h35.4
		C146,128.5,147.6,126.5,149,124.4 M156.4,106.7h-41.5h-6.1v12.7h43.1C154,115.5,155.5,111.2,156.4,106.7"/>
	<path fill="#D9D9D9" d="M144.2,130.4h-35.4v2.6h32.7C142.5,132.2,143.4,131.3,144.2,130.4"/>
	<path fill="#B3B3B3" d="M151.9,119.4h-43.1v5H149C150.1,122.8,151.1,121.1,151.9,119.4"/>
	<path fill="#FF9EF6" d="M69.9,111.5c-1.2-1.4-1.8-2.9-1.8-4.8l0,0C68.1,108.6,68.7,110.2,69.9,111.5l9.7,9.7v-0.1L69.9,111.5z"/>
	<path fill="#FF9EF6" d="M89.2,112c1.4-1.6,2.3-3.1,2.3-5.2l0,0C91.4,108.8,90.6,110.3,89.2,112l-9.4,9.2l-0.1-0.1v0.1l0.1,0.1
		L89.2,112z"/>
	<path fill="#FF9EF6" d="M74.3,100c2.3,0,4.2,1.3,5.3,3.3v-0.1C78.5,101.2,76.6,99.9,74.3,100c-3.4-0.1-6.2,3-6.2,6.7l0,0
		C68.1,103,70.9,100,74.3,100z"/>
	<path fill="#FF9EF6" d="M79.8,103.5c1.1-2.1,3.1-3.5,5.5-3.5c3.4,0,6.2,3,6.2,6.7l0,0c0-3.8-2.8-6.8-6.2-6.8
		C82.9,99.9,80.8,101.3,79.8,103.5c0-0.2-0.1-0.3-0.1-0.3v0.1C79.7,103.3,79.7,103.4,79.8,103.5z"/>
	<path fill="#FF7BF3" d="M85.2,100c-2.4,0-4.4,1.4-5.5,3.5c0-0.1-0.1-0.2-0.1-0.3v17.9l0.1,0.1l9.4-9.3c1.4-1.6,2.3-3.1,2.3-5.2
		C91.4,103,88.7,100,85.2,100z"/>
	<path fill="#FF9EF6" d="M79.6,121.1v-17.9c-1.1-1.9-3.1-3.3-5.3-3.3c-3.4,0-6.2,3-6.2,6.7c0,1.9,0.7,3.4,1.8,4.8L79.6,121.1z"/>
</g>
</svg>
