<?xml version="1.0" encoding="UTF-8" standalone="no"?>
<svg width="77px" height="71px" viewBox="0 0 77 71" version="1.1" xmlns="http://www.w3.org/2000/svg" xmlns:xlink="http://www.w3.org/1999/xlink" xmlns:sketch="http://www.bohemiancoding.com/sketch/ns">
    <!-- Generator: Sketch 3.3.3 (12072) - http://www.bohemiancoding.com/sketch -->
    <title>Slice 1</title>
    <desc>Created with Sketch.</desc>
    <defs>
        <ellipse id="path-1" cx="34.923913" cy="35.3848649" rx="34.7717391" ry="35.0778378"></ellipse>
        <ellipse id="path-3" cx="34.923913" cy="35.3848649" rx="34.7717391" ry="35.0778378"></ellipse>
    </defs>
    <g id="Page-1" stroke="none" stroke-width="1" fill="none" fill-rule="evenodd" sketch:type="MSPage">
        <g id="calculate" sketch:type="MSLayerGroup" transform="translate(1.000000, 0.000000)">
            <g id="Group">
                <g>
                    <ellipse id="Oval" fill="#C6F9DD" sketch:type="MSShapeGroup" cx="34.923913" cy="35.6918919" rx="34.7717391" ry="35.0778378"></ellipse>
                    <ellipse id="Oval" sketch:type="MSShapeGroup" cx="34.923913" cy="35.3848649" rx="34.7717391" ry="35.0778378"></ellipse>
                    <ellipse id="Oval" sketch:type="MSShapeGroup" cx="34.923913" cy="35.3848649" rx="34.7717391" ry="35.0778378"></ellipse>
                    <g id="Clipped">
                        <mask id="mask-2" sketch:name="SVGID_1_" fill="white">
                            <use xlink:href="#path-1"></use>
                        </mask>
                        <g id="SVGID_1_"></g>
                        <g id="Group" mask="url(#mask-2)" sketch:type="MSShapeGroup">
                            <g transform="translate(-5.326087, 18.421622)" id="Rectangle-path">
                                <rect fill="#CCCCCC" x="2.05434783" y="1.88054054" width="64.4836957" height="53.7681081"></rect>
                                <rect fill="#FFFFFF" x="0.190217391" y="0" width="64.4836957" height="53.7681081"></rect>
                            </g>
                        </g>
                    </g>
                </g>
                <g transform="translate(17.500000, 2.302703)">
                    <path d="M0.152173913,3.56918919 C0.152173913,2.80162162 0.760869565,2.14918919 1.55978261,2.14918919 L32.6413043,2.14918919 C33.4021739,2.14918919 34.048913,2.76324324 34.048913,3.56918919 L34.048913,49.6232432 C34.048913,50.3908108 33.4402174,51.0432432 32.6413043,51.0432432 L1.55978261,51.0432432 C0.798913043,51.0432432 0.152173913,50.4291892 0.152173913,49.6232432 L0.152173913,3.56918919 L0.152173913,3.56918919 Z" id="Shape" fill="#808080" sketch:type="MSShapeGroup"></path>
                    <path d="M0.152173913,1.68864865 C0.152173913,0.921081081 0.760869565,0.268648649 1.55978261,0.268648649 L32.6413043,0.268648649 C33.4021739,0.268648649 34.048913,0.882702703 34.048913,1.68864865 L34.048913,47.7427027 C34.048913,48.5102703 33.4402174,49.1627027 32.6413043,49.1627027 L1.55978261,49.1627027 C0.798913043,49.1627027 0.152173913,48.5486486 0.152173913,47.7427027 L0.152173913,1.68864865 L0.152173913,1.68864865 Z" id="Shape" fill="#A6A6A6" sketch:type="MSShapeGroup"></path>
                    <g transform="translate(2.282609, 19.189189)" id="Shape" sketch:type="MSShapeGroup">
                        <path d="M7.38043478,4.7972973 L0.760869565,4.7972973 C0.342391304,4.7972973 0,4.45189189 0,4.02972973 L0,0.767567568 C0,0.345405405 0.342391304,0 0.760869565,0 L7.38043478,0 C7.79891304,0 8.14130435,0.345405405 8.14130435,0.767567568 L8.14130435,4.02972973 C8.14130435,4.45189189 7.79891304,4.7972973 7.38043478,4.7972973 L7.38043478,4.7972973 Z" fill="#333333"></path>
                        <path d="M18.1086957,4.7972973 L11.5271739,4.7972973 C11.1086957,4.7972973 10.7663043,4.45189189 10.7663043,4.02972973 L10.7663043,0.767567568 C10.7663043,0.345405405 11.1086957,0 11.5271739,0 L18.1467391,0 C18.5652174,0 18.9076087,0.345405405 18.9076087,0.767567568 L18.9076087,4.02972973 C18.9076087,4.45189189 18.5652174,4.7972973 18.1086957,4.7972973 L18.1086957,4.7972973 Z" fill="#333333"></path>
                        <path d="M28.875,4.7972973 L22.2554348,4.7972973 C21.8369565,4.7972973 21.4945652,4.45189189 21.4945652,4.02972973 L21.4945652,0.767567568 C21.4945652,0.345405405 21.8369565,0 22.2554348,0 L28.875,0 C29.2934783,0 29.6358696,0.345405405 29.6358696,0.767567568 L29.6358696,4.02972973 C29.6358696,4.45189189 29.2934783,4.7972973 28.875,4.7972973 L28.875,4.7972973 Z" fill="#C45B2C"></path>
                        <path d="M7.38043478,12.2043243 L0.760869565,12.2043243 C0.342391304,12.2043243 0,11.8589189 0,11.4367568 L0,8.17459459 C0,7.75243243 0.342391304,7.40702703 0.760869565,7.40702703 L7.38043478,7.40702703 C7.79891304,7.40702703 8.14130435,7.75243243 8.14130435,8.17459459 L8.14130435,11.4367568 C8.14130435,11.8589189 7.79891304,12.2043243 7.38043478,12.2043243 L7.38043478,12.2043243 Z" fill="#333333"></path>
                        <path d="M18.1086957,12.2043243 L11.5271739,12.2043243 C11.1086957,12.2043243 10.7663043,11.8589189 10.7663043,11.4367568 L10.7663043,8.17459459 C10.7663043,7.75243243 11.1086957,7.40702703 11.5271739,7.40702703 L18.1467391,7.40702703 C18.5652174,7.40702703 18.9076087,7.75243243 18.9076087,8.17459459 L18.9076087,11.4367568 C18.9076087,11.8589189 18.5652174,12.2043243 18.1086957,12.2043243 L18.1086957,12.2043243 Z" fill="#333333"></path>
                        <path d="M28.875,12.2043243 L22.2554348,12.2043243 C21.8369565,12.2043243 21.4945652,11.8589189 21.4945652,11.4367568 L21.4945652,8.17459459 C21.4945652,7.75243243 21.8369565,7.40702703 22.2554348,7.40702703 L28.875,7.40702703 C29.2934783,7.40702703 29.6358696,7.75243243 29.6358696,8.17459459 L29.6358696,11.4367568 C29.6358696,11.8589189 29.2934783,12.2043243 28.875,12.2043243 L28.875,12.2043243 Z" fill="#333333"></path>
                        <path d="M7.38043478,19.6497297 L0.760869565,19.6497297 C0.342391304,19.6497297 0,19.3043243 0,18.8821622 L0,15.62 C0,15.1978378 0.342391304,14.8524324 0.760869565,14.8524324 L7.38043478,14.8524324 C7.79891304,14.8524324 8.14130435,15.1978378 8.14130435,15.62 L8.14130435,18.8821622 C8.14130435,19.2659459 7.79891304,19.6497297 7.38043478,19.6497297 L7.38043478,19.6497297 Z" fill="#333333"></path>
                        <path d="M18.1086957,19.6497297 L11.5271739,19.6497297 C11.1086957,19.6497297 10.7663043,19.3043243 10.7663043,18.8821622 L10.7663043,15.62 C10.7663043,15.1978378 11.1086957,14.8524324 11.5271739,14.8524324 L18.1467391,14.8524324 C18.5652174,14.8524324 18.9076087,15.1978378 18.9076087,15.62 L18.9076087,18.8821622 C18.9076087,19.2659459 18.5652174,19.6497297 18.1086957,19.6497297 L18.1086957,19.6497297 Z" fill="#333333"></path>
                        <path d="M7.38043478,27.0567568 L0.760869565,27.0567568 C0.342391304,27.0567568 0,26.7113514 0,26.2891892 L0,23.027027 C0,22.6048649 0.342391304,22.2594595 0.760869565,22.2594595 L7.38043478,22.2594595 C7.79891304,22.2594595 8.14130435,22.6048649 8.14130435,23.027027 L8.14130435,26.2891892 C8.14130435,26.672973 7.79891304,27.0567568 7.38043478,27.0567568 L7.38043478,27.0567568 Z" fill="#333333"></path>
                        <path d="M18.1086957,27.0567568 L11.5271739,27.0567568 C11.1086957,27.0567568 10.7663043,26.7113514 10.7663043,26.2891892 L10.7663043,23.027027 C10.7663043,22.6048649 11.1086957,22.2594595 11.5271739,22.2594595 L18.1467391,22.2594595 C18.5652174,22.2594595 18.9076087,22.6048649 18.9076087,23.027027 L18.9076087,26.2891892 C18.9076087,26.672973 18.5652174,27.0567568 18.1086957,27.0567568 L18.1086957,27.0567568 Z" fill="#333333"></path>
                        <path d="M28.875,27.0567568 L22.2554348,27.0567568 C21.8369565,27.0567568 21.4945652,26.7113514 21.4945652,26.2891892 L21.4945652,15.7351351 C21.4945652,15.312973 21.8369565,14.9675676 22.2554348,14.9675676 L28.875,14.9675676 C29.2934783,14.9675676 29.6358696,15.312973 29.6358696,15.7351351 L29.6358696,26.2508108 C29.6358696,26.672973 29.2934783,27.0567568 28.875,27.0567568 L28.875,27.0567568 Z" fill="#333333"></path>
                    </g>
                    <rect id="Rectangle-path" fill="#FFFFFF" sketch:type="MSShapeGroup" x="2.2826087" y="8.63513514" width="29.4836957" height="7.67567568"></rect>
                    <rect id="Rectangle-path" fill="#B3B3B3" sketch:type="MSShapeGroup" x="2.2826087" y="8.17459459" width="29.4836957" height="0.959459459"></rect>
                    <g transform="translate(2.282609, 18.421622)" id="Shape" sketch:type="MSShapeGroup">
                        <path d="M7.38043478,4.95081081 L0.760869565,4.95081081 C0.342391304,4.95081081 0,4.60540541 0,4.18324324 L0,0.921081081 C0,0.498918919 0.342391304,0.153513514 0.760869565,0.153513514 L7.38043478,0.153513514 C7.79891304,0.153513514 8.14130435,0.498918919 8.14130435,0.921081081 L8.14130435,4.18324324 C8.14130435,4.60540541 7.79891304,4.95081081 7.38043478,4.95081081 L7.38043478,4.95081081 Z" fill="#4D4D4D"></path>
                        <path d="M18.1086957,4.95081081 L11.5271739,4.95081081 C11.1086957,4.95081081 10.7663043,4.60540541 10.7663043,4.18324324 L10.7663043,0.921081081 C10.7663043,0.498918919 11.1086957,0.153513514 11.5271739,0.153513514 L18.1467391,0.153513514 C18.5652174,0.153513514 18.9076087,0.498918919 18.9076087,0.921081081 L18.9076087,4.18324324 C18.9076087,4.60540541 18.5652174,4.95081081 18.1086957,4.95081081 L18.1086957,4.95081081 Z" fill="#4D4D4D"></path>
                        <path d="M28.875,4.95081081 L22.2554348,4.95081081 C21.8369565,4.95081081 21.4945652,4.60540541 21.4945652,4.18324324 L21.4945652,0.921081081 C21.4945652,0.498918919 21.8369565,0.153513514 22.2554348,0.153513514 L28.875,0.153513514 C29.2934783,0.153513514 29.6358696,0.498918919 29.6358696,0.921081081 L29.6358696,4.18324324 C29.6358696,4.60540541 29.2934783,4.95081081 28.875,4.95081081 L28.875,4.95081081 Z" fill="#FC8442"></path>
                        <path d="M7.38043478,12.3578378 L0.760869565,12.3578378 C0.342391304,12.3578378 0,12.0124324 0,11.5902703 L0,8.32810811 C0,7.90594595 0.342391304,7.56054054 0.760869565,7.56054054 L7.38043478,7.56054054 C7.79891304,7.56054054 8.14130435,7.90594595 8.14130435,8.32810811 L8.14130435,11.5902703 C8.14130435,12.0124324 7.79891304,12.3578378 7.38043478,12.3578378 L7.38043478,12.3578378 Z" fill="#4D4D4D"></path>
                        <path d="M18.1086957,12.3578378 L11.5271739,12.3578378 C11.1086957,12.3578378 10.7663043,12.0124324 10.7663043,11.5902703 L10.7663043,8.32810811 C10.7663043,7.90594595 11.1086957,7.56054054 11.5271739,7.56054054 L18.1467391,7.56054054 C18.5652174,7.56054054 18.9076087,7.90594595 18.9076087,8.32810811 L18.9076087,11.5902703 C18.9076087,12.0124324 18.5652174,12.3578378 18.1086957,12.3578378 L18.1086957,12.3578378 Z" fill="#4D4D4D"></path>
                        <path d="M28.875,12.3578378 L22.2554348,12.3578378 C21.8369565,12.3578378 21.4945652,12.0124324 21.4945652,11.5902703 L21.4945652,8.32810811 C21.4945652,7.90594595 21.8369565,7.56054054 22.2554348,7.56054054 L28.875,7.56054054 C29.2934783,7.56054054 29.6358696,7.90594595 29.6358696,8.32810811 L29.6358696,11.5902703 C29.6358696,12.0124324 29.2934783,12.3578378 28.875,12.3578378 L28.875,12.3578378 Z" fill="#4D4D4D"></path>
                        <path d="M7.38043478,19.7648649 L0.760869565,19.7648649 C0.342391304,19.7648649 0,19.4194595 0,18.9972973 L0,15.7351351 C0,15.312973 0.342391304,14.9675676 0.760869565,14.9675676 L7.38043478,14.9675676 C7.79891304,14.9675676 8.14130435,15.312973 8.14130435,15.7351351 L8.14130435,18.9972973 C8.14130435,19.4194595 7.79891304,19.7648649 7.38043478,19.7648649 L7.38043478,19.7648649 Z" fill="#4D4D4D"></path>
                        <path d="M18.1086957,19.7648649 L11.5271739,19.7648649 C11.1086957,19.7648649 10.7663043,19.4194595 10.7663043,18.9972973 L10.7663043,15.7351351 C10.7663043,15.312973 11.1086957,14.9675676 11.5271739,14.9675676 L18.1467391,14.9675676 C18.5652174,14.9675676 18.9076087,15.312973 18.9076087,15.7351351 L18.9076087,18.9972973 C18.9076087,19.4194595 18.5652174,19.7648649 18.1086957,19.7648649 L18.1086957,19.7648649 Z" fill="#4D4D4D"></path>
                        <path d="M7.38043478,27.1718919 L0.760869565,27.1718919 C0.342391304,27.1718919 0,26.8264865 0,26.4043243 L0,23.1421622 C0,22.72 0.342391304,22.3745946 0.760869565,22.3745946 L7.38043478,22.3745946 C7.79891304,22.3745946 8.14130435,22.72 8.14130435,23.1421622 L8.14130435,26.4043243 C8.14130435,26.8264865 7.79891304,27.1718919 7.38043478,27.1718919 L7.38043478,27.1718919 Z" fill="#4D4D4D"></path>
                        <path d="M18.1086957,27.1718919 L11.5271739,27.1718919 C11.1086957,27.1718919 10.7663043,26.8264865 10.7663043,26.4043243 L10.7663043,23.1421622 C10.7663043,22.72 11.1086957,22.3745946 11.5271739,22.3745946 L18.1467391,22.3745946 C18.5652174,22.3745946 18.9076087,22.72 18.9076087,23.1421622 L18.9076087,26.4043243 C18.9076087,26.8264865 18.5652174,27.1718919 18.1086957,27.1718919 L18.1086957,27.1718919 Z" fill="#4D4D4D"></path>
                        <path d="M28.875,27.1718919 L22.2554348,27.1718919 C21.8369565,27.1718919 21.4945652,26.8264865 21.4945652,26.4043243 L21.4945652,15.8886486 C21.4945652,15.4664865 21.8369565,15.1210811 22.2554348,15.1210811 L28.875,15.1210811 C29.2934783,15.1210811 29.6358696,15.4664865 29.6358696,15.8886486 L29.6358696,26.4043243 C29.6358696,26.8264865 29.2934783,27.1718919 28.875,27.1718919 L28.875,27.1718919 Z" fill="#4D4D4D"></path>
                    </g>
                    <text id="£" fill="#000000" sketch:type="MSTextLayer" font-family="Helvetica" font-size="5.17284783" font-weight="normal">
                        <tspan x="3.79266848" y="14.3757995">£</tspan>
                    </text>
                    <rect id="Rectangle-path" fill="#AC29B5" sketch:type="MSShapeGroup" x="8.55978261" y="9.90162162" width="2.81521739" height="5.1427027"></rect>
                </g>
                <g id="Clipped">
                    <mask id="mask-4" sketch:name="SVGID_3_" fill="white">
                        <use xlink:href="#path-3"></use>
                    </mask>
                    <g id="SVGID_3_"></g>
                    <g id="Group" mask="url(#mask-4)" sketch:type="MSShapeGroup">
                        <g transform="translate(39.565217, 44.135135)">
                            <path d="M21.5706522,33.3891892 L21.7608696,28.8605405 L15.7119565,22.7583784 C13.5434783,20.5708108 10.7282609,20.6859459 8.78804348,22.4513514 L19.8967391,33.6194595 L21.5706522,33.3891892 L21.5706522,33.3891892 Z" id="Shape" fill="#E0B487"></path>
                            <path d="M12.326087,25.9821622 L9.05434783,22.6816216 C9.32065217,22.412973 9.81521739,22.412973 10.1195652,22.72 L12.8206522,25.4448649 L12.326087,25.9821622 L12.326087,25.9821622 Z" id="Shape" fill="#FFC0B3"></path>
                            <path d="M1.17934783,3.14702703 C0.0380434783,4.29837838 0.0760869565,6.25567568 1.29347826,7.52216216 L24.4619565,30.8945946 C25.6793478,32.1227027 26.6304348,31.2016216 27.8097826,30.0502703 C28.951087,28.8989189 29.8641304,27.9394595 28.6467391,26.672973 L5.47826087,3.30054054 C4.29891304,2.03405405 2.35869565,1.99567568 1.17934783,3.14702703 L1.17934783,3.14702703 Z" id="Shape" fill="#E0B487"></path>
                            <path d="M19.9402333,8.67018858 C18.6694434,7.46543929 16.6711448,7.40660541 15.4769084,8.53877945 C14.2826721,9.67095349 14.3447311,11.5654042 15.615521,12.7701535 C16.886311,13.9749028 18.8846096,14.0337366 20.0788459,12.9015626 C21.2730822,11.7693886 21.2110233,9.87493788 19.9402333,8.67018858 L19.9402333,8.67018858 Z" id="Oval" fill="#E0B487"></path>
                            <path d="M25.4478295,5.06522691 C24.1770396,3.86047761 22.178741,3.80164374 20.9845046,4.93381778 C19.7902683,6.06599182 19.8523273,7.96044249 21.1231172,9.16519179 C22.3939072,10.3699411 24.3922058,10.428775 25.5864421,9.29660092 C26.7806784,8.16442688 26.7186195,6.26997621 25.4478295,5.06522691 L25.4478295,5.06522691 Z" id="Oval" fill="#E0B487"></path>
                            <path d="M30.2292139,2.15443406 C29.1739699,1.15161279 27.5126724,1.10448542 26.518602,2.04917212 C25.5245317,2.99385882 25.5741226,4.57262597 26.6293666,5.57544723 C27.6846105,6.5782685 29.345908,6.62539588 30.3399784,5.68070918 C31.3340488,4.73602248 31.2844578,3.15725533 30.2292139,2.15443406 L30.2292139,2.15443406 Z" id="Oval" fill="#E0B487"></path>
                            <path d="M1.78804348,3.76108108 C0.951086957,4.60540541 0.989130435,6.02540541 1.86413043,6.90810811 L3.38586957,8.44324324 L6.42934783,5.37297297 L4.9076087,3.83783784 C4.0326087,2.95513514 2.625,2.91675676 1.78804348,3.76108108 L1.78804348,3.76108108 Z" id="Shape" fill="#EFC6A0"></path>
                            <path d="M42.1902174,19.9183784 L28.9130435,33.3124324 C24.2336957,38.032973 19.2880435,33.0437838 19.2880435,33.0437838 L13.7336957,27.4405405 L21.3043478,27.1335135 L10.2717391,15.3897297 L26.3641304,3.95297297 C27.923913,2.37945946 28.6086957,0.498918919 30.2826087,2.18756757 L42,14.0081081 C43.673913,15.6967568 43.75,18.3448649 42.1902174,19.9183784 L42.1902174,19.9183784 Z" id="Shape" fill="#E0B487"></path>
                        </g>
                    </g>
                </g>
            </g>
        </g>
    </g>
</svg>