<?xml version="1.0" encoding="utf-8"?>
<!-- Generator: Adobe Illustrator 18.1.1, SVG Export Plug-In . SVG Version: 6.00 Build 0)  -->
<svg version="1.1" id="Layer_2" xmlns="http://www.w3.org/2000/svg" xmlns:xlink="http://www.w3.org/1999/xlink" x="0px" y="0px"
	 viewBox="0 0 1009 201" enable-background="new 0 0 1009 201" xml:space="preserve">
<g>
	<circle fill-rule="evenodd" clip-rule="evenodd" fill="#C6F9DD" cx="901.5" cy="104.5" r="93.6"/>
	<g>
		<defs>
			<path id="SVGID_1_" d="M858.5,5.4c0-1.8,1.5-3.3,3.3-3.3H936c1.8,0,3.3,1.5,3.3,3.3v143.2c0,1.8-1.5,3.3-3.3,3.3h-74.1
				c-1.8,0-3.3-1.5-3.3-3.3V5.4z"/>
		</defs>
		<clipPath id="SVGID_2_">
			<use xlink:href="#SVGID_1_"  overflow="visible"/>
		</clipPath>
		<g clip-path="url(#SVGID_2_)">
			<defs>
				<rect id="SVGID_3_" x="821.8" y="1.8" width="164" height="165.7"/>
			</defs>
			<clipPath id="SVGID_4_">
				<use xlink:href="#SVGID_3_"  overflow="visible"/>
			</clipPath>
			<rect x="854.4" y="-2.1" clip-path="url(#SVGID_4_)" fill="#941C9C" width="89.1" height="158.2"/>
		</g>
	</g>
	<g>
		<defs>
			<rect id="SVGID_5_" x="864.7" y="11.4" width="68.4" height="116.7"/>
		</defs>
		<clipPath id="SVGID_6_">
			<use xlink:href="#SVGID_5_"  overflow="visible"/>
		</clipPath>
		<g clip-path="url(#SVGID_6_)">
			<defs>
				<rect id="SVGID_7_" x="821.8" y="1.8" width="164" height="165.7"/>
			</defs>
			<clipPath id="SVGID_8_">
				<use xlink:href="#SVGID_7_"  overflow="visible"/>
			</clipPath>
			<rect x="860.5" y="7.3" clip-path="url(#SVGID_8_)" fill="#FFFFFF" width="76.7" height="125"/>
		</g>
	</g>
	<g>
		<defs>
			<path id="SVGID_9_" d="M903.6,141.3c0,2.6-2.1,4.7-4.7,4.7c-2.6,0-4.7-2.1-4.7-4.7c0-2.6,2.1-4.7,4.7-4.7
				C901.5,136.6,903.6,138.7,903.6,141.3"/>
		</defs>
		<clipPath id="SVGID_10_">
			<use xlink:href="#SVGID_9_"  overflow="visible"/>
		</clipPath>
		<g clip-path="url(#SVGID_10_)">
			<defs>
				<rect id="SVGID_11_" x="821.8" y="1.8" width="164" height="165.7"/>
			</defs>
			<clipPath id="SVGID_12_">
				<use xlink:href="#SVGID_11_"  overflow="visible"/>
			</clipPath>
			<rect x="890" y="132.4" clip-path="url(#SVGID_12_)" fill="#6E1B6A" width="17.7" height="17.8"/>
		</g>
	</g>
	<g>
		<g>
			<defs>
				<rect id="SVGID_13_" x="821.8" y="1.8" width="164" height="165.7"/>
			</defs>
			<clipPath id="SVGID_14_">
				<use xlink:href="#SVGID_13_"  overflow="visible"/>
			</clipPath>
		</g>
	</g>
	<g>
		<g>
			<defs>
				<rect id="SVGID_15_" x="821.8" y="1.8" width="164" height="165.7"/>
			</defs>
			<clipPath id="SVGID_16_">
				<use xlink:href="#SVGID_15_"  overflow="visible"/>
			</clipPath>
		</g>
	</g>
	<g>
		<defs>
			<polyline id="SVGID_17_" points="887.8,78.7 887.8,78.7 887.8,78.7 887.8,78.7 887.7,78.7 887.8,78.7 887.8,78.7 			"/>
		</defs>
		<clipPath id="SVGID_18_">
			<use xlink:href="#SVGID_17_"  overflow="visible"/>
		</clipPath>
		<g clip-path="url(#SVGID_18_)">
			<defs>
				<rect id="SVGID_19_" x="821.8" y="1.8" width="164" height="165.7"/>
			</defs>
			<clipPath id="SVGID_20_">
				<use xlink:href="#SVGID_19_"  overflow="visible"/>
			</clipPath>
		</g>
	</g>
	<g>
		<g>
			<defs>
				<rect id="SVGID_21_" x="821.8" y="1.8" width="164" height="165.7"/>
			</defs>
			<clipPath id="SVGID_22_">
				<use xlink:href="#SVGID_21_"  overflow="visible"/>
			</clipPath>
		</g>
	</g>
	<g>
		<g>
			<defs>
				<rect id="SVGID_23_" x="821.8" y="1.8" width="164" height="165.7"/>
			</defs>
			<clipPath id="SVGID_24_">
				<use xlink:href="#SVGID_23_"  overflow="visible"/>
			</clipPath>
		</g>
	</g>
	<g>
		<defs>
			<rect id="SVGID_25_" x="864.7" y="7.4" width="68.4" height="31.1"/>
		</defs>
		<clipPath id="SVGID_26_">
			<use xlink:href="#SVGID_25_"  overflow="visible"/>
		</clipPath>
		<g clip-path="url(#SVGID_26_)">
			<defs>
				<rect id="SVGID_27_" x="821.8" y="1.8" width="164" height="165.7"/>
			</defs>
			<clipPath id="SVGID_28_">
				<use xlink:href="#SVGID_27_"  overflow="visible"/>
			</clipPath>
			<rect x="860.5" y="3.2" clip-path="url(#SVGID_28_)" fill="#E9D8EB" width="76.7" height="39.5"/>
		</g>
	</g>
	<g>
		<defs>
			<path id="SVGID_29_" d="M922.5,28.7l-2.3,2.4h3.7c0-0.4-0.1-0.7-0.2-1.1C923.4,29.3,922.9,28.9,922.5,28.7"/>
		</defs>
		<clipPath id="SVGID_30_">
			<use xlink:href="#SVGID_29_"  overflow="visible"/>
		</clipPath>
		<g clip-path="url(#SVGID_30_)">
			<defs>
				<rect id="SVGID_31_" x="821.8" y="1.8" width="164" height="165.7"/>
			</defs>
			<clipPath id="SVGID_32_">
				<use xlink:href="#SVGID_31_"  overflow="visible"/>
			</clipPath>
			<rect x="916" y="24.6" clip-path="url(#SVGID_32_)" fill="#FBF7FB" width="12.1" height="10.7"/>
		</g>
	</g>
	<g>
		<defs>
			<path id="SVGID_33_" d="M923,28.2l-0.5,0.6c0.4,0.2,0.9,0.6,1.2,1.3c0.2,0.4,0.2,0.7,0.2,1.1h2L923,28.2"/>
		</defs>
		<clipPath id="SVGID_34_">
			<use xlink:href="#SVGID_33_"  overflow="visible"/>
		</clipPath>
		<g clip-path="url(#SVGID_34_)">
			<defs>
				<rect id="SVGID_35_" x="821.8" y="1.8" width="164" height="165.7"/>
			</defs>
			<clipPath id="SVGID_36_">
				<use xlink:href="#SVGID_35_"  overflow="visible"/>
			</clipPath>
			<rect x="918.3" y="24" clip-path="url(#SVGID_36_)" fill="#F6EFF6" width="11.8" height="11.2"/>
		</g>
	</g>
	<g>
		<defs>
			<path id="SVGID_37_" d="M923.9,31.1h-3.7l-7,7c0.1,0.1,0.1,0.3,0.3,0.4h8.3c-0.5-1.2-0.7-2.7-0.2-3.9c0.4-0.8,1.4-1.2,1.9-2
				C923.7,32.2,923.9,31.7,923.9,31.1"/>
		</defs>
		<clipPath id="SVGID_38_">
			<use xlink:href="#SVGID_37_"  overflow="visible"/>
		</clipPath>
		<g clip-path="url(#SVGID_38_)">
			<defs>
				<rect id="SVGID_39_" x="821.8" y="1.8" width="164" height="165.7"/>
			</defs>
			<clipPath id="SVGID_40_">
				<use xlink:href="#SVGID_39_"  overflow="visible"/>
			</clipPath>
			<rect x="909" y="26.9" clip-path="url(#SVGID_40_)" fill="#B950C1" width="19.1" height="15.7"/>
		</g>
	</g>
	<g>
		<defs>
			<path id="SVGID_41_" d="M925.9,31.1h-2c0,0.6-0.2,1.2-0.5,1.6c-0.5,0.8-1.5,1.1-1.9,2c-0.5,1.1-0.3,2.7,0.2,3.9h11.3v-0.2
				L925.9,31.1"/>
		</defs>
		<clipPath id="SVGID_42_">
			<use xlink:href="#SVGID_41_"  overflow="visible"/>
		</clipPath>
		<g clip-path="url(#SVGID_42_)">
			<defs>
				<rect id="SVGID_43_" x="821.8" y="1.8" width="164" height="165.7"/>
			</defs>
			<clipPath id="SVGID_44_">
				<use xlink:href="#SVGID_43_"  overflow="visible"/>
			</clipPath>
			<rect x="917.1" y="26.9" clip-path="url(#SVGID_44_)" fill="#A44EAE" width="20.1" height="15.7"/>
		</g>
	</g>
	<g>
		<defs>
			<polyline id="SVGID_45_" points="864.7,32 864.7,32.4 865,32.4 864.7,32 			"/>
		</defs>
		<clipPath id="SVGID_46_">
			<use xlink:href="#SVGID_45_"  overflow="visible"/>
		</clipPath>
		<g clip-path="url(#SVGID_46_)">
			<defs>
				<rect id="SVGID_47_" x="821.8" y="1.8" width="164" height="165.7"/>
			</defs>
			<clipPath id="SVGID_48_">
				<use xlink:href="#SVGID_47_"  overflow="visible"/>
			</clipPath>
			<rect x="860.5" y="27.9" clip-path="url(#SVGID_48_)" fill="#F6EFF6" width="8.7" height="8.7"/>
		</g>
	</g>
	<g>
		<defs>
			<polyline id="SVGID_49_" points="865,32.4 864.7,32.4 864.7,38.5 871.1,38.5 865,32.4 			"/>
		</defs>
		<clipPath id="SVGID_50_">
			<use xlink:href="#SVGID_49_"  overflow="visible"/>
		</clipPath>
		<g clip-path="url(#SVGID_50_)">
			<defs>
				<rect id="SVGID_51_" x="821.8" y="1.8" width="164" height="165.7"/>
			</defs>
			<clipPath id="SVGID_52_">
				<use xlink:href="#SVGID_51_"  overflow="visible"/>
			</clipPath>
			<rect x="860.5" y="28.2" clip-path="url(#SVGID_52_)" fill="#A44EAE" width="14.7" height="14.5"/>
		</g>
	</g>
	<g>
		<defs>
			<path id="SVGID_53_" d="M924.3,16.2c-0.3-0.6-1-1-1.7-1c-0.2,0-0.3,0-0.5,0.1c-0.4-0.6-1.1-0.9-1.8-0.9c-1.1,0-2,0.8-2.2,1.8
				c-0.7,0.1-1.2,0.7-1.2,1.4c0,0.8,0.6,1.4,1.4,1.4h5.8c0.8,0,1.4-0.6,1.4-1.4C925.5,16.9,925,16.3,924.3,16.2z"/>
		</defs>
		<clipPath id="SVGID_54_">
			<use xlink:href="#SVGID_53_"  overflow="visible"/>
		</clipPath>
		<g clip-path="url(#SVGID_54_)">
			<defs>
				<rect id="SVGID_55_" x="821.8" y="1.8" width="164" height="165.7"/>
			</defs>
			<clipPath id="SVGID_56_">
				<use xlink:href="#SVGID_55_"  overflow="visible"/>
			</clipPath>
			<g clip-path="url(#SVGID_56_)">
				<defs>
					<rect id="SVGID_57_" x="916.7" y="14.3" width="9.2" height="5"/>
				</defs>
				<clipPath id="SVGID_58_">
					<use xlink:href="#SVGID_57_"  overflow="visible"/>
				</clipPath>
				<g clip-path="url(#SVGID_58_)">
					<defs>
						<rect id="SVGID_59_" x="916.9" y="14.4" width="8.6" height="4.6"/>
					</defs>
					<clipPath id="SVGID_60_">
						<use xlink:href="#SVGID_59_"  overflow="visible"/>
					</clipPath>
					<g clip-path="url(#SVGID_60_)">
						<defs>
							<rect id="SVGID_61_" x="916.7" y="14.3" width="9.2" height="5"/>
						</defs>
						<clipPath id="SVGID_62_">
							<use xlink:href="#SVGID_61_"  overflow="visible"/>
						</clipPath>
						<rect x="912.8" y="10.2" clip-path="url(#SVGID_62_)" fill="#FFFFFE" width="17" height="13"/>
					</g>
				</g>
			</g>
		</g>
	</g>
	<g>
		<defs>
			<path id="SVGID_63_" d="M876.2,13.3c-0.3-0.5-0.8-0.9-1.4-0.9c-0.1,0-0.3,0-0.4,0.1c-0.4-0.5-0.9-0.8-1.5-0.8
				c-0.9,0-1.7,0.7-1.9,1.6c-0.6,0.1-1,0.6-1,1.2c0,0.6,0.5,1.2,1.2,1.2h4.9c0.6,0,1.2-0.5,1.2-1.2
				C877.2,13.9,876.7,13.4,876.2,13.3"/>
		</defs>
		<clipPath id="SVGID_64_">
			<use xlink:href="#SVGID_63_"  overflow="visible"/>
		</clipPath>
		<g clip-path="url(#SVGID_64_)">
			<defs>
				<rect id="SVGID_65_" x="821.8" y="1.8" width="164" height="165.7"/>
			</defs>
			<clipPath id="SVGID_66_">
				<use xlink:href="#SVGID_65_"  overflow="visible"/>
			</clipPath>
			<rect x="865.8" y="7.6" clip-path="url(#SVGID_66_)" fill="#FFFFFF" width="15.5" height="12.2"/>
		</g>
	</g>
	<g>
		<defs>
			<path id="SVGID_67_" d="M876.2,13.3c-0.3-0.5-0.8-0.9-1.4-0.9c-0.1,0-0.3,0-0.4,0.1c-0.4-0.5-0.9-0.8-1.5-0.8
				c-0.9,0-1.7,0.7-1.9,1.6c-0.6,0.1-1,0.6-1,1.2c0,0.6,0.5,1.2,1.2,1.2h4.9c0.6,0,1.2-0.5,1.2-1.2
				C877.2,13.9,876.7,13.4,876.2,13.3z"/>
		</defs>
		<clipPath id="SVGID_68_">
			<use xlink:href="#SVGID_67_"  overflow="visible"/>
		</clipPath>
		<g clip-path="url(#SVGID_68_)">
			<defs>
				<rect id="SVGID_69_" x="821.8" y="1.8" width="164" height="165.7"/>
			</defs>
			<clipPath id="SVGID_70_">
				<use xlink:href="#SVGID_69_"  overflow="visible"/>
			</clipPath>
			<g clip-path="url(#SVGID_70_)">
				<defs>
					<rect id="SVGID_71_" x="869.3" y="11" width="8.3" height="5"/>
				</defs>
				<clipPath id="SVGID_72_">
					<use xlink:href="#SVGID_71_"  overflow="visible"/>
				</clipPath>
				<g clip-path="url(#SVGID_72_)">
					<defs>
						<rect id="SVGID_73_" x="870" y="11.8" width="7.2" height="3.9"/>
					</defs>
					<clipPath id="SVGID_74_">
						<use xlink:href="#SVGID_73_"  overflow="visible"/>
					</clipPath>
					<g clip-path="url(#SVGID_74_)">
						<defs>
							<rect id="SVGID_75_" x="869.3" y="11" width="8.3" height="5"/>
						</defs>
						<clipPath id="SVGID_76_">
							<use xlink:href="#SVGID_75_"  overflow="visible"/>
						</clipPath>
						<rect x="865.8" y="7.6" clip-path="url(#SVGID_76_)" fill="#FFFFFF" width="15.5" height="12.2"/>
					</g>
				</g>
			</g>
		</g>
	</g>
	<g>
		<defs>
			<path id="SVGID_77_" d="M898.7,16.1c-0.9-2.1-2.5-3.2-3.6-3.9l-7.1,7.1h11.3C899.4,18.3,899.2,17.2,898.7,16.1"/>
		</defs>
		<clipPath id="SVGID_78_">
			<use xlink:href="#SVGID_77_"  overflow="visible"/>
		</clipPath>
		<g clip-path="url(#SVGID_78_)">
			<defs>
				<rect id="SVGID_79_" x="821.8" y="1.8" width="164" height="165.7"/>
			</defs>
			<clipPath id="SVGID_80_">
				<use xlink:href="#SVGID_79_"  overflow="visible"/>
			</clipPath>
			<rect x="883.9" y="8.1" clip-path="url(#SVGID_80_)" fill="#FFFFFF" width="19.7" height="15.5"/>
		</g>
	</g>
	<g>
		<defs>
			<polyline id="SVGID_81_" points="864.7,7.4 933.1,7.4 933.1,38.5 864.7,38.5 			"/>
		</defs>
		<clipPath id="SVGID_82_">
			<use xlink:href="#SVGID_81_"  overflow="visible"/>
		</clipPath>
		<g clip-path="url(#SVGID_82_)">
			<defs>
				<rect id="SVGID_83_" x="821.8" y="1.8" width="164" height="165.7"/>
			</defs>
			<clipPath id="SVGID_84_">
				<use xlink:href="#SVGID_83_"  overflow="visible"/>
			</clipPath>
			<g clip-path="url(#SVGID_84_)">
				<defs>
					<rect id="SVGID_85_" x="866.8" y="10.1" width="64.9" height="29.1"/>
				</defs>
				<clipPath id="SVGID_86_">
					<use xlink:href="#SVGID_85_"  overflow="visible"/>
				</clipPath>
				<g clip-path="url(#SVGID_86_)">
					<defs>
						<path id="SVGID_87_" d="M898.7,16.1c0.5,1.1,0.7,2.2,0.7,3.3h6.1l-8.7-8.8l-1.7,1.7C896.2,12.9,897.8,14.1,898.7,16.1"/>
					</defs>
					<clipPath id="SVGID_88_">
						<use xlink:href="#SVGID_87_"  overflow="visible"/>
					</clipPath>
					<g clip-path="url(#SVGID_88_)">
						<defs>
							<rect id="SVGID_89_" x="864.3" y="6.8" width="69.1" height="32.5"/>
						</defs>
						<clipPath id="SVGID_90_">
							<use xlink:href="#SVGID_89_"  overflow="visible"/>
						</clipPath>
						<rect x="891" y="6.4" clip-path="url(#SVGID_90_)" fill="#F9F5FA" width="18.7" height="17.1"/>
					</g>
				</g>
				<g clip-path="url(#SVGID_86_)">
					<defs>
						<path id="SVGID_91_" d="M895.1,29.6c1.2-2.5,0.9-2.3,2.8-5.3c0.9-1.3,1.4-3,1.4-4.9h-11.3l-21.2,21.4
							c2.3,5.4,25.5,5.9,31.4,6.9C896.7,45.4,893.9,32.1,895.1,29.6"/>
					</defs>
					<clipPath id="SVGID_92_">
						<use xlink:href="#SVGID_91_"  overflow="visible"/>
					</clipPath>
					<g clip-path="url(#SVGID_92_)">
						<defs>
							<rect id="SVGID_93_" x="864.3" y="6.8" width="69.1" height="32.5"/>
						</defs>
						<clipPath id="SVGID_94_">
							<use xlink:href="#SVGID_93_"  overflow="visible"/>
						</clipPath>
						<rect x="862.7" y="15.2" clip-path="url(#SVGID_94_)" fill="#AC29B5" width="40.9" height="36.6"/>
					</g>
				</g>
				<g clip-path="url(#SVGID_86_)">
					<defs>
						<path id="SVGID_95_" d="M898,24.2c-1.5,2.3-4.5,3.4-5.7,5.9c-1.8,3.9-0.7,9.5,1.3,13c0.9,1.6,2.6,4.1,4.6,4.4
							c1,0.2,2,0.3,3,0.3c7.2,0,27.3,3.8,30-2.5l-25.8-26h-6.1C899.4,21.2,898.8,23,898,24.2"/>
					</defs>
					<clipPath id="SVGID_96_">
						<use xlink:href="#SVGID_95_"  overflow="visible"/>
					</clipPath>
					<g clip-path="url(#SVGID_96_)">
						<defs>
							<rect id="SVGID_97_" x="864.3" y="6.8" width="69.1" height="32.5"/>
						</defs>
						<clipPath id="SVGID_98_">
							<use xlink:href="#SVGID_97_"  overflow="visible"/>
						</clipPath>
						<rect x="887.2" y="15.2" clip-path="url(#SVGID_98_)" fill="#92269E" width="48.2" height="38"/>
					</g>
				</g>
			</g>
		</g>
	</g>
	<g>
		<defs>
			<path id="SVGID_99_" d="M887.8,18.1c-0.4-0.7-1-1.1-1.8-1.1c-0.2,0-0.4,0-0.5,0.1c-0.5-0.6-1.2-1-2-1c-1.2,0-2.2,0.9-2.5,2
				c-0.7,0.1-1.3,0.7-1.3,1.5c0,0.8,0.7,1.5,1.5,1.5h6.3c0.8,0,1.5-0.7,1.5-1.5C889.1,18.8,888.5,18.2,887.8,18.1z"/>
		</defs>
		<clipPath id="SVGID_100_">
			<use xlink:href="#SVGID_99_"  overflow="visible"/>
		</clipPath>
		<g clip-path="url(#SVGID_100_)">
			<defs>
				<rect id="SVGID_101_" x="821.8" y="1.8" width="164" height="165.7"/>
			</defs>
			<clipPath id="SVGID_102_">
				<use xlink:href="#SVGID_101_"  overflow="visible"/>
			</clipPath>
			<g clip-path="url(#SVGID_102_)">
				<defs>
					<rect id="SVGID_103_" x="879.2" y="16" width="10" height="5.8"/>
				</defs>
				<clipPath id="SVGID_104_">
					<use xlink:href="#SVGID_103_"  overflow="visible"/>
				</clipPath>
				<g clip-path="url(#SVGID_104_)">
					<defs>
						<rect id="SVGID_105_" x="879.7" y="16.1" width="9.4" height="5.1"/>
					</defs>
					<clipPath id="SVGID_106_">
						<use xlink:href="#SVGID_105_"  overflow="visible"/>
					</clipPath>
					<g clip-path="url(#SVGID_106_)">
						<defs>
							<rect id="SVGID_107_" x="879.2" y="16" width="10" height="5.8"/>
						</defs>
						<clipPath id="SVGID_108_">
							<use xlink:href="#SVGID_107_"  overflow="visible"/>
						</clipPath>
						<rect x="875.5" y="11.9" clip-path="url(#SVGID_108_)" fill="#FFFFFE" width="17.8" height="13.4"/>
					</g>
				</g>
			</g>
		</g>
	</g>
	<g>
		<defs>
			<rect id="SVGID_109_" x="892.8" y="42.8" width="32.5" height="2.7"/>
		</defs>
		<clipPath id="SVGID_110_">
			<use xlink:href="#SVGID_109_"  overflow="visible"/>
		</clipPath>
		<g clip-path="url(#SVGID_110_)">
			<defs>
				<rect id="SVGID_111_" x="821.8" y="1.8" width="164" height="165.7"/>
			</defs>
			<clipPath id="SVGID_112_">
				<use xlink:href="#SVGID_111_"  overflow="visible"/>
			</clipPath>
			<rect x="888.6" y="38.6" clip-path="url(#SVGID_112_)" fill="#999999" width="40.9" height="11.1"/>
		</g>
	</g>
	<g>
		<defs>
			<rect id="SVGID_113_" x="892.8" y="48.9" width="20" height="2.7"/>
		</defs>
		<clipPath id="SVGID_114_">
			<use xlink:href="#SVGID_113_"  overflow="visible"/>
		</clipPath>
		<g clip-path="url(#SVGID_114_)">
			<defs>
				<rect id="SVGID_115_" x="821.8" y="1.8" width="164" height="165.7"/>
			</defs>
			<clipPath id="SVGID_116_">
				<use xlink:href="#SVGID_115_"  overflow="visible"/>
			</clipPath>
			<rect x="888.6" y="44.8" clip-path="url(#SVGID_116_)" fill="#999999" width="28.3" height="11.1"/>
		</g>
	</g>
	<g>
		<defs>
			<rect id="SVGID_117_" x="870.7" y="57.6" width="42.3" height="1.9"/>
		</defs>
		<clipPath id="SVGID_118_">
			<use xlink:href="#SVGID_117_"  overflow="visible"/>
		</clipPath>
		<g clip-path="url(#SVGID_118_)">
			<defs>
				<rect id="SVGID_119_" x="821.8" y="1.8" width="164" height="165.7"/>
			</defs>
			<clipPath id="SVGID_120_">
				<use xlink:href="#SVGID_119_"  overflow="visible"/>
			</clipPath>
			<rect x="866.6" y="53.4" clip-path="url(#SVGID_120_)" fill="#CCCCCC" width="50.6" height="10.2"/>
		</g>
	</g>
	<g>
		<defs>
			<rect id="SVGID_121_" x="870.7" y="63.5" width="42.3" height="1.9"/>
		</defs>
		<clipPath id="SVGID_122_">
			<use xlink:href="#SVGID_121_"  overflow="visible"/>
		</clipPath>
		<g clip-path="url(#SVGID_122_)">
			<defs>
				<rect id="SVGID_123_" x="821.8" y="1.8" width="164" height="165.7"/>
			</defs>
			<clipPath id="SVGID_124_">
				<use xlink:href="#SVGID_123_"  overflow="visible"/>
			</clipPath>
			<rect x="866.6" y="59.4" clip-path="url(#SVGID_124_)" fill="#CCCCCC" width="50.6" height="10.2"/>
		</g>
	</g>
	<g>
		<defs>
			<polyline id="SVGID_125_" points="879.7,32.4 879.7,32.4 879.7,32.4 879.7,32.4 879.6,32.4 879.7,32.4 879.7,32.4 			"/>
		</defs>
		<clipPath id="SVGID_126_">
			<use xlink:href="#SVGID_125_"  overflow="visible"/>
		</clipPath>
		<g clip-path="url(#SVGID_126_)">
			<defs>
				<rect id="SVGID_127_" x="821.8" y="1.8" width="164" height="165.7"/>
			</defs>
			<clipPath id="SVGID_128_">
				<use xlink:href="#SVGID_127_"  overflow="visible"/>
			</clipPath>
			<rect x="875.5" y="28.3" clip-path="url(#SVGID_128_)" fill="#FFAB8E" width="8.4" height="8.3"/>
		</g>
	</g>
	<g>
		<defs>
			<polyline id="SVGID_129_" points="864.7,7.4 933.1,7.4 933.1,124.1 864.7,124.1 			"/>
		</defs>
		<clipPath id="SVGID_130_">
			<use xlink:href="#SVGID_129_"  overflow="visible"/>
		</clipPath>
		<g clip-path="url(#SVGID_130_)">
			<defs>
				<rect id="SVGID_131_" x="821.8" y="1.8" width="164" height="165.7"/>
			</defs>
			<clipPath id="SVGID_132_">
				<use xlink:href="#SVGID_131_"  overflow="visible"/>
			</clipPath>
			<g clip-path="url(#SVGID_132_)">
				<defs>
					<rect id="SVGID_133_" x="869.3" y="41.8" width="60" height="82.4"/>
				</defs>
				<clipPath id="SVGID_134_">
					<use xlink:href="#SVGID_133_"  overflow="visible"/>
				</clipPath>
				<g clip-path="url(#SVGID_134_)">
					<defs>
						<path id="SVGID_135_" d="M917.4,89.8c0,10.4-8.3,18.8-18.6,18.8c-10.3,0-18.6-8.4-18.6-18.8c0-10.4,8.3-18.8,18.6-18.8
							C909.1,71,917.4,79.5,917.4,89.8"/>
					</defs>
					<clipPath id="SVGID_136_">
						<use xlink:href="#SVGID_135_"  overflow="visible"/>
					</clipPath>
					<g clip-path="url(#SVGID_136_)">
						<defs>
							<rect id="SVGID_137_" x="864.3" y="6.8" width="69.1" height="117.4"/>
						</defs>
						<clipPath id="SVGID_138_">
							<use xlink:href="#SVGID_137_"  overflow="visible"/>
						</clipPath>
						<rect x="876" y="66.9" clip-path="url(#SVGID_138_)" fill="#882C84" width="45.6" height="45.9"/>
					</g>
				</g>
				<g clip-path="url(#SVGID_134_)">
					<defs>
						<path id="SVGID_139_" d="M869.3,116.7c0-1.4,1.1-2.5,2.5-2.5h55c1.4,0,2.5,1.1,2.5,2.5v5c0,1.4-1.1,2.5-2.5,2.5h-55
							c-1.4,0-2.5-1.1-2.5-2.5V116.7z"/>
					</defs>
					<clipPath id="SVGID_140_">
						<use xlink:href="#SVGID_139_"  overflow="visible"/>
					</clipPath>
					<g clip-path="url(#SVGID_140_)">
						<defs>
							<rect id="SVGID_141_" x="864.3" y="6.8" width="69.1" height="117.4"/>
						</defs>
						<clipPath id="SVGID_142_">
							<use xlink:href="#SVGID_141_"  overflow="visible"/>
						</clipPath>
						<rect x="865.1" y="110.1" clip-path="url(#SVGID_142_)" fill="#AC29B5" width="68.3" height="18.3"/>
					</g>
				</g>
				<g clip-path="url(#SVGID_134_)">
					<defs>
						<rect id="SVGID_143_" x="887.6" y="118.4" width="24.1" height="1.7"/>
					</defs>
					<clipPath id="SVGID_144_">
						<use xlink:href="#SVGID_143_"  overflow="visible"/>
					</clipPath>
					<g clip-path="url(#SVGID_144_)">
						<defs>
							<rect id="SVGID_145_" x="864.3" y="6.8" width="69.1" height="117.4"/>
						</defs>
						<clipPath id="SVGID_146_">
							<use xlink:href="#SVGID_145_"  overflow="visible"/>
						</clipPath>
						<rect x="883.4" y="114.2" clip-path="url(#SVGID_146_)" fill="#FFFFFF" width="32.5" height="10"/>
					</g>
				</g>
			</g>
		</g>
	</g>
	<g>
		<defs>
			<path id="SVGID_147_" d="M926.5,59.4c0-0.6-0.2-1.1-0.5-1.4c-0.2-0.3-0.4-0.5-0.7-0.6c-0.2-0.1-0.5-0.2-0.7-0.2
				c-0.1,0-0.1,0-0.2,0c-0.1,0-0.1,0-0.2,0c-0.7,0-1.1,0.2-1.5,0.6c0,0-0.1,0.1-0.1,0.1c0,0-0.1,0.1-0.1,0.1l0,0.1l-0.1,0.1v6.9l0,0
				c0,0,0.1-0.1,0.1-0.1c2.7-2,3.8-3.5,4-4.9c0-0.1,0-0.2,0-0.3L926.5,59.4"/>
		</defs>
		<clipPath id="SVGID_148_">
			<use xlink:href="#SVGID_147_"  overflow="visible"/>
		</clipPath>
		<g clip-path="url(#SVGID_148_)">
			<defs>
				<rect id="SVGID_149_" x="821.8" y="1.8" width="164" height="165.7"/>
			</defs>
			<clipPath id="SVGID_150_">
				<use xlink:href="#SVGID_149_"  overflow="visible"/>
			</clipPath>
			<rect x="918.2" y="53" clip-path="url(#SVGID_150_)" fill="#FF7BF3" width="12.5" height="16.3"/>
		</g>
	</g>
	<g>
		<defs>
			<path id="SVGID_151_" d="M922.3,58.2c-0.5-0.6-1-1-1.9-1c-0.1,0-0.2,0-0.4,0c-0.3,0-0.6,0.2-0.9,0.4c-0.5,0.4-0.9,1-0.9,1.9
				l0,0.5c0,0.5,0.2,1.1,0.6,1.8c0.3,0.6,0.8,1.2,1.5,1.8c0.5,0.5,1.2,1,2,1.6L922.3,58.2L922.3,58.2"/>
		</defs>
		<clipPath id="SVGID_152_">
			<use xlink:href="#SVGID_151_"  overflow="visible"/>
		</clipPath>
		<g clip-path="url(#SVGID_152_)">
			<defs>
				<rect id="SVGID_153_" x="821.8" y="1.8" width="164" height="165.7"/>
			</defs>
			<clipPath id="SVGID_154_">
				<use xlink:href="#SVGID_153_"  overflow="visible"/>
			</clipPath>
			<rect x="914" y="53" clip-path="url(#SVGID_154_)" fill="#FFB0F8" width="12.5" height="16.3"/>
		</g>
	</g>
	<g>
		<defs>
			<polyline id="SVGID_155_" points="888.8,75.7 888.8,75.7 888.8,75.7 888.8,75.7 888.8,75.7 888.8,75.7 888.8,75.7 			"/>
		</defs>
		<clipPath id="SVGID_156_">
			<use xlink:href="#SVGID_155_"  overflow="visible"/>
		</clipPath>
		<g clip-path="url(#SVGID_156_)">
			<defs>
				<rect id="SVGID_157_" x="821.8" y="1.8" width="164" height="165.7"/>
			</defs>
			<clipPath id="SVGID_158_">
				<use xlink:href="#SVGID_157_"  overflow="visible"/>
			</clipPath>
		</g>
	</g>
	<g>
		<defs>
			<polyline id="SVGID_159_" points="901.4,75.7 901.4,75.7 901.4,75.7 901.4,75.7 901.4,75.7 901.4,75.7 901.4,75.7 			"/>
		</defs>
		<clipPath id="SVGID_160_">
			<use xlink:href="#SVGID_159_"  overflow="visible"/>
		</clipPath>
		<g clip-path="url(#SVGID_160_)">
			<defs>
				<rect id="SVGID_161_" x="821.8" y="1.8" width="164" height="165.7"/>
			</defs>
			<clipPath id="SVGID_162_">
				<use xlink:href="#SVGID_161_"  overflow="visible"/>
			</clipPath>
		</g>
	</g>
	<path fill="#AD29B6" d="M914.7,89.7c0-0.2,0-0.3,0-0.5c-1.4-0.6-5.4,0.2-9.2-0.1c-4.1-0.3-9.3-1.5-13.7-1.6c-1.3,0-5.8,0.5-8.9,1.3
		c0,0.3,0,0.6,0,0.9c0,8.7,7.1,15.8,15.8,15.9c0.2,0,0.5,0,0.7,0C907.9,105.2,914.7,98.2,914.7,89.7z"/>
	<g>
		<defs>
			<circle id="SVGID_163_" cx="901.5" cy="104.5" r="93.6"/>
		</defs>
		<clipPath id="SVGID_164_">
			<use xlink:href="#SVGID_163_"  overflow="visible"/>
		</clipPath>
		<path clip-path="url(#SVGID_164_)" fill="#E0B487" d="M888.3,211.1l8.9-8.2v-23c0-8.3-5.6-13.4-12.6-13.8l0,42.2L888.3,211.1z"/>
		<path clip-path="url(#SVGID_164_)" fill="#EFC6A0" d="M884.6,179.5v-12.4c1.1,0,2,0.9,2,2.1v10.3H884.6z"/>
		<path clip-path="url(#SVGID_164_)" fill="#E0B487" d="M906.5,115.2c-4.4,0-8,3.8-8,8.5c0,0,0,88.2,0,88.2c0,4.7,3.6,4.7,8,4.7
			c4.4,0,8-0.1,8-4.7c0,0,0-88.2,0-88.2C914.5,119,910.9,115.2,906.5,115.2z"/>
		<ellipse clip-path="url(#SVGID_164_)" fill="#E0B487" cx="923.8" cy="161.1" rx="8" ry="8.5"/>
		<ellipse clip-path="url(#SVGID_164_)" fill="#E0B487" cx="941.1" cy="164.8" rx="8" ry="8.5"/>
		<ellipse clip-path="url(#SVGID_164_)" fill="#E0B487" cx="957.1" cy="168.4" rx="6.6" ry="7"/>
		<path clip-path="url(#SVGID_164_)" fill="#EFC6A0" d="M900.7,123.7c0-3.4,2.6-6.2,5.8-6.2c3.2,0,5.8,2.8,5.8,6.2H900.7z"/>
		<rect x="900.7" y="123.7" clip-path="url(#SVGID_164_)" fill="#EFC6A0" width="11.6" height="5.8"/>
		<path clip-path="url(#SVGID_164_)" fill="#E0B487" d="M952.9,224.9c0,0-32.8,0-50.5,0s-17.7-18.8-17.7-18.8v-21.1l15,13.9
			l1.1-43.1l52.2,9.1c5.9,0,10.8-2.2,10.8,4.1v44.6C963.7,219.7,958.9,224.9,952.9,224.9z"/>
	</g>
	<circle fill="#FEF3E9" cx="879.8" cy="38.2" r="9.9"/>
	<g>
		<defs>
			<circle id="SVGID_165_" cx="879.8" cy="38.2" r="9.9"/>
		</defs>
		<use xlink:href="#SVGID_165_"  overflow="visible" fill="#F8F2F9"/>
		<clipPath id="SVGID_166_">
			<use xlink:href="#SVGID_165_"  overflow="visible"/>
		</clipPath>
		<path clip-path="url(#SVGID_166_)" fill="#AD29B6" d="M887.5,45.1c-0.9-1.9-3.1-3.4-5.7-3.9c-0.7-0.1-1.3-0.2-2-0.2
			c-0.6,0-1.3,0.1-2,0.2c-2.7,0.5-4.9,2-5.7,3.9c-0.2,0.5-0.4,1-0.4,1.5v2.3l16.2,0v-2.2C887.9,46.1,887.7,45.6,887.5,45.1"/>
		<path clip-path="url(#SVGID_166_)" fill="#882C84" d="M879.8,41.1L879.8,41.1c-0.1,0-0.2,0-0.3,0c-0.5,0-1.1,0.1-1.7,0.2
			c-2.7,0.5-4.9,2-5.7,3.9c-0.2,0.4-0.3,0.8-0.4,1.1l0,0c0,0.8,0.1,2.6,0.1,2.6h0.7l7.2,0v-2.3V41.1L879.8,41.1"/>
		<path clip-path="url(#SVGID_166_)" fill="#E0B487" d="M879.8,31.2c0.1,0,0.1,0,0.2,0l0,0l0,0v0c1.8,0,3.3,1.1,4,2.6
			c0.2,0.5,0.4,1.2,0.4,1.8c0,0.1,0,0.3,0,0.4c-0.2,2.2-2.1,3.9-4.3,4v0l0,0l0,0c-0.1,0-0.1,0-0.2,0c-2.4-0.1-4.2-2-4.2-4.4
			C875.6,33.2,877.5,31.3,879.8,31.2"/>
		<path clip-path="url(#SVGID_166_)" fill="#DBA772" d="M879.9,31.2V40c0,0-0.1,0-0.1,0c-2.4-0.1-4.2-2-4.2-4.4
			c0-2.4,1.9-4.3,4.2-4.4C879.9,31.2,879.9,31.2,879.9,31.2"/>
	</g>
</g>
<g>
	<path fill-rule="evenodd" clip-rule="evenodd" fill="#FFFFFF" d="M597.5,105.8c0,51.3-41.6,93-93,93c-51.3,0-93-41.6-93-93
		c0-51.3,41.6-93,93-93C555.9,12.8,597.5,54.5,597.5,105.8"/>
	<g>
		<defs>
			<path id="SVGID_167_" d="M597.5,105.8c0,51.3-41.6,92.9-92.9,92.9c-51.3,0-92.9-41.6-92.9-92.9c0-51.3,41.6-92.9,92.9-92.9
				C555.9,12.9,597.5,54.5,597.5,105.8"/>
		</defs>
		<clipPath id="SVGID_168_">
			<use xlink:href="#SVGID_167_"  overflow="visible"/>
		</clipPath>
		<polyline clip-path="url(#SVGID_168_)" fill="#EED4F0" points="562.7,181.1 453.6,181.1 453.6,131.9 562.7,131.9 562.7,181.1 		
			"/>
		<polyline clip-path="url(#SVGID_168_)" fill="#AF66BC" points="530.3,187.2 482.7,187.2 482.7,175.7 530.3,175.7 530.3,187.2 		
			"/>
		<g clip-path="url(#SVGID_168_)">
			<defs>
				<polyline id="SVGID_169_" points="530.3,187.2 482.7,187.2 482.7,175.7 530.3,175.7 530.3,187.2 				"/>
			</defs>
			<clipPath id="SVGID_170_">
				<use xlink:href="#SVGID_169_"  overflow="visible"/>
			</clipPath>
			<polyline clip-path="url(#SVGID_170_)" fill="#AF66BC" points="530.7,184.3 482.3,184.3 482.3,175.5 530.7,175.5 530.7,184.3 			
				"/>
		</g>
		<polyline clip-path="url(#SVGID_168_)" fill="#AF66BC" points="530.3,185.9 482.7,185.9 482.7,175.1 530.3,175.1 530.3,185.9 		
			"/>
		<g clip-path="url(#SVGID_168_)">
			<defs>
				<polyline id="SVGID_171_" points="530.3,185.9 482.7,185.9 482.7,175.1 530.3,175.1 530.3,185.9 				"/>
			</defs>
			<clipPath id="SVGID_172_">
				<use xlink:href="#SVGID_171_"  overflow="visible"/>
			</clipPath>
			<path clip-path="url(#SVGID_172_)" fill="#AF66BC" d="M529.3,168.9h-4.5v0h-5.2v0h-10.6v0h-5.2v0h-10.5v0h-5.2v0h-4.5
				c-1.8,0-3.3,1.5-3.3,3.3v9.2c0,0,0.3,1.7,1.6,0c0.8-1.3,3.3-3.6,6.3-3.6c3,0,5.9,3.5,8.2,3.5c3.1,0,5-3.5,9.8-3.5
				c4.7,0,6.2,3.5,10,3.5c3.3,0,5.8-3.5,8.7-3.5c2.2,0,5.2,2.3,6.3,3.6c1.1,1.3,1.3,0,1.3,0v-9.2
				C532.6,170.4,531.1,168.9,529.3,168.9"/>
		</g>
		<path clip-path="url(#SVGID_168_)" fill="#AF66BC" d="M520.9,148.2c0.4,2.7-4.1,4.7-4.1,7.4c0,2.7,2.2,4.8,4.8,4.8l0,0
			c-1.3,0-2.3-1-2.3-2.3c0-1.3,2.1-2.3,2-3.6c-0.2-1.3,2.7,2.3,2.7,3.6c0,1-0.6,1.8-1.5,2.2c2.2-0.4,4-2.4,4-4.7
			C526.6,153,520.6,145.5,520.9,148.2"/>
		<path clip-path="url(#SVGID_168_)" fill="#AF66BC" d="M490,148.2c0.4,2.7-4.1,4.7-4.1,7.4c0,2.7,2.2,4.8,4.9,4.8l0,0
			c-1.3,0-2.3-1-2.3-2.3c0-1.3,2.1-2.3,2-3.6c-0.2-1.3,2.7,2.3,2.7,3.6c0,1-0.6,1.9-1.4,2.2c2.2-0.4,3.9-2.4,3.9-4.7
			C495.6,153,489.6,145.5,490,148.2z"/>
		<path clip-path="url(#SVGID_168_)" fill="#AF66BC" d="M505.5,144.4c0.4,3-4.6,5.4-4.6,8.4c0,3,2.5,5.5,5.5,5.5l0,0
			c-1.5,0-2.6-1.2-2.6-2.6c0-1.5,2.4-2.6,2.2-4c-0.2-1.5,3.1,2.6,3.1,4c0,1.1-0.9,2.1-1.8,2.5c2.5-0.5,4.6-2.7,4.6-5.4
			C511.9,149.7,505.1,141.3,505.5,144.4z"/>
		<path clip-path="url(#SVGID_168_)" fill="#AF66BC" d="M527.9,181.2L527.9,181.2c0.1,0.1,0.3,0.1,0.4,0.2v0
			C528.1,181.3,528,181.2,527.9,181.2"/>
		<path clip-path="url(#SVGID_168_)" fill="#AF66BC" d="M493.9,170.3c0,0.2-0.2,0.4-0.4,0.4h-4.8c-0.2,0-0.4-0.2-0.4-0.4v-7.6
			c0-0.2,0.2-0.4,0.4-0.4h4.8c0.2,0,0.4,0.2,0.4,0.4V170.3z"/>
		<path clip-path="url(#SVGID_168_)" fill="#AF66BC" d="M524.3,170.3c0,0.2-0.2,0.4-0.4,0.4h-4.8c-0.2,0-0.4-0.2-0.4-0.4v-7.6
			c0-0.2,0.2-0.4,0.4-0.4h4.8c0.2,0,0.4,0.2,0.4,0.4V170.3z"/>
		<path clip-path="url(#SVGID_168_)" fill="#AF66BC" d="M509.5,170.3c0,0.2-0.2,0.4-0.4,0.4h-4.8c-0.2,0-0.4-0.2-0.4-0.4v-10
			c0-0.2,0.2-0.4,0.4-0.4h4.8c0.2,0,0.4,0.2,0.4,0.4V170.3z"/>
		<path clip-path="url(#SVGID_168_)" fill="#AF66BC" d="M532,193.5l-1.7,0.2v-11.3c-1.8-1.1-3.6-1.9-5.3-1.9c-1.7,0-5.5,2.8-8.7,2.8
			c-4.6,0-6.7-2.8-10-2.8c-3.3,0-7.4,2.8-9.8,2.8c-3.1,0-6.2-2.8-8.2-2.8c-2.3,0-4.1,0.8-5.5,1.7v11.3h-1.8c-1.8,0-3.3,1.5-3.3,3.3
			v2.2h57.7v-2.2C535.3,195,533.8,193.5,532,193.5"/>
		<path clip-path="url(#SVGID_168_)" fill="#AF66BC" d="M529.3,167.7h-4.5v0h-5.2v0h-10.6v0h-5.2v0h-10.5v0h-5.2v0h-4.5
			c-1.8,0-3.3,1.5-3.3,3.3v9.2c0,0,0.3,1.7,1.6,0c0.8-1.3,3.3-3.6,6.3-3.6c3,0,5.9,3.5,8.2,3.5c3.1,0,5-3.5,9.8-3.5
			c4.7,0,6.2,3.5,10,3.5c3.3,0,5.8-3.5,8.7-3.5c2.2,0,5.2,2.3,6.3,3.6c1.1,1.3,1.3,0,1.3,0V171C532.6,169.2,531.1,167.7,529.3,167.7
			"/>
		<rect x="453.6" y="-32.8" clip-path="url(#SVGID_168_)" fill="#EED4F0" width="109.1" height="49.2"/>
		<path clip-path="url(#SVGID_168_)" fill="#92269E" d="M504.1,0.9c-11.5,0-20.8,6.9-20.8,15.5h41.6C524.9,7.8,515.6,0.9,504.1,0.9"
			/>
		<polyline clip-path="url(#SVGID_168_)" fill="#EED4F0" points="562.7,99.6 453.6,99.6 453.6,50.4 562.7,50.4 562.7,99.6 		"/>
		<g clip-path="url(#SVGID_168_)">
			<defs>
				<polyline id="SVGID_173_" points="562.7,99.6 453.6,99.6 453.6,50.4 562.7,50.4 562.7,99.6 				"/>
			</defs>
			<clipPath id="SVGID_174_">
				<use xlink:href="#SVGID_173_"  overflow="visible"/>
			</clipPath>
			<path clip-path="url(#SVGID_174_)" fill="#FFFFFF" d="M547.7,86.2c-0.5-1.1-1.3-1.7-1.9-2l-3.7,3.7h6
				C548.1,87.3,548,86.7,547.7,86.2"/>
			<path clip-path="url(#SVGID_174_)" fill="#FBF4FB" d="M547.7,86.2c0.2,0.6,0.4,1.1,0.4,1.7h3.2l-4.6-4.6l-0.9,0.9
				C546.4,84.5,547.3,85.1,547.7,86.2"/>
			<path clip-path="url(#SVGID_174_)" fill="#AC29B5" d="M545.9,93.2c0.6-1.3,0.5-1.2,1.5-2.8c0.4-0.7,0.8-1.6,0.7-2.5h-6L531,99
				c1.2,2.8,13.4,3.1,16.5,3.6C546.7,101.4,545.2,94.5,545.9,93.2"/>
			<path clip-path="url(#SVGID_174_)" fill="#92269E" d="M547.3,90.4c-0.8,1.2-2.4,1.8-3,3.1c-0.9,2-0.4,4.9,0.7,6.8
				c0.5,0.8,1.4,2.1,2.4,2.3c0.5,0.1,1.1,0.1,1.6,0.1c3.8,0,14.4,2,15.8-1.3l-13.5-13.6h-3.2C548.1,88.8,547.8,89.7,547.3,90.4"/>
			<path clip-path="url(#SVGID_174_)" fill="#FFFFFF" d="M450.7,88.2c-0.5-1-1.3-1.6-1.8-2l-3.6,3.6h5.8
				C451,89.4,450.9,88.8,450.7,88.2z"/>
			<path clip-path="url(#SVGID_174_)" fill="#FBF4FB" d="M450.7,88.2c0.2,0.5,0.3,1.1,0.3,1.7h0h3.1l-4.5-4.5l-0.9,0.9
				C449.4,86.6,450.2,87.2,450.7,88.2z"/>
			<path clip-path="url(#SVGID_174_)" fill="#AC29B5" d="M448.8,95.1c0.6-1.3,0.4-1.2,1.5-2.7c0.4-0.7,0.7-1.5,0.7-2.5h0h-5.8
				l-10.9,10.9c1.2,2.7,13.1,3,16.1,3.5C449.7,103.1,448.2,96.4,448.8,95.1z"/>
			<path clip-path="url(#SVGID_174_)" fill="#92269E" d="M450.3,92.4c-0.8,1.2-2.3,1.7-2.9,3c-0.9,2-0.4,4.8,0.7,6.6
				c0.5,0.8,1.3,2.1,2.4,2.3c0.5,0.1,1,0.1,1.6,0.1c3.7,0,14,1.9,15.4-1.3l-13.2-13.2H451C451,90.8,450.7,91.7,450.3,92.4z"/>
			<g clip-path="url(#SVGID_174_)">
				<defs>
					<path id="SVGID_175_" d="M548.8,64.4c-0.5-1-1.5-1.6-2.7-1.6c-0.3,0-0.5,0-0.8,0.1c-0.7-0.9-1.7-1.4-2.9-1.4
						c-1.7,0-3.2,1.2-3.6,2.9c-1.1,0.2-1.9,1.1-1.9,2.2c0,1.2,1,2.2,2.2,2.2h9.2c1.2,0,2.2-1,2.2-2.2
						C550.6,65.5,549.8,64.6,548.8,64.4"/>
				</defs>
				<clipPath id="SVGID_176_">
					<use xlink:href="#SVGID_175_"  overflow="visible"/>
				</clipPath>
				<g clip-path="url(#SVGID_176_)">
					<defs>
						<polyline id="SVGID_177_" points="512.8,83.1 552.3,83.1 552.3,59.5 512.8,59.5 512.8,83.1 						"/>
					</defs>
					<clipPath id="SVGID_178_">
						<use xlink:href="#SVGID_177_"  overflow="visible"/>
					</clipPath>
					<polyline clip-path="url(#SVGID_178_)" fill="#FFFFFE" points="533.9,59.8 551.2,59.8 551.2,70.7 533.9,70.7 533.9,59.8 					
						"/>
				</g>
			</g>
			<path clip-path="url(#SVGID_174_)" fill-rule="evenodd" clip-rule="evenodd" fill="#FFFFFF" d="M472,59.8
				c-0.4-0.8-1.3-1.3-2.2-1.3c-0.2,0-0.4,0-0.6,0.1c-0.6-0.8-1.5-1.2-2.4-1.2c-1.5,0-2.7,1.1-3,2.5c-0.9,0.1-1.6,0.9-1.6,1.8
				c0,1,0.8,1.9,1.9,1.9h7.8c1,0,1.9-0.8,1.9-1.9C473.6,60.8,472.9,60,472,59.8"/>
			<g clip-path="url(#SVGID_174_)">
				<defs>
					<path id="SVGID_179_" d="M472,59.8c-0.4-0.8-1.3-1.3-2.2-1.3c-0.2,0-0.4,0-0.6,0.1c-0.6-0.8-1.5-1.2-2.4-1.2
						c-1.5,0-2.7,1.1-3,2.5c-0.9,0.1-1.6,0.9-1.6,1.8c0,1,0.8,1.9,1.9,1.9h7.8c1,0,1.9-0.8,1.9-1.9C473.6,60.8,472.9,60,472,59.8"/>
				</defs>
				<clipPath id="SVGID_180_">
					<use xlink:href="#SVGID_179_"  overflow="visible"/>
				</clipPath>
				<rect x="441.6" y="55.7" clip-path="url(#SVGID_180_)" fill="#FFFFFF" width="33.3" height="19.9"/>
			</g>
			<path clip-path="url(#SVGID_174_)" fill="#FFFFFF" d="M507.9,64.3c-1.5-3.2-4-5.1-5.7-6.1l-11.3,11.3H509
				C509,67.7,508.7,66,507.9,64.3z"/>
			<path clip-path="url(#SVGID_174_)" fill="#FBF4FB" d="M507.9,64.3c0.8,1.7,1.1,3.4,1.1,5.2h0h9.7l-13.9-13.9l-2.6,2.6
				C503.9,59.1,506.5,61,507.9,64.3z"/>
			<path clip-path="url(#SVGID_174_)" fill="#AC29B5" d="M502.2,85.5c2-3.9,1.4-3.6,4.5-8.4c1.4-2,2.3-4.8,2.3-7.7h0h-18.1
				l-33.8,33.7c3.6,8.5,40.7,9.2,50.1,10.9C504.8,110.4,500.2,89.5,502.2,85.5z"/>
			<path clip-path="url(#SVGID_174_)" fill="#92269E" d="M506.7,77.1c-2.4,3.7-7.2,5.3-9.1,9.4c-2.8,6.1-1.1,15,2.1,20.6
				c1.5,2.5,4.2,6.4,7.4,7c1.6,0.3,3.2,0.4,4.8,0.4c11.5,0,43.6,6,47.8-4l-41.1-41.1H509C509,72.3,508.1,75,506.7,77.1"/>
			<g clip-path="url(#SVGID_174_)">
				<defs>
					<path id="SVGID_181_" d="M490.5,67.4c-0.6-1.1-1.7-1.8-2.9-1.8c-0.3,0-0.6,0-0.8,0.1c-0.8-1-1.9-1.6-3.2-1.6
						c-1.9,0-3.5,1.4-3.9,3.2c-1.2,0.2-2.1,1.2-2.1,2.4c0,1.3,1.1,2.4,2.4,2.4h10.1c1.3,0,2.4-1.1,2.4-2.4
						C492.6,68.6,491.7,67.6,490.5,67.4"/>
				</defs>
				<clipPath id="SVGID_182_">
					<use xlink:href="#SVGID_181_"  overflow="visible"/>
				</clipPath>
				<g clip-path="url(#SVGID_182_)">
					<defs>
						<polyline id="SVGID_183_" points="451,87.8 494.4,87.8 494.4,61.9 451,61.9 451,87.8 						"/>
					</defs>
					<clipPath id="SVGID_184_">
						<use xlink:href="#SVGID_183_"  overflow="visible"/>
					</clipPath>
					<rect x="474.2" y="62.3" clip-path="url(#SVGID_184_)" fill="#FFFFFE" width="18.9" height="12"/>
				</g>
			</g>
		</g>
		<polyline clip-path="url(#SVGID_168_)" fill="#FFFFFF" points="562.7,128.5 453.6,128.5 453.6,99.6 562.7,99.6 562.7,128.5 		"/>
		<circle clip-path="url(#SVGID_168_)" fill="#FEF3E9" cx="472.3" cy="101.9" r="12.4"/>
		<g clip-path="url(#SVGID_168_)">
			<defs>
				<path id="SVGID_185_" d="M459.9,101.9c0,6.8,5.5,12.4,12.4,12.4c6.8,0,12.4-5.5,12.4-12.4c0-6.8-5.5-12.4-12.4-12.4
					C465.5,89.5,459.9,95,459.9,101.9"/>
			</defs>
			<clipPath id="SVGID_186_">
				<use xlink:href="#SVGID_185_"  overflow="visible"/>
			</clipPath>
			<path clip-path="url(#SVGID_186_)" fill="#AD29B6" d="M481.9,110.6c-1.1-2.4-3.8-4.2-7.2-4.8c-0.8-0.2-1.6-0.2-2.4-0.2
				c-0.8,0-1.6,0.1-2.4,0.2c-3.3,0.6-6.1,2.5-7.2,4.8c-0.3,0.6-0.4,1.2-0.5,1.8v2.8l20.2,0v-2.8
				C482.4,111.8,482.2,111.2,481.9,110.6"/>
			<path clip-path="url(#SVGID_186_)" fill="#882C84" d="M472.3,105.5L472.3,105.5c-0.1,0-0.3,0-0.4,0c-0.7,0-1.4,0.1-2.1,0.2
				c-3.3,0.6-6.1,2.5-7.2,4.8c-0.2,0.5-0.4,0.9-0.4,1.4c0,1,0.1,3.2,0.1,3.2h0.9l9,0v-2.8V105.5"/>
			<path clip-path="url(#SVGID_186_)" fill="#FFC0B3" d="M472.3,93.2l0.2,0l0,0l0,0v0c2.2,0,4.1,1.3,5,3.2c0.3,0.7,0.5,1.4,0.5,2.2
				c0,0.2,0,0.4,0,0.5c-0.3,2.8-2.6,4.9-5.4,4.9v0l0,0l0,0l-0.2,0c-2.9-0.1-5.3-2.5-5.3-5.5C467,95.7,469.4,93.3,472.3,93.2"/>
			<path clip-path="url(#SVGID_186_)" fill="#FFAB8E" d="M472.5,93.2v11l-0.1,0c-2.9-0.1-5.3-2.5-5.3-5.5c0-3,2.4-5.4,5.3-5.5
				L472.5,93.2"/>
		</g>
		<g clip-path="url(#SVGID_168_)">
			<defs>
				<polyline id="SVGID_187_" points="490.3,115.7 530.5,115.7 530.5,117.5 490.3,117.5 490.3,115.7 				"/>
			</defs>
			<clipPath id="SVGID_188_">
				<use xlink:href="#SVGID_187_"  overflow="visible"/>
			</clipPath>
			<g clip-path="url(#SVGID_188_)">
				<defs>
					<polyline id="SVGID_189_" points="443.8,220.2 599.7,220.2 599.7,62.7 443.8,62.7 443.8,220.2 					"/>
				</defs>
				<clipPath id="SVGID_190_">
					<use xlink:href="#SVGID_189_"  overflow="visible"/>
				</clipPath>
				<polyline clip-path="url(#SVGID_190_)" fill="#CCCCCC" points="486.3,111.8 534.4,111.8 534.4,121.5 486.3,121.5 486.3,111.8 
									"/>
			</g>
		</g>
		<polyline clip-path="url(#SVGID_168_)" fill-rule="evenodd" clip-rule="evenodd" fill="#999999" points="489.9,108.3 554.3,108.3 
			554.3,111.6 489.9,111.6 489.9,108.3 		"/>
		<path clip-path="url(#SVGID_168_)" fill="#AF66BC" d="M504.1,0.9c-11.5,0-20.8,6.9-20.8,15.5h41.6C524.9,7.8,515.6,0.9,504.1,0.9"
			/>
		<rect x="453.6" y="16.4" clip-path="url(#SVGID_168_)" fill="#FFFFFF" width="109.1" height="28.9"/>
		<circle clip-path="url(#SVGID_168_)" fill="#F8F2F9" cx="472.3" cy="18.7" r="12.4"/>
		<g clip-path="url(#SVGID_168_)">
			<defs>
				<path id="SVGID_191_" d="M459.9,18.7c0,6.8,5.5,12.4,12.4,12.4c6.8,0,12.4-5.5,12.4-12.4c0-6.8-5.5-12.4-12.4-12.4
					C465.5,6.3,459.9,11.9,459.9,18.7"/>
			</defs>
			<clipPath id="SVGID_192_">
				<use xlink:href="#SVGID_191_"  overflow="visible"/>
			</clipPath>
			<path clip-path="url(#SVGID_192_)" fill="#FC8442" d="M462.7,27.4c1.1-2.4,3.8-4.2,7.2-4.8c0.8-0.2,1.6-0.2,2.4-0.2
				c0.8,0,1.6,0.1,2.4,0.2c3.3,0.6,6.1,2.5,7.2,4.8c0.3,0.6,0.4,1.2,0.5,1.8V32l-20.2,0v-2.8C462.3,28.6,462.4,28,462.7,27.4"/>
			<path clip-path="url(#SVGID_192_)" fill="#F99A75" d="M472.3,22.3L472.3,22.3c0.1,0,0.3,0,0.4,0c0.7,0,1.4,0.1,2.1,0.2
				c3.3,0.6,6.1,2.5,7.2,4.8c0.2,0.5,0.4,0.9,0.4,1.4c0,1-0.1,3.2-0.1,3.2h-0.9l-9,0v-2.8V22.3"/>
			<path clip-path="url(#SVGID_192_)" fill="#E0B487" d="M472.3,10l0.2,0l0,0l0,0v0c2.2,0,4.1,1.3,5,3.2c0.3,0.7,0.5,1.4,0.5,2.2
				c0,0.2,0,0.4,0,0.5c-0.3,2.8-2.6,4.9-5.4,4.9v0l0,0l0,0l-0.2,0c-2.9-0.1-5.3-2.5-5.3-5.5S469.4,10.1,472.3,10"/>
			<path clip-path="url(#SVGID_192_)" fill="#DBA772" d="M472.5,10v11l-0.1,0c-2.9-0.1-5.3-2.5-5.3-5.5s2.4-5.4,5.3-5.5L472.5,10"/>
		</g>
		<g clip-path="url(#SVGID_168_)">
			<defs>
				<polyline id="SVGID_193_" points="490.3,32.6 530.5,32.6 530.5,34.4 490.3,34.4 490.3,32.6 				"/>
			</defs>
			<clipPath id="SVGID_194_">
				<use xlink:href="#SVGID_193_"  overflow="visible"/>
			</clipPath>
			<g clip-path="url(#SVGID_194_)">
				<defs>
					<polyline id="SVGID_195_" points="443.8,137.1 599.7,137.1 599.7,-20.5 443.8,-20.5 443.8,137.1 					"/>
				</defs>
				<clipPath id="SVGID_196_">
					<use xlink:href="#SVGID_195_"  overflow="visible"/>
				</clipPath>
				<rect x="486.3" y="28.6" clip-path="url(#SVGID_196_)" fill="#CCCCCC" width="48.1" height="9.7"/>
			</g>
		</g>
		
			<rect x="489.9" y="25.1" clip-path="url(#SVGID_168_)" fill-rule="evenodd" clip-rule="evenodd" fill="#999999" width="64.5" height="3.4"/>
		<rect x="453.6" y="181.2" clip-path="url(#SVGID_168_)" fill="#FFFFFF" width="109.1" height="28.9"/>
		<g clip-path="url(#SVGID_168_)">
			<defs>
				<polyline id="SVGID_197_" points="490.3,197.3 530.5,197.3 530.5,199.1 490.3,199.1 490.3,197.3 				"/>
			</defs>
			<clipPath id="SVGID_198_">
				<use xlink:href="#SVGID_197_"  overflow="visible"/>
			</clipPath>
			<g clip-path="url(#SVGID_198_)">
				<defs>
					<polyline id="SVGID_199_" points="443.8,301.8 599.7,301.8 599.7,144.3 443.8,144.3 443.8,301.8 					"/>
				</defs>
				<clipPath id="SVGID_200_">
					<use xlink:href="#SVGID_199_"  overflow="visible"/>
				</clipPath>
				<rect x="486.3" y="193.4" clip-path="url(#SVGID_200_)" fill="#CCCCCC" width="48.1" height="9.7"/>
			</g>
		</g>
		
			<rect x="489.9" y="189.8" clip-path="url(#SVGID_168_)" fill-rule="evenodd" clip-rule="evenodd" fill="#999999" width="64.5" height="3.4"/>
		<circle clip-path="url(#SVGID_168_)" fill="#EEF3F9" cx="472.3" cy="183.6" r="12.4"/>
		<g clip-path="url(#SVGID_168_)">
			<defs>
				<path id="SVGID_201_" d="M459.9,183.6c0,6.8,5.5,12.4,12.4,12.4c6.8,0,12.4-5.5,12.4-12.4c0-6.8-5.5-12.4-12.4-12.4
					C465.5,171.2,459.9,176.7,459.9,183.6"/>
			</defs>
			<clipPath id="SVGID_202_">
				<use xlink:href="#SVGID_201_"  overflow="visible"/>
			</clipPath>
			<path clip-path="url(#SVGID_202_)" fill="#F9A2F9" d="M481.9,192.3c-1.1-2.4-3.8-4.2-7.2-4.8c-0.8-0.2-1.6-0.2-2.4-0.2
				c-0.8,0-1.6,0.1-2.4,0.2c-3.3,0.6-6.1,2.5-7.2,4.8c-0.3,0.6-0.4,1.2-0.5,1.8v2.8l20.2,0v-2.8
				C482.4,193.5,482.2,192.9,481.9,192.3"/>
			<path clip-path="url(#SVGID_202_)" fill="#FF7BF3" d="M472.3,187.2L472.3,187.2c-0.1,0-0.3,0-0.4,0c-0.7,0-1.4,0.1-2.1,0.2
				c-3.3,0.6-6.1,2.5-7.2,4.8c-0.2,0.5-0.4,0.9-0.4,1.4c0,1,0.1,3.2,0.1,3.2h0.9l9,0v-2.8V187.2"/>
			<path clip-path="url(#SVGID_202_)" fill="#DBA772" d="M472.7,174.9l-0.2,0l0,0l0,0v0c-2.2,0-4.1,1.4-5,3.3
				c-0.3,0.7-0.5,1.4-0.5,2.2c0,0.2,0,0.4,0,0.5c0.3,2.8,2.6,4.9,5.4,5v0l0,0l0,0l0.2,0c2.9-0.1,5.3-2.5,5.3-5.5
				C478,177.4,475.7,175,472.7,174.9"/>
			<path clip-path="url(#SVGID_202_)" fill="#E0B487" d="M472.6,174.9v11l0.1,0c2.9-0.1,5.3-2.5,5.3-5.5c0-3-2.4-5.4-5.3-5.5
				L472.6,174.9"/>
			<path clip-path="url(#SVGID_202_)" fill="#333333" d="M477.8,178.8c-0.6-2.2-2.7-3.9-5.1-4l-0.2,0l0,0l0,0v0
				c-2.2,0-4.1,1.4-5,3.3c-0.2,0.5-0.4,1-0.4,1.5c0.7-0.1,1.3-0.2,2-0.4c2.4-0.7,4.3-2.1,5-3.4C474.4,176.8,475.3,178.5,477.8,178.8
				z"/>
			<path clip-path="url(#SVGID_202_)" fill="#333333" d="M482.3,184.1c-1.5-0.3-2.8-1.4-3.7-2.8c-0.9-1.4-1.5-3.8-0.1-4.9
				c0.7-0.5,1.9-0.4,2.4,0.5c0.7,1.3,0,2.6,0,4C481,182,481.4,183.4,482.3,184.1z"/>
		</g>
		<rect x="406.4" y="3.1" clip-path="url(#SVGID_168_)" fill="#C6F9DD" width="34.2" height="200.9"/>
		<rect x="577.2" y="3.1" clip-path="url(#SVGID_168_)" fill="#C6F9DD" width="34.2" height="200.9"/>
	</g>
	<path fill-rule="evenodd" clip-rule="evenodd" fill="#98806A" d="M579.4,150.6c-1.6-1.6-3.7-2.5-5.8-2.6c-0.9,0-1.6,0-2.4,0.2
		l-0.2,0.1l-0.9,0.3c-1.2,0.4-2.2,1.1-3.2,2c-1.1,1.1-1.8,2.3-2.2,3.7c-0.9,3.1-0.2,6.4,2.2,8.8l26.2,26.2c1.6,1.6,3.7,2.5,5.8,2.6
		c0.8,0,1.6,0,2.4-0.2l0.2-0.1l0.9-0.3c1.1-0.4,2.2-1.1,3.1-2c1.1-1.1,1.8-2.3,2.2-3.7c0.9-3,0.2-6.4-2.2-8.8L579.4,150.6z"/>
	<g>
		<defs>
			<path id="SVGID_203_" d="M518.7,50.1c29,0,52.6,23.6,52.6,52.5c0,29-23.6,52.5-52.6,52.5c-29,0-52.6-23.6-52.6-52.5
				C466.1,73.7,489.7,50.1,518.7,50.1"/>
		</defs>
		<clipPath id="SVGID_204_">
			<use xlink:href="#SVGID_203_"  overflow="visible"/>
		</clipPath>
		<polyline clip-path="url(#SVGID_204_)" fill="#EED4F0" points="622.9,112 460.5,112 460.5,38.8 622.9,38.8 622.9,112 		"/>
		<g clip-path="url(#SVGID_204_)">
			<defs>
				<polyline id="SVGID_205_" points="622.9,112 460.5,112 460.5,38.8 622.9,38.8 622.9,112 				"/>
			</defs>
			<clipPath id="SVGID_206_">
				<use xlink:href="#SVGID_205_"  overflow="visible"/>
			</clipPath>
			<path clip-path="url(#SVGID_206_)" fill="#92269E" d="M455.5,101.3c-1.2,1.8-3.4,2.6-4.3,4.5c-1.4,2.9-0.5,7.2,1,9.9
				c0.7,1.2,2,3.1,3.5,3.4c0.8,0.1,1.5,0.2,2.3,0.2c5.5,0,20.9,2.9,22.9-1.9l-19.7-19.7h-4.7C456.6,99,456.2,100.3,455.5,101.3z"/>
			<path clip-path="url(#SVGID_206_)" fill-rule="evenodd" clip-rule="evenodd" fill="#FFFFFF" d="M487.8,52.9c-0.6-1.2-1.9-2-3.3-2
				c-0.3,0-0.6,0-1,0.1c-0.9-1.1-2.2-1.8-3.6-1.8c-2.2,0-4.1,1.6-4.5,3.7c-1.3,0.2-2.4,1.3-2.4,2.7c0,1.5,1.2,2.8,2.8,2.8h11.6
				c1.5,0,2.8-1.2,2.8-2.8C490.2,54.2,489.2,53.1,487.8,52.9"/>
			<g clip-path="url(#SVGID_206_)">
				<defs>
					<path id="SVGID_207_" d="M487.8,52.9c-0.6-1.2-1.9-2-3.3-2c-0.3,0-0.6,0-1,0.1c-0.9-1.1-2.2-1.8-3.6-1.8
						c-2.2,0-4.1,1.6-4.5,3.7c-1.3,0.2-2.4,1.3-2.4,2.7c0,1.5,1.2,2.8,2.8,2.8h11.6c1.5,0,2.8-1.2,2.8-2.8
						C490.2,54.2,489.2,53.1,487.8,52.9"/>
				</defs>
				<clipPath id="SVGID_208_">
					<use xlink:href="#SVGID_207_"  overflow="visible"/>
				</clipPath>
				<rect x="442.6" y="46.6" clip-path="url(#SVGID_208_)" fill="#FFFFFF" width="49.7" height="29.6"/>
			</g>
			<path clip-path="url(#SVGID_206_)" fill="#FFFFFF" d="M541.3,59.4c-2.2-4.8-5.9-7.6-8.5-9.1L516,67.1h26.9
				C542.9,64.6,542.4,62,541.3,59.4"/>
			<path clip-path="url(#SVGID_206_)" fill="#FBF4FB" d="M541.3,59.4c1.1,2.5,1.6,5.1,1.6,7.7h0h14.5l-20.7-20.7l-3.9,3.9
				C535.4,51.8,539.2,54.6,541.3,59.4"/>
			<path clip-path="url(#SVGID_206_)" fill="#AC29B5" d="M532.8,91c2.9-5.8,2.1-5.4,6.8-12.5c2-3,3.4-7.1,3.4-11.4h0H516l-50.3,50.2
				c5.4,12.7,60.5,13.8,74.5,16.2C536.7,128.2,529.8,97,532.8,91"/>
			<path clip-path="url(#SVGID_206_)" fill="#92269E" d="M539.5,78.5c-3.6,5.5-10.7,7.9-13.5,14c-4.2,9.1-1.7,22.3,3.2,30.7
				c2.2,3.8,6.2,9.6,11,10.4c2.3,0.4,4.7,0.6,7.2,0.6c17.1,0,64.9,8.9,71.2-5.9l-61.1-61.1h-14.5C542.9,71.4,541.6,75.5,539.5,78.5"
				/>
			<g clip-path="url(#SVGID_206_)">
				<defs>
					<path id="SVGID_209_" d="M515.4,64.1c-0.8-1.6-2.5-2.6-4.3-2.6c-0.4,0-0.8,0.1-1.2,0.2c-1.1-1.5-2.8-2.3-4.7-2.3
						c-2.8,0-5.3,2-5.8,4.7c-1.7,0.3-3.1,1.7-3.1,3.6c0,2,1.6,3.6,3.6,3.6h15c2,0,3.6-1.6,3.6-3.6C518.5,65.8,517.1,64.4,515.4,64.1
						"/>
				</defs>
				<clipPath id="SVGID_210_">
					<use xlink:href="#SVGID_209_"  overflow="visible"/>
				</clipPath>
				<g clip-path="url(#SVGID_210_)">
					<defs>
						<polyline id="SVGID_211_" points="456.6,94.5 521.2,94.5 521.2,56 456.6,56 456.6,94.5 						"/>
					</defs>
					<clipPath id="SVGID_212_">
						<use xlink:href="#SVGID_211_"  overflow="visible"/>
					</clipPath>
					<rect x="491.1" y="56.5" clip-path="url(#SVGID_212_)" fill="#FFFFFE" width="28.2" height="17.8"/>
				</g>
			</g>
		</g>
		<polyline clip-path="url(#SVGID_204_)" fill="#FFFFFF" points="622.9,155.1 460.5,155.1 460.5,112 622.9,112 622.9,155.1 		"/>
		<g clip-path="url(#SVGID_204_)">
			<defs>
				<polyline id="SVGID_213_" points="515.1,136.1 574.9,136.1 574.9,138.8 515.1,138.8 515.1,136.1 				"/>
			</defs>
			<clipPath id="SVGID_214_">
				<use xlink:href="#SVGID_213_"  overflow="visible"/>
			</clipPath>
			<g clip-path="url(#SVGID_214_)">
				<defs>
					<polyline id="SVGID_215_" points="445.8,291.7 678,291.7 678,57.1 445.8,57.1 445.8,291.7 					"/>
				</defs>
				<clipPath id="SVGID_216_">
					<use xlink:href="#SVGID_215_"  overflow="visible"/>
				</clipPath>
				<polyline clip-path="url(#SVGID_216_)" fill="#CCCCCC" points="509.2,130.2 580.8,130.2 580.8,144.7 509.2,144.7 509.2,130.2 
									"/>
			</g>
		</g>
		<polyline clip-path="url(#SVGID_204_)" fill-rule="evenodd" clip-rule="evenodd" fill="#999999" points="514.5,124.9 610.4,124.9 
			610.4,130 514.5,130 514.5,124.9 		"/>
		<path clip-path="url(#SVGID_204_)" fill="#FFFFFF" d="M471.6,135.6h35.8c1.4,0,2.5-1.1,2.5-2.5V97.3c0-1.4-1.1-2.5-2.5-2.5h-35.8
			c-1.4,0-2.5,1.1-2.5,2.5v35.8C469.1,134.5,470.2,135.6,471.6,135.6z"/>
		<path clip-path="url(#SVGID_204_)" fill="#B3B3B3" d="M471.6,135.6v0.4h35.8c1.6,0,2.8-1.3,2.8-2.8V97.3c0-1.6-1.3-2.8-2.8-2.8
			h-35.8c-1.6,0-2.8,1.3-2.8,2.8v35.8c0,1.6,1.3,2.8,2.8,2.8V135.6v-0.4c-0.6,0-1.1-0.2-1.5-0.6c-0.4-0.4-0.6-0.9-0.6-1.5V97.3
			c0-0.6,0.2-1.1,0.6-1.5c0.4-0.4,0.9-0.6,1.5-0.6h35.8c0.6,0,1.1,0.2,1.5,0.6c0.4,0.4,0.6,0.9,0.6,1.5v35.8c0,0.6-0.2,1.1-0.6,1.5
			c-0.4,0.4-0.9,0.6-1.5,0.6h-35.8V135.6z"/>
	</g>
	<path fill="#F3DFF4" d="M518.8,50v14.4l12.8-12.7C528.3,51,522.2,50,518.8,50"/>
	<path fill="#FCF7FC" d="M540.9,58.6c0.1,0.3,0.3,0.6,0.4,0.9c1.1,2.5,1.6,5.1,1.6,7.7h0h10C549.4,63.7,545.3,60.8,540.9,58.6"/>
	<path fill="#FFFFFF" d="M540.9,58.6c0.1,0.3,0.3,0.6,0.4,0.9c1.1,2.5,1.6,5.1,1.6,7.7h0h10C549.4,63.7,545.3,60.8,540.9,58.6"/>
	
		<rect x="561.6" y="145.4" transform="matrix(0.7075 -0.7068 0.7068 0.7075 60.0543 442.9494)" fill-rule="evenodd" clip-rule="evenodd" fill="#5D5D5D" width="7.1" height="7"/>
	<path fill-rule="evenodd" clip-rule="evenodd" fill="#A6A6A6" d="M518.7,40c-34.6,0-62.7,28-62.7,62.6c0,34.6,28.1,62.6,62.7,62.6
		c34.6,0,62.7-28,62.7-62.6C581.3,68.1,553.3,40,518.7,40 M518.7,50.1c29,0,52.6,23.6,52.6,52.5s-23.6,52.5-52.6,52.5
		c-29,0-52.6-23.6-52.6-52.5S489.7,50.1,518.7,50.1"/>
	<g>
		<defs>
			<path id="SVGID_217_" d="M579.4,150.6c-1.6-1.6-3.7-2.5-5.8-2.6c-0.9,0-1.6,0-2.4,0.2l-0.2,0.1l-0.9,0.3c-1.2,0.4-2.2,1.1-3.2,2
				c-1.1,1.1-1.8,2.3-2.2,3.7c-0.9,3.1-0.2,6.4,2.2,8.8l26.2,26.2c1.6,1.6,3.7,2.5,5.8,2.6c0.8,0,1.6,0,2.4-0.2l0.2-0.1l0.9-0.3
				c1.1-0.4,2.2-1.1,3.1-2c1.1-1.1,1.8-2.3,2.2-3.7c0.9-3,0.2-6.4-2.2-8.8L579.4,150.6"/>
		</defs>
		<clipPath id="SVGID_218_">
			<use xlink:href="#SVGID_217_"  overflow="visible"/>
		</clipPath>
		
			<rect x="576" y="144.4" transform="matrix(-0.7071 0.7071 -0.7071 -0.7071 1118.0856 -112.7295)" clip-path="url(#SVGID_218_)" fill-rule="evenodd" clip-rule="evenodd" fill="#876F5B" width="12.8" height="61.5"/>
	</g>
	<path fill="#FFFFFF" d="M528.8,54.3l-10,10v2.7h24.2c0-2.5-0.5-5.2-1.6-7.7c-0.1-0.3-0.3-0.6-0.4-0.9
		C537.1,56.7,533.1,55.2,528.8,54.3"/>
	<path fill="#C15FC8" d="M542.9,67.1L542.9,67.1h-24.2V112h6.2c-1.5-6.7-1.5-13.9,1.1-19.5c2.8-6,9.9-8.5,13.5-14
		C541.6,75.5,542.9,71.4,542.9,67.1"/>
	<path fill="#AD5CB6" d="M552.9,67.1h-10c0,4.3-1.4,8.4-3.4,11.4c-3.6,5.5-10.7,7.9-13.5,14c-2.6,5.7-2.6,12.9-1.1,19.5H567
		c0.6-3.1,0.9-6.3,0.9-9.5C568,88.6,562.2,76.1,552.9,67.1"/>
	<path fill="#FFFFFF" d="M552,138.8h-33.2v12.9C531.6,151.7,543.2,146.8,552,138.8 M559.6,130h-40.8v6.1h35.9
		C556.5,134.2,558.1,132.1,559.6,130 M567,112H525h-6.2v12.9h43.8C564.6,120.9,566.1,116.6,567,112"/>
	<path fill="#D9D9D9" d="M554.7,136.1h-35.9v2.7H552C552.9,137.9,553.8,137,554.7,136.1"/>
	<path fill="#B3B3B3" d="M562.5,124.9h-43.8v5h40.8C560.7,128.4,561.7,126.7,562.5,124.9"/>
	<path fill="#FF9EF6" d="M479.4,116.9c-1.2-1.4-1.9-3-1.9-4.9l0,0C477.5,114,478.1,115.6,479.4,116.9l9.8,9.8v-0.1L479.4,116.9z"/>
	<path fill="#FF9EF6" d="M498.9,117.4c1.5-1.6,2.3-3.2,2.3-5.3l0,0C501.2,114.2,500.3,115.7,498.9,117.4l-9.5,9.4l-0.1-0.1v0.1
		l0.1,0.1L498.9,117.4z"/>
	<path fill="#FF9EF6" d="M483.8,105.2c2.3,0,4.3,1.3,5.4,3.3v-0.1C488.1,106.4,486.1,105.1,483.8,105.2c-3.5-0.1-6.3,3-6.3,6.8l0,0
		C477.5,108.2,480.3,105.2,483.8,105.2z"/>
	<path fill="#FF9EF6" d="M489.3,108.8c1.1-2.1,3.1-3.6,5.5-3.6c3.5,0,6.3,3.1,6.3,6.8l0,0c0-3.8-2.8-6.9-6.3-6.9
		C492.5,105.1,490.4,106.6,489.3,108.8c0-0.2-0.1-0.3-0.1-0.3v0.1C489.2,108.6,489.3,108.7,489.3,108.8z"/>
	<path fill="#FF7BF3" d="M494.9,105.2c-2.4,0-4.5,1.5-5.5,3.6c0-0.1-0.1-0.2-0.1-0.3v18.1l0.1,0.1l9.5-9.5c1.5-1.6,2.3-3.2,2.3-5.3
		C501.2,108.3,498.4,105.2,494.9,105.2z"/>
	<path fill="#FF9EF6" d="M489.2,126.6v-18.1c-1.1-2-3.1-3.3-5.4-3.3c-3.5,0-6.3,3.1-6.3,6.8c0,1.9,0.7,3.5,1.9,4.9L489.2,126.6z"/>
</g>
<g>
	<g>
		<circle fill-rule="evenodd" clip-rule="evenodd" fill="#C6F9DD" cx="101.9" cy="104.1" r="93.4"/>
		<circle fill-rule="evenodd" clip-rule="evenodd" fill="none" cx="101.9" cy="103.3" r="93.4"/>
		<circle fill-rule="evenodd" clip-rule="evenodd" fill="none" cx="101.9" cy="103.3" r="93.4"/>
		<g>
			<defs>
				<circle id="SVGID_219_" cx="101.9" cy="103.3" r="93.4"/>
			</defs>
			<clipPath id="SVGID_220_">
				<use xlink:href="#SVGID_219_"  overflow="visible"/>
			</clipPath>
			<g clip-path="url(#SVGID_220_)">
				<rect x="-0.7" y="63.1" fill-rule="evenodd" clip-rule="evenodd" fill="#CCCCCC" width="173.4" height="143.3"/>
				<rect x="-5.7" y="58.1" fill-rule="evenodd" clip-rule="evenodd" fill="#FFFFFF" width="173.4" height="143.3"/>
			</g>
		</g>
	</g>
	<g>
		<path fill-rule="evenodd" clip-rule="evenodd" fill="#808080" d="M55.5,24.7c0-2.1,1.7-3.7,3.8-3.7h83.5c2.1,0,3.8,1.7,3.8,3.7
			v122.8c0,2.1-1.7,3.7-3.8,3.7H59.3c-2.1,0-3.8-1.7-3.8-3.7V24.7z"/>
		<path fill-rule="evenodd" clip-rule="evenodd" fill="#A6A6A6" d="M55.5,19.6c0-2.1,1.7-3.7,3.8-3.7h83.5c2.1,0,3.8,1.7,3.8,3.7
			v122.8c0,2.1-1.7,3.7-3.8,3.7H59.3c-2.1,0-3.8-1.7-3.8-3.7V19.6z"/>
		<g>
			<path fill-rule="evenodd" clip-rule="evenodd" fill="#333333" d="M81.1,79.1H63.3c-1.1,0-2.1-0.9-2.1-2.1v-8.7
				c0-1.1,0.9-2.1,2.1-2.1h17.8c1.1,0,2.1,0.9,2.1,2.1V77C83.1,78.1,82.2,79.1,81.1,79.1z"/>
			<path fill-rule="evenodd" clip-rule="evenodd" fill="#333333" d="M109.9,79.1H92.2c-1.1,0-2.1-0.9-2.1-2.1v-8.7
				c0-1.1,0.9-2.1,2.1-2.1h17.8c1.1,0,2.1,0.9,2.1,2.1V77C112,78.1,111.1,79.1,109.9,79.1z"/>
			<path fill-rule="evenodd" clip-rule="evenodd" fill="#C45B2C" d="M138.8,79.1H121c-1.1,0-2.1-0.9-2.1-2.1v-8.7
				c0-1.1,0.9-2.1,2.1-2.1h17.8c1.1,0,2.1,0.9,2.1,2.1V77C140.9,78.1,140,79.1,138.8,79.1z"/>
			<path fill-rule="evenodd" clip-rule="evenodd" fill="#333333" d="M81.1,98.8H63.3c-1.1,0-2.1-0.9-2.1-2.1v-8.7
				c0-1.1,0.9-2.1,2.1-2.1h17.8c1.1,0,2.1,0.9,2.1,2.1v8.7C83.1,97.9,82.2,98.8,81.1,98.8z"/>
			<path fill-rule="evenodd" clip-rule="evenodd" fill="#333333" d="M109.9,98.8H92.2c-1.1,0-2.1-0.9-2.1-2.1v-8.7
				c0-1.1,0.9-2.1,2.1-2.1h17.8c1.1,0,2.1,0.9,2.1,2.1v8.7C112,97.9,111.1,98.8,109.9,98.8z"/>
			<path fill-rule="evenodd" clip-rule="evenodd" fill="#333333" d="M138.8,98.8H121c-1.1,0-2.1-0.9-2.1-2.1v-8.7
				c0-1.1,0.9-2.1,2.1-2.1h17.8c1.1,0,2.1,0.9,2.1,2.1v8.7C140.9,97.9,140,98.8,138.8,98.8z"/>
			<path fill-rule="evenodd" clip-rule="evenodd" fill="#333333" d="M81.1,118.6H63.3c-1.1,0-2.1-0.9-2.1-2.1v-8.7
				c0-1.1,0.9-2.1,2.1-2.1h17.8c1.1,0,2.1,0.9,2.1,2.1v8.7C83.1,117.6,82.2,118.6,81.1,118.6z"/>
			<path fill-rule="evenodd" clip-rule="evenodd" fill="#333333" d="M109.9,118.6H92.2c-1.1,0-2.1-0.9-2.1-2.1v-8.7
				c0-1.1,0.9-2.1,2.1-2.1h17.8c1.1,0,2.1,0.9,2.1,2.1v8.7C112,117.6,111.1,118.6,109.9,118.6z"/>
			<path fill-rule="evenodd" clip-rule="evenodd" fill="#333333" d="M81.1,138.3H63.3c-1.1,0-2.1-0.9-2.1-2.1v-8.7
				c0-1.1,0.9-2.1,2.1-2.1h17.8c1.1,0,2.1,0.9,2.1,2.1v8.7C83.1,137.4,82.2,138.3,81.1,138.3z"/>
			<path fill-rule="evenodd" clip-rule="evenodd" fill="#333333" d="M109.9,138.3H92.2c-1.1,0-2.1-0.9-2.1-2.1v-8.7
				c0-1.1,0.9-2.1,2.1-2.1h17.8c1.1,0,2.1,0.9,2.1,2.1v8.7C112,137.4,111.1,138.3,109.9,138.3z"/>
			<path fill-rule="evenodd" clip-rule="evenodd" fill="#333333" d="M138.8,138.3H121c-1.1,0-2.1-0.9-2.1-2.1v-28.1
				c0-1.1,0.9-2.1,2.1-2.1h17.8c1.1,0,2.1,0.9,2.1,2.1v28.1C140.9,137.4,140,138.3,138.8,138.3z"/>
		</g>
		<rect x="61.2" y="38.2" fill-rule="evenodd" clip-rule="evenodd" fill="#FFFFFF" width="79.3" height="20.5"/>
		<rect x="61.2" y="36.9" fill-rule="evenodd" clip-rule="evenodd" fill="#B3B3B3" width="79.3" height="2.6"/>
		<g>
			<path fill-rule="evenodd" clip-rule="evenodd" fill="#4D4D4D" d="M81.1,77.4H63.3c-1.1,0-2.1-0.9-2.1-2.1v-8.7
				c0-1.1,0.9-2.1,2.1-2.1h17.8c1.1,0,2.1,0.9,2.1,2.1v8.7C83.1,76.4,82.2,77.4,81.1,77.4z"/>
			<path fill-rule="evenodd" clip-rule="evenodd" fill="#4D4D4D" d="M109.9,77.4H92.2c-1.1,0-2.1-0.9-2.1-2.1v-8.7
				c0-1.1,0.9-2.1,2.1-2.1h17.8c1.1,0,2.1,0.9,2.1,2.1v8.7C112,76.4,111.1,77.4,109.9,77.4z"/>
			<path fill-rule="evenodd" clip-rule="evenodd" fill="#FC8442" d="M138.8,77.4H121c-1.1,0-2.1-0.9-2.1-2.1v-8.7
				c0-1.1,0.9-2.1,2.1-2.1h17.8c1.1,0,2.1,0.9,2.1,2.1v8.7C140.9,76.4,140,77.4,138.8,77.4z"/>
			<path fill-rule="evenodd" clip-rule="evenodd" fill="#4D4D4D" d="M81.1,97.1H63.3c-1.1,0-2.1-0.9-2.1-2.1v-8.7
				c0-1.1,0.9-2.1,2.1-2.1h17.8c1.1,0,2.1,0.9,2.1,2.1v8.7C83.1,96.2,82.2,97.1,81.1,97.1z"/>
			<path fill-rule="evenodd" clip-rule="evenodd" fill="#4D4D4D" d="M109.9,97.1H92.2c-1.1,0-2.1-0.9-2.1-2.1v-8.7
				c0-1.1,0.9-2.1,2.1-2.1h17.8c1.1,0,2.1,0.9,2.1,2.1v8.7C112,96.2,111.1,97.1,109.9,97.1z"/>
			<path fill-rule="evenodd" clip-rule="evenodd" fill="#4D4D4D" d="M138.8,97.1H121c-1.1,0-2.1-0.9-2.1-2.1v-8.7
				c0-1.1,0.9-2.1,2.1-2.1h17.8c1.1,0,2.1,0.9,2.1,2.1v8.7C140.9,96.2,140,97.1,138.8,97.1z"/>
			<path fill-rule="evenodd" clip-rule="evenodd" fill="#4D4D4D" d="M81.1,116.9H63.3c-1.1,0-2.1-0.9-2.1-2.1v-8.7
				c0-1.1,0.9-2.1,2.1-2.1h17.8c1.1,0,2.1,0.9,2.1,2.1v8.7C83.1,116,82.2,116.9,81.1,116.9z"/>
			<path fill-rule="evenodd" clip-rule="evenodd" fill="#4D4D4D" d="M109.9,116.9H92.2c-1.1,0-2.1-0.9-2.1-2.1v-8.7
				c0-1.1,0.9-2.1,2.1-2.1h17.8c1.1,0,2.1,0.9,2.1,2.1v8.7C112,116,111.1,116.9,109.9,116.9z"/>
			<path fill-rule="evenodd" clip-rule="evenodd" fill="#4D4D4D" d="M81.1,136.6H63.3c-1.1,0-2.1-0.9-2.1-2.1v-8.7
				c0-1.1,0.9-2.1,2.1-2.1h17.8c1.1,0,2.1,0.9,2.1,2.1v8.7C83.1,135.7,82.2,136.6,81.1,136.6z"/>
			<path fill-rule="evenodd" clip-rule="evenodd" fill="#4D4D4D" d="M109.9,136.6H92.2c-1.1,0-2.1-0.9-2.1-2.1v-8.7
				c0-1.1,0.9-2.1,2.1-2.1h17.8c1.1,0,2.1,0.9,2.1,2.1v8.7C112,135.7,111.1,136.6,109.9,136.6z"/>
			<path fill-rule="evenodd" clip-rule="evenodd" fill="#4D4D4D" d="M138.8,136.6H121c-1.1,0-2.1-0.9-2.1-2.1v-28.1
				c0-1.1,0.9-2.1,2.1-2.1h17.8c1.1,0,2.1,0.9,2.1,2.1v28.1C140.9,135.7,140,136.6,138.8,136.6z"/>
		</g>
		<text transform="matrix(1.0869 0 0 1 65.2793 53.3956)" font-family="'Roboto-Regular'" font-size="13.9073"></text>
		<rect x="78.1" y="41.5" fill-rule="evenodd" clip-rule="evenodd" fill="#AC29B5" width="7.6" height="13.7"/>
	</g>
	<g>
		<defs>
			<circle id="SVGID_221_" cx="101.9" cy="103.3" r="93.4"/>
		</defs>
		<clipPath id="SVGID_222_">
			<use xlink:href="#SVGID_221_"  overflow="visible"/>
		</clipPath>
		<g clip-path="url(#SVGID_222_)">
			<path fill="#E0B487" d="M172.4,215.6l0.5-12.1l-16.2-16.2c-5.8-5.8-13.4-5.5-18.6-0.8l29.8,29.8L172.4,215.6z"/>
			<path fill="#FFC0B3" d="M147.6,195.9l-8.8-8.8c0.8-0.8,2-0.7,2.9,0.1l7.3,7.3L147.6,195.9z"/>
			<path fill="#E0B487" d="M117.6,135c-3.1,3.1-3,8.3,0.3,11.6c0,0,62.3,62.3,62.3,62.3c3.3,3.3,5.9,0.8,9-2.3
				c3.1-3.1,5.6-5.7,2.3-9c0,0-62.3-62.3-62.3-62.3C125.9,132,120.7,131.9,117.6,135z"/>
			
				<ellipse transform="matrix(-0.7071 -0.7071 0.7071 -0.7071 167.1786 379.5336)" fill="#E0B487" cx="162.2" cy="155.1" rx="8.5" ry="8"/>
			
				<ellipse transform="matrix(-0.7071 -0.7071 0.7071 -0.7071 199.271 373.6147)" fill="#E0B487" cx="177" cy="145.5" rx="8.5" ry="8"/>
			
				<ellipse transform="matrix(-0.7071 -0.7071 0.7071 -0.7071 229.0836 368.6409)" fill="#E0B487" cx="190.9" cy="136.9" rx="7" ry="6.6"/>
			<path fill="#EFC6A0" d="M119.2,136.6c-2.3,2.3-2.1,6,0.2,8.4l4.1,4.1l8.2-8.2l-4.1-4.1C125.3,134.5,121.5,134.4,119.2,136.6z"/>
			<path fill="#E0B487" d="M227.8,179.7c0,0-23.1,23.1-35.7,35.7s-25.8-0.8-25.8-0.8l-14.9-14.9l20.4-0.8l-29.7-31.3l43.3-30.4
				c4.2-4.2,6-9.2,10.5-4.8l31.5,31.5C231.8,168.4,232,175.5,227.8,179.7z"/>
		</g>
	</g>
</g>
<g>
	<defs>
		<polygon id="SVGID_223_" points="318.6,95.3 267,95.3 267,98.4 318.6,98.4 318.6,106.6 328,97.3 318.6,87.9 		"/>
	</defs>
	<use xlink:href="#SVGID_223_"  overflow="visible" fill-rule="evenodd" clip-rule="evenodd" fill="#AC29B5"/>
	<clipPath id="SVGID_224_">
		<use xlink:href="#SVGID_223_"  overflow="visible"/>
	</clipPath>
	<g clip-path="url(#SVGID_224_)">
		<defs>
			<rect id="SVGID_225_" x="-573" y="-563.4" width="1366" height="2781"/>
		</defs>
		<clipPath id="SVGID_226_">
			<use xlink:href="#SVGID_225_"  overflow="visible"/>
		</clipPath>
	</g>
</g>
<g>
	<defs>
		<polygon id="SVGID_227_" points="711.6,95.3 660,95.3 660,98.4 711.6,98.4 711.6,106.6 721,97.3 711.6,87.9 		"/>
	</defs>
	<use xlink:href="#SVGID_227_"  overflow="visible" fill-rule="evenodd" clip-rule="evenodd" fill="#AC29B5"/>
	<clipPath id="SVGID_228_">
		<use xlink:href="#SVGID_227_"  overflow="visible"/>
	</clipPath>
	<g clip-path="url(#SVGID_228_)">
		<defs>
			<rect id="SVGID_229_" x="-180" y="-563.4" width="1366" height="2781"/>
		</defs>
		<clipPath id="SVGID_230_">
			<use xlink:href="#SVGID_229_"  overflow="visible"/>
		</clipPath>
	</g>
</g>
</svg>
