<?xml version="1.0" encoding="utf-8"?>
<!-- Generator: Adobe Illustrator 18.1.1, SVG Export Plug-In . SVG Version: 6.00 Build 0)  -->
<svg version="1.1" id="Layer_1" xmlns="http://www.w3.org/2000/svg" xmlns:xlink="http://www.w3.org/1999/xlink" x="0px" y="0px"
	 viewBox="0 0 77 73" enable-background="new 0 0 77 73" xml:space="preserve">
<g>
	<circle fill-rule="evenodd" clip-rule="evenodd" fill="#C6F9DD" cx="37.2" cy="37.9" r="34.1"/>
	<g>
		<defs>
			<path id="SVGID_1_" d="M21.5,1.7c0-0.7,0.5-1.2,1.2-1.2h27C50.4,0.5,51,1,51,1.7V54c0,0.7-0.5,1.2-1.2,1.2h-27
				c-0.7,0-1.2-0.5-1.2-1.2V1.7z"/>
		</defs>
		<clipPath id="SVGID_2_">
			<use xlink:href="#SVGID_1_"  overflow="visible"/>
		</clipPath>
		<g clip-path="url(#SVGID_2_)">
			<defs>
				<rect id="SVGID_3_" x="8.1" y="0.4" width="59.9" height="60.5"/>
			</defs>
			<clipPath id="SVGID_4_">
				<use xlink:href="#SVGID_3_"  overflow="visible"/>
			</clipPath>
			<rect x="20" y="-1" clip-path="url(#SVGID_4_)" fill="#941C9C" width="32.5" height="57.7"/>
		</g>
	</g>
	<g>
		<defs>
			<rect id="SVGID_5_" x="23.7" y="3.9" width="25" height="42.6"/>
		</defs>
		<clipPath id="SVGID_6_">
			<use xlink:href="#SVGID_5_"  overflow="visible"/>
		</clipPath>
		<g clip-path="url(#SVGID_6_)">
			<defs>
				<rect id="SVGID_7_" x="8.1" y="0.4" width="59.9" height="60.5"/>
			</defs>
			<clipPath id="SVGID_8_">
				<use xlink:href="#SVGID_7_"  overflow="visible"/>
			</clipPath>
			<rect x="22.2" y="2.4" clip-path="url(#SVGID_8_)" fill="#FFFFFF" width="28" height="45.6"/>
		</g>
	</g>
	<g>
		<defs>
			<path id="SVGID_9_" d="M37.9,51.3c0,1-0.8,1.7-1.7,1.7c-0.9,0-1.7-0.8-1.7-1.7c0-1,0.8-1.7,1.7-1.7
				C37.1,49.6,37.9,50.3,37.9,51.3"/>
		</defs>
		<clipPath id="SVGID_10_">
			<use xlink:href="#SVGID_9_"  overflow="visible"/>
		</clipPath>
		<g clip-path="url(#SVGID_10_)">
			<defs>
				<rect id="SVGID_11_" x="8.1" y="0.4" width="59.9" height="60.5"/>
			</defs>
			<clipPath id="SVGID_12_">
				<use xlink:href="#SVGID_11_"  overflow="visible"/>
			</clipPath>
			<rect x="33" y="48" clip-path="url(#SVGID_12_)" fill="#6E1B6A" width="6.5" height="6.5"/>
		</g>
	</g>
	<g>
		<g>
			<defs>
				<rect id="SVGID_13_" x="8.1" y="0.4" width="59.9" height="60.5"/>
			</defs>
			<clipPath id="SVGID_14_">
				<use xlink:href="#SVGID_13_"  overflow="visible"/>
			</clipPath>
		</g>
	</g>
	<g>
		<g>
			<defs>
				<rect id="SVGID_15_" x="8.1" y="0.4" width="59.9" height="60.5"/>
			</defs>
			<clipPath id="SVGID_16_">
				<use xlink:href="#SVGID_15_"  overflow="visible"/>
			</clipPath>
		</g>
	</g>
	<g>
		<defs>
			<polyline id="SVGID_17_" points="32.1,28.4 32.1,28.4 32.1,28.4 32.1,28.4 32.1,28.4 32.1,28.4 32.1,28.4 			"/>
		</defs>
		<clipPath id="SVGID_18_">
			<use xlink:href="#SVGID_17_"  overflow="visible"/>
		</clipPath>
		<g clip-path="url(#SVGID_18_)">
			<defs>
				<rect id="SVGID_19_" x="8.1" y="0.4" width="59.9" height="60.5"/>
			</defs>
			<clipPath id="SVGID_20_">
				<use xlink:href="#SVGID_19_"  overflow="visible"/>
			</clipPath>
		</g>
	</g>
	<g>
		<g>
			<defs>
				<rect id="SVGID_21_" x="8.1" y="0.4" width="59.9" height="60.5"/>
			</defs>
			<clipPath id="SVGID_22_">
				<use xlink:href="#SVGID_21_"  overflow="visible"/>
			</clipPath>
		</g>
	</g>
	<g>
		<g>
			<defs>
				<rect id="SVGID_23_" x="8.1" y="0.4" width="59.9" height="60.5"/>
			</defs>
			<clipPath id="SVGID_24_">
				<use xlink:href="#SVGID_23_"  overflow="visible"/>
			</clipPath>
		</g>
	</g>
	<g>
		<defs>
			<rect id="SVGID_25_" x="23.7" y="2.4" width="25" height="11.4"/>
		</defs>
		<clipPath id="SVGID_26_">
			<use xlink:href="#SVGID_25_"  overflow="visible"/>
		</clipPath>
		<g clip-path="url(#SVGID_26_)">
			<defs>
				<rect id="SVGID_27_" x="8.1" y="0.4" width="59.9" height="60.5"/>
			</defs>
			<clipPath id="SVGID_28_">
				<use xlink:href="#SVGID_27_"  overflow="visible"/>
			</clipPath>
			<rect x="22.2" y="0.9" clip-path="url(#SVGID_28_)" fill="#E9D8EB" width="28" height="14.4"/>
		</g>
	</g>
	<g>
		<defs>
			<path id="SVGID_29_" d="M44.8,10.2L44,11.1h1.4c0-0.1,0-0.3-0.1-0.4C45.1,10.4,44.9,10.3,44.8,10.2"/>
		</defs>
		<clipPath id="SVGID_30_">
			<use xlink:href="#SVGID_29_"  overflow="visible"/>
		</clipPath>
		<g clip-path="url(#SVGID_30_)">
			<defs>
				<rect id="SVGID_31_" x="8.1" y="0.4" width="59.9" height="60.5"/>
			</defs>
			<clipPath id="SVGID_32_">
				<use xlink:href="#SVGID_31_"  overflow="visible"/>
			</clipPath>
			<rect x="42.4" y="8.7" clip-path="url(#SVGID_32_)" fill="#FBF7FB" width="4.4" height="3.9"/>
		</g>
	</g>
	<g>
		<defs>
			<path id="SVGID_33_" d="M45,10l-0.2,0.2c0.1,0.1,0.3,0.2,0.4,0.5c0.1,0.1,0.1,0.3,0.1,0.4h0.7L45,10"/>
		</defs>
		<clipPath id="SVGID_34_">
			<use xlink:href="#SVGID_33_"  overflow="visible"/>
		</clipPath>
		<g clip-path="url(#SVGID_34_)">
			<defs>
				<rect id="SVGID_35_" x="8.1" y="0.4" width="59.9" height="60.5"/>
			</defs>
			<clipPath id="SVGID_36_">
				<use xlink:href="#SVGID_35_"  overflow="visible"/>
			</clipPath>
			<rect x="43.3" y="8.5" clip-path="url(#SVGID_36_)" fill="#F6EFF6" width="4.3" height="4.1"/>
		</g>
	</g>
	<g>
		<defs>
			<path id="SVGID_37_" d="M45.3,11.1H44l-2.6,2.6c0,0,0.1,0.1,0.1,0.1h3c-0.2-0.4-0.3-1-0.1-1.4c0.1-0.3,0.5-0.4,0.7-0.7
				C45.3,11.5,45.3,11.3,45.3,11.1"/>
		</defs>
		<clipPath id="SVGID_38_">
			<use xlink:href="#SVGID_37_"  overflow="visible"/>
		</clipPath>
		<g clip-path="url(#SVGID_38_)">
			<defs>
				<rect id="SVGID_39_" x="8.1" y="0.4" width="59.9" height="60.5"/>
			</defs>
			<clipPath id="SVGID_40_">
				<use xlink:href="#SVGID_39_"  overflow="visible"/>
			</clipPath>
			<rect x="39.9" y="9.5" clip-path="url(#SVGID_40_)" fill="#B950C1" width="7" height="5.7"/>
		</g>
	</g>
	<g>
		<defs>
			<path id="SVGID_41_" d="M46.1,11.1h-0.7c0,0.2-0.1,0.4-0.2,0.6c-0.2,0.3-0.5,0.4-0.7,0.7c-0.2,0.4-0.1,1,0.1,1.4h4.1v-0.1
				L46.1,11.1"/>
		</defs>
		<clipPath id="SVGID_42_">
			<use xlink:href="#SVGID_41_"  overflow="visible"/>
		</clipPath>
		<g clip-path="url(#SVGID_42_)">
			<defs>
				<rect id="SVGID_43_" x="8.1" y="0.4" width="59.9" height="60.5"/>
			</defs>
			<clipPath id="SVGID_44_">
				<use xlink:href="#SVGID_43_"  overflow="visible"/>
			</clipPath>
			<rect x="42.8" y="9.5" clip-path="url(#SVGID_44_)" fill="#A44EAE" width="7.3" height="5.7"/>
		</g>
	</g>
	<g>
		<defs>
			<polyline id="SVGID_45_" points="23.7,11.4 23.7,11.5 23.8,11.5 23.7,11.4 			"/>
		</defs>
		<clipPath id="SVGID_46_">
			<use xlink:href="#SVGID_45_"  overflow="visible"/>
		</clipPath>
		<g clip-path="url(#SVGID_46_)">
			<defs>
				<rect id="SVGID_47_" x="8.1" y="0.4" width="59.9" height="60.5"/>
			</defs>
			<clipPath id="SVGID_48_">
				<use xlink:href="#SVGID_47_"  overflow="visible"/>
			</clipPath>
			<rect x="22.2" y="9.9" clip-path="url(#SVGID_48_)" fill="#F6EFF6" width="3.2" height="3.2"/>
		</g>
	</g>
	<g>
		<defs>
			<polyline id="SVGID_49_" points="23.8,11.5 23.7,11.5 23.7,13.8 26,13.8 23.8,11.5 			"/>
		</defs>
		<clipPath id="SVGID_50_">
			<use xlink:href="#SVGID_49_"  overflow="visible"/>
		</clipPath>
		<g clip-path="url(#SVGID_50_)">
			<defs>
				<rect id="SVGID_51_" x="8.1" y="0.4" width="59.9" height="60.5"/>
			</defs>
			<clipPath id="SVGID_52_">
				<use xlink:href="#SVGID_51_"  overflow="visible"/>
			</clipPath>
			<rect x="22.2" y="10" clip-path="url(#SVGID_52_)" fill="#A44EAE" width="5.4" height="5.3"/>
		</g>
	</g>
	<g>
		<defs>
			<path id="SVGID_53_" d="M45.5,5.6c-0.1-0.2-0.3-0.4-0.6-0.4c-0.1,0-0.1,0-0.2,0C44.5,5.1,44.3,5,44,5c-0.4,0-0.7,0.3-0.8,0.7
				c-0.2,0-0.4,0.2-0.4,0.5c0,0.3,0.2,0.5,0.5,0.5h2.1c0.3,0,0.5-0.2,0.5-0.5C45.9,5.9,45.7,5.7,45.5,5.6z"/>
		</defs>
		<clipPath id="SVGID_54_">
			<use xlink:href="#SVGID_53_"  overflow="visible"/>
		</clipPath>
		<g clip-path="url(#SVGID_54_)">
			<defs>
				<rect id="SVGID_55_" x="8.1" y="0.4" width="59.9" height="60.5"/>
			</defs>
			<clipPath id="SVGID_56_">
				<use xlink:href="#SVGID_55_"  overflow="visible"/>
			</clipPath>
			<g clip-path="url(#SVGID_56_)">
				<defs>
					<rect id="SVGID_57_" x="42.7" y="4.9" width="3.3" height="1.8"/>
				</defs>
				<clipPath id="SVGID_58_">
					<use xlink:href="#SVGID_57_"  overflow="visible"/>
				</clipPath>
				<g clip-path="url(#SVGID_58_)">
					<defs>
						<rect id="SVGID_59_" x="42.8" y="5" width="3.2" height="1.7"/>
					</defs>
					<clipPath id="SVGID_60_">
						<use xlink:href="#SVGID_59_"  overflow="visible"/>
					</clipPath>
					<g clip-path="url(#SVGID_60_)">
						<defs>
							<rect id="SVGID_61_" x="42.7" y="4.9" width="3.3" height="1.8"/>
						</defs>
						<clipPath id="SVGID_62_">
							<use xlink:href="#SVGID_61_"  overflow="visible"/>
						</clipPath>
						<rect x="41.3" y="3.4" clip-path="url(#SVGID_62_)" fill="#FFFFFE" width="6.2" height="4.7"/>
					</g>
				</g>
			</g>
		</g>
	</g>
	<g>
		<defs>
			<path id="SVGID_63_" d="M27.9,4.6c-0.1-0.2-0.3-0.3-0.5-0.3c-0.1,0-0.1,0-0.1,0C27.1,4.1,26.9,4,26.7,4c-0.3,0-0.6,0.2-0.7,0.6
				c-0.2,0-0.4,0.2-0.4,0.4c0,0.2,0.2,0.4,0.4,0.4h1.8c0.2,0,0.4-0.2,0.4-0.4C28.3,4.8,28.1,4.6,27.9,4.6"/>
		</defs>
		<clipPath id="SVGID_64_">
			<use xlink:href="#SVGID_63_"  overflow="visible"/>
		</clipPath>
		<g clip-path="url(#SVGID_64_)">
			<defs>
				<rect id="SVGID_65_" x="8.1" y="0.4" width="59.9" height="60.5"/>
			</defs>
			<clipPath id="SVGID_66_">
				<use xlink:href="#SVGID_65_"  overflow="visible"/>
			</clipPath>
			<rect x="24.1" y="2.5" clip-path="url(#SVGID_66_)" fill="#FFFFFF" width="5.7" height="4.5"/>
		</g>
	</g>
	<g>
		<defs>
			<path id="SVGID_67_" d="M27.9,4.6c-0.1-0.2-0.3-0.3-0.5-0.3c-0.1,0-0.1,0-0.1,0C27.1,4.1,26.9,4,26.7,4c-0.3,0-0.6,0.2-0.7,0.6
				c-0.2,0-0.4,0.2-0.4,0.4c0,0.2,0.2,0.4,0.4,0.4h1.8c0.2,0,0.4-0.2,0.4-0.4C28.3,4.8,28.1,4.6,27.9,4.6z"/>
		</defs>
		<clipPath id="SVGID_68_">
			<use xlink:href="#SVGID_67_"  overflow="visible"/>
		</clipPath>
		<g clip-path="url(#SVGID_68_)">
			<defs>
				<rect id="SVGID_69_" x="8.1" y="0.4" width="59.9" height="60.5"/>
			</defs>
			<clipPath id="SVGID_70_">
				<use xlink:href="#SVGID_69_"  overflow="visible"/>
			</clipPath>
			<g clip-path="url(#SVGID_70_)">
				<defs>
					<rect id="SVGID_71_" x="25.4" y="3.7" width="3" height="1.8"/>
				</defs>
				<clipPath id="SVGID_72_">
					<use xlink:href="#SVGID_71_"  overflow="visible"/>
				</clipPath>
				<g clip-path="url(#SVGID_72_)">
					<defs>
						<rect id="SVGID_73_" x="25.6" y="4" width="2.6" height="1.4"/>
					</defs>
					<clipPath id="SVGID_74_">
						<use xlink:href="#SVGID_73_"  overflow="visible"/>
					</clipPath>
					<g clip-path="url(#SVGID_74_)">
						<defs>
							<rect id="SVGID_75_" x="25.4" y="3.7" width="3" height="1.8"/>
						</defs>
						<clipPath id="SVGID_76_">
							<use xlink:href="#SVGID_75_"  overflow="visible"/>
						</clipPath>
						<rect x="24.1" y="2.5" clip-path="url(#SVGID_76_)" fill="#FFFFFF" width="5.7" height="4.5"/>
					</g>
				</g>
			</g>
		</g>
	</g>
	<g>
		<defs>
			<path id="SVGID_77_" d="M36.1,5.6c-0.3-0.8-0.9-1.2-1.3-1.4l-2.6,2.6h4.1C36.4,6.4,36.3,6,36.1,5.6"/>
		</defs>
		<clipPath id="SVGID_78_">
			<use xlink:href="#SVGID_77_"  overflow="visible"/>
		</clipPath>
		<g clip-path="url(#SVGID_78_)">
			<defs>
				<rect id="SVGID_79_" x="8.1" y="0.4" width="59.9" height="60.5"/>
			</defs>
			<clipPath id="SVGID_80_">
				<use xlink:href="#SVGID_79_"  overflow="visible"/>
			</clipPath>
			<rect x="30.7" y="2.7" clip-path="url(#SVGID_80_)" fill="#FFFFFF" width="7.2" height="5.6"/>
		</g>
	</g>
	<g>
		<defs>
			<polyline id="SVGID_81_" points="23.7,2.4 48.7,2.4 48.7,13.8 23.7,13.8 			"/>
		</defs>
		<clipPath id="SVGID_82_">
			<use xlink:href="#SVGID_81_"  overflow="visible"/>
		</clipPath>
		<g clip-path="url(#SVGID_82_)">
			<defs>
				<rect id="SVGID_83_" x="8.1" y="0.4" width="59.9" height="60.5"/>
			</defs>
			<clipPath id="SVGID_84_">
				<use xlink:href="#SVGID_83_"  overflow="visible"/>
			</clipPath>
			<g clip-path="url(#SVGID_84_)">
				<defs>
					<rect id="SVGID_85_" x="24.5" y="3.4" width="23.7" height="10.6"/>
				</defs>
				<clipPath id="SVGID_86_">
					<use xlink:href="#SVGID_85_"  overflow="visible"/>
				</clipPath>
				<g clip-path="url(#SVGID_86_)">
					<defs>
						<path id="SVGID_87_" d="M36.1,5.6c0.2,0.4,0.2,0.8,0.2,1.2h2.2l-3.2-3.2l-0.6,0.6C35.2,4.4,35.8,4.8,36.1,5.6"/>
					</defs>
					<clipPath id="SVGID_88_">
						<use xlink:href="#SVGID_87_"  overflow="visible"/>
					</clipPath>
					<g clip-path="url(#SVGID_88_)">
						<defs>
							<rect id="SVGID_89_" x="23.6" y="2.2" width="25.2" height="11.9"/>
						</defs>
						<clipPath id="SVGID_90_">
							<use xlink:href="#SVGID_89_"  overflow="visible"/>
						</clipPath>
						<rect x="33.3" y="2.1" clip-path="url(#SVGID_90_)" fill="#F9F5FA" width="6.8" height="6.3"/>
					</g>
				</g>
				<g clip-path="url(#SVGID_86_)">
					<defs>
						<path id="SVGID_91_" d="M34.8,10.5c0.5-0.9,0.3-0.8,1-1.9c0.3-0.5,0.5-1.1,0.5-1.8h-4.1l-7.7,7.8c0.8,2,9.3,2.1,11.5,2.5
							C35.4,16.3,34.4,11.4,34.8,10.5"/>
					</defs>
					<clipPath id="SVGID_92_">
						<use xlink:href="#SVGID_91_"  overflow="visible"/>
					</clipPath>
					<g clip-path="url(#SVGID_92_)">
						<defs>
							<rect id="SVGID_93_" x="23.6" y="2.2" width="25.2" height="11.9"/>
						</defs>
						<clipPath id="SVGID_94_">
							<use xlink:href="#SVGID_93_"  overflow="visible"/>
						</clipPath>
						<rect x="23" y="5.3" clip-path="url(#SVGID_94_)" fill="#AC29B5" width="14.9" height="13.4"/>
					</g>
				</g>
				<g clip-path="url(#SVGID_86_)">
					<defs>
						<path id="SVGID_95_" d="M35.9,8.6c-0.6,0.8-1.6,1.2-2.1,2.2c-0.7,1.4-0.3,3.5,0.5,4.8c0.3,0.6,1,1.5,1.7,1.6
							c0.4,0.1,0.7,0.1,1.1,0.1c2.6,0,10,1.4,10.9-0.9l-9.4-9.5h-2.2C36.4,7.5,36.2,8.1,35.9,8.6"/>
					</defs>
					<clipPath id="SVGID_96_">
						<use xlink:href="#SVGID_95_"  overflow="visible"/>
					</clipPath>
					<g clip-path="url(#SVGID_96_)">
						<defs>
							<rect id="SVGID_97_" x="23.6" y="2.2" width="25.2" height="11.9"/>
						</defs>
						<clipPath id="SVGID_98_">
							<use xlink:href="#SVGID_97_"  overflow="visible"/>
						</clipPath>
						<rect x="31.9" y="5.3" clip-path="url(#SVGID_98_)" fill="#92269E" width="17.6" height="13.9"/>
					</g>
				</g>
			</g>
		</g>
	</g>
	<g>
		<defs>
			<path id="SVGID_99_" d="M32.1,6.3c-0.1-0.2-0.4-0.4-0.7-0.4c-0.1,0-0.1,0-0.2,0c-0.2-0.2-0.4-0.4-0.7-0.4c-0.4,0-0.8,0.3-0.9,0.7
				c-0.3,0-0.5,0.3-0.5,0.6c0,0.3,0.2,0.6,0.6,0.6h2.3c0.3,0,0.6-0.3,0.6-0.6C32.6,6.6,32.4,6.4,32.1,6.3z"/>
		</defs>
		<clipPath id="SVGID_100_">
			<use xlink:href="#SVGID_99_"  overflow="visible"/>
		</clipPath>
		<g clip-path="url(#SVGID_100_)">
			<defs>
				<rect id="SVGID_101_" x="8.1" y="0.4" width="59.9" height="60.5"/>
			</defs>
			<clipPath id="SVGID_102_">
				<use xlink:href="#SVGID_101_"  overflow="visible"/>
			</clipPath>
			<g clip-path="url(#SVGID_102_)">
				<defs>
					<rect id="SVGID_103_" x="29" y="5.5" width="3.6" height="2.1"/>
				</defs>
				<clipPath id="SVGID_104_">
					<use xlink:href="#SVGID_103_"  overflow="visible"/>
				</clipPath>
				<g clip-path="url(#SVGID_104_)">
					<defs>
						<rect id="SVGID_105_" x="29.2" y="5.6" width="3.4" height="1.9"/>
					</defs>
					<clipPath id="SVGID_106_">
						<use xlink:href="#SVGID_105_"  overflow="visible"/>
					</clipPath>
					<g clip-path="url(#SVGID_106_)">
						<defs>
							<rect id="SVGID_107_" x="29" y="5.5" width="3.6" height="2.1"/>
						</defs>
						<clipPath id="SVGID_108_">
							<use xlink:href="#SVGID_107_"  overflow="visible"/>
						</clipPath>
						<rect x="27.7" y="4.1" clip-path="url(#SVGID_108_)" fill="#FFFFFE" width="6.5" height="4.9"/>
					</g>
				</g>
			</g>
		</g>
	</g>
	<g>
		<defs>
			<rect id="SVGID_109_" x="34" y="15.3" width="11.9" height="1"/>
		</defs>
		<clipPath id="SVGID_110_">
			<use xlink:href="#SVGID_109_"  overflow="visible"/>
		</clipPath>
		<g clip-path="url(#SVGID_110_)">
			<defs>
				<rect id="SVGID_111_" x="8.1" y="0.4" width="59.9" height="60.5"/>
			</defs>
			<clipPath id="SVGID_112_">
				<use xlink:href="#SVGID_111_"  overflow="visible"/>
			</clipPath>
			<rect x="32.4" y="13.8" clip-path="url(#SVGID_112_)" fill="#999999" width="14.9" height="4"/>
		</g>
	</g>
	<g>
		<defs>
			<rect id="SVGID_113_" x="34" y="17.6" width="7.3" height="1"/>
		</defs>
		<clipPath id="SVGID_114_">
			<use xlink:href="#SVGID_113_"  overflow="visible"/>
		</clipPath>
		<g clip-path="url(#SVGID_114_)">
			<defs>
				<rect id="SVGID_115_" x="8.1" y="0.4" width="59.9" height="60.5"/>
			</defs>
			<clipPath id="SVGID_116_">
				<use xlink:href="#SVGID_115_"  overflow="visible"/>
			</clipPath>
			<rect x="32.4" y="16.1" clip-path="url(#SVGID_116_)" fill="#999999" width="10.3" height="4"/>
		</g>
	</g>
	<g>
		<defs>
			<rect id="SVGID_117_" x="25.9" y="20.7" width="15.4" height="0.7"/>
		</defs>
		<clipPath id="SVGID_118_">
			<use xlink:href="#SVGID_117_"  overflow="visible"/>
		</clipPath>
		<g clip-path="url(#SVGID_118_)">
			<defs>
				<rect id="SVGID_119_" x="8.1" y="0.4" width="59.9" height="60.5"/>
			</defs>
			<clipPath id="SVGID_120_">
				<use xlink:href="#SVGID_119_"  overflow="visible"/>
			</clipPath>
			<rect x="24.4" y="19.2" clip-path="url(#SVGID_120_)" fill="#CCCCCC" width="18.5" height="3.7"/>
		</g>
	</g>
	<g>
		<defs>
			<rect id="SVGID_121_" x="25.9" y="22.9" width="15.4" height="0.7"/>
		</defs>
		<clipPath id="SVGID_122_">
			<use xlink:href="#SVGID_121_"  overflow="visible"/>
		</clipPath>
		<g clip-path="url(#SVGID_122_)">
			<defs>
				<rect id="SVGID_123_" x="8.1" y="0.4" width="59.9" height="60.5"/>
			</defs>
			<clipPath id="SVGID_124_">
				<use xlink:href="#SVGID_123_"  overflow="visible"/>
			</clipPath>
			<rect x="24.4" y="21.4" clip-path="url(#SVGID_124_)" fill="#CCCCCC" width="18.5" height="3.7"/>
		</g>
	</g>
	<g>
		<defs>
			<rect id="SVGID_125_" x="8.1" y="0.4" width="59.9" height="60.5"/>
		</defs>
		<clipPath id="SVGID_126_">
			<use xlink:href="#SVGID_125_"  overflow="visible"/>
		</clipPath>
	</g>
	<g>
		<defs>
			<polyline id="SVGID_127_" points="29.2,11.5 29.2,11.5 29.2,11.5 29.2,11.5 29.2,11.6 29.2,11.5 29.2,11.5 			"/>
		</defs>
		<clipPath id="SVGID_128_">
			<use xlink:href="#SVGID_127_"  overflow="visible"/>
		</clipPath>
		<g clip-path="url(#SVGID_128_)">
			<defs>
				<rect id="SVGID_129_" x="8.1" y="0.4" width="59.9" height="60.5"/>
			</defs>
			<clipPath id="SVGID_130_">
				<use xlink:href="#SVGID_129_"  overflow="visible"/>
			</clipPath>
			<rect x="27.6" y="10" clip-path="url(#SVGID_130_)" fill="#FFAB8E" width="3.1" height="3"/>
		</g>
	</g>
	<g>
		<defs>
			<polyline id="SVGID_131_" points="23.7,2.4 48.7,2.4 48.7,45 23.7,45 			"/>
		</defs>
		<clipPath id="SVGID_132_">
			<use xlink:href="#SVGID_131_"  overflow="visible"/>
		</clipPath>
		<g clip-path="url(#SVGID_132_)">
			<defs>
				<rect id="SVGID_133_" x="8.1" y="0.4" width="59.9" height="60.5"/>
			</defs>
			<clipPath id="SVGID_134_">
				<use xlink:href="#SVGID_133_"  overflow="visible"/>
			</clipPath>
			<g clip-path="url(#SVGID_134_)">
				<defs>
					<rect id="SVGID_135_" x="25.4" y="15" width="21.9" height="30.1"/>
				</defs>
				<clipPath id="SVGID_136_">
					<use xlink:href="#SVGID_135_"  overflow="visible"/>
				</clipPath>
				<g clip-path="url(#SVGID_136_)">
					<defs>
						<path id="SVGID_137_" d="M43,32.5c0,3.8-3,6.9-6.8,6.9c-3.8,0-6.8-3.1-6.8-6.9c0-3.8,3-6.9,6.8-6.9C39.9,25.6,43,28.7,43,32.5
							"/>
					</defs>
					<clipPath id="SVGID_138_">
						<use xlink:href="#SVGID_137_"  overflow="visible"/>
					</clipPath>
					<g clip-path="url(#SVGID_138_)">
						<defs>
							<rect id="SVGID_139_" x="23.6" y="2.2" width="25.2" height="42.9"/>
						</defs>
						<clipPath id="SVGID_140_">
							<use xlink:href="#SVGID_139_"  overflow="visible"/>
						</clipPath>
						<rect x="27.8" y="24.1" clip-path="url(#SVGID_140_)" fill="#882C84" width="16.6" height="16.8"/>
					</g>
				</g>
				<g clip-path="url(#SVGID_136_)">
					<defs>
						<path id="SVGID_141_" d="M25.4,42.3c0-0.5,0.4-0.9,0.9-0.9h20.1c0.5,0,0.9,0.4,0.9,0.9v1.8c0,0.5-0.4,0.9-0.9,0.9H26.3
							c-0.5,0-0.9-0.4-0.9-0.9V42.3z"/>
					</defs>
					<clipPath id="SVGID_142_">
						<use xlink:href="#SVGID_141_"  overflow="visible"/>
					</clipPath>
					<g clip-path="url(#SVGID_142_)">
						<defs>
							<rect id="SVGID_143_" x="23.6" y="2.2" width="25.2" height="42.9"/>
						</defs>
						<clipPath id="SVGID_144_">
							<use xlink:href="#SVGID_143_"  overflow="visible"/>
						</clipPath>
						<rect x="23.9" y="39.9" clip-path="url(#SVGID_144_)" fill="#AC29B5" width="24.9" height="6.7"/>
					</g>
				</g>
				<g clip-path="url(#SVGID_136_)">
					<defs>
						<rect id="SVGID_145_" x="32.1" y="42.9" width="8.8" height="0.6"/>
					</defs>
					<clipPath id="SVGID_146_">
						<use xlink:href="#SVGID_145_"  overflow="visible"/>
					</clipPath>
					<g clip-path="url(#SVGID_146_)">
						<defs>
							<rect id="SVGID_147_" x="23.6" y="2.2" width="25.2" height="42.9"/>
						</defs>
						<clipPath id="SVGID_148_">
							<use xlink:href="#SVGID_147_"  overflow="visible"/>
						</clipPath>
						<rect x="30.5" y="41.4" clip-path="url(#SVGID_148_)" fill="#FFFFFF" width="11.9" height="3.6"/>
					</g>
				</g>
			</g>
		</g>
	</g>
	<g>
		<defs>
			<path id="SVGID_149_" d="M46.3,21.4c0-0.2-0.1-0.4-0.2-0.5c-0.1-0.1-0.2-0.2-0.2-0.2c-0.1,0-0.2-0.1-0.3-0.1c0,0,0,0-0.1,0
				c0,0,0,0-0.1,0c-0.3,0-0.4,0.1-0.6,0.2c0,0,0,0,0,0c0,0,0,0,0,0.1l0,0l0,0v2.5l0,0c0,0,0,0,0,0c1-0.7,1.4-1.3,1.4-1.8
				c0,0,0-0.1,0-0.1L46.3,21.4"/>
		</defs>
		<clipPath id="SVGID_150_">
			<use xlink:href="#SVGID_149_"  overflow="visible"/>
		</clipPath>
		<g clip-path="url(#SVGID_150_)">
			<defs>
				<rect id="SVGID_151_" x="8.1" y="0.4" width="59.9" height="60.5"/>
			</defs>
			<clipPath id="SVGID_152_">
				<use xlink:href="#SVGID_151_"  overflow="visible"/>
			</clipPath>
			<rect x="43.2" y="19" clip-path="url(#SVGID_152_)" fill="#FF7BF3" width="4.5" height="5.9"/>
		</g>
	</g>
	<g>
		<defs>
			<path id="SVGID_153_" d="M44.8,20.9c-0.2-0.2-0.4-0.4-0.7-0.4c0,0-0.1,0-0.1,0c-0.1,0-0.2,0.1-0.3,0.1c-0.2,0.1-0.3,0.4-0.3,0.7
				l0,0.2c0,0.2,0.1,0.4,0.2,0.6c0.1,0.2,0.3,0.4,0.6,0.7c0.2,0.2,0.4,0.4,0.7,0.6L44.8,20.9L44.8,20.9"/>
		</defs>
		<clipPath id="SVGID_154_">
			<use xlink:href="#SVGID_153_"  overflow="visible"/>
		</clipPath>
		<g clip-path="url(#SVGID_154_)">
			<defs>
				<rect id="SVGID_155_" x="8.1" y="0.4" width="59.9" height="60.5"/>
			</defs>
			<clipPath id="SVGID_156_">
				<use xlink:href="#SVGID_155_"  overflow="visible"/>
			</clipPath>
			<rect x="41.7" y="19" clip-path="url(#SVGID_156_)" fill="#FFB0F8" width="4.5" height="5.9"/>
		</g>
	</g>
	<g>
		<defs>
			<polyline id="SVGID_157_" points="32.5,27.4 32.5,27.4 32.5,27.4 32.5,27.4 32.5,27.4 32.5,27.4 32.5,27.4 			"/>
		</defs>
		<clipPath id="SVGID_158_">
			<use xlink:href="#SVGID_157_"  overflow="visible"/>
		</clipPath>
		<g clip-path="url(#SVGID_158_)">
			<defs>
				<rect id="SVGID_159_" x="8.1" y="0.4" width="59.9" height="60.5"/>
			</defs>
			<clipPath id="SVGID_160_">
				<use xlink:href="#SVGID_159_"  overflow="visible"/>
			</clipPath>
		</g>
	</g>
	<g>
		<defs>
			<polyline id="SVGID_161_" points="37.1,27.4 37.1,27.4 37.1,27.4 37.1,27.4 37.1,27.4 37.1,27.4 37.1,27.4 			"/>
		</defs>
		<clipPath id="SVGID_162_">
			<use xlink:href="#SVGID_161_"  overflow="visible"/>
		</clipPath>
		<g clip-path="url(#SVGID_162_)">
			<defs>
				<rect id="SVGID_163_" x="8.1" y="0.4" width="59.9" height="60.5"/>
			</defs>
			<clipPath id="SVGID_164_">
				<use xlink:href="#SVGID_163_"  overflow="visible"/>
			</clipPath>
		</g>
	</g>
	<path fill="#AD29B6" d="M42,32.4c0-0.1,0-0.1,0-0.2c-0.5-0.2-2,0.1-3.4,0c-1.5-0.1-3.4-0.5-5-0.6c-0.5,0-2.1,0.2-3.2,0.5
		c0,0.1,0,0.2,0,0.3c0,3.2,2.6,5.8,5.8,5.8c0.1,0,0.2,0,0.3,0C39.5,38.1,42,35.6,42,32.4z"/>
	<g>
		<defs>
			<circle id="SVGID_165_" cx="37.2" cy="37.9" r="34.1"/>
		</defs>
		<clipPath id="SVGID_166_">
			<use xlink:href="#SVGID_165_"  overflow="visible"/>
		</clipPath>
		<path clip-path="url(#SVGID_166_)" fill="#E0B487" d="M32.3,76.7l3.3-3v-8.4c0-3-2-4.9-4.6-5l0,15.4L32.3,76.7z"/>
		<path clip-path="url(#SVGID_166_)" fill="#EFC6A0" d="M31,65.2v-4.5c0.4,0,0.7,0.3,0.7,0.8v3.8H31z"/>
		<path clip-path="url(#SVGID_166_)" fill="#E0B487" d="M39,41.8c-1.6,0-2.9,1.4-2.9,3.1c0,0,0,32.2,0,32.2c0,1.7,1.3,1.7,2.9,1.7
			c1.6,0,2.9,0,2.9-1.7c0,0,0-32.2,0-32.2C41.9,43.2,40.6,41.8,39,41.8z"/>
		<ellipse clip-path="url(#SVGID_166_)" fill="#E0B487" cx="45.3" cy="58.5" rx="2.9" ry="3.1"/>
		<ellipse clip-path="url(#SVGID_166_)" fill="#E0B487" cx="51.6" cy="59.8" rx="2.9" ry="3.1"/>
		<ellipse clip-path="url(#SVGID_166_)" fill="#E0B487" cx="57.4" cy="61.2" rx="2.4" ry="2.6"/>
		<path clip-path="url(#SVGID_166_)" fill="#EFC6A0" d="M36.9,44.9c0-1.2,0.9-2.2,2.1-2.2c1.2,0,2.1,1,2.1,2.2H36.9z"/>
		<rect x="36.9" y="44.9" clip-path="url(#SVGID_166_)" fill="#EFC6A0" width="4.2" height="2.1"/>
		<path clip-path="url(#SVGID_166_)" fill="#E0B487" d="M55.9,81.8c0,0-12,0-18.4,0S31,74.9,31,74.9v-7.7l5.5,5.1l0.4-15.7l19,3.3
			c2.2,0,3.9-0.8,3.9,1.5v16.3C59.9,79.9,58.1,81.8,55.9,81.8z"/>
	</g>
	<circle fill="#FEF3E9" cx="29.2" cy="13.6" r="3.6"/>
	<g>
		<defs>
			<circle id="SVGID_167_" cx="29.2" cy="13.6" r="3.6"/>
		</defs>
		<use xlink:href="#SVGID_167_"  overflow="visible" fill="#F8F2F9"/>
		<clipPath id="SVGID_168_">
			<use xlink:href="#SVGID_167_"  overflow="visible"/>
		</clipPath>
		<path clip-path="url(#SVGID_168_)" fill="#AD29B6" d="M32,16.2c-0.3-0.7-1.1-1.2-2.1-1.4c-0.2,0-0.5-0.1-0.7-0.1
			c-0.2,0-0.5,0-0.7,0.1c-1,0.2-1.8,0.7-2.1,1.4c-0.1,0.2-0.1,0.4-0.1,0.5v0.8l5.9,0v-0.8C32.2,16.5,32.1,16.4,32,16.2"/>
		<path clip-path="url(#SVGID_168_)" fill="#882C84" d="M29.2,14.7L29.2,14.7c0,0-0.1,0-0.1,0c-0.2,0-0.4,0-0.6,0.1
			c-1,0.2-1.8,0.7-2.1,1.4c-0.1,0.1-0.1,0.3-0.1,0.4l0,0c0,0.3,0,0.9,0,0.9h0.3l2.6,0v-0.8V14.7L29.2,14.7"/>
		<path clip-path="url(#SVGID_168_)" fill="#E0B487" d="M29.2,11.1C29.3,11.1,29.3,11.1,29.2,11.1L29.2,11.1L29.2,11.1L29.2,11.1
			c0.7,0,1.3,0.4,1.5,0.9c0.1,0.2,0.1,0.4,0.1,0.7c0,0.1,0,0.1,0,0.2c-0.1,0.8-0.8,1.4-1.6,1.4v0l0,0l0,0c0,0,0,0-0.1,0
			c-0.9,0-1.5-0.7-1.5-1.6C27.7,11.8,28.4,11.1,29.2,11.1"/>
		<path clip-path="url(#SVGID_168_)" fill="#DBA772" d="M29.3,11.1v3.2c0,0,0,0,0,0c-0.9,0-1.5-0.7-1.5-1.6
			C27.7,11.8,28.4,11.1,29.3,11.1C29.2,11.1,29.3,11.1,29.3,11.1"/>
	</g>
</g>
</svg>
