<?xml version="1.0" encoding="UTF-8" standalone="no"?>
<svg width="244px" height="107px" viewBox="0 0 244 107" version="1.1" xmlns="http://www.w3.org/2000/svg" xmlns:xlink="http://www.w3.org/1999/xlink" xmlns:sketch="http://www.bohemiancoding.com/sketch/ns">
    <!-- Generator: Sketch 3.3.3 (12072) - http://www.bohemiancoding.com/sketch -->
    <title>Slice 1</title>
    <desc>Created with Sketch.</desc>
    <defs>
        <rect id="path-1" x="0.196855624" y="0.229280397" width="212.735311" height="131.77072"></rect>
    </defs>
    <g id="Page-1" stroke="none" stroke-width="1" fill="none" fill-rule="evenodd" sketch:type="MSPage">
        <g id="calchand" sketch:type="MSLayerGroup" transform="translate(50.067834, -10.000000)">
            <g id="Clipped">
                <mask id="mask-2" sketch:name="SVGID_1_" fill="white">
                    <use xlink:href="#path-1"></use>
                </mask>
                <g id="SVGID_1_"></g>
                <g id="Group" mask="url(#mask-2)">
                    <g transform="translate(32.153085, 10.808933)">
                        <g id="calc-shadow" opacity="0.25" transform="translate(5.179431, 5.739130)">
                            <path d="M0.0656185412,8.417866 C0.0656185412,6.4853598 1.64046353,4.94590571 3.54340123,4.94590571 L81.2029448,4.94590571 C83.1386917,4.94590571 84.6807275,6.4853598 84.6807275,8.417866 L84.6807275,122.402978 C84.6807275,124.335484 83.1058825,125.874938 81.2029448,125.874938 L3.5762105,125.874938 C1.64046353,125.874938 0.0984278118,124.335484 0.0984278118,122.402978 L0.0984278118,8.417866 L0.0656185412,8.417866 Z" id="Shape" fill="#808080" sketch:type="MSShapeGroup"></path>
                            <path d="M0.0656185412,3.73399504 C0.0656185412,1.80148883 1.64046353,0.262034739 3.54340123,0.262034739 L81.2029448,0.262034739 C83.1386917,0.262034739 84.6807275,1.80148883 84.6807275,3.73399504 L84.6807275,117.719107 C84.6807275,119.651613 83.1058825,121.191067 81.2029448,121.191067 L3.5762105,121.191067 C1.64046353,121.191067 0.0984278118,119.651613 0.0984278118,117.719107 L0.0984278118,3.73399504 L0.0656185412,3.73399504 Z" id="Shape" fill="#A6A6A6" sketch:type="MSShapeGroup"></path>
                            <g id="Group" transform="translate(5.249483, 46.838710)" sketch:type="MSShapeGroup">
                                <path d="M18.5700472,12.053598 L2.03417478,12.053598 C0.984278118,12.053598 0.0984278118,11.1692308 0.0984278118,10.1210918 L0.0984278118,2.09627792 C0.0984278118,1.04813896 0.984278118,0.163771712 2.03417478,0.163771712 L18.5700472,0.163771712 C19.6199438,0.163771712 20.5057941,1.04813896 20.5057941,2.09627792 L20.5057941,10.1210918 C20.5057941,11.2019851 19.6199438,12.053598 18.5700472,12.053598 L18.5700472,12.053598 Z" id="Shape" fill="#333333"></path>
                                <path d="M45.4080305,12.053598 L28.8721581,12.053598 C27.8222615,12.053598 26.9364112,11.1692308 26.9364112,10.1210918 L26.9364112,2.09627792 C26.9364112,1.04813896 27.8222615,0.163771712 28.8721581,0.163771712 L45.4080305,0.163771712 C46.4579272,0.163771712 47.3437775,1.04813896 47.3437775,2.09627792 L47.3437775,10.1210918 C47.3437775,11.2019851 46.4579272,12.053598 45.4080305,12.053598 L45.4080305,12.053598 Z" id="Shape" fill="#333333"></path>
                                <path d="M72.2460139,12.053598 L55.7101415,12.053598 C54.6602448,12.053598 53.7743945,11.1692308 53.7743945,10.1210918 L53.7743945,2.09627792 C53.7743945,1.04813896 54.6602448,0.163771712 55.7101415,0.163771712 L72.2460139,0.163771712 C73.2959106,0.163771712 74.1817609,1.04813896 74.1817609,2.09627792 L74.1817609,10.1210918 C74.1817609,11.2019851 73.3287198,12.053598 72.2460139,12.053598 L72.2460139,12.053598 Z" id="Shape" fill="#C45B2C"></path>
                                <path d="M18.5700472,30.3960298 L2.03417478,30.3960298 C0.984278118,30.3960298 0.0984278118,29.5116625 0.0984278118,28.4635236 L0.0984278118,20.4387097 C0.0984278118,19.3905707 0.984278118,18.5062035 2.03417478,18.5062035 L18.5700472,18.5062035 C19.6199438,18.5062035 20.5057941,19.3905707 20.5057941,20.4387097 L20.5057941,28.4635236 C20.5057941,29.5444169 19.6199438,30.3960298 18.5700472,30.3960298 L18.5700472,30.3960298 Z" id="Shape" fill="#333333"></path>
                                <path d="M45.4080305,30.3960298 L28.8721581,30.3960298 C27.8222615,30.3960298 26.9364112,29.5116625 26.9364112,28.4635236 L26.9364112,20.4387097 C26.9364112,19.3905707 27.8222615,18.5062035 28.8721581,18.5062035 L45.4080305,18.5062035 C46.4579272,18.5062035 47.3437775,19.3905707 47.3437775,20.4387097 L47.3437775,28.4635236 C47.3437775,29.5444169 46.4579272,30.3960298 45.4080305,30.3960298 L45.4080305,30.3960298 Z" id="Shape" fill="#333333"></path>
                                <path d="M72.2460139,30.3960298 L55.7101415,30.3960298 C54.6602448,30.3960298 53.7743945,29.5116625 53.7743945,28.4635236 L53.7743945,20.4387097 C53.7743945,19.3905707 54.6602448,18.5062035 55.7101415,18.5062035 L72.2460139,18.5062035 C73.2959106,18.5062035 74.1817609,19.3905707 74.1817609,20.4387097 L74.1817609,28.4635236 C74.1817609,29.5444169 73.3287198,30.3960298 72.2460139,30.3960298 L72.2460139,30.3960298 Z" id="Shape" fill="#333333"></path>
                                <path d="M18.5700472,48.7384615 L2.03417478,48.7384615 C0.984278118,48.7384615 0.0984278118,47.8540943 0.0984278118,46.8059553 L0.0984278118,38.7811414 C0.0984278118,37.7330025 0.984278118,36.8486352 2.03417478,36.8486352 L18.5700472,36.8486352 C19.6199438,36.8486352 20.5057941,37.7330025 20.5057941,38.7811414 L20.5057941,46.8059553 C20.5057941,47.8868486 19.6199438,48.7384615 18.5700472,48.7384615 L18.5700472,48.7384615 Z" id="Shape" fill="#333333"></path>
                                <path d="M45.4080305,48.7384615 L28.8721581,48.7384615 C27.8222615,48.7384615 26.9364112,47.8540943 26.9364112,46.8059553 L26.9364112,38.7811414 C26.9364112,37.7330025 27.8222615,36.8486352 28.8721581,36.8486352 L45.4080305,36.8486352 C46.4579272,36.8486352 47.3437775,37.7330025 47.3437775,38.7811414 L47.3437775,46.8059553 C47.3437775,47.8868486 46.4579272,48.7384615 45.4080305,48.7384615 L45.4080305,48.7384615 Z" id="Shape" fill="#333333"></path>
                                <path d="M72.2460139,67.0808933 L55.7101415,67.0808933 C54.6602448,67.0808933 53.7743945,66.1965261 53.7743945,65.1483871 L53.7743945,39.0759305 C53.7743945,38.0277916 54.6602448,37.1434243 55.7101415,37.1434243 L72.2460139,37.1434243 C73.2959106,37.1434243 74.1817609,38.0277916 74.1817609,39.0759305 L74.1817609,65.1483871 C74.1817609,66.1965261 73.3287198,67.0808933 72.2460139,67.0808933 L72.2460139,67.0808933 Z" id="Shape" fill="#333333"></path>
                            </g>
                            <rect id="Rectangle-path" fill="#FFFFFF" sketch:type="MSShapeGroup" x="5.38072038" y="20.9300248" width="73.7224311" height="18.9975186"></rect>
                            <rect id="Rectangle-path" fill="#B3B3B3" sketch:type="MSShapeGroup" x="5.38072038" y="19.7508685" width="73.7224311" height="2.42382134"></rect>
                            <g id="Group" transform="translate(5.249483, 45.200993)" sketch:type="MSShapeGroup">
                                <path d="M18.5700472,12.151861 L2.03417478,12.151861 C0.984278118,12.151861 0.0984278118,11.2674938 0.0984278118,10.2193548 L0.0984278118,2.19454094 C0.0984278118,1.14640199 0.984278118,0.262034739 2.03417478,0.262034739 L18.5700472,0.262034739 C19.6199438,0.262034739 20.5057941,1.14640199 20.5057941,2.19454094 L20.5057941,10.2193548 C20.5057941,11.2674938 19.6199438,12.151861 18.5700472,12.151861 L18.5700472,12.151861 Z" id="Shape" fill="#4D4D4D"></path>
                                <path d="M45.4080305,12.151861 L28.8721581,12.151861 C27.8222615,12.151861 26.9364112,11.2674938 26.9364112,10.2193548 L26.9364112,2.19454094 C26.9364112,1.14640199 27.8222615,0.262034739 28.8721581,0.262034739 L45.4080305,0.262034739 C46.4579272,0.262034739 47.3437775,1.14640199 47.3437775,2.19454094 L47.3437775,10.2193548 C47.3437775,11.2674938 46.4579272,12.151861 45.4080305,12.151861 L45.4080305,12.151861 Z" id="Shape" fill="#4D4D4D"></path>
                                <path d="M72.2460139,12.151861 L55.7101415,12.151861 C54.6602448,12.151861 53.7743945,11.2674938 53.7743945,10.2193548 L53.7743945,2.19454094 C53.7743945,1.14640199 54.6602448,0.262034739 55.7101415,0.262034739 L72.2460139,0.262034739 C73.2959106,0.262034739 74.1817609,1.14640199 74.1817609,2.19454094 L74.1817609,10.2193548 C74.1817609,11.2674938 73.3287198,12.151861 72.2460139,12.151861 L72.2460139,12.151861 Z" id="Shape" fill="#FC8442"></path>
                                <path d="M18.5700472,30.4942928 L2.03417478,30.4942928 C0.984278118,30.4942928 0.0984278118,29.6099256 0.0984278118,28.5617866 L0.0984278118,20.5369727 C0.0984278118,19.4888337 0.984278118,18.6044665 2.03417478,18.6044665 L18.5700472,18.6044665 C19.6199438,18.6044665 20.5057941,19.4888337 20.5057941,20.5369727 L20.5057941,28.5617866 C20.5057941,29.6099256 19.6199438,30.4942928 18.5700472,30.4942928 L18.5700472,30.4942928 Z" id="Shape" fill="#4D4D4D"></path>
                                <path d="M45.4080305,30.4942928 L28.8721581,30.4942928 C27.8222615,30.4942928 26.9364112,29.6099256 26.9364112,28.5617866 L26.9364112,20.5369727 C26.9364112,19.4888337 27.8222615,18.6044665 28.8721581,18.6044665 L45.4080305,18.6044665 C46.4579272,18.6044665 47.3437775,19.4888337 47.3437775,20.5369727 L47.3437775,28.5617866 C47.3437775,29.6099256 46.4579272,30.4942928 45.4080305,30.4942928 L45.4080305,30.4942928 Z" id="Shape" fill="#4D4D4D"></path>
                                <path d="M72.2460139,30.4942928 L55.7101415,30.4942928 C54.6602448,30.4942928 53.7743945,29.6099256 53.7743945,28.5617866 L53.7743945,20.5369727 C53.7743945,19.4888337 54.6602448,18.6044665 55.7101415,18.6044665 L72.2460139,18.6044665 C73.2959106,18.6044665 74.1817609,19.4888337 74.1817609,20.5369727 L74.1817609,28.5617866 C74.1817609,29.6099256 73.3287198,30.4942928 72.2460139,30.4942928 L72.2460139,30.4942928 Z" id="Shape" fill="#4D4D4D"></path>
                                <path d="M18.5700472,48.8039702 L2.03417478,48.8039702 C0.984278118,48.8039702 0.0984278118,47.919603 0.0984278118,46.871464 L0.0984278118,38.8466501 C0.0984278118,37.7985112 0.984278118,36.9141439 2.03417478,36.9141439 L18.5700472,36.9141439 C19.6199438,36.9141439 20.5057941,37.7985112 20.5057941,38.8466501 L20.5057941,46.871464 C20.5057941,47.9523573 19.6199438,48.8039702 18.5700472,48.8039702 L18.5700472,48.8039702 Z" id="Shape" fill="#4D4D4D"></path>
                                <path d="M45.4080305,48.8039702 L28.8721581,48.8039702 C27.8222615,48.8039702 26.9364112,47.919603 26.9364112,46.871464 L26.9364112,38.8466501 C26.9364112,37.7985112 27.8222615,36.9141439 28.8721581,36.9141439 L45.4080305,36.9141439 C46.4579272,36.9141439 47.3437775,37.7985112 47.3437775,38.8466501 L47.3437775,46.871464 C47.3437775,47.9523573 46.4579272,48.8039702 45.4080305,48.8039702 L45.4080305,48.8039702 Z" id="Shape" fill="#4D4D4D"></path>
                                <path d="M72.2460139,67.146402 L55.7101415,67.146402 C54.6602448,67.146402 53.7743945,66.2620347 53.7743945,65.2138958 L53.7743945,39.1414392 C53.7743945,38.0933002 54.6602448,37.208933 55.7101415,37.208933 L72.2460139,37.208933 C73.2959106,37.208933 74.1817609,38.0933002 74.1817609,39.1414392 L74.1817609,65.2138958 C74.1817609,66.2947891 73.3287198,67.146402 72.2460139,67.146402 L72.2460139,67.146402 Z" id="Shape" fill="#4D4D4D"></path>
                            </g>
                            <text id="£" fill="#000000" sketch:type="MSTextLayer" font-family="Helvetica" font-size="12.8919267" font-weight="normal">
                                <tspan x="9.1318371" y="35.6308923">£</tspan>
                            </text>
                            <rect id="Rectangle-path" fill="#AC29B5" sketch:type="MSShapeGroup" x="21.0307425" y="24.0744417" width="7.05399318" height="12.7414392"></rect>
                        </g>
                        <g id="Group-Copy" transform="translate(0.000000, 0.000000)">
                            <path d="M0.0656185412,8.417866 C0.0656185412,6.4853598 1.64046353,4.94590571 3.54340123,4.94590571 L81.2029448,4.94590571 C83.1386917,4.94590571 84.6807275,6.4853598 84.6807275,8.417866 L84.6807275,122.402978 C84.6807275,124.335484 83.1058825,125.874938 81.2029448,125.874938 L3.5762105,125.874938 C1.64046353,125.874938 0.0984278118,124.335484 0.0984278118,122.402978 L0.0984278118,8.417866 L0.0656185412,8.417866 Z" id="Shape" fill="#808080" sketch:type="MSShapeGroup"></path>
                            <path d="M0.0656185412,3.73399504 C0.0656185412,1.80148883 1.64046353,0.262034739 3.54340123,0.262034739 L81.2029448,0.262034739 C83.1386917,0.262034739 84.6807275,1.80148883 84.6807275,3.73399504 L84.6807275,117.719107 C84.6807275,119.651613 83.1058825,121.191067 81.2029448,121.191067 L3.5762105,121.191067 C1.64046353,121.191067 0.0984278118,119.651613 0.0984278118,117.719107 L0.0984278118,3.73399504 L0.0656185412,3.73399504 Z" id="Shape" fill="#A6A6A6" sketch:type="MSShapeGroup"></path>
                            <g id="Group" transform="translate(5.249483, 46.838710)" sketch:type="MSShapeGroup">
                                <path d="M18.5700472,12.053598 L2.03417478,12.053598 C0.984278118,12.053598 0.0984278118,11.1692308 0.0984278118,10.1210918 L0.0984278118,2.09627792 C0.0984278118,1.04813896 0.984278118,0.163771712 2.03417478,0.163771712 L18.5700472,0.163771712 C19.6199438,0.163771712 20.5057941,1.04813896 20.5057941,2.09627792 L20.5057941,10.1210918 C20.5057941,11.2019851 19.6199438,12.053598 18.5700472,12.053598 L18.5700472,12.053598 Z" id="Shape" fill="#333333"></path>
                                <path d="M45.4080305,12.053598 L28.8721581,12.053598 C27.8222615,12.053598 26.9364112,11.1692308 26.9364112,10.1210918 L26.9364112,2.09627792 C26.9364112,1.04813896 27.8222615,0.163771712 28.8721581,0.163771712 L45.4080305,0.163771712 C46.4579272,0.163771712 47.3437775,1.04813896 47.3437775,2.09627792 L47.3437775,10.1210918 C47.3437775,11.2019851 46.4579272,12.053598 45.4080305,12.053598 L45.4080305,12.053598 Z" id="Shape" fill="#333333"></path>
                                <path d="M72.2460139,12.053598 L55.7101415,12.053598 C54.6602448,12.053598 53.7743945,11.1692308 53.7743945,10.1210918 L53.7743945,2.09627792 C53.7743945,1.04813896 54.6602448,0.163771712 55.7101415,0.163771712 L72.2460139,0.163771712 C73.2959106,0.163771712 74.1817609,1.04813896 74.1817609,2.09627792 L74.1817609,10.1210918 C74.1817609,11.2019851 73.3287198,12.053598 72.2460139,12.053598 L72.2460139,12.053598 Z" id="Shape" fill="#C45B2C"></path>
                                <path d="M18.5700472,30.3960298 L2.03417478,30.3960298 C0.984278118,30.3960298 0.0984278118,29.5116625 0.0984278118,28.4635236 L0.0984278118,20.4387097 C0.0984278118,19.3905707 0.984278118,18.5062035 2.03417478,18.5062035 L18.5700472,18.5062035 C19.6199438,18.5062035 20.5057941,19.3905707 20.5057941,20.4387097 L20.5057941,28.4635236 C20.5057941,29.5444169 19.6199438,30.3960298 18.5700472,30.3960298 L18.5700472,30.3960298 Z" id="Shape" fill="#333333"></path>
                                <path d="M45.4080305,30.3960298 L28.8721581,30.3960298 C27.8222615,30.3960298 26.9364112,29.5116625 26.9364112,28.4635236 L26.9364112,20.4387097 C26.9364112,19.3905707 27.8222615,18.5062035 28.8721581,18.5062035 L45.4080305,18.5062035 C46.4579272,18.5062035 47.3437775,19.3905707 47.3437775,20.4387097 L47.3437775,28.4635236 C47.3437775,29.5444169 46.4579272,30.3960298 45.4080305,30.3960298 L45.4080305,30.3960298 Z" id="Shape" fill="#333333"></path>
                                <path d="M72.2460139,30.3960298 L55.7101415,30.3960298 C54.6602448,30.3960298 53.7743945,29.5116625 53.7743945,28.4635236 L53.7743945,20.4387097 C53.7743945,19.3905707 54.6602448,18.5062035 55.7101415,18.5062035 L72.2460139,18.5062035 C73.2959106,18.5062035 74.1817609,19.3905707 74.1817609,20.4387097 L74.1817609,28.4635236 C74.1817609,29.5444169 73.3287198,30.3960298 72.2460139,30.3960298 L72.2460139,30.3960298 Z" id="Shape" fill="#333333"></path>
                                <path d="M18.5700472,48.7384615 L2.03417478,48.7384615 C0.984278118,48.7384615 0.0984278118,47.8540943 0.0984278118,46.8059553 L0.0984278118,38.7811414 C0.0984278118,37.7330025 0.984278118,36.8486352 2.03417478,36.8486352 L18.5700472,36.8486352 C19.6199438,36.8486352 20.5057941,37.7330025 20.5057941,38.7811414 L20.5057941,46.8059553 C20.5057941,47.8868486 19.6199438,48.7384615 18.5700472,48.7384615 L18.5700472,48.7384615 Z" id="Shape" fill="#333333"></path>
                                <path d="M45.4080305,48.7384615 L28.8721581,48.7384615 C27.8222615,48.7384615 26.9364112,47.8540943 26.9364112,46.8059553 L26.9364112,38.7811414 C26.9364112,37.7330025 27.8222615,36.8486352 28.8721581,36.8486352 L45.4080305,36.8486352 C46.4579272,36.8486352 47.3437775,37.7330025 47.3437775,38.7811414 L47.3437775,46.8059553 C47.3437775,47.8868486 46.4579272,48.7384615 45.4080305,48.7384615 L45.4080305,48.7384615 Z" id="Shape" fill="#333333"></path>
                                <path d="M18.5700472,67.0808933 L2.03417478,67.0808933 C0.984278118,67.0808933 0.0984278118,66.1965261 0.0984278118,65.1483871 L0.0984278118,57.1235732 C0.0984278118,56.0754342 0.984278118,55.191067 2.03417478,55.191067 L18.5700472,55.191067 C19.6199438,55.191067 20.5057941,56.0754342 20.5057941,57.1235732 L20.5057941,65.1483871 C20.5057941,66.1965261 19.6199438,67.0808933 18.5700472,67.0808933 L18.5700472,67.0808933 Z" id="Shape" fill="#333333"></path>
                                <path d="M45.4080305,67.0808933 L28.8721581,67.0808933 C27.8222615,67.0808933 26.9364112,66.1965261 26.9364112,65.1483871 L26.9364112,57.1235732 C26.9364112,56.0754342 27.8222615,55.191067 28.8721581,55.191067 L45.4080305,55.191067 C46.4579272,55.191067 47.3437775,56.0754342 47.3437775,57.1235732 L47.3437775,65.1483871 C47.3437775,66.1965261 46.4579272,67.0808933 45.4080305,67.0808933 L45.4080305,67.0808933 Z" id="Shape" fill="#333333"></path>
                                <path d="M72.2460139,67.0808933 L55.7101415,67.0808933 C54.6602448,67.0808933 53.7743945,66.1965261 53.7743945,65.1483871 L53.7743945,39.0759305 C53.7743945,38.0277916 54.6602448,37.1434243 55.7101415,37.1434243 L72.2460139,37.1434243 C73.2959106,37.1434243 74.1817609,38.0277916 74.1817609,39.0759305 L74.1817609,65.1483871 C74.1817609,66.1965261 73.3287198,67.0808933 72.2460139,67.0808933 L72.2460139,67.0808933 Z" id="Shape" fill="#333333"></path>
                            </g>
                            <rect id="Rectangle-path" fill="#FFFFFF" sketch:type="MSShapeGroup" x="5.38072038" y="20.9300248" width="73.7224311" height="18.9975186"></rect>
                            <rect id="Rectangle-path" fill="#B3B3B3" sketch:type="MSShapeGroup" x="5.38072038" y="19.7508685" width="73.7224311" height="2.42382134"></rect>
                            <g id="Group" transform="translate(5.249483, 45.200993)" sketch:type="MSShapeGroup">
                                <path d="M18.5700472,12.151861 L2.03417478,12.151861 C0.984278118,12.151861 0.0984278118,11.2674938 0.0984278118,10.2193548 L0.0984278118,2.19454094 C0.0984278118,1.14640199 0.984278118,0.262034739 2.03417478,0.262034739 L18.5700472,0.262034739 C19.6199438,0.262034739 20.5057941,1.14640199 20.5057941,2.19454094 L20.5057941,10.2193548 C20.5057941,11.2674938 19.6199438,12.151861 18.5700472,12.151861 L18.5700472,12.151861 Z" id="Shape" fill="#4D4D4D"></path>
                                <path d="M45.4080305,12.151861 L28.8721581,12.151861 C27.8222615,12.151861 26.9364112,11.2674938 26.9364112,10.2193548 L26.9364112,2.19454094 C26.9364112,1.14640199 27.8222615,0.262034739 28.8721581,0.262034739 L45.4080305,0.262034739 C46.4579272,0.262034739 47.3437775,1.14640199 47.3437775,2.19454094 L47.3437775,10.2193548 C47.3437775,11.2674938 46.4579272,12.151861 45.4080305,12.151861 L45.4080305,12.151861 Z" id="Shape" fill="#4D4D4D"></path>
                                <path d="M72.2460139,12.151861 L55.7101415,12.151861 C54.6602448,12.151861 53.7743945,11.2674938 53.7743945,10.2193548 L53.7743945,2.19454094 C53.7743945,1.14640199 54.6602448,0.262034739 55.7101415,0.262034739 L72.2460139,0.262034739 C73.2959106,0.262034739 74.1817609,1.14640199 74.1817609,2.19454094 L74.1817609,10.2193548 C74.1817609,11.2674938 73.3287198,12.151861 72.2460139,12.151861 L72.2460139,12.151861 Z" id="Shape" fill="#FC8442"></path>
                                <path d="M18.5700472,30.4942928 L2.03417478,30.4942928 C0.984278118,30.4942928 0.0984278118,29.6099256 0.0984278118,28.5617866 L0.0984278118,20.5369727 C0.0984278118,19.4888337 0.984278118,18.6044665 2.03417478,18.6044665 L18.5700472,18.6044665 C19.6199438,18.6044665 20.5057941,19.4888337 20.5057941,20.5369727 L20.5057941,28.5617866 C20.5057941,29.6099256 19.6199438,30.4942928 18.5700472,30.4942928 L18.5700472,30.4942928 Z" id="Shape" fill="#4D4D4D"></path>
                                <path d="M45.4080305,30.4942928 L28.8721581,30.4942928 C27.8222615,30.4942928 26.9364112,29.6099256 26.9364112,28.5617866 L26.9364112,20.5369727 C26.9364112,19.4888337 27.8222615,18.6044665 28.8721581,18.6044665 L45.4080305,18.6044665 C46.4579272,18.6044665 47.3437775,19.4888337 47.3437775,20.5369727 L47.3437775,28.5617866 C47.3437775,29.6099256 46.4579272,30.4942928 45.4080305,30.4942928 L45.4080305,30.4942928 Z" id="Shape" fill="#4D4D4D"></path>
                                <path d="M72.2460139,30.4942928 L55.7101415,30.4942928 C54.6602448,30.4942928 53.7743945,29.6099256 53.7743945,28.5617866 L53.7743945,20.5369727 C53.7743945,19.4888337 54.6602448,18.6044665 55.7101415,18.6044665 L72.2460139,18.6044665 C73.2959106,18.6044665 74.1817609,19.4888337 74.1817609,20.5369727 L74.1817609,28.5617866 C74.1817609,29.6099256 73.3287198,30.4942928 72.2460139,30.4942928 L72.2460139,30.4942928 Z" id="Shape" fill="#4D4D4D"></path>
                                <path d="M18.5700472,48.8039702 L2.03417478,48.8039702 C0.984278118,48.8039702 0.0984278118,47.919603 0.0984278118,46.871464 L0.0984278118,38.8466501 C0.0984278118,37.7985112 0.984278118,36.9141439 2.03417478,36.9141439 L18.5700472,36.9141439 C19.6199438,36.9141439 20.5057941,37.7985112 20.5057941,38.8466501 L20.5057941,46.871464 C20.5057941,47.9523573 19.6199438,48.8039702 18.5700472,48.8039702 L18.5700472,48.8039702 Z" id="Shape" fill="#4D4D4D"></path>
                                <path d="M45.4080305,48.8039702 L28.8721581,48.8039702 C27.8222615,48.8039702 26.9364112,47.919603 26.9364112,46.871464 L26.9364112,38.8466501 C26.9364112,37.7985112 27.8222615,36.9141439 28.8721581,36.9141439 L45.4080305,36.9141439 C46.4579272,36.9141439 47.3437775,37.7985112 47.3437775,38.8466501 L47.3437775,46.871464 C47.3437775,47.9523573 46.4579272,48.8039702 45.4080305,48.8039702 L45.4080305,48.8039702 Z" id="Shape" fill="#4D4D4D"></path>
                                <path d="M18.5700472,67.146402 L2.03417478,67.146402 C0.984278118,67.146402 0.0984278118,66.2620347 0.0984278118,65.2138958 L0.0984278118,57.1890819 C0.0984278118,56.1409429 0.984278118,55.2565757 2.03417478,55.2565757 L18.5700472,55.2565757 C19.6199438,55.2565757 20.5057941,56.1409429 20.5057941,57.1890819 L20.5057941,65.2138958 C20.5057941,66.2947891 19.6199438,67.146402 18.5700472,67.146402 L18.5700472,67.146402 Z" id="Shape" fill="#4D4D4D"></path>
                                <path d="M45.4080305,67.146402 L28.8721581,67.146402 C27.8222615,67.146402 26.9364112,66.2620347 26.9364112,65.2138958 L26.9364112,57.1890819 C26.9364112,56.1409429 27.8222615,55.2565757 28.8721581,55.2565757 L45.4080305,55.2565757 C46.4579272,55.2565757 47.3437775,56.1409429 47.3437775,57.1890819 L47.3437775,65.2138958 C47.3437775,66.2947891 46.4579272,67.146402 45.4080305,67.146402 L45.4080305,67.146402 Z" id="Shape" fill="#4D4D4D"></path>
                                <path d="M72.2460139,67.146402 L55.7101415,67.146402 C54.6602448,67.146402 53.7743945,66.2620347 53.7743945,65.2138958 L53.7743945,39.1414392 C53.7743945,38.0933002 54.6602448,37.208933 55.7101415,37.208933 L72.2460139,37.208933 C73.2959106,37.208933 74.1817609,38.0933002 74.1817609,39.1414392 L74.1817609,65.2138958 C74.1817609,66.2947891 73.3287198,67.146402 72.2460139,67.146402 L72.2460139,67.146402 Z" id="Shape" fill="#4D4D4D"></path>
                            </g>
                            <text id="£" fill="#000000" sketch:type="MSTextLayer" font-family="Helvetica" font-size="12.8919267" font-weight="normal">
                                <tspan x="9.1318371" y="35.6308923">£</tspan>
                            </text>
                            <rect id="Rectangle-path" fill="#AC29B5" sketch:type="MSShapeGroup" x="21.0307425" y="24.0744417" width="7.05399318" height="12.7414392"></rect>
                        </g>
                        <g id="hand-shadow" opacity="0.25" transform="translate(68.899468, 85.816377)">
                            <path d="M3.93711247,6.19057072 C1.83731915,8.28684864 1.93574697,11.7915633 4.16677737,14.0188586 L7.97265276,17.8183623 L15.5844035,10.2193548 L11.7785282,6.41985112 C9.54749775,4.19255583 6.03690579,4.0942928 3.93711247,6.19057072 L3.93711247,6.19057072 Z" id="Shape" fill="#000000" sketch:type="MSShapeGroup"></path>
                            <path d="M104.464718,31.5751861 L75.166039,2.32555831 C75.1332297,2.29280397 75.1004204,2.26004963 75.0348019,2.22729529 C75.0019926,2.19454094 74.9691834,2.12903226 74.9035648,2.09627792 C72.3444417,-0.458560794 68.3417107,-0.589578164 65.9138247,1.83424318 C64.4045982,3.34094293 63.8796499,5.46997519 64.3389797,7.50074442 L62.4032327,8.84367246 C59.3191613,6.19057072 54.8242912,6.19057072 52.0683125,8.94193548 C49.9029006,11.1037221 49.4435708,14.346402 50.6247046,17.1305211 L49.0826688,18.2114144 L49.0826688,18.2114144 C45.9985974,15.1325062 41.1756346,15.0014888 38.2884188,17.883871 C35.9917699,20.1766749 35.5980586,23.7468983 37.1072851,26.6292804 L35.762105,27.5791563 L13.1893268,5.04416873 C10.1052553,1.96526055 5.28229257,1.83424318 2.39507676,4.71662531 C-0.492139059,7.59900744 -0.360901977,12.4138958 2.72316946,15.492804 C2.72316946,15.492804 35.040301,47.7558313 51.4121271,64.1002481 L49.706045,64.1657568 L38.7149393,53.1930521 C33.2686004,47.7558313 26.2474165,48.0833747 21.3916444,52.4069479 L49.1154781,80.0843672 L49.345143,80.0516129 C53.1182091,82.933995 62.6000883,88.3712159 71.655447,79.3310174 L104.858429,46.1836228 C108.795541,42.2531017 108.598686,35.7022333 104.464718,31.5751861 L104.464718,31.5751861 Z M7.97265276,17.8183623 L4.16677737,14.0188586 C1.93574697,11.7915633 1.83731915,8.28684864 3.93711247,6.19057072 C6.03690579,4.0942928 9.54749775,4.19255583 11.7785282,6.41985112 L15.5844035,10.2193548 L7.97265276,17.8183623 L7.97265276,17.8183623 Z M30.2501475,61.1523573 L22.1134484,53.0292804 C22.8352523,52.3086849 24.0163861,52.3414392 24.7709993,53.0947891 L31.5625183,59.874938 L30.2501475,61.1523573 L30.2501475,61.1523573 Z" id="Shape" fill="#000000" sketch:type="MSShapeGroup"></path>
                        </g>
                        <g id="Group" transform="translate(62.993800, 85.161290)">
                            <path d="M2.39507676,4.782134 C-0.492139059,7.66451613 -0.360901977,12.4794045 2.72316946,15.5583127 L60.6643414,73.4024814 C63.7484128,76.4486352 66.1106803,74.1558313 68.9978961,71.2734491 C71.8851119,68.391067 74.1817609,66 71.1304987,62.9538462 L13.1893268,5.10967742 C10.1380646,2.03076923 5.31510184,1.86699752 2.39507676,4.782134 L2.39507676,4.782134 Z" id="Shape" fill="#E0B487" sketch:type="MSShapeGroup"></path>
                            <path d="M38.3212281,17.9493797 C35.4340123,20.8317618 35.5652493,25.6466501 38.6493208,28.7255583 C41.7333922,31.8044665 46.556355,31.9354839 49.4435708,29.0531017 C52.3307866,26.1707196 52.1995496,21.3558313 49.1154781,18.2769231 C46.0314067,15.1980149 41.2084439,15.0342432 38.3212281,17.9493797 L38.3212281,17.9493797 Z" id="Shape" fill="#E0B487" sketch:type="MSShapeGroup"></path>
                            <path d="M52.1011217,9.00744417 C49.2139059,11.8898263 49.345143,16.737469 52.4292144,19.7836228 C55.5132859,22.862531 60.3362487,22.9935484 63.2234645,20.1111663 C66.1106803,17.2287841 65.9794432,12.4138958 62.8953718,9.33498759 C59.8113003,6.2560794 54.9883376,6.12506203 52.1011217,9.00744417 L52.1011217,9.00744417 Z" id="Shape" fill="#E0B487" sketch:type="MSShapeGroup"></path>
                            <path d="M65.9138247,1.89975186 C63.5187479,4.29081886 63.6171757,8.31960298 66.1762988,10.8744417 C68.7354219,13.4292804 72.7709622,13.5602978 75.166039,11.1364764 C77.5611157,8.74540943 77.4626879,4.71662531 74.9035648,2.1617866 C72.3444417,-0.393052109 68.3417107,-0.491315136 65.9138247,1.89975186 L65.9138247,1.89975186 Z" id="Shape" fill="#E0B487" sketch:type="MSShapeGroup"></path>
                            <path d="M3.93711247,6.28883375 C1.83731915,8.38511166 1.93574697,11.8898263 4.16677737,14.1171216 L7.97265276,17.9166253 L15.5844035,10.3176179 L11.7785282,6.51811414 C9.54749775,4.29081886 6.03690579,4.19255583 3.93711247,6.28883375 L3.93711247,6.28883375 Z" id="Shape" fill="#EFC6A0" sketch:type="MSShapeGroup"></path>
                            <path d="M104.891238,46.2491315 C104.891238,46.2491315 83.3683566,67.7359801 71.6882563,79.3965261 C60.008156,91.057072 47.6718702,78.6759305 47.6718702,78.6759305 L33.7935487,64.8208437 L52.7244979,64.1002481 L25.1319013,35.0799007 L65.3560671,6.81290323 C69.2603703,2.91513648 70.9664523,-1.73598015 75.1004204,2.391067 L104.399099,31.6406948 C108.598686,35.8004963 108.795541,42.3513648 104.891238,46.2491315 L104.891238,46.2491315 Z" id="Shape" fill="#E0B487" sketch:type="MSShapeGroup"></path>
                        </g>
                    </g>
                </g>
            </g>
        </g>
    </g>
</svg>