<?xml version="1.0" encoding="UTF-8" standalone="no"?>
<svg width="657px" height="356px" viewBox="0 0 657 356" version="1.1" xmlns="http://www.w3.org/2000/svg" xmlns:xlink="http://www.w3.org/1999/xlink" xmlns:sketch="http://www.bohemiancoding.com/sketch/ns">
    <!-- Generator: Sketch 3.3.3 (12072) - http://www.bohemiancoding.com/sketch -->
    <title>Slice 1</title>
    <desc>Created with Sketch.</desc>
    <defs>
        <rect id="path-1" x="0.6" y="0.7" width="648.4" height="402.3"></rect>
    </defs>
    <g id="Page-1" stroke="none" stroke-width="1" fill="none" fill-rule="evenodd" sketch:type="MSPage">
        <g id="calchand" sketch:type="MSLayerGroup" transform="translate(-93.000000, -3.000000)">
            <g id="Clipped">
                <g>
                    <mask id="mask-2" sketch:name="SVGID_1_" fill="white">
                        <use xlink:href="#path-1"></use>
                    </mask>
                    <g id="SVGID_1_"></g>
                    <g id="Group" mask="url(#mask-2)">
                        <g transform="translate(98.000000, 33.000000)">
                            <g id="calc-shadow" transform="translate(10.000000, 10.000000)">
                                <path d="M0.2,25.7 C0.2,19.8 5,15.1 10.8,15.1 L247.5,15.1 C253.4,15.1 258.1,19.8 258.1,25.7 L258.1,373.7 C258.1,379.6 253.3,384.3 247.5,384.3 L10.9,384.3 C5,384.3 0.3,379.6 0.3,373.7 L0.3,25.7 L0.2,25.7 Z" id="Shape" fill="#808080" sketch:type="MSShapeGroup"></path>
                                <path d="M0.2,11.4 C0.2,5.5 5,0.8 10.8,0.8 L247.5,0.8 C253.4,0.8 258.1,5.5 258.1,11.4 L258.1,359.4 C258.1,365.3 253.3,370 247.5,370 L10.9,370 C5,370 0.3,365.3 0.3,359.4 L0.3,11.4 L0.2,11.4 Z" id="Shape" fill="#A6A6A6" sketch:type="MSShapeGroup"></path>
                                <g id="Group" transform="translate(16.000000, 143.000000)" sketch:type="MSShapeGroup">
                                    <path d="M56.6,36.8 L6.2,36.8 C3,36.8 0.3,34.1 0.3,30.9 L0.3,6.4 C0.3,3.2 3,0.5 6.2,0.5 L56.6,0.5 C59.8,0.5 62.5,3.2 62.5,6.4 L62.5,30.9 C62.5,34.2 59.8,36.8 56.6,36.8 L56.6,36.8 Z" id="Shape" fill="#333333"></path>
                                    <path d="M138.4,36.8 L88,36.8 C84.8,36.8 82.1,34.1 82.1,30.9 L82.1,6.4 C82.1,3.2 84.8,0.5 88,0.5 L138.4,0.5 C141.6,0.5 144.3,3.2 144.3,6.4 L144.3,30.9 C144.3,34.2 141.6,36.8 138.4,36.8 L138.4,36.8 Z" id="Shape" fill="#333333"></path>
                                    <path d="M220.2,36.8 L169.8,36.8 C166.6,36.8 163.9,34.1 163.9,30.9 L163.9,6.4 C163.9,3.2 166.6,0.5 169.8,0.5 L220.2,0.5 C223.4,0.5 226.1,3.2 226.1,6.4 L226.1,30.9 C226.1,34.2 223.5,36.8 220.2,36.8 L220.2,36.8 Z" id="Shape" fill="#C45B2C"></path>
                                    <path d="M56.6,92.8 L6.2,92.8 C3,92.8 0.3,90.1 0.3,86.9 L0.3,62.4 C0.3,59.2 3,56.5 6.2,56.5 L56.6,56.5 C59.8,56.5 62.5,59.2 62.5,62.4 L62.5,86.9 C62.5,90.2 59.8,92.8 56.6,92.8 L56.6,92.8 Z" id="Shape" fill="#333333"></path>
                                    <path d="M138.4,92.8 L88,92.8 C84.8,92.8 82.1,90.1 82.1,86.9 L82.1,62.4 C82.1,59.2 84.8,56.5 88,56.5 L138.4,56.5 C141.6,56.5 144.3,59.2 144.3,62.4 L144.3,86.9 C144.3,90.2 141.6,92.8 138.4,92.8 L138.4,92.8 Z" id="Shape" fill="#333333"></path>
                                    <path d="M220.2,92.8 L169.8,92.8 C166.6,92.8 163.9,90.1 163.9,86.9 L163.9,62.4 C163.9,59.2 166.6,56.5 169.8,56.5 L220.2,56.5 C223.4,56.5 226.1,59.2 226.1,62.4 L226.1,86.9 C226.1,90.2 223.5,92.8 220.2,92.8 L220.2,92.8 Z" id="Shape" fill="#333333"></path>
                                    <path d="M56.6,148.8 L6.2,148.8 C3,148.8 0.3,146.1 0.3,142.9 L0.3,118.4 C0.3,115.2 3,112.5 6.2,112.5 L56.6,112.5 C59.8,112.5 62.5,115.2 62.5,118.4 L62.5,142.9 C62.5,146.2 59.8,148.8 56.6,148.8 L56.6,148.8 Z" id="Shape" fill="#333333"></path>
                                    <path d="M138.4,148.8 L88,148.8 C84.8,148.8 82.1,146.1 82.1,142.9 L82.1,118.4 C82.1,115.2 84.8,112.5 88,112.5 L138.4,112.5 C141.6,112.5 144.3,115.2 144.3,118.4 L144.3,142.9 C144.3,146.2 141.6,148.8 138.4,148.8 L138.4,148.8 Z" id="Shape" fill="#333333"></path>
                                    <path d="M56.6,204.8 L6.2,204.8 C3,204.8 0.3,202.1 0.3,198.9 L0.3,174.4 C0.3,171.2 3,168.5 6.2,168.5 L56.6,168.5 C59.8,168.5 62.5,171.2 62.5,174.4 L62.5,198.9 C62.5,202.1 59.8,204.8 56.6,204.8 L56.6,204.8 Z" id="Shape" fill="#333333"></path>
                                    <path d="M138.4,204.8 L88,204.8 C84.8,204.8 82.1,202.1 82.1,198.9 L82.1,174.4 C82.1,171.2 84.8,168.5 88,168.5 L138.4,168.5 C141.6,168.5 144.3,171.2 144.3,174.4 L144.3,198.9 C144.3,202.1 141.6,204.8 138.4,204.8 L138.4,204.8 Z" id="Shape" fill="#333333"></path>
                                    <path d="M220.2,204.8 L169.8,204.8 C166.6,204.8 163.9,202.1 163.9,198.9 L163.9,119.3 C163.9,116.1 166.6,113.4 169.8,113.4 L220.2,113.4 C223.4,113.4 226.1,116.1 226.1,119.3 L226.1,198.9 C226.1,202.1 223.5,204.8 220.2,204.8 L220.2,204.8 Z" id="Shape" fill="#333333"></path>
                                </g>
                                <rect id="Rectangle-path" fill="#FFFFFF" sketch:type="MSShapeGroup" x="16.4" y="63.9" width="224.7" height="58"></rect>
                                <rect id="Rectangle-path" fill="#B3B3B3" sketch:type="MSShapeGroup" x="16.4" y="60.3" width="224.7" height="7.4"></rect>
                                <g id="Group" transform="translate(16.000000, 138.000000)" sketch:type="MSShapeGroup">
                                    <path d="M56.6,37.1 L6.2,37.1 C3,37.1 0.3,34.4 0.3,31.2 L0.3,6.7 C0.3,3.5 3,0.8 6.2,0.8 L56.6,0.8 C59.8,0.8 62.5,3.5 62.5,6.7 L62.5,31.2 C62.5,34.4 59.8,37.1 56.6,37.1 L56.6,37.1 Z" id="Shape" fill="#4D4D4D"></path>
                                    <path d="M138.4,37.1 L88,37.1 C84.8,37.1 82.1,34.4 82.1,31.2 L82.1,6.7 C82.1,3.5 84.8,0.8 88,0.8 L138.4,0.8 C141.6,0.8 144.3,3.5 144.3,6.7 L144.3,31.2 C144.3,34.4 141.6,37.1 138.4,37.1 L138.4,37.1 Z" id="Shape" fill="#4D4D4D"></path>
                                    <path d="M220.2,37.1 L169.8,37.1 C166.6,37.1 163.9,34.4 163.9,31.2 L163.9,6.7 C163.9,3.5 166.6,0.8 169.8,0.8 L220.2,0.8 C223.4,0.8 226.1,3.5 226.1,6.7 L226.1,31.2 C226.1,34.4 223.5,37.1 220.2,37.1 L220.2,37.1 Z" id="Shape" fill="#FC8442"></path>
                                    <path d="M56.6,93.1 L6.2,93.1 C3,93.1 0.3,90.4 0.3,87.2 L0.3,62.7 C0.3,59.5 3,56.8 6.2,56.8 L56.6,56.8 C59.8,56.8 62.5,59.5 62.5,62.7 L62.5,87.2 C62.5,90.4 59.8,93.1 56.6,93.1 L56.6,93.1 Z" id="Shape" fill="#4D4D4D"></path>
                                    <path d="M138.4,93.1 L88,93.1 C84.8,93.1 82.1,90.4 82.1,87.2 L82.1,62.7 C82.1,59.5 84.8,56.8 88,56.8 L138.4,56.8 C141.6,56.8 144.3,59.5 144.3,62.7 L144.3,87.2 C144.3,90.4 141.6,93.1 138.4,93.1 L138.4,93.1 Z" id="Shape" fill="#4D4D4D"></path>
                                    <path d="M220.2,93.1 L169.8,93.1 C166.6,93.1 163.9,90.4 163.9,87.2 L163.9,62.7 C163.9,59.5 166.6,56.8 169.8,56.8 L220.2,56.8 C223.4,56.8 226.1,59.5 226.1,62.7 L226.1,87.2 C226.1,90.4 223.5,93.1 220.2,93.1 L220.2,93.1 Z" id="Shape" fill="#4D4D4D"></path>
                                    <path d="M56.6,149 L6.2,149 C3,149 0.3,146.3 0.3,143.1 L0.3,118.6 C0.3,115.4 3,112.7 6.2,112.7 L56.6,112.7 C59.8,112.7 62.5,115.4 62.5,118.6 L62.5,143.1 C62.5,146.4 59.8,149 56.6,149 L56.6,149 Z" id="Shape" fill="#4D4D4D"></path>
                                    <path d="M138.4,149 L88,149 C84.8,149 82.1,146.3 82.1,143.1 L82.1,118.6 C82.1,115.4 84.8,112.7 88,112.7 L138.4,112.7 C141.6,112.7 144.3,115.4 144.3,118.6 L144.3,143.1 C144.3,146.4 141.6,149 138.4,149 L138.4,149 Z" id="Shape" fill="#4D4D4D"></path>
                                    <path d="M56.6,205 L6.2,205 C3,205 0.3,202.3 0.3,199.1 L0.3,174.6 C0.3,171.4 3,168.7 6.2,168.7 L56.6,168.7 C59.8,168.7 62.5,171.4 62.5,174.6 L62.5,199.1 C62.5,202.4 59.8,205 56.6,205 L56.6,205 Z" id="Shape" fill="#4D4D4D"></path>
                                    <path d="M138.4,205 L88,205 C84.8,205 82.1,202.3 82.1,199.1 L82.1,174.6 C82.1,171.4 84.8,168.7 88,168.7 L138.4,168.7 C141.6,168.7 144.3,171.4 144.3,174.6 L144.3,199.1 C144.3,202.4 141.6,205 138.4,205 L138.4,205 Z" id="Shape" fill="#4D4D4D"></path>
                                    <path d="M220.2,205 L169.8,205 C166.6,205 163.9,202.3 163.9,199.1 L163.9,119.5 C163.9,116.3 166.6,113.6 169.8,113.6 L220.2,113.6 C223.4,113.6 226.1,116.3 226.1,119.5 L226.1,199.1 C226.1,202.4 223.5,205 220.2,205 L220.2,205 Z" id="Shape" fill="#4D4D4D"></path>
                                </g>
                                <text id="£" fill="#000000" sketch:type="MSTextLayer" font-family="Helvetica" font-size="39.4151" font-weight="normal">
                                    <tspan x="27.8331" y="107.0928">£</tspan>
                                </text>
                                <rect id="Rectangle-path" fill="#AC29B5" sketch:type="MSShapeGroup" x="64.1" y="73.5" width="21.5" height="38.9"></rect>
                            </g>
                            <g id="Group-Copy">
                                <path d="M0.2,25.7 C0.2,19.8 5,15.1 10.8,15.1 L247.5,15.1 C253.4,15.1 258.1,19.8 258.1,25.7 L258.1,373.7 C258.1,379.6 253.3,384.3 247.5,384.3 L10.9,384.3 C5,384.3 0.3,379.6 0.3,373.7 L0.3,25.7 L0.2,25.7 Z" id="Shape" fill="#808080" sketch:type="MSShapeGroup"></path>
                                <path d="M0.2,11.4 C0.2,5.5 5,0.8 10.8,0.8 L247.5,0.8 C253.4,0.8 258.1,5.5 258.1,11.4 L258.1,359.4 C258.1,365.3 253.3,370 247.5,370 L10.9,370 C5,370 0.3,365.3 0.3,359.4 L0.3,11.4 L0.2,11.4 Z" id="Shape" fill="#A6A6A6" sketch:type="MSShapeGroup"></path>
                                <g id="Group" transform="translate(16.000000, 143.000000)" sketch:type="MSShapeGroup">
                                    <path d="M56.6,36.8 L6.2,36.8 C3,36.8 0.3,34.1 0.3,30.9 L0.3,6.4 C0.3,3.2 3,0.5 6.2,0.5 L56.6,0.5 C59.8,0.5 62.5,3.2 62.5,6.4 L62.5,30.9 C62.5,34.2 59.8,36.8 56.6,36.8 L56.6,36.8 Z" id="Shape" fill="#333333"></path>
                                    <path d="M138.4,36.8 L88,36.8 C84.8,36.8 82.1,34.1 82.1,30.9 L82.1,6.4 C82.1,3.2 84.8,0.5 88,0.5 L138.4,0.5 C141.6,0.5 144.3,3.2 144.3,6.4 L144.3,30.9 C144.3,34.2 141.6,36.8 138.4,36.8 L138.4,36.8 Z" id="Shape" fill="#333333"></path>
                                    <path d="M220.2,36.8 L169.8,36.8 C166.6,36.8 163.9,34.1 163.9,30.9 L163.9,6.4 C163.9,3.2 166.6,0.5 169.8,0.5 L220.2,0.5 C223.4,0.5 226.1,3.2 226.1,6.4 L226.1,30.9 C226.1,34.2 223.5,36.8 220.2,36.8 L220.2,36.8 Z" id="Shape" fill="#C45B2C"></path>
                                    <path d="M56.6,92.8 L6.2,92.8 C3,92.8 0.3,90.1 0.3,86.9 L0.3,62.4 C0.3,59.2 3,56.5 6.2,56.5 L56.6,56.5 C59.8,56.5 62.5,59.2 62.5,62.4 L62.5,86.9 C62.5,90.2 59.8,92.8 56.6,92.8 L56.6,92.8 Z" id="Shape" fill="#333333"></path>
                                    <path d="M138.4,92.8 L88,92.8 C84.8,92.8 82.1,90.1 82.1,86.9 L82.1,62.4 C82.1,59.2 84.8,56.5 88,56.5 L138.4,56.5 C141.6,56.5 144.3,59.2 144.3,62.4 L144.3,86.9 C144.3,90.2 141.6,92.8 138.4,92.8 L138.4,92.8 Z" id="Shape" fill="#333333"></path>
                                    <path d="M220.2,92.8 L169.8,92.8 C166.6,92.8 163.9,90.1 163.9,86.9 L163.9,62.4 C163.9,59.2 166.6,56.5 169.8,56.5 L220.2,56.5 C223.4,56.5 226.1,59.2 226.1,62.4 L226.1,86.9 C226.1,90.2 223.5,92.8 220.2,92.8 L220.2,92.8 Z" id="Shape" fill="#333333"></path>
                                    <path d="M56.6,148.8 L6.2,148.8 C3,148.8 0.3,146.1 0.3,142.9 L0.3,118.4 C0.3,115.2 3,112.5 6.2,112.5 L56.6,112.5 C59.8,112.5 62.5,115.2 62.5,118.4 L62.5,142.9 C62.5,146.2 59.8,148.8 56.6,148.8 L56.6,148.8 Z" id="Shape" fill="#333333"></path>
                                    <path d="M138.4,148.8 L88,148.8 C84.8,148.8 82.1,146.1 82.1,142.9 L82.1,118.4 C82.1,115.2 84.8,112.5 88,112.5 L138.4,112.5 C141.6,112.5 144.3,115.2 144.3,118.4 L144.3,142.9 C144.3,146.2 141.6,148.8 138.4,148.8 L138.4,148.8 Z" id="Shape" fill="#333333"></path>
                                    <path d="M56.6,204.8 L6.2,204.8 C3,204.8 0.3,202.1 0.3,198.9 L0.3,174.4 C0.3,171.2 3,168.5 6.2,168.5 L56.6,168.5 C59.8,168.5 62.5,171.2 62.5,174.4 L62.5,198.9 C62.5,202.1 59.8,204.8 56.6,204.8 L56.6,204.8 Z" id="Shape" fill="#333333"></path>
                                    <path d="M138.4,204.8 L88,204.8 C84.8,204.8 82.1,202.1 82.1,198.9 L82.1,174.4 C82.1,171.2 84.8,168.5 88,168.5 L138.4,168.5 C141.6,168.5 144.3,171.2 144.3,174.4 L144.3,198.9 C144.3,202.1 141.6,204.8 138.4,204.8 L138.4,204.8 Z" id="Shape" fill="#333333"></path>
                                    <path d="M220.2,204.8 L169.8,204.8 C166.6,204.8 163.9,202.1 163.9,198.9 L163.9,119.3 C163.9,116.1 166.6,113.4 169.8,113.4 L220.2,113.4 C223.4,113.4 226.1,116.1 226.1,119.3 L226.1,198.9 C226.1,202.1 223.5,204.8 220.2,204.8 L220.2,204.8 Z" id="Shape" fill="#333333"></path>
                                </g>
                                <rect id="Rectangle-path" fill="#FFFFFF" sketch:type="MSShapeGroup" x="16.4" y="63.9" width="224.7" height="58"></rect>
                                <rect id="Rectangle-path" fill="#B3B3B3" sketch:type="MSShapeGroup" x="16.4" y="60.3" width="224.7" height="7.4"></rect>
                                <g id="Group" transform="translate(16.000000, 138.000000)" sketch:type="MSShapeGroup">
                                    <path d="M56.6,37.1 L6.2,37.1 C3,37.1 0.3,34.4 0.3,31.2 L0.3,6.7 C0.3,3.5 3,0.8 6.2,0.8 L56.6,0.8 C59.8,0.8 62.5,3.5 62.5,6.7 L62.5,31.2 C62.5,34.4 59.8,37.1 56.6,37.1 L56.6,37.1 Z" id="Shape" fill="#4D4D4D"></path>
                                    <path d="M138.4,37.1 L88,37.1 C84.8,37.1 82.1,34.4 82.1,31.2 L82.1,6.7 C82.1,3.5 84.8,0.8 88,0.8 L138.4,0.8 C141.6,0.8 144.3,3.5 144.3,6.7 L144.3,31.2 C144.3,34.4 141.6,37.1 138.4,37.1 L138.4,37.1 Z" id="Shape" fill="#4D4D4D"></path>
                                    <path d="M220.2,37.1 L169.8,37.1 C166.6,37.1 163.9,34.4 163.9,31.2 L163.9,6.7 C163.9,3.5 166.6,0.8 169.8,0.8 L220.2,0.8 C223.4,0.8 226.1,3.5 226.1,6.7 L226.1,31.2 C226.1,34.4 223.5,37.1 220.2,37.1 L220.2,37.1 Z" id="Shape" fill="#FC8442"></path>
                                    <path d="M56.6,93.1 L6.2,93.1 C3,93.1 0.3,90.4 0.3,87.2 L0.3,62.7 C0.3,59.5 3,56.8 6.2,56.8 L56.6,56.8 C59.8,56.8 62.5,59.5 62.5,62.7 L62.5,87.2 C62.5,90.4 59.8,93.1 56.6,93.1 L56.6,93.1 Z" id="Shape" fill="#4D4D4D"></path>
                                    <path d="M138.4,93.1 L88,93.1 C84.8,93.1 82.1,90.4 82.1,87.2 L82.1,62.7 C82.1,59.5 84.8,56.8 88,56.8 L138.4,56.8 C141.6,56.8 144.3,59.5 144.3,62.7 L144.3,87.2 C144.3,90.4 141.6,93.1 138.4,93.1 L138.4,93.1 Z" id="Shape" fill="#4D4D4D"></path>
                                    <path d="M220.2,93.1 L169.8,93.1 C166.6,93.1 163.9,90.4 163.9,87.2 L163.9,62.7 C163.9,59.5 166.6,56.8 169.8,56.8 L220.2,56.8 C223.4,56.8 226.1,59.5 226.1,62.7 L226.1,87.2 C226.1,90.4 223.5,93.1 220.2,93.1 L220.2,93.1 Z" id="Shape" fill="#4D4D4D"></path>
                                    <path d="M56.6,149 L6.2,149 C3,149 0.3,146.3 0.3,143.1 L0.3,118.6 C0.3,115.4 3,112.7 6.2,112.7 L56.6,112.7 C59.8,112.7 62.5,115.4 62.5,118.6 L62.5,143.1 C62.5,146.4 59.8,149 56.6,149 L56.6,149 Z" id="Shape" fill="#4D4D4D"></path>
                                    <path d="M138.4,149 L88,149 C84.8,149 82.1,146.3 82.1,143.1 L82.1,118.6 C82.1,115.4 84.8,112.7 88,112.7 L138.4,112.7 C141.6,112.7 144.3,115.4 144.3,118.6 L144.3,143.1 C144.3,146.4 141.6,149 138.4,149 L138.4,149 Z" id="Shape" fill="#4D4D4D"></path>
                                    <path d="M56.6,205 L6.2,205 C3,205 0.3,202.3 0.3,199.1 L0.3,174.6 C0.3,171.4 3,168.7 6.2,168.7 L56.6,168.7 C59.8,168.7 62.5,171.4 62.5,174.6 L62.5,199.1 C62.5,202.4 59.8,205 56.6,205 L56.6,205 Z" id="Shape" fill="#4D4D4D"></path>
                                    <path d="M138.4,205 L88,205 C84.8,205 82.1,202.3 82.1,199.1 L82.1,174.6 C82.1,171.4 84.8,168.7 88,168.7 L138.4,168.7 C141.6,168.7 144.3,171.4 144.3,174.6 L144.3,199.1 C144.3,202.4 141.6,205 138.4,205 L138.4,205 Z" id="Shape" fill="#4D4D4D"></path>
                                    <path d="M220.2,205 L169.8,205 C166.6,205 163.9,202.3 163.9,199.1 L163.9,119.5 C163.9,116.3 166.6,113.6 169.8,113.6 L220.2,113.6 C223.4,113.6 226.1,116.3 226.1,119.5 L226.1,199.1 C226.1,202.4 223.5,205 220.2,205 L220.2,205 Z" id="Shape" fill="#4D4D4D"></path>
                                </g>
                                <text id="£" fill="#000000" sketch:type="MSTextLayer" font-family="Helvetica" font-size="39.4151" font-weight="normal">
                                    <tspan x="27.8331" y="107.0928">£</tspan>
                                </text>
                                <rect id="Rectangle-path" fill="#AC29B5" sketch:type="MSShapeGroup" x="64.1" y="73.5" width="21.5" height="38.9"></rect>
                            </g>
                            <g id="hand-shadow" transform="translate(210.000000, 262.000000)">
                                <path d="M12,18.9 C5.6,25.3 5.9,36 12.7,42.8 L24.3,54.4 L47.5,31.2 L35.9,19.6 C29.1,12.8 18.4,12.5 12,18.9 L12,18.9 Z" id="Shape" fill="#000000" sketch:type="MSShapeGroup"></path>
                                <path d="M318.4,96.4 L229.1,7.1 C229,7 228.9,6.9 228.7,6.8 C228.6,6.7 228.5,6.5 228.3,6.4 C220.5,-1.4 208.3,-1.8 200.9,5.6 C196.3,10.2 194.7,16.7 196.1,22.9 L190.2,27 C180.8,18.9 167.1,18.9 158.7,27.3 C152.1,33.9 150.7,43.8 154.3,52.3 L149.6,55.6 L149.6,55.6 C140.2,46.2 125.5,45.8 116.7,54.6 C109.7,61.6 108.5,72.5 113.1,81.3 L109,84.2 L40.2,15.4 C30.8,6 16.1,5.6 7.3,14.4 C-1.5,23.2 -1.1,37.9 8.3,47.3 L156.7,195.7 L151.5,195.9 L118,162.4 C101.4,145.8 80,146.8 65.2,160 L149.7,244.5 L150.4,244.4 C161.9,253.2 190.8,269.8 218.4,242.2 L319.6,141 C331.6,129 331,109 318.4,96.4 L318.4,96.4 Z M24.3,54.4 L12.7,42.8 C5.9,36 5.6,25.3 12,18.9 C18.4,12.5 29.1,12.8 35.9,19.6 L47.5,31.2 L24.3,54.4 L24.3,54.4 Z M92.2,186.7 L67.4,161.9 C69.6,159.7 73.2,159.8 75.5,162.1 L96.2,182.8 L92.2,186.7 L92.2,186.7 Z" id="Shape" fill="#000000" sketch:type="MSShapeGroup"></path>
                            </g>
                            <g id="Group" transform="translate(192.000000, 260.000000)">
                                <path d="M7.3,14.6 C-1.5,23.4 -1.1,38.1 8.3,47.5 L184.9,224.1 C194.3,233.4 201.5,226.4 210.3,217.6 C219.1,208.8 226.1,201.5 216.8,192.2 L40.2,15.6 C30.9,6.2 16.2,5.7 7.3,14.6 L7.3,14.6 Z" id="Shape" fill="#E0B487" sketch:type="MSShapeGroup"></path>
                                <path d="M116.8,54.8 C108,63.6 108.4,78.3 117.8,87.7 C127.2,97.1 141.9,97.5 150.7,88.7 C159.5,79.9 159.1,65.2 149.7,55.8 C140.3,46.4 125.6,45.9 116.8,54.8 L116.8,54.8 Z" id="Shape" fill="#E0B487" sketch:type="MSShapeGroup"></path>
                                <path d="M158.8,27.5 C150,36.3 150.4,51.1 159.8,60.4 C169.2,69.8 183.9,70.2 192.7,61.4 C201.5,52.6 201.1,37.9 191.7,28.5 C182.3,19.1 167.6,18.7 158.8,27.5 L158.8,27.5 Z" id="Shape" fill="#E0B487" sketch:type="MSShapeGroup"></path>
                                <path d="M200.9,5.8 C193.6,13.1 193.9,25.4 201.7,33.2 C209.5,41 221.8,41.4 229.1,34 C236.4,26.7 236.1,14.4 228.3,6.6 C220.5,-1.2 208.3,-1.5 200.9,5.8 L200.9,5.8 Z" id="Shape" fill="#E0B487" sketch:type="MSShapeGroup"></path>
                                <path d="M12,19.2 C5.6,25.6 5.9,36.3 12.7,43.1 L24.3,54.7 L47.5,31.5 L35.9,19.9 C29.1,13.1 18.4,12.8 12,19.2 L12,19.2 Z" id="Shape" fill="#EFC6A0" sketch:type="MSShapeGroup"></path>
                                <path d="M319.7,141.2 C319.7,141.2 254.1,206.8 218.5,242.4 C182.9,278 145.3,240.2 145.3,240.2 L103,197.9 L160.7,195.7 L76.6,107.1 L199.2,20.8 C211.1,8.9 216.3,-5.3 228.9,7.3 L318.2,96.6 C331,109.3 331.6,129.3 319.7,141.2 L319.7,141.2 Z" id="Shape" fill="#E0B487" sketch:type="MSShapeGroup"></path>
                            </g>
                        </g>
                    </g>
                </g>
            </g>
        </g>
    </g>
</svg>