<?xml version="1.0" encoding="UTF-8" standalone="no"?>
<svg width="423px" height="185px" viewBox="0 0 423 185" version="1.1" xmlns="http://www.w3.org/2000/svg" xmlns:xlink="http://www.w3.org/1999/xlink" xmlns:sketch="http://www.bohemiancoding.com/sketch/ns">
    <!-- Generator: Sketch 3.3.3 (12072) - http://www.bohemiancoding.com/sketch -->
    <title>Slice 1</title>
    <desc>Created with Sketch.</desc>
    <defs>
        <rect id="path-1" x="0.342064715" y="0.399503722" width="369.657935" height="229.600496"></rect>
    </defs>
    <g id="Page-1" stroke="none" stroke-width="1" fill="none" fill-rule="evenodd" sketch:type="MSPage">
        <g id="calchand" sketch:type="MSLayerGroup" transform="translate(87.000000, -18.000000)">
            <g id="Clipped">
                <mask id="mask-2" sketch:name="SVGID_1_" fill="white">
                    <use xlink:href="#path-1"></use>
                </mask>
                <g id="SVGID_1_"></g>
                <g id="Group" mask="url(#mask-2)">
                    <g transform="translate(55.870570, 18.833747)">
                        <g id="calc-shadow" opacity="0.25" transform="translate(9.000000, 10.000000)">
                            <path d="M0.114021572,14.6674938 C0.114021572,11.3002481 2.85053929,8.617866 6.15716487,8.617866 L141.101695,8.617866 C144.465331,8.617866 147.144838,11.3002481 147.144838,14.6674938 L147.144838,213.277916 C147.144838,216.645161 144.40832,219.327543 141.101695,219.327543 L6.21417565,219.327543 C2.85053929,219.327543 0.171032357,216.645161 0.171032357,213.277916 L0.171032357,14.6674938 L0.114021572,14.6674938 Z" id="Shape" fill="#808080" sketch:type="MSShapeGroup"></path>
                            <path d="M0.114021572,6.50620347 C0.114021572,3.13895782 2.85053929,0.456575682 6.15716487,0.456575682 L141.101695,0.456575682 C144.465331,0.456575682 147.144838,3.13895782 147.144838,6.50620347 L147.144838,205.116625 C147.144838,208.483871 144.40832,211.166253 141.101695,211.166253 L6.21417565,211.166253 C2.85053929,211.166253 0.171032357,208.483871 0.171032357,205.116625 L0.171032357,6.50620347 L0.114021572,6.50620347 Z" id="Shape" fill="#A6A6A6" sketch:type="MSShapeGroup"></path>
                            <g id="Group" transform="translate(9.121726, 81.612903)" sketch:type="MSShapeGroup">
                                <path d="M32.2681048,21.0024814 L3.53466872,21.0024814 C1.71032357,21.0024814 0.171032357,19.4615385 0.171032357,17.6352357 L0.171032357,3.65260546 C0.171032357,1.82630273 1.71032357,0.285359801 3.53466872,0.285359801 L32.2681048,0.285359801 C34.0924499,0.285359801 35.6317411,1.82630273 35.6317411,3.65260546 L35.6317411,17.6352357 C35.6317411,19.5186104 34.0924499,21.0024814 32.2681048,21.0024814 L32.2681048,21.0024814 Z" id="Shape" fill="#333333"></path>
                                <path d="M78.9029276,21.0024814 L50.1694915,21.0024814 C48.3451464,21.0024814 46.8058552,19.4615385 46.8058552,17.6352357 L46.8058552,3.65260546 C46.8058552,1.82630273 48.3451464,0.285359801 50.1694915,0.285359801 L78.9029276,0.285359801 C80.7272727,0.285359801 82.2665639,1.82630273 82.2665639,3.65260546 L82.2665639,17.6352357 C82.2665639,19.5186104 80.7272727,21.0024814 78.9029276,21.0024814 L78.9029276,21.0024814 Z" id="Shape" fill="#333333"></path>
                                <path d="M125.53775,21.0024814 L96.8043143,21.0024814 C94.9799692,21.0024814 93.440678,19.4615385 93.440678,17.6352357 L93.440678,3.65260546 C93.440678,1.82630273 94.9799692,0.285359801 96.8043143,0.285359801 L125.53775,0.285359801 C127.362096,0.285359801 128.901387,1.82630273 128.901387,3.65260546 L128.901387,17.6352357 C128.901387,19.5186104 127.419106,21.0024814 125.53775,21.0024814 L125.53775,21.0024814 Z" id="Shape" fill="#C45B2C"></path>
                                <path d="M32.2681048,52.9627792 L3.53466872,52.9627792 C1.71032357,52.9627792 0.171032357,51.4218362 0.171032357,49.5955335 L0.171032357,35.6129032 C0.171032357,33.7866005 1.71032357,32.2456576 3.53466872,32.2456576 L32.2681048,32.2456576 C34.0924499,32.2456576 35.6317411,33.7866005 35.6317411,35.6129032 L35.6317411,49.5955335 C35.6317411,51.4789082 34.0924499,52.9627792 32.2681048,52.9627792 L32.2681048,52.9627792 Z" id="Shape" fill="#333333"></path>
                                <path d="M78.9029276,52.9627792 L50.1694915,52.9627792 C48.3451464,52.9627792 46.8058552,51.4218362 46.8058552,49.5955335 L46.8058552,35.6129032 C46.8058552,33.7866005 48.3451464,32.2456576 50.1694915,32.2456576 L78.9029276,32.2456576 C80.7272727,32.2456576 82.2665639,33.7866005 82.2665639,35.6129032 L82.2665639,49.5955335 C82.2665639,51.4789082 80.7272727,52.9627792 78.9029276,52.9627792 L78.9029276,52.9627792 Z" id="Shape" fill="#333333"></path>
                                <path d="M125.53775,52.9627792 L96.8043143,52.9627792 C94.9799692,52.9627792 93.440678,51.4218362 93.440678,49.5955335 L93.440678,35.6129032 C93.440678,33.7866005 94.9799692,32.2456576 96.8043143,32.2456576 L125.53775,32.2456576 C127.362096,32.2456576 128.901387,33.7866005 128.901387,35.6129032 L128.901387,49.5955335 C128.901387,51.4789082 127.419106,52.9627792 125.53775,52.9627792 L125.53775,52.9627792 Z" id="Shape" fill="#333333"></path>
                                <path d="M32.2681048,84.9230769 L3.53466872,84.9230769 C1.71032357,84.9230769 0.171032357,83.382134 0.171032357,81.5558313 L0.171032357,67.573201 C0.171032357,65.7468983 1.71032357,64.2059553 3.53466872,64.2059553 L32.2681048,64.2059553 C34.0924499,64.2059553 35.6317411,65.7468983 35.6317411,67.573201 L35.6317411,81.5558313 C35.6317411,83.439206 34.0924499,84.9230769 32.2681048,84.9230769 L32.2681048,84.9230769 Z" id="Shape" fill="#333333"></path>
                                <path d="M78.9029276,84.9230769 L50.1694915,84.9230769 C48.3451464,84.9230769 46.8058552,83.382134 46.8058552,81.5558313 L46.8058552,67.573201 C46.8058552,65.7468983 48.3451464,64.2059553 50.1694915,64.2059553 L78.9029276,64.2059553 C80.7272727,64.2059553 82.2665639,65.7468983 82.2665639,67.573201 L82.2665639,81.5558313 C82.2665639,83.439206 80.7272727,84.9230769 78.9029276,84.9230769 L78.9029276,84.9230769 Z" id="Shape" fill="#333333"></path>
                                <path d="M125.53775,116.883375 L96.8043143,116.883375 C94.9799692,116.883375 93.440678,115.342432 93.440678,113.516129 L93.440678,68.0868486 C93.440678,66.2605459 94.9799692,64.719603 96.8043143,64.719603 L125.53775,64.719603 C127.362096,64.719603 128.901387,66.2605459 128.901387,68.0868486 L128.901387,113.516129 C128.901387,115.342432 127.419106,116.883375 125.53775,116.883375 L125.53775,116.883375 Z" id="Shape" fill="#333333"></path>
                            </g>
                            <rect id="Rectangle-path" fill="#FFFFFF" sketch:type="MSShapeGroup" x="9.34976888" y="36.4689826" width="128.103236" height="33.101737"></rect>
                            <rect id="Rectangle-path" fill="#B3B3B3" sketch:type="MSShapeGroup" x="9.34976888" y="34.4143921" width="128.103236" height="4.22332506"></rect>
                            <g id="Group" transform="translate(9.121726, 78.759305)" sketch:type="MSShapeGroup">
                                <path d="M32.2681048,21.1736973 L3.53466872,21.1736973 C1.71032357,21.1736973 0.171032357,19.6327543 0.171032357,17.8064516 L0.171032357,3.82382134 C0.171032357,1.99751861 1.71032357,0.456575682 3.53466872,0.456575682 L32.2681048,0.456575682 C34.0924499,0.456575682 35.6317411,1.99751861 35.6317411,3.82382134 L35.6317411,17.8064516 C35.6317411,19.6327543 34.0924499,21.1736973 32.2681048,21.1736973 L32.2681048,21.1736973 Z" id="Shape" fill="#4D4D4D"></path>
                                <path d="M78.9029276,21.1736973 L50.1694915,21.1736973 C48.3451464,21.1736973 46.8058552,19.6327543 46.8058552,17.8064516 L46.8058552,3.82382134 C46.8058552,1.99751861 48.3451464,0.456575682 50.1694915,0.456575682 L78.9029276,0.456575682 C80.7272727,0.456575682 82.2665639,1.99751861 82.2665639,3.82382134 L82.2665639,17.8064516 C82.2665639,19.6327543 80.7272727,21.1736973 78.9029276,21.1736973 L78.9029276,21.1736973 Z" id="Shape" fill="#4D4D4D"></path>
                                <path d="M125.53775,21.1736973 L96.8043143,21.1736973 C94.9799692,21.1736973 93.440678,19.6327543 93.440678,17.8064516 L93.440678,3.82382134 C93.440678,1.99751861 94.9799692,0.456575682 96.8043143,0.456575682 L125.53775,0.456575682 C127.362096,0.456575682 128.901387,1.99751861 128.901387,3.82382134 L128.901387,17.8064516 C128.901387,19.6327543 127.419106,21.1736973 125.53775,21.1736973 L125.53775,21.1736973 Z" id="Shape" fill="#FC8442"></path>
                                <path d="M32.2681048,53.133995 L3.53466872,53.133995 C1.71032357,53.133995 0.171032357,51.5930521 0.171032357,49.7667494 L0.171032357,35.7841191 C0.171032357,33.9578164 1.71032357,32.4168734 3.53466872,32.4168734 L32.2681048,32.4168734 C34.0924499,32.4168734 35.6317411,33.9578164 35.6317411,35.7841191 L35.6317411,49.7667494 C35.6317411,51.5930521 34.0924499,53.133995 32.2681048,53.133995 L32.2681048,53.133995 Z" id="Shape" fill="#4D4D4D"></path>
                                <path d="M78.9029276,53.133995 L50.1694915,53.133995 C48.3451464,53.133995 46.8058552,51.5930521 46.8058552,49.7667494 L46.8058552,35.7841191 C46.8058552,33.9578164 48.3451464,32.4168734 50.1694915,32.4168734 L78.9029276,32.4168734 C80.7272727,32.4168734 82.2665639,33.9578164 82.2665639,35.7841191 L82.2665639,49.7667494 C82.2665639,51.5930521 80.7272727,53.133995 78.9029276,53.133995 L78.9029276,53.133995 Z" id="Shape" fill="#4D4D4D"></path>
                                <path d="M125.53775,53.133995 L96.8043143,53.133995 C94.9799692,53.133995 93.440678,51.5930521 93.440678,49.7667494 L93.440678,35.7841191 C93.440678,33.9578164 94.9799692,32.4168734 96.8043143,32.4168734 L125.53775,32.4168734 C127.362096,32.4168734 128.901387,33.9578164 128.901387,35.7841191 L128.901387,49.7667494 C128.901387,51.5930521 127.419106,53.133995 125.53775,53.133995 L125.53775,53.133995 Z" id="Shape" fill="#4D4D4D"></path>
                                <path d="M32.2681048,85.0372208 L3.53466872,85.0372208 C1.71032357,85.0372208 0.171032357,83.4962779 0.171032357,81.6699752 L0.171032357,67.6873449 C0.171032357,65.8610422 1.71032357,64.3200993 3.53466872,64.3200993 L32.2681048,64.3200993 C34.0924499,64.3200993 35.6317411,65.8610422 35.6317411,67.6873449 L35.6317411,81.6699752 C35.6317411,83.5533499 34.0924499,85.0372208 32.2681048,85.0372208 L32.2681048,85.0372208 Z" id="Shape" fill="#4D4D4D"></path>
                                <path d="M78.9029276,85.0372208 L50.1694915,85.0372208 C48.3451464,85.0372208 46.8058552,83.4962779 46.8058552,81.6699752 L46.8058552,67.6873449 C46.8058552,65.8610422 48.3451464,64.3200993 50.1694915,64.3200993 L78.9029276,64.3200993 C80.7272727,64.3200993 82.2665639,65.8610422 82.2665639,67.6873449 L82.2665639,81.6699752 C82.2665639,83.5533499 80.7272727,85.0372208 78.9029276,85.0372208 L78.9029276,85.0372208 Z" id="Shape" fill="#4D4D4D"></path>
                                <path d="M125.53775,116.997519 L96.8043143,116.997519 C94.9799692,116.997519 93.440678,115.456576 93.440678,113.630273 L93.440678,68.2009926 C93.440678,66.3746898 94.9799692,64.8337469 96.8043143,64.8337469 L125.53775,64.8337469 C127.362096,64.8337469 128.901387,66.3746898 128.901387,68.2009926 L128.901387,113.630273 C128.901387,115.513648 127.419106,116.997519 125.53775,116.997519 L125.53775,116.997519 Z" id="Shape" fill="#4D4D4D"></path>
                            </g>
                            <text id="£" fill="#000000" sketch:type="MSTextLayer" font-family="Helvetica" font-size="22.4632056" font-weight="normal">
                                <tspan x="15.867869" y="60.4326154">£</tspan>
                            </text>
                            <rect id="Rectangle-path" fill="#AC29B5" sketch:type="MSShapeGroup" x="36.5439137" y="41.9478908" width="12.257319" height="22.2009926"></rect>
                        </g>
                        <g id="Group-Copy" transform="translate(0.000000, 0.000000)">
                            <path d="M0.114021572,14.6674938 C0.114021572,11.3002481 2.85053929,8.617866 6.15716487,8.617866 L141.101695,8.617866 C144.465331,8.617866 147.144838,11.3002481 147.144838,14.6674938 L147.144838,213.277916 C147.144838,216.645161 144.40832,219.327543 141.101695,219.327543 L6.21417565,219.327543 C2.85053929,219.327543 0.171032357,216.645161 0.171032357,213.277916 L0.171032357,14.6674938 L0.114021572,14.6674938 Z" id="Shape" fill="#808080" sketch:type="MSShapeGroup"></path>
                            <path d="M0.114021572,6.50620347 C0.114021572,3.13895782 2.85053929,0.456575682 6.15716487,0.456575682 L141.101695,0.456575682 C144.465331,0.456575682 147.144838,3.13895782 147.144838,6.50620347 L147.144838,205.116625 C147.144838,208.483871 144.40832,211.166253 141.101695,211.166253 L6.21417565,211.166253 C2.85053929,211.166253 0.171032357,208.483871 0.171032357,205.116625 L0.171032357,6.50620347 L0.114021572,6.50620347 Z" id="Shape" fill="#A6A6A6" sketch:type="MSShapeGroup"></path>
                            <g id="Group" transform="translate(9.121726, 81.612903)" sketch:type="MSShapeGroup">
                                <path d="M32.2681048,21.0024814 L3.53466872,21.0024814 C1.71032357,21.0024814 0.171032357,19.4615385 0.171032357,17.6352357 L0.171032357,3.65260546 C0.171032357,1.82630273 1.71032357,0.285359801 3.53466872,0.285359801 L32.2681048,0.285359801 C34.0924499,0.285359801 35.6317411,1.82630273 35.6317411,3.65260546 L35.6317411,17.6352357 C35.6317411,19.5186104 34.0924499,21.0024814 32.2681048,21.0024814 L32.2681048,21.0024814 Z" id="Shape" fill="#333333"></path>
                                <path d="M78.9029276,21.0024814 L50.1694915,21.0024814 C48.3451464,21.0024814 46.8058552,19.4615385 46.8058552,17.6352357 L46.8058552,3.65260546 C46.8058552,1.82630273 48.3451464,0.285359801 50.1694915,0.285359801 L78.9029276,0.285359801 C80.7272727,0.285359801 82.2665639,1.82630273 82.2665639,3.65260546 L82.2665639,17.6352357 C82.2665639,19.5186104 80.7272727,21.0024814 78.9029276,21.0024814 L78.9029276,21.0024814 Z" id="Shape" fill="#333333"></path>
                                <path d="M125.53775,21.0024814 L96.8043143,21.0024814 C94.9799692,21.0024814 93.440678,19.4615385 93.440678,17.6352357 L93.440678,3.65260546 C93.440678,1.82630273 94.9799692,0.285359801 96.8043143,0.285359801 L125.53775,0.285359801 C127.362096,0.285359801 128.901387,1.82630273 128.901387,3.65260546 L128.901387,17.6352357 C128.901387,19.5186104 127.419106,21.0024814 125.53775,21.0024814 L125.53775,21.0024814 Z" id="Shape" fill="#C45B2C"></path>
                                <path d="M32.2681048,52.9627792 L3.53466872,52.9627792 C1.71032357,52.9627792 0.171032357,51.4218362 0.171032357,49.5955335 L0.171032357,35.6129032 C0.171032357,33.7866005 1.71032357,32.2456576 3.53466872,32.2456576 L32.2681048,32.2456576 C34.0924499,32.2456576 35.6317411,33.7866005 35.6317411,35.6129032 L35.6317411,49.5955335 C35.6317411,51.4789082 34.0924499,52.9627792 32.2681048,52.9627792 L32.2681048,52.9627792 Z" id="Shape" fill="#333333"></path>
                                <path d="M78.9029276,52.9627792 L50.1694915,52.9627792 C48.3451464,52.9627792 46.8058552,51.4218362 46.8058552,49.5955335 L46.8058552,35.6129032 C46.8058552,33.7866005 48.3451464,32.2456576 50.1694915,32.2456576 L78.9029276,32.2456576 C80.7272727,32.2456576 82.2665639,33.7866005 82.2665639,35.6129032 L82.2665639,49.5955335 C82.2665639,51.4789082 80.7272727,52.9627792 78.9029276,52.9627792 L78.9029276,52.9627792 Z" id="Shape" fill="#333333"></path>
                                <path d="M125.53775,52.9627792 L96.8043143,52.9627792 C94.9799692,52.9627792 93.440678,51.4218362 93.440678,49.5955335 L93.440678,35.6129032 C93.440678,33.7866005 94.9799692,32.2456576 96.8043143,32.2456576 L125.53775,32.2456576 C127.362096,32.2456576 128.901387,33.7866005 128.901387,35.6129032 L128.901387,49.5955335 C128.901387,51.4789082 127.419106,52.9627792 125.53775,52.9627792 L125.53775,52.9627792 Z" id="Shape" fill="#333333"></path>
                                <path d="M32.2681048,84.9230769 L3.53466872,84.9230769 C1.71032357,84.9230769 0.171032357,83.382134 0.171032357,81.5558313 L0.171032357,67.573201 C0.171032357,65.7468983 1.71032357,64.2059553 3.53466872,64.2059553 L32.2681048,64.2059553 C34.0924499,64.2059553 35.6317411,65.7468983 35.6317411,67.573201 L35.6317411,81.5558313 C35.6317411,83.439206 34.0924499,84.9230769 32.2681048,84.9230769 L32.2681048,84.9230769 Z" id="Shape" fill="#333333"></path>
                                <path d="M78.9029276,84.9230769 L50.1694915,84.9230769 C48.3451464,84.9230769 46.8058552,83.382134 46.8058552,81.5558313 L46.8058552,67.573201 C46.8058552,65.7468983 48.3451464,64.2059553 50.1694915,64.2059553 L78.9029276,64.2059553 C80.7272727,64.2059553 82.2665639,65.7468983 82.2665639,67.573201 L82.2665639,81.5558313 C82.2665639,83.439206 80.7272727,84.9230769 78.9029276,84.9230769 L78.9029276,84.9230769 Z" id="Shape" fill="#333333"></path>
                                <path d="M32.2681048,116.883375 L3.53466872,116.883375 C1.71032357,116.883375 0.171032357,115.342432 0.171032357,113.516129 L0.171032357,99.5334988 C0.171032357,97.707196 1.71032357,96.1662531 3.53466872,96.1662531 L32.2681048,96.1662531 C34.0924499,96.1662531 35.6317411,97.707196 35.6317411,99.5334988 L35.6317411,113.516129 C35.6317411,115.342432 34.0924499,116.883375 32.2681048,116.883375 L32.2681048,116.883375 Z" id="Shape" fill="#333333"></path>
                                <path d="M78.9029276,116.883375 L50.1694915,116.883375 C48.3451464,116.883375 46.8058552,115.342432 46.8058552,113.516129 L46.8058552,99.5334988 C46.8058552,97.707196 48.3451464,96.1662531 50.1694915,96.1662531 L78.9029276,96.1662531 C80.7272727,96.1662531 82.2665639,97.707196 82.2665639,99.5334988 L82.2665639,113.516129 C82.2665639,115.342432 80.7272727,116.883375 78.9029276,116.883375 L78.9029276,116.883375 Z" id="Shape" fill="#333333"></path>
                                <path d="M125.53775,116.883375 L96.8043143,116.883375 C94.9799692,116.883375 93.440678,115.342432 93.440678,113.516129 L93.440678,68.0868486 C93.440678,66.2605459 94.9799692,64.719603 96.8043143,64.719603 L125.53775,64.719603 C127.362096,64.719603 128.901387,66.2605459 128.901387,68.0868486 L128.901387,113.516129 C128.901387,115.342432 127.419106,116.883375 125.53775,116.883375 L125.53775,116.883375 Z" id="Shape" fill="#333333"></path>
                            </g>
                            <rect id="Rectangle-path" fill="#FFFFFF" sketch:type="MSShapeGroup" x="9.34976888" y="36.4689826" width="128.103236" height="33.101737"></rect>
                            <rect id="Rectangle-path" fill="#B3B3B3" sketch:type="MSShapeGroup" x="9.34976888" y="34.4143921" width="128.103236" height="4.22332506"></rect>
                            <g id="Group" transform="translate(9.121726, 78.759305)" sketch:type="MSShapeGroup">
                                <path d="M32.2681048,21.1736973 L3.53466872,21.1736973 C1.71032357,21.1736973 0.171032357,19.6327543 0.171032357,17.8064516 L0.171032357,3.82382134 C0.171032357,1.99751861 1.71032357,0.456575682 3.53466872,0.456575682 L32.2681048,0.456575682 C34.0924499,0.456575682 35.6317411,1.99751861 35.6317411,3.82382134 L35.6317411,17.8064516 C35.6317411,19.6327543 34.0924499,21.1736973 32.2681048,21.1736973 L32.2681048,21.1736973 Z" id="Shape" fill="#4D4D4D"></path>
                                <path d="M78.9029276,21.1736973 L50.1694915,21.1736973 C48.3451464,21.1736973 46.8058552,19.6327543 46.8058552,17.8064516 L46.8058552,3.82382134 C46.8058552,1.99751861 48.3451464,0.456575682 50.1694915,0.456575682 L78.9029276,0.456575682 C80.7272727,0.456575682 82.2665639,1.99751861 82.2665639,3.82382134 L82.2665639,17.8064516 C82.2665639,19.6327543 80.7272727,21.1736973 78.9029276,21.1736973 L78.9029276,21.1736973 Z" id="Shape" fill="#4D4D4D"></path>
                                <path d="M125.53775,21.1736973 L96.8043143,21.1736973 C94.9799692,21.1736973 93.440678,19.6327543 93.440678,17.8064516 L93.440678,3.82382134 C93.440678,1.99751861 94.9799692,0.456575682 96.8043143,0.456575682 L125.53775,0.456575682 C127.362096,0.456575682 128.901387,1.99751861 128.901387,3.82382134 L128.901387,17.8064516 C128.901387,19.6327543 127.419106,21.1736973 125.53775,21.1736973 L125.53775,21.1736973 Z" id="Shape" fill="#FC8442"></path>
                                <path d="M32.2681048,53.133995 L3.53466872,53.133995 C1.71032357,53.133995 0.171032357,51.5930521 0.171032357,49.7667494 L0.171032357,35.7841191 C0.171032357,33.9578164 1.71032357,32.4168734 3.53466872,32.4168734 L32.2681048,32.4168734 C34.0924499,32.4168734 35.6317411,33.9578164 35.6317411,35.7841191 L35.6317411,49.7667494 C35.6317411,51.5930521 34.0924499,53.133995 32.2681048,53.133995 L32.2681048,53.133995 Z" id="Shape" fill="#4D4D4D"></path>
                                <path d="M78.9029276,53.133995 L50.1694915,53.133995 C48.3451464,53.133995 46.8058552,51.5930521 46.8058552,49.7667494 L46.8058552,35.7841191 C46.8058552,33.9578164 48.3451464,32.4168734 50.1694915,32.4168734 L78.9029276,32.4168734 C80.7272727,32.4168734 82.2665639,33.9578164 82.2665639,35.7841191 L82.2665639,49.7667494 C82.2665639,51.5930521 80.7272727,53.133995 78.9029276,53.133995 L78.9029276,53.133995 Z" id="Shape" fill="#4D4D4D"></path>
                                <path d="M125.53775,53.133995 L96.8043143,53.133995 C94.9799692,53.133995 93.440678,51.5930521 93.440678,49.7667494 L93.440678,35.7841191 C93.440678,33.9578164 94.9799692,32.4168734 96.8043143,32.4168734 L125.53775,32.4168734 C127.362096,32.4168734 128.901387,33.9578164 128.901387,35.7841191 L128.901387,49.7667494 C128.901387,51.5930521 127.419106,53.133995 125.53775,53.133995 L125.53775,53.133995 Z" id="Shape" fill="#4D4D4D"></path>
                                <path d="M32.2681048,85.0372208 L3.53466872,85.0372208 C1.71032357,85.0372208 0.171032357,83.4962779 0.171032357,81.6699752 L0.171032357,67.6873449 C0.171032357,65.8610422 1.71032357,64.3200993 3.53466872,64.3200993 L32.2681048,64.3200993 C34.0924499,64.3200993 35.6317411,65.8610422 35.6317411,67.6873449 L35.6317411,81.6699752 C35.6317411,83.5533499 34.0924499,85.0372208 32.2681048,85.0372208 L32.2681048,85.0372208 Z" id="Shape" fill="#4D4D4D"></path>
                                <path d="M78.9029276,85.0372208 L50.1694915,85.0372208 C48.3451464,85.0372208 46.8058552,83.4962779 46.8058552,81.6699752 L46.8058552,67.6873449 C46.8058552,65.8610422 48.3451464,64.3200993 50.1694915,64.3200993 L78.9029276,64.3200993 C80.7272727,64.3200993 82.2665639,65.8610422 82.2665639,67.6873449 L82.2665639,81.6699752 C82.2665639,83.5533499 80.7272727,85.0372208 78.9029276,85.0372208 L78.9029276,85.0372208 Z" id="Shape" fill="#4D4D4D"></path>
                                <path d="M32.2681048,116.997519 L3.53466872,116.997519 C1.71032357,116.997519 0.171032357,115.456576 0.171032357,113.630273 L0.171032357,99.6476427 C0.171032357,97.82134 1.71032357,96.280397 3.53466872,96.280397 L32.2681048,96.280397 C34.0924499,96.280397 35.6317411,97.82134 35.6317411,99.6476427 L35.6317411,113.630273 C35.6317411,115.513648 34.0924499,116.997519 32.2681048,116.997519 L32.2681048,116.997519 Z" id="Shape" fill="#4D4D4D"></path>
                                <path d="M78.9029276,116.997519 L50.1694915,116.997519 C48.3451464,116.997519 46.8058552,115.456576 46.8058552,113.630273 L46.8058552,99.6476427 C46.8058552,97.82134 48.3451464,96.280397 50.1694915,96.280397 L78.9029276,96.280397 C80.7272727,96.280397 82.2665639,97.82134 82.2665639,99.6476427 L82.2665639,113.630273 C82.2665639,115.513648 80.7272727,116.997519 78.9029276,116.997519 L78.9029276,116.997519 Z" id="Shape" fill="#4D4D4D"></path>
                                <path d="M125.53775,116.997519 L96.8043143,116.997519 C94.9799692,116.997519 93.440678,115.456576 93.440678,113.630273 L93.440678,68.2009926 C93.440678,66.3746898 94.9799692,64.8337469 96.8043143,64.8337469 L125.53775,64.8337469 C127.362096,64.8337469 128.901387,66.3746898 128.901387,68.2009926 L128.901387,113.630273 C128.901387,115.513648 127.419106,116.997519 125.53775,116.997519 L125.53775,116.997519 Z" id="Shape" fill="#4D4D4D"></path>
                            </g>
                            <text id="£" fill="#000000" sketch:type="MSTextLayer" font-family="Helvetica" font-size="22.4632056" font-weight="normal">
                                <tspan x="15.867869" y="60.4326154">£</tspan>
                            </text>
                            <rect id="Rectangle-path" fill="#AC29B5" sketch:type="MSShapeGroup" x="36.5439137" y="41.9478908" width="12.257319" height="22.2009926"></rect>
                        </g>
                        <g id="hand-shadow" opacity="0.05" transform="translate(119.722650, 149.528536)">
                            <path d="M6.8412943,10.7866005 C3.19260401,14.439206 3.36363636,20.5459057 7.2403698,24.426799 L13.853621,31.0471464 L27.0801233,17.8064516 L20.4668721,11.1861042 C16.5901387,7.30521092 10.4899846,7.13399504 6.8412943,10.7866005 L6.8412943,10.7866005 Z" id="Shape" fill="#000000" sketch:type="MSShapeGroup"></path>
                            <path d="M181.522342,55.0173697 L130.61171,4.05210918 C130.5547,3.99503722 130.497689,3.93796526 130.383667,3.8808933 C130.326656,3.82382134 130.269646,3.70967742 130.155624,3.65260546 C125.708783,-0.799007444 118.753467,-1.02729529 114.534669,3.19602978 C111.912173,5.82133995 111,9.53101737 111.798151,13.0694789 L108.434515,15.4094293 C103.075501,10.7866005 95.2650231,10.7866005 90.4761171,15.5806452 C86.7134052,19.3473945 85.9152542,24.9975186 87.9676425,29.8486352 L85.2881356,31.7320099 L85.2881356,31.7320099 C79.9291217,26.3672457 71.5485362,26.1389578 66.5315871,31.1612903 C62.540832,35.1563275 61.8567026,41.3771712 64.4791988,46.3995037 L62.1417565,48.0545906 C41.1617874,27.0521092 22.9183359,8.78908189 22.9183359,8.78908189 C17.559322,3.42431762 9.17873652,3.19602978 4.16178737,8.21836228 C-0.855161787,13.2406948 -0.627118644,21.630273 4.73189522,26.9950372 C4.73189522,26.9950372 60.8875193,83.2109181 89.3359014,111.689826 L86.3713405,111.80397 L67.2727273,92.6848635 C57.8089368,83.2109181 45.6086287,83.7816377 37.1710324,91.3151365 L85.3451464,139.540943 L85.7442219,139.483871 C92.3004622,144.506203 108.776579,153.980149 124.511556,138.228288 C144.807396,117.91067 182.206471,80.471464 182.206471,80.471464 C189.047766,73.6228288 188.705701,62.2084367 181.522342,55.0173697 L181.522342,55.0173697 Z M13.853621,31.0471464 L7.2403698,24.426799 C3.36363636,20.5459057 3.19260401,14.439206 6.8412943,10.7866005 C10.4899846,7.13399504 16.5901387,7.30521092 20.4668721,11.1861042 L27.0801233,17.8064516 L13.853621,31.0471464 L13.853621,31.0471464 Z M52.5639445,106.55335 L38.4252696,92.3995037 C39.6795069,91.1439206 41.7318952,91.2009926 43.0431433,92.5136476 L54.844376,104.327543 L52.5639445,106.55335 L52.5639445,106.55335 Z" id="Shape" fill="#000000" sketch:type="MSShapeGroup"></path>
                        </g>
                        <g id="Group" transform="translate(109.460709, 148.387097)">
                            <path d="M4.16178737,8.3325062 C-0.855161787,13.3548387 -0.627118644,21.7444169 4.73189522,27.1091811 L105.412943,127.898263 C110.771957,133.205955 114.876733,129.210918 119.893683,124.188586 C124.910632,119.166253 128.901387,115 123.599384,109.692308 L22.9183359,8.90322581 C17.6163328,3.53846154 9.2357473,3.25310174 4.16178737,8.3325062 L4.16178737,8.3325062 Z" id="Shape" fill="#E0B487" sketch:type="MSShapeGroup"></path>
                            <path d="M66.5885978,31.2754342 C61.5716487,36.2977667 61.7996918,44.6873449 67.1587057,50.0521092 C72.5177196,55.4168734 80.8983051,55.6451613 85.9152542,50.6228288 C90.9322034,45.6004963 90.7041602,37.2109181 85.3451464,31.8461538 C79.9861325,26.4813896 71.605547,26.1960298 66.5885978,31.2754342 L66.5885978,31.2754342 Z" id="Shape" fill="#E0B487" sketch:type="MSShapeGroup"></path>
                            <path d="M90.5331279,15.6947891 C85.5161787,20.7171216 85.7442219,29.1637717 91.1032357,34.471464 C96.4622496,39.8362283 104.842835,40.0645161 109.859784,35.0421836 C114.876733,30.0198511 114.64869,21.630273 109.289676,16.2655087 C103.930663,10.9007444 95.550077,10.6724566 90.5331279,15.6947891 L90.5331279,15.6947891 Z" id="Shape" fill="#E0B487" sketch:type="MSShapeGroup"></path>
                            <path d="M114.534669,3.3101737 C110.372881,7.4764268 110.543914,14.4962779 114.990755,18.9478908 C119.437596,23.3995037 126.449923,23.6277916 130.61171,19.4044665 C134.773498,15.2382134 134.602465,8.21836228 130.155624,3.76674938 C125.708783,-0.684863524 118.753467,-0.856079404 114.534669,3.3101737 L114.534669,3.3101737 Z" id="Shape" fill="#E0B487" sketch:type="MSShapeGroup"></path>
                            <path d="M6.8412943,10.9578164 C3.19260401,14.6104218 3.36363636,20.7171216 7.2403698,24.5980149 L13.853621,31.2183623 L27.0801233,17.9776675 L20.4668721,11.3573201 C16.5901387,7.4764268 10.4899846,7.30521092 6.8412943,10.9578164 L6.8412943,10.9578164 Z" id="Shape" fill="#EFC6A0" sketch:type="MSShapeGroup"></path>
                            <path d="M182.263482,80.5856079 C182.263482,80.5856079 144.864407,118.024814 124.568567,138.342432 C104.272727,158.66005 82.8366718,137.086849 82.8366718,137.086849 L58.7211094,112.945409 L91.6163328,111.689826 L43.6702619,61.1240695 L113.565485,11.8709677 C120.349769,5.07940447 123.31433,-3.0248139 130.497689,4.1662531 L181.40832,55.1315136 C188.705701,62.3796526 189.047766,73.7940447 182.263482,80.5856079 L182.263482,80.5856079 Z" id="Shape" fill="#E0B487" sketch:type="MSShapeGroup"></path>
                        </g>
                    </g>
                </g>
            </g>
        </g>
    </g>
</svg>