<?xml version="1.0" encoding="UTF-8" standalone="no"?>
<svg width="394px" height="215px" viewBox="0 0 394 215" version="1.1" xmlns="http://www.w3.org/2000/svg" xmlns:xlink="http://www.w3.org/1999/xlink" xmlns:sketch="http://www.bohemiancoding.com/sketch/ns">
    <!-- Generator: Sketch 3.3.3 (12072) - http://www.bohemiancoding.com/sketch -->
    <title>Slice 1</title>
    <desc>Created with Sketch.</desc>
    <defs>
        <rect id="path-1" x="0.359141567" y="0.419632818" width="388.11232" height="241.168975"></rect>
    </defs>
    <g id="Page-1" stroke="none" stroke-width="1" fill="none" fill-rule="evenodd" sketch:type="MSPage">
        <g id="calchand" sketch:type="MSLayerGroup" transform="translate(-55.000000, -1.000000)">
            <g id="Clipped">
                <g>
                    <mask id="mask-2" sketch:name="SVGID_1_" fill="white">
                        <use xlink:href="#path-1"></use>
                    </mask>
                    <g id="SVGID_1_"></g>
                    <g id="Group" mask="url(#mask-2)">
                        <g transform="translate(57.662174, 18.783564)">
                            <g id="calc-shadow" opacity="0.25" transform="translate(6.983308, 6.993880)">
                                <path d="M0.119713856,15.4065192 C0.119713856,11.869614 2.99284639,9.05207936 6.46454821,9.05207936 L148.145896,9.05207936 C151.677455,9.05207936 154.490731,11.869614 154.490731,15.4065192 L154.490731,224.023977 C154.490731,227.560882 151.617598,230.378417 148.145896,230.378417 L6.52440513,230.378417 C2.99284639,230.378417 0.179570783,227.560882 0.179570783,224.023977 L0.179570783,15.4065192 L0.119713856,15.4065192 Z" id="Shape" fill="#808080" sketch:type="MSShapeGroup"></path>
                                <path d="M0.119713856,6.83402018 C0.119713856,3.297115 2.99284639,0.479580363 6.46454821,0.479580363 L148.145896,0.479580363 C151.677455,0.479580363 154.490731,3.297115 154.490731,6.83402018 L154.490731,215.451478 C154.490731,218.988383 151.617598,221.805918 148.145896,221.805918 L6.52440513,221.805918 C2.99284639,221.805918 0.179570783,218.988383 0.179570783,215.451478 L0.179570783,6.83402018 L0.119713856,6.83402018 Z" id="Shape" fill="#A6A6A6" sketch:type="MSShapeGroup"></path>
                                <g id="Group" transform="translate(9.577108, 85.724990)" sketch:type="MSShapeGroup">
                                    <path d="M33.8790211,22.0606967 L3.71112953,22.0606967 C1.79570783,22.0606967 0.179570783,20.442113 0.179570783,18.5237915 L0.179570783,3.83664291 C0.179570783,1.91832145 1.79570783,0.299737727 3.71112953,0.299737727 L33.8790211,0.299737727 C35.7944428,0.299737727 37.4105799,1.91832145 37.4105799,3.83664291 L37.4105799,18.5237915 C37.4105799,20.5020605 35.7944428,22.0606967 33.8790211,22.0606967 L33.8790211,22.0606967 Z" id="Shape" fill="#333333"></path>
                                    <path d="M82.8419881,22.0606967 L52.6740965,22.0606967 C50.7586748,22.0606967 49.1425377,20.442113 49.1425377,18.5237915 L49.1425377,3.83664291 C49.1425377,1.91832145 50.7586748,0.299737727 52.6740965,0.299737727 L82.8419881,0.299737727 C84.7574098,0.299737727 86.3735469,1.91832145 86.3735469,3.83664291 L86.3735469,18.5237915 C86.3735469,20.5020605 84.7574098,22.0606967 82.8419881,22.0606967 L82.8419881,22.0606967 Z" id="Shape" fill="#333333"></path>
                                    <path d="M131.804955,22.0606967 L101.637063,22.0606967 C99.7216418,22.0606967 98.1055047,20.442113 98.1055047,18.5237915 L98.1055047,3.83664291 C98.1055047,1.91832145 99.7216418,0.299737727 101.637063,0.299737727 L131.804955,0.299737727 C133.720377,0.299737727 135.336514,1.91832145 135.336514,3.83664291 L135.336514,18.5237915 C135.336514,20.5020605 133.780234,22.0606967 131.804955,22.0606967 L131.804955,22.0606967 Z" id="Shape" fill="#C45B2C"></path>
                                    <path d="M33.8790211,55.6313221 L3.71112953,55.6313221 C1.79570783,55.6313221 0.179570783,54.0127384 0.179570783,52.094417 L0.179570783,37.4072683 C0.179570783,35.4889469 1.79570783,33.8703632 3.71112953,33.8703632 L33.8790211,33.8703632 C35.7944428,33.8703632 37.4105799,35.4889469 37.4105799,37.4072683 L37.4105799,52.094417 C37.4105799,54.072686 35.7944428,55.6313221 33.8790211,55.6313221 L33.8790211,55.6313221 Z" id="Shape" fill="#333333"></path>
                                    <path d="M82.8419881,55.6313221 L52.6740965,55.6313221 C50.7586748,55.6313221 49.1425377,54.0127384 49.1425377,52.094417 L49.1425377,37.4072683 C49.1425377,35.4889469 50.7586748,33.8703632 52.6740965,33.8703632 L82.8419881,33.8703632 C84.7574098,33.8703632 86.3735469,35.4889469 86.3735469,37.4072683 L86.3735469,52.094417 C86.3735469,54.072686 84.7574098,55.6313221 82.8419881,55.6313221 L82.8419881,55.6313221 Z" id="Shape" fill="#333333"></path>
                                    <path d="M131.804955,55.6313221 L101.637063,55.6313221 C99.7216418,55.6313221 98.1055047,54.0127384 98.1055047,52.094417 L98.1055047,37.4072683 C98.1055047,35.4889469 99.7216418,33.8703632 101.637063,33.8703632 L131.804955,33.8703632 C133.720377,33.8703632 135.336514,35.4889469 135.336514,37.4072683 L135.336514,52.094417 C135.336514,54.072686 133.780234,55.6313221 131.804955,55.6313221 L131.804955,55.6313221 Z" id="Shape" fill="#333333"></path>
                                    <path d="M33.8790211,89.2019476 L3.71112953,89.2019476 C1.79570783,89.2019476 0.179570783,87.5833638 0.179570783,85.6650424 L0.179570783,70.9778938 C0.179570783,69.0595723 1.79570783,67.4409886 3.71112953,67.4409886 L33.8790211,67.4409886 C35.7944428,67.4409886 37.4105799,69.0595723 37.4105799,70.9778938 L37.4105799,85.6650424 C37.4105799,87.6433114 35.7944428,89.2019476 33.8790211,89.2019476 L33.8790211,89.2019476 Z" id="Shape" fill="#333333"></path>
                                    <path d="M82.8419881,89.2019476 L52.6740965,89.2019476 C50.7586748,89.2019476 49.1425377,87.5833638 49.1425377,85.6650424 L49.1425377,70.9778938 C49.1425377,69.0595723 50.7586748,67.4409886 52.6740965,67.4409886 L82.8419881,67.4409886 C84.7574098,67.4409886 86.3735469,69.0595723 86.3735469,70.9778938 L86.3735469,85.6650424 C86.3735469,87.6433114 84.7574098,89.2019476 82.8419881,89.2019476 L82.8419881,89.2019476 Z" id="Shape" fill="#333333"></path>
                                    <path d="M33.8790211,122.772573 L3.71112953,122.772573 C1.79570783,122.772573 0.179570783,121.153989 0.179570783,119.235668 L0.179570783,104.548519 C0.179570783,102.630198 1.79570783,101.011614 3.71112953,101.011614 L33.8790211,101.011614 C35.7944428,101.011614 37.4105799,102.630198 37.4105799,104.548519 L37.4105799,119.235668 C37.4105799,121.153989 35.7944428,122.772573 33.8790211,122.772573 L33.8790211,122.772573 Z" id="Shape" fill="#333333"></path>
                                    <path d="M82.8419881,122.772573 L52.6740965,122.772573 C50.7586748,122.772573 49.1425377,121.153989 49.1425377,119.235668 L49.1425377,104.548519 C49.1425377,102.630198 50.7586748,101.011614 52.6740965,101.011614 L82.8419881,101.011614 C84.7574098,101.011614 86.3735469,102.630198 86.3735469,104.548519 L86.3735469,119.235668 C86.3735469,121.153989 84.7574098,122.772573 82.8419881,122.772573 L82.8419881,122.772573 Z" id="Shape" fill="#333333"></path>
                                    <path d="M131.804955,122.772573 L101.637063,122.772573 C99.7216418,122.772573 98.1055047,121.153989 98.1055047,119.235668 L98.1055047,71.5174217 C98.1055047,69.5991002 99.7216418,67.9805165 101.637063,67.9805165 L131.804955,67.9805165 C133.720377,67.9805165 135.336514,69.5991002 135.336514,71.5174217 L135.336514,119.235668 C135.336514,121.153989 133.780234,122.772573 131.804955,122.772573 L131.804955,122.772573 Z" id="Shape" fill="#333333"></path>
                                </g>
                                <rect id="Rectangle-path" fill="#FFFFFF" sketch:type="MSShapeGroup" x="9.81653616" y="38.3064815" width="134.498517" height="34.7695763"></rect>
                                <rect id="Rectangle-path" fill="#B3B3B3" sketch:type="MSShapeGroup" x="9.81653616" y="36.1483699" width="134.498517" height="4.43611836"></rect>
                                <g id="Group" transform="translate(9.577108, 82.727613)" sketch:type="MSShapeGroup">
                                    <path d="M33.8790211,22.2405393 L3.71112953,22.2405393 C1.79570783,22.2405393 0.179570783,20.6219556 0.179570783,18.7036342 L0.179570783,4.01648554 C0.179570783,2.09816409 1.79570783,0.479580363 3.71112953,0.479580363 L33.8790211,0.479580363 C35.7944428,0.479580363 37.4105799,2.09816409 37.4105799,4.01648554 L37.4105799,18.7036342 C37.4105799,20.6219556 35.7944428,22.2405393 33.8790211,22.2405393 L33.8790211,22.2405393 Z" id="Shape" fill="#4D4D4D"></path>
                                    <path d="M82.8419881,22.2405393 L52.6740965,22.2405393 C50.7586748,22.2405393 49.1425377,20.6219556 49.1425377,18.7036342 L49.1425377,4.01648554 C49.1425377,2.09816409 50.7586748,0.479580363 52.6740965,0.479580363 L82.8419881,0.479580363 C84.7574098,0.479580363 86.3735469,2.09816409 86.3735469,4.01648554 L86.3735469,18.7036342 C86.3735469,20.6219556 84.7574098,22.2405393 82.8419881,22.2405393 L82.8419881,22.2405393 Z" id="Shape" fill="#4D4D4D"></path>
                                    <path d="M131.804955,22.2405393 L101.637063,22.2405393 C99.7216418,22.2405393 98.1055047,20.6219556 98.1055047,18.7036342 L98.1055047,4.01648554 C98.1055047,2.09816409 99.7216418,0.479580363 101.637063,0.479580363 L131.804955,0.479580363 C133.720377,0.479580363 135.336514,2.09816409 135.336514,4.01648554 L135.336514,18.7036342 C135.336514,20.6219556 133.780234,22.2405393 131.804955,22.2405393 L131.804955,22.2405393 Z" id="Shape" fill="#FC8442"></path>
                                    <path d="M33.8790211,55.8111648 L3.71112953,55.8111648 C1.79570783,55.8111648 0.179570783,54.192581 0.179570783,52.2742596 L0.179570783,37.587111 C0.179570783,35.6687895 1.79570783,34.0502058 3.71112953,34.0502058 L33.8790211,34.0502058 C35.7944428,34.0502058 37.4105799,35.6687895 37.4105799,37.587111 L37.4105799,52.2742596 C37.4105799,54.192581 35.7944428,55.8111648 33.8790211,55.8111648 L33.8790211,55.8111648 Z" id="Shape" fill="#4D4D4D"></path>
                                    <path d="M82.8419881,55.8111648 L52.6740965,55.8111648 C50.7586748,55.8111648 49.1425377,54.192581 49.1425377,52.2742596 L49.1425377,37.587111 C49.1425377,35.6687895 50.7586748,34.0502058 52.6740965,34.0502058 L82.8419881,34.0502058 C84.7574098,34.0502058 86.3735469,35.6687895 86.3735469,37.587111 L86.3735469,52.2742596 C86.3735469,54.192581 84.7574098,55.8111648 82.8419881,55.8111648 L82.8419881,55.8111648 Z" id="Shape" fill="#4D4D4D"></path>
                                    <path d="M131.804955,55.8111648 L101.637063,55.8111648 C99.7216418,55.8111648 98.1055047,54.192581 98.1055047,52.2742596 L98.1055047,37.587111 C98.1055047,35.6687895 99.7216418,34.0502058 101.637063,34.0502058 L131.804955,34.0502058 C133.720377,34.0502058 135.336514,35.6687895 135.336514,37.587111 L135.336514,52.2742596 C135.336514,54.192581 133.780234,55.8111648 131.804955,55.8111648 L131.804955,55.8111648 Z" id="Shape" fill="#4D4D4D"></path>
                                    <path d="M33.8790211,89.3218426 L3.71112953,89.3218426 C1.79570783,89.3218426 0.179570783,87.7032589 0.179570783,85.7849375 L0.179570783,71.0977888 C0.179570783,69.1794674 1.79570783,67.5608837 3.71112953,67.5608837 L33.8790211,67.5608837 C35.7944428,67.5608837 37.4105799,69.1794674 37.4105799,71.0977888 L37.4105799,85.7849375 C37.4105799,87.7632065 35.7944428,89.3218426 33.8790211,89.3218426 L33.8790211,89.3218426 Z" id="Shape" fill="#4D4D4D"></path>
                                    <path d="M82.8419881,89.3218426 L52.6740965,89.3218426 C50.7586748,89.3218426 49.1425377,87.7032589 49.1425377,85.7849375 L49.1425377,71.0977888 C49.1425377,69.1794674 50.7586748,67.5608837 52.6740965,67.5608837 L82.8419881,67.5608837 C84.7574098,67.5608837 86.3735469,69.1794674 86.3735469,71.0977888 L86.3735469,85.7849375 C86.3735469,87.7632065 84.7574098,89.3218426 82.8419881,89.3218426 L82.8419881,89.3218426 Z" id="Shape" fill="#4D4D4D"></path>
                                    <path d="M33.8790211,122.892468 L3.71112953,122.892468 C1.79570783,122.892468 0.179570783,121.273884 0.179570783,119.355563 L0.179570783,104.668414 C0.179570783,102.750093 1.79570783,101.131509 3.71112953,101.131509 L33.8790211,101.131509 C35.7944428,101.131509 37.4105799,102.750093 37.4105799,104.668414 L37.4105799,119.355563 C37.4105799,121.333832 35.7944428,122.892468 33.8790211,122.892468 L33.8790211,122.892468 Z" id="Shape" fill="#4D4D4D"></path>
                                    <path d="M82.8419881,122.892468 L52.6740965,122.892468 C50.7586748,122.892468 49.1425377,121.273884 49.1425377,119.355563 L49.1425377,104.668414 C49.1425377,102.750093 50.7586748,101.131509 52.6740965,101.131509 L82.8419881,101.131509 C84.7574098,101.131509 86.3735469,102.750093 86.3735469,104.668414 L86.3735469,119.355563 C86.3735469,121.333832 84.7574098,122.892468 82.8419881,122.892468 L82.8419881,122.892468 Z" id="Shape" fill="#4D4D4D"></path>
                                    <path d="M131.804955,122.892468 L101.637063,122.892468 C99.7216418,122.892468 98.1055047,121.273884 98.1055047,119.355563 L98.1055047,71.6373168 C98.1055047,69.7189953 99.7216418,68.1004116 101.637063,68.1004116 L131.804955,68.1004116 C133.720377,68.1004116 135.336514,69.7189953 135.336514,71.6373168 L135.336514,119.355563 C135.336514,121.333832 133.780234,122.892468 131.804955,122.892468 L131.804955,122.892468 Z" id="Shape" fill="#4D4D4D"></path>
                                </g>
                                <text id="£" fill="#000000" sketch:type="MSTextLayer" font-family="Helvetica" font-size="39.3211128" font-weight="normal">
                                    <tspan x="16.6600386" y="79.4194376">£</tspan>
                                </text>
                                <rect id="Rectangle-path" fill="#AC29B5" sketch:type="MSShapeGroup" x="38.3682907" y="44.0614459" width="12.8692395" height="23.3195952"></rect>
                            </g>
                            <g id="Group-Copy" transform="translate(0.997615, 0.999126)">
                                <path d="M0.119713856,15.4065192 C0.119713856,11.869614 2.99284639,9.05207936 6.46454821,9.05207936 L148.145896,9.05207936 C151.677455,9.05207936 154.490731,11.869614 154.490731,15.4065192 L154.490731,224.023977 C154.490731,227.560882 151.617598,230.378417 148.145896,230.378417 L6.52440513,230.378417 C2.99284639,230.378417 0.179570783,227.560882 0.179570783,224.023977 L0.179570783,15.4065192 L0.119713856,15.4065192 Z" id="Shape" fill="#808080" sketch:type="MSShapeGroup"></path>
                                <path d="M0.119713856,6.83402018 C0.119713856,3.297115 2.99284639,0.479580363 6.46454821,0.479580363 L148.145896,0.479580363 C151.677455,0.479580363 154.490731,3.297115 154.490731,6.83402018 L154.490731,215.451478 C154.490731,218.988383 151.617598,221.805918 148.145896,221.805918 L6.52440513,221.805918 C2.99284639,221.805918 0.179570783,218.988383 0.179570783,215.451478 L0.179570783,6.83402018 L0.119713856,6.83402018 Z" id="Shape" fill="#A6A6A6" sketch:type="MSShapeGroup"></path>
                                <g id="Group" transform="translate(9.577108, 85.724990)" sketch:type="MSShapeGroup">
                                    <path d="M33.8790211,22.0606967 L3.71112953,22.0606967 C1.79570783,22.0606967 0.179570783,20.442113 0.179570783,18.5237915 L0.179570783,3.83664291 C0.179570783,1.91832145 1.79570783,0.299737727 3.71112953,0.299737727 L33.8790211,0.299737727 C35.7944428,0.299737727 37.4105799,1.91832145 37.4105799,3.83664291 L37.4105799,18.5237915 C37.4105799,20.5020605 35.7944428,22.0606967 33.8790211,22.0606967 L33.8790211,22.0606967 Z" id="Shape" fill="#333333"></path>
                                    <path d="M82.8419881,22.0606967 L52.6740965,22.0606967 C50.7586748,22.0606967 49.1425377,20.442113 49.1425377,18.5237915 L49.1425377,3.83664291 C49.1425377,1.91832145 50.7586748,0.299737727 52.6740965,0.299737727 L82.8419881,0.299737727 C84.7574098,0.299737727 86.3735469,1.91832145 86.3735469,3.83664291 L86.3735469,18.5237915 C86.3735469,20.5020605 84.7574098,22.0606967 82.8419881,22.0606967 L82.8419881,22.0606967 Z" id="Shape" fill="#333333"></path>
                                    <path d="M131.804955,22.0606967 L101.637063,22.0606967 C99.7216418,22.0606967 98.1055047,20.442113 98.1055047,18.5237915 L98.1055047,3.83664291 C98.1055047,1.91832145 99.7216418,0.299737727 101.637063,0.299737727 L131.804955,0.299737727 C133.720377,0.299737727 135.336514,1.91832145 135.336514,3.83664291 L135.336514,18.5237915 C135.336514,20.5020605 133.780234,22.0606967 131.804955,22.0606967 L131.804955,22.0606967 Z" id="Shape" fill="#C45B2C"></path>
                                    <path d="M33.8790211,55.6313221 L3.71112953,55.6313221 C1.79570783,55.6313221 0.179570783,54.0127384 0.179570783,52.094417 L0.179570783,37.4072683 C0.179570783,35.4889469 1.79570783,33.8703632 3.71112953,33.8703632 L33.8790211,33.8703632 C35.7944428,33.8703632 37.4105799,35.4889469 37.4105799,37.4072683 L37.4105799,52.094417 C37.4105799,54.072686 35.7944428,55.6313221 33.8790211,55.6313221 L33.8790211,55.6313221 Z" id="Shape" fill="#333333"></path>
                                    <path d="M82.8419881,55.6313221 L52.6740965,55.6313221 C50.7586748,55.6313221 49.1425377,54.0127384 49.1425377,52.094417 L49.1425377,37.4072683 C49.1425377,35.4889469 50.7586748,33.8703632 52.6740965,33.8703632 L82.8419881,33.8703632 C84.7574098,33.8703632 86.3735469,35.4889469 86.3735469,37.4072683 L86.3735469,52.094417 C86.3735469,54.072686 84.7574098,55.6313221 82.8419881,55.6313221 L82.8419881,55.6313221 Z" id="Shape" fill="#333333"></path>
                                    <path d="M131.804955,55.6313221 L101.637063,55.6313221 C99.7216418,55.6313221 98.1055047,54.0127384 98.1055047,52.094417 L98.1055047,37.4072683 C98.1055047,35.4889469 99.7216418,33.8703632 101.637063,33.8703632 L131.804955,33.8703632 C133.720377,33.8703632 135.336514,35.4889469 135.336514,37.4072683 L135.336514,52.094417 C135.336514,54.072686 133.780234,55.6313221 131.804955,55.6313221 L131.804955,55.6313221 Z" id="Shape" fill="#333333"></path>
                                    <path d="M33.8790211,89.2019476 L3.71112953,89.2019476 C1.79570783,89.2019476 0.179570783,87.5833638 0.179570783,85.6650424 L0.179570783,70.9778938 C0.179570783,69.0595723 1.79570783,67.4409886 3.71112953,67.4409886 L33.8790211,67.4409886 C35.7944428,67.4409886 37.4105799,69.0595723 37.4105799,70.9778938 L37.4105799,85.6650424 C37.4105799,87.6433114 35.7944428,89.2019476 33.8790211,89.2019476 L33.8790211,89.2019476 Z" id="Shape" fill="#333333"></path>
                                    <path d="M82.8419881,89.2019476 L52.6740965,89.2019476 C50.7586748,89.2019476 49.1425377,87.5833638 49.1425377,85.6650424 L49.1425377,70.9778938 C49.1425377,69.0595723 50.7586748,67.4409886 52.6740965,67.4409886 L82.8419881,67.4409886 C84.7574098,67.4409886 86.3735469,69.0595723 86.3735469,70.9778938 L86.3735469,85.6650424 C86.3735469,87.6433114 84.7574098,89.2019476 82.8419881,89.2019476 L82.8419881,89.2019476 Z" id="Shape" fill="#333333"></path>
                                    <path d="M33.8790211,122.772573 L3.71112953,122.772573 C1.79570783,122.772573 0.179570783,121.153989 0.179570783,119.235668 L0.179570783,104.548519 C0.179570783,102.630198 1.79570783,101.011614 3.71112953,101.011614 L33.8790211,101.011614 C35.7944428,101.011614 37.4105799,102.630198 37.4105799,104.548519 L37.4105799,119.235668 C37.4105799,121.153989 35.7944428,122.772573 33.8790211,122.772573 L33.8790211,122.772573 Z" id="Shape" fill="#333333"></path>
                                    <path d="M82.8419881,122.772573 L52.6740965,122.772573 C50.7586748,122.772573 49.1425377,121.153989 49.1425377,119.235668 L49.1425377,104.548519 C49.1425377,102.630198 50.7586748,101.011614 52.6740965,101.011614 L82.8419881,101.011614 C84.7574098,101.011614 86.3735469,102.630198 86.3735469,104.548519 L86.3735469,119.235668 C86.3735469,121.153989 84.7574098,122.772573 82.8419881,122.772573 L82.8419881,122.772573 Z" id="Shape" fill="#333333"></path>
                                    <path d="M131.804955,122.772573 L101.637063,122.772573 C99.7216418,122.772573 98.1055047,121.153989 98.1055047,119.235668 L98.1055047,71.5174217 C98.1055047,69.5991002 99.7216418,67.9805165 101.637063,67.9805165 L131.804955,67.9805165 C133.720377,67.9805165 135.336514,69.5991002 135.336514,71.5174217 L135.336514,119.235668 C135.336514,121.153989 133.780234,122.772573 131.804955,122.772573 L131.804955,122.772573 Z" id="Shape" fill="#333333"></path>
                                </g>
                                <rect id="Rectangle-path" fill="#FFFFFF" sketch:type="MSShapeGroup" x="9.81653616" y="38.3064815" width="134.498517" height="34.7695763"></rect>
                                <rect id="Rectangle-path" fill="#B3B3B3" sketch:type="MSShapeGroup" x="9.81653616" y="36.1483699" width="134.498517" height="4.43611836"></rect>
                                <g id="Group" transform="translate(9.577108, 82.727613)" sketch:type="MSShapeGroup">
                                    <path d="M33.8790211,22.2405393 L3.71112953,22.2405393 C1.79570783,22.2405393 0.179570783,20.6219556 0.179570783,18.7036342 L0.179570783,4.01648554 C0.179570783,2.09816409 1.79570783,0.479580363 3.71112953,0.479580363 L33.8790211,0.479580363 C35.7944428,0.479580363 37.4105799,2.09816409 37.4105799,4.01648554 L37.4105799,18.7036342 C37.4105799,20.6219556 35.7944428,22.2405393 33.8790211,22.2405393 L33.8790211,22.2405393 Z" id="Shape" fill="#4D4D4D"></path>
                                    <path d="M82.8419881,22.2405393 L52.6740965,22.2405393 C50.7586748,22.2405393 49.1425377,20.6219556 49.1425377,18.7036342 L49.1425377,4.01648554 C49.1425377,2.09816409 50.7586748,0.479580363 52.6740965,0.479580363 L82.8419881,0.479580363 C84.7574098,0.479580363 86.3735469,2.09816409 86.3735469,4.01648554 L86.3735469,18.7036342 C86.3735469,20.6219556 84.7574098,22.2405393 82.8419881,22.2405393 L82.8419881,22.2405393 Z" id="Shape" fill="#4D4D4D"></path>
                                    <path d="M131.804955,22.2405393 L101.637063,22.2405393 C99.7216418,22.2405393 98.1055047,20.6219556 98.1055047,18.7036342 L98.1055047,4.01648554 C98.1055047,2.09816409 99.7216418,0.479580363 101.637063,0.479580363 L131.804955,0.479580363 C133.720377,0.479580363 135.336514,2.09816409 135.336514,4.01648554 L135.336514,18.7036342 C135.336514,20.6219556 133.780234,22.2405393 131.804955,22.2405393 L131.804955,22.2405393 Z" id="Shape" fill="#FC8442"></path>
                                    <path d="M33.8790211,55.8111648 L3.71112953,55.8111648 C1.79570783,55.8111648 0.179570783,54.192581 0.179570783,52.2742596 L0.179570783,37.587111 C0.179570783,35.6687895 1.79570783,34.0502058 3.71112953,34.0502058 L33.8790211,34.0502058 C35.7944428,34.0502058 37.4105799,35.6687895 37.4105799,37.587111 L37.4105799,52.2742596 C37.4105799,54.192581 35.7944428,55.8111648 33.8790211,55.8111648 L33.8790211,55.8111648 Z" id="Shape" fill="#4D4D4D"></path>
                                    <path d="M82.8419881,55.8111648 L52.6740965,55.8111648 C50.7586748,55.8111648 49.1425377,54.192581 49.1425377,52.2742596 L49.1425377,37.587111 C49.1425377,35.6687895 50.7586748,34.0502058 52.6740965,34.0502058 L82.8419881,34.0502058 C84.7574098,34.0502058 86.3735469,35.6687895 86.3735469,37.587111 L86.3735469,52.2742596 C86.3735469,54.192581 84.7574098,55.8111648 82.8419881,55.8111648 L82.8419881,55.8111648 Z" id="Shape" fill="#4D4D4D"></path>
                                    <path d="M131.804955,55.8111648 L101.637063,55.8111648 C99.7216418,55.8111648 98.1055047,54.192581 98.1055047,52.2742596 L98.1055047,37.587111 C98.1055047,35.6687895 99.7216418,34.0502058 101.637063,34.0502058 L131.804955,34.0502058 C133.720377,34.0502058 135.336514,35.6687895 135.336514,37.587111 L135.336514,52.2742596 C135.336514,54.192581 133.780234,55.8111648 131.804955,55.8111648 L131.804955,55.8111648 Z" id="Shape" fill="#4D4D4D"></path>
                                    <path d="M33.8790211,89.3218426 L3.71112953,89.3218426 C1.79570783,89.3218426 0.179570783,87.7032589 0.179570783,85.7849375 L0.179570783,71.0977888 C0.179570783,69.1794674 1.79570783,67.5608837 3.71112953,67.5608837 L33.8790211,67.5608837 C35.7944428,67.5608837 37.4105799,69.1794674 37.4105799,71.0977888 L37.4105799,85.7849375 C37.4105799,87.7632065 35.7944428,89.3218426 33.8790211,89.3218426 L33.8790211,89.3218426 Z" id="Shape" fill="#4D4D4D"></path>
                                    <path d="M82.8419881,89.3218426 L52.6740965,89.3218426 C50.7586748,89.3218426 49.1425377,87.7032589 49.1425377,85.7849375 L49.1425377,71.0977888 C49.1425377,69.1794674 50.7586748,67.5608837 52.6740965,67.5608837 L82.8419881,67.5608837 C84.7574098,67.5608837 86.3735469,69.1794674 86.3735469,71.0977888 L86.3735469,85.7849375 C86.3735469,87.7632065 84.7574098,89.3218426 82.8419881,89.3218426 L82.8419881,89.3218426 Z" id="Shape" fill="#4D4D4D"></path>
                                    <path d="M33.8790211,122.892468 L3.71112953,122.892468 C1.79570783,122.892468 0.179570783,121.273884 0.179570783,119.355563 L0.179570783,104.668414 C0.179570783,102.750093 1.79570783,101.131509 3.71112953,101.131509 L33.8790211,101.131509 C35.7944428,101.131509 37.4105799,102.750093 37.4105799,104.668414 L37.4105799,119.355563 C37.4105799,121.333832 35.7944428,122.892468 33.8790211,122.892468 L33.8790211,122.892468 Z" id="Shape" fill="#4D4D4D"></path>
                                    <path d="M82.8419881,122.892468 L52.6740965,122.892468 C50.7586748,122.892468 49.1425377,121.273884 49.1425377,119.355563 L49.1425377,104.668414 C49.1425377,102.750093 50.7586748,101.131509 52.6740965,101.131509 L82.8419881,101.131509 C84.7574098,101.131509 86.3735469,102.750093 86.3735469,104.668414 L86.3735469,119.355563 C86.3735469,121.333832 84.7574098,122.892468 82.8419881,122.892468 L82.8419881,122.892468 Z" id="Shape" fill="#4D4D4D"></path>
                                    <path d="M131.804955,122.892468 L101.637063,122.892468 C99.7216418,122.892468 98.1055047,121.273884 98.1055047,119.355563 L98.1055047,71.6373168 C98.1055047,69.7189953 99.7216418,68.1004116 101.637063,68.1004116 L131.804955,68.1004116 C133.720377,68.1004116 135.336514,69.7189953 135.336514,71.6373168 L135.336514,119.355563 C135.336514,121.333832 133.780234,122.892468 131.804955,122.892468 L131.804955,122.892468 Z" id="Shape" fill="#4D4D4D"></path>
                                </g>
                                <text id="£" fill="#000000" sketch:type="MSTextLayer" font-family="Helvetica" font-size="24.9403863" font-weight="normal">
                                    <tspan x="16.6600386" y="65.4194376">£</tspan>
                                </text>
                                <rect id="Rectangle-path" fill="#AC29B5" sketch:type="MSShapeGroup" x="38.3682907" y="44.0614459" width="12.8692395" height="23.3195952"></rect>
                            </g>
                            <g id="hand-shadow" opacity="0.25" transform="translate(126.697164, 158.061695)">
                                <path d="M7.18283134,11.3300861 C3.35198796,15.166729 3.53155874,21.5811163 7.60182983,25.6575494 L14.5452335,32.6114647 L28.4320407,18.7036342 L21.4886371,11.7497189 C17.418366,7.67328581 11.0136747,7.49344317 7.18283134,11.3300861 L7.18283134,11.3300861 Z" id="Shape" fill="#000000" sketch:type="MSShapeGroup"></path>
                                <path d="M190.584458,57.7894338 L137.132222,4.25627572 C137.072365,4.19632818 137.012508,4.13638063 136.892794,4.07643309 C136.832937,4.01648554 136.77308,3.89659045 136.653366,3.83664291 C131.984526,-0.839265636 124.681981,-1.07905582 120.252568,3.35706254 C117.499149,6.11464963 116.541438,10.0112401 117.379435,13.7279879 L113.847877,16.1858373 C108.221326,11.3300861 100.020926,11.3300861 94.9929445,16.3656799 C91.0423872,20.3222179 90.2043902,26.2570249 92.3592396,31.3525662 L89.545964,33.3308352 L89.545964,33.3308352 C83.9194128,27.695766 75.1204444,27.4559758 69.8530348,32.7313598 C65.6630498,36.927688 64.9447667,43.4619704 67.6981854,48.7373544 L65.2440513,50.4758332 L24.062485,9.23192199 C18.4359338,3.59685272 9.63696538,3.35706254 4.36955573,8.63244654 C-0.897853917,13.9078305 -0.658426206,22.7201197 4.96812501,28.355189 C4.96812501,28.355189 63.9271989,87.4035212 93.7958059,117.317346 L90.6832457,117.437241 L70.6311748,97.3548137 C60.6949248,87.4035212 47.8855423,88.0029966 39.0267169,95.9160726 L89.605821,146.571749 L90.0248194,146.511801 C96.9083661,151.787185 114.207018,161.738477 130.72753,145.192955 C152.036597,123.851629 191.302741,84.526039 191.302741,84.526039 C198.485573,77.3323336 198.126431,65.3428245 190.584458,57.7894338 L190.584458,57.7894338 Z M14.5452335,32.6114647 L7.60182983,25.6575494 C3.53155874,21.5811163 3.35198796,15.166729 7.18283134,11.3300861 C11.0136747,7.49344317 17.418366,7.67328581 21.4886371,11.7497189 L28.4320407,18.7036342 L14.5452335,32.6114647 L14.5452335,32.6114647 Z M55.1880875,111.922067 L40.3435694,97.055076 C41.6604218,95.73623 43.8152712,95.7961775 45.1919805,97.1749711 L57.5823646,109.584113 L55.1880875,111.922067 L55.1880875,111.922067 Z" id="Shape" fill="#000000" sketch:type="MSShapeGroup"></path>
                            </g>
                            <g id="Group" transform="translate(115.922917, 156.862744)">
                                <path d="M4.36955573,8.75234163 C-0.897853917,14.0277256 -0.658426206,22.8400148 4.96812501,28.4750841 L110.67546,134.342449 C116.302011,139.917571 120.61171,135.721243 125.879119,130.445859 C131.146529,125.170475 135.336514,120.794304 129.76982,115.219182 L24.062485,9.35181708 C18.4957907,3.71674781 9.69682231,3.41701009 4.36955573,8.75234163 L4.36955573,8.75234163 Z" id="Shape" fill="#E0B487" sketch:type="MSShapeGroup"></path>
                                <path d="M69.9128917,32.8512549 C64.6454821,38.1266389 64.8849098,46.938928 70.511461,52.5739973 C76.1380122,58.2090666 84.9369806,58.4488568 90.2043902,53.1734728 C95.4717999,47.8980888 95.2323722,39.0857996 89.605821,33.4507303 C83.9792697,27.8156611 75.1803013,27.5159233 69.9128917,32.8512549 L69.9128917,32.8512549 Z" id="Shape" fill="#E0B487" sketch:type="MSShapeGroup"></path>
                                <path d="M95.0528014,16.485575 C89.7853917,21.760959 90.0248194,30.6331957 95.6513707,36.2083174 C101.277922,41.8433867 110.07689,42.0831769 115.3443,36.8077929 C120.61171,31.5324089 120.372282,22.7201197 114.745731,17.0850504 C109.119179,11.4499812 100.320211,11.210191 95.0528014,16.485575 L95.0528014,16.485575 Z" id="Shape" fill="#E0B487" sketch:type="MSShapeGroup"></path>
                                <path d="M120.252568,3.47695763 C115.883012,7.85312845 116.062583,15.2266765 120.731423,19.9025851 C125.400264,24.5784936 132.762666,24.8182838 137.132222,20.3821654 C141.501777,16.0059946 141.322207,8.63244654 136.653366,3.956538 C131.984526,-0.719370545 124.681981,-0.899213181 120.252568,3.47695763 L120.252568,3.47695763 Z" id="Shape" fill="#E0B487" sketch:type="MSShapeGroup"></path>
                                <path d="M7.18283134,11.5099287 C3.35198796,15.3465716 3.53155874,21.760959 7.60182983,25.8373921 L14.5452335,32.7913073 L28.4320407,18.8834768 L21.4886371,11.9295615 C17.418366,7.85312845 11.0136747,7.67328581 7.18283134,11.5099287 L7.18283134,11.5099287 Z" id="Shape" fill="#EFC6A0" sketch:type="MSShapeGroup"></path>
                                <path d="M191.362598,84.6459341 C191.362598,84.6459341 152.096454,123.971524 130.787387,145.31285 C109.478321,166.654176 86.9721161,143.994004 86.9721161,143.994004 L61.6526357,118.636192 L96.190083,117.317346 L45.8504067,64.2038211 L119.235,12.4690894 C126.357975,5.33533154 129.470535,-3.17721991 137.012508,4.37617081 L190.464744,57.9093289 C198.126431,65.5226671 198.485573,77.5121762 191.362598,84.6459341 L191.362598,84.6459341 Z" id="Shape" fill="#E0B487" sketch:type="MSShapeGroup"></path>
                            </g>
                        </g>
                    </g>
                </g>
            </g>
        </g>
    </g>
</svg>