<?xml version="1.0" encoding="UTF-8" standalone="no"?><svg width="566px" height="98px" viewBox="0 0 566 98" version="1.1" xmlns="http://www.w3.org/2000/svg" xmlns:xlink="http://www.w3.org/1999/xlink" xmlns:sketch="http://www.bohemiancoding.com/sketch/ns">        <title>logo</title>    <desc>Created with Sketch.</desc>    <defs></defs>    <g id="Page-1" stroke="none" stroke-width="1" fill="none" fill-rule="evenodd" sketch:type="MSPage">        <g id="logo" sketch:type="MSLayerGroup" fill="#FFFFFF">            <g id="Group" sketch:type="MSShapeGroup">                <path d="M198.5,2.1 L178.9,2.1 L178.9,19.1 L172.3,19.1 L172.3,36.5 L178.9,36.5 L178.9,60.9 C178.9,73.4 184.8,79.6 197,79.6 C202.2,79.6 206.4,78.5 210.4,76.1 L211.4,75.5 L211.4,58.5 L208.5,60.1 C206.4,61.3 204.1,61.8 201.7,61.8 C199.3,61.8 198.6,61 198.6,58.4 L198.6,36.6 L211.7,36.6 L211.7,19.2 L198.6,19.2 L198.6,2.1 L198.5,2.1 Z" id="Shape"></path>                <path d="M96,52 C96,56.3 94.6,61.4 88.1,61.4 C83.1,61.4 80.5,58.2 80.5,52 L80.5,19.1 L60.9,19.1 L60.9,57 C60.9,70.9 68.9,79.6 81.7,79.6 C87.5,79.6 92.4,77.5 96.7,73.2 L102.1,78.6 L115.7,78.6 L115.7,19.1 L96,19.1 L96,52 L96,52 Z" id="Shape"></path>                <rect id="Rectangle-path" x="301.9" y="19.1" width="19.7" height="59.5"></rect>                <path d="M267.9,31.8 L251.7,48 L274,48 C271.1,54.5 264.6,59 257,59 C246.7,59 238.3,50.6 238.3,40.3 C238.3,30 246.6,21.6 257,21.6 C260.7,21.6 264.2,22.7 267.1,24.6 L282.1,9.6 C275.2,4 266.5,0.6 256.9,0.6 C235,0.6 217.2,18.4 217.2,40.3 C217.2,62.2 235,80 256.9,80 C278.8,80 296.6,62.2 296.6,40.3 C296.6,37.3 296.3,34.5 295.7,31.7 L267.9,31.7 L267.9,31.8 Z" id="Shape"></path>                <rect id="Rectangle-path" x="301.9" y="2.1" width="19.7" height="12"></rect>                <path d="M151.1,42 L149.3,41.4 C144.7,39.9 140.4,38.4 140.4,36.5 L140.4,36.3 C140.4,34.4 142.8,33.7 145,33.7 C148.2,33.7 152.4,35 157,37.3 L168.3,26 L167.4,25.4 C161,21.1 152.8,18.5 145.3,18.5 C132,18.5 123.1,26.3 123.1,38 L123.1,38.2 C123.1,49.8 132.2,54.1 141.1,56.7 C141.8,56.9 142.6,57.1 143.3,57.4 C148,58.8 152,60 152,62.1 L152,62.3 C152,64.7 149,65.2 146.5,65.2 C141.7,65.2 136.1,63.2 130.7,59.6 L119.9,70.4 L119.7,70.6 L120.7,71.4 C128,77.2 137,80.3 146.1,80.3 C160.6,80.3 169.3,72.9 169.3,60.5 L169.3,60.3 C169.3,48 157.4,44.1 151.1,42" id="Shape"></path>                <path d="M34,50.8 C34,57.7 31.5,60.9 26.2,60.9 C22.1,60.9 18.6,58.9 14.4,54.3 L13.6,53.5 L0.3,66.8 L1.4,68.1 C7.9,75.8 16.4,79.7 26.6,79.7 C44.2,79.7 54.3,69.5 54.3,51.6 L54.3,2.2 L34,2.2 L34,50.8 L34,50.8 Z" id="Shape"></path>                <path d="M521.9,24.1 C517.2,20 511.9,18 505.3,18 C492,18 478.5,27.6 478.5,46.1 L478.5,46.3 C478.5,64.8 492,74.4 505.3,74.4 C511.6,74.4 516.6,72.6 521.1,68.7 C520.3,75.7 516,80.4 507.6,80.4 C502.5,80.4 498.1,79.5 493.5,77.4 L480.7,90.2 L482.5,91.2 C490,95.2 498.8,97.3 508.1,97.3 C530.7,97.3 541.3,85.8 541.3,64.3 L541.3,19.1 L527,19.1 L521.9,24.1 L521.9,24.1 Z M522.5,46.4 C522.5,53.3 517.2,58.2 509.9,58.2 C502.5,58.2 497.4,53.3 497.4,46.4 L497.4,46.2 C497.4,39.3 502.7,34.4 509.9,34.4 C517.2,34.4 522.5,39.4 522.5,46.2 L522.5,46.4 L522.5,46.4 Z" id="Shape"></path>                <path d="M545.2,21.8 L548,21.8 L548,28.6 L551.2,28.6 L551.2,21.8 L554,21.8 L554,19.1 L545.2,19.1 L545.2,21.8 Z" id="Shape"></path>                <path d="M562.3,19.1 L560.3,22.4 L558.3,19.1 L555,19.1 L555,28.6 L558.1,28.6 L558.1,23.9 L559.5,26.1 L561.1,26.1 L562.5,23.9 L562.5,28.6 L565.7,28.6 L565.7,19.1 L562.3,19.1 Z" id="Shape"></path>                <rect id="Rectangle-path" x="392.9" y="19.1" width="19.6" height="59.5"></rect>                <path d="M357.5,52.2 L346.4,19.1 L325.5,19.1 L348.7,78.6 L348.9,79 L365.8,79 L389.2,19.1 L368.6,19.1 L357.5,52.2 Z" id="Shape"></path>                <path d="M452.7,18 C446.9,18 442,20.1 437.7,24.4 L432.3,19 L418.7,19 L418.7,78.5 L438.3,78.5 L438.3,45.5 C438.3,41.2 439.7,36.1 446.2,36.1 C451.2,36.1 453.8,39.2 453.8,45.5 L453.8,78.5 L473.5,78.5 L473.5,40.6 C473.5,26.7 465.5,18 452.7,18" id="Shape"></path>                <rect id="Rectangle-path" x="392.9" y="2.1" width="19.6" height="12"></rect>            </g>        </g>    </g></svg>